<?xml version="1.0" encoding="UTF-8" standalone="no" ?>
<!DOCTYPE svg PUBLIC "-//W3C//DTD SVG 1.1//EN" "http://www.w3.org/Graphics/SVG/1.1/DTD/svg11.dtd">
<svg xmlns="http://www.w3.org/2000/svg" xmlns:xlink="http://www.w3.org/1999/xlink" version="1.1" width="1080" height="1080" viewBox="0 0 1080 1080" xml:space="preserve">
<desc>Created with Fabric.js 5.2.4</desc>
<defs>
</defs>
<g transform="matrix(1 0 0 1 540 540)" id="e642b775-a0da-417a-8347-b26424603f1d"  >
<rect style="stroke: none; stroke-width: 1; stroke-dasharray: none; stroke-linecap: butt; stroke-dashoffset: 0; stroke-linejoin: miter; stroke-miterlimit: 4; fill: rgb(255,255,255); fill-rule: nonzero; opacity: 1; visibility: hidden;" vector-effect="non-scaling-stroke"  x="-540" y="-540" rx="0" ry="0" width="1080" height="1080" />
</g>
<g transform="matrix(1 0 0 1 540 540)" id="56c458bc-0703-47c9-807b-40c6c8945f92"  >
</g>
<g transform="matrix(10.39 0 0 10.39 540 540)"  >
<g style="" vector-effect="non-scaling-stroke"   >
		<g transform="matrix(1 0 0 1 0 0)"  >
<path style="stroke: none; stroke-width: 1; stroke-dasharray: none; stroke-linecap: butt; stroke-dashoffset: 0; stroke-linejoin: miter; stroke-miterlimit: 4; fill: rgb(226,226,226); fill-rule: nonzero; opacity: 1;" vector-effect="non-scaling-stroke"  transform=" translate(-50, -50)" d="M 94.92371 5.61914 C 94.76891018378672 5.2453073788583175 94.40461406031048 5.001128684366451 94 5 L 30 5 C 29.734907593830005 5.000701774218605 29.480795373110897 5.105958099709426 29.29285 5.29291 L 5.292850000000001 29.29291 C 5.106179773253071 29.481139930557777 5.0009975215864415 29.735215139125216 5 30.00031 L 5 94 C 5 94.55228474983079 5.447715250169207 95 6 95 L 70 95 L 70.0105 94.99786 C 70.27184897529561 94.99606507617932 70.5220251380788 94.89163675700668 70.70709 94.70709000000001 L 94.70709 70.70709000000001 C 94.89332142590322 70.51868986933621 94.99845131639366 70.26490442579762 95 70 L 95 6 C 94.99968954267042 5.869282403192728 94.97377137352952 5.739891999483075 94.92371 5.61914 Z M 29.06958 8.3446 C 29.234784664265224 8.799511871636687 29.703334446747856 9.06959241315714 30.17978350219431 8.984541313133908 C 30.656232557640767 8.899490213110676 31.00239635632806 8.483974843899277 31 8 L 31 7 L 91.58575 7 L 69.58575 29 L 8.41418 29 Z M 8.30005 93 C 8.449607618106755 92.62846247220233 8.362874026067654 92.20352133839164 8.079677793109902 91.92031203534121 C 7.79648156015215 91.6371027322908 7.371544429636536 91.55034952888322 7 91.69989 L 7 31 L 29 31 L 29 32 C 29 32.5522847498308 29.447715250169207 33 30 33 C 30.552284749830793 33 31 32.5522847498308 31 32 L 31 31 L 69 31 L 69 69 L 68 69 C 67.44771525016921 69 67 69.44771525016921 67 70 C 67 70.55228474983079 67.44771525016921 71 68 71 L 69 71 L 69 93 Z M 71 30.41418 L 92.99994 8.41425 L 93 69 L 92 69 C 91.51604527853324 68.99762531040655 91.10055367776533 69.34377262353044 91.01548939025062 69.82019877580406 C 90.93042510273591 70.29662492807769 91.20045611768735 70.7651699991817 91.65533 70.93042 L 71 91.58575 Z" stroke-linecap="round" />
</g>
		<g transform="matrix(1 0 0 1 -20 13)"  >
<path style="stroke: none; stroke-width: 1; stroke-dasharray: none; stroke-linecap: butt; stroke-dashoffset: 0; stroke-linejoin: miter; stroke-miterlimit: 4; fill: rgb(226,226,226); fill-rule: nonzero; opacity: 1;" vector-effect="non-scaling-stroke"  transform=" translate(-30, -63)" d="M 30 61 C 29.447715250169207 61 29 61.4477152501692 29 62 L 29 64 C 29 64.55228474983079 29.447715250169207 65 30 65 C 30.552284749830793 65 31 64.55228474983079 31 64 L 31 62 C 31 61.4477152501692 30.552284749830793 61 30 61 Z" stroke-linecap="round" />
</g>
		<g transform="matrix(1 0 0 1 -20 5)"  >
<path style="stroke: none; stroke-width: 1; stroke-dasharray: none; stroke-linecap: butt; stroke-dashoffset: 0; stroke-linejoin: miter; stroke-miterlimit: 4; fill: rgb(226,226,226); fill-rule: nonzero; opacity: 1;" vector-effect="non-scaling-stroke"  transform=" translate(-30, -55)" d="M 30 53 C 29.447715250169207 53 29 53.4477152501692 29 54 L 29 56 C 29 56.5522847498308 29.447715250169207 57 30 57 C 30.552284749830793 57 31 56.5522847498308 31 56 L 31 54 C 31 53.4477152501692 30.552284749830793 53 30 53 Z" stroke-linecap="round" />
</g>
		<g transform="matrix(1 0 0 1 -20 -35)"  >
<path style="stroke: none; stroke-width: 1; stroke-dasharray: none; stroke-linecap: butt; stroke-dashoffset: 0; stroke-linejoin: miter; stroke-miterlimit: 4; fill: rgb(226,226,226); fill-rule: nonzero; opacity: 1;" vector-effect="non-scaling-stroke"  transform=" translate(-30, -15)" d="M 30 17 C 30.552284749830793 17 31 16.552284749830793 31 16 L 31 14 C 31 13.447715250169207 30.552284749830793 13 30 13 C 29.447715250169207 13 29 13.447715250169207 29 14 L 29 16 C 29 16.552284749830793 29.447715250169207 17 30 17 Z" stroke-linecap="round" />
</g>
		<g transform="matrix(1 0 0 1 -20 -3)"  >
<path style="stroke: none; stroke-width: 1; stroke-dasharray: none; stroke-linecap: butt; stroke-dashoffset: 0; stroke-linejoin: miter; stroke-miterlimit: 4; fill: rgb(226,226,226); fill-rule: nonzero; opacity: 1;" vector-effect="non-scaling-stroke"  transform=" translate(-30, -47)" d="M 30 45 C 29.447715250169207 45 29 45.4477152501692 29 46 L 29 48 C 29 48.5522847498308 29.447715250169207 49 30 49 C 30.552284749830793 49 31 48.5522847498308 31 48 L 31 46 C 31 45.4477152501692 30.552284749830793 45 30 45 Z" stroke-linecap="round" />
</g>
		<g transform="matrix(1 0 0 1 -20 -27)"  >
<path style="stroke: none; stroke-width: 1; stroke-dasharray: none; stroke-linecap: butt; stroke-dashoffset: 0; stroke-linejoin: miter; stroke-miterlimit: 4; fill: rgb(226,226,226); fill-rule: nonzero; opacity: 1;" vector-effect="non-scaling-stroke"  transform=" translate(-30, -23)" d="M 31 24 L 31 22 C 31 21.447715250169207 30.552284749830793 21 30 21 C 29.447715250169207 21 29 21.447715250169207 29 22 L 29 24 C 29 24.552284749830793 29.447715250169207 25 30 25 C 30.552284749830793 25 31 24.552284749830793 31 24 Z" stroke-linecap="round" />
</g>
		<g transform="matrix(1 0 0 1 -20 -11)"  >
<path style="stroke: none; stroke-width: 1; stroke-dasharray: none; stroke-linecap: butt; stroke-dashoffset: 0; stroke-linejoin: miter; stroke-miterlimit: 4; fill: rgb(226,226,226); fill-rule: nonzero; opacity: 1;" vector-effect="non-scaling-stroke"  transform=" translate(-30, -39)" d="M 30 37 C 29.447715250169207 37 29 37.4477152501692 29 38 L 29 40 C 29 40.5522847498308 29.447715250169207 41 30 41 C 30.552284749830793 41 31 40.5522847498308 31 40 L 31 38 C 31 37.4477152501692 30.552284749830793 37 30 37 Z" stroke-linecap="round" />
</g>
		<g transform="matrix(1 0 0 1 3 20)"  >
<path style="stroke: none; stroke-width: 1; stroke-dasharray: none; stroke-linecap: butt; stroke-dashoffset: 0; stroke-linejoin: miter; stroke-miterlimit: 4; fill: rgb(226,226,226); fill-rule: nonzero; opacity: 1;" vector-effect="non-scaling-stroke"  transform=" translate(-53, -70)" d="M 54 69 L 52 69 C 51.4477152501692 69 51 69.44771525016921 51 70 C 51 70.55228474983079 51.4477152501692 71 52 71 L 54 71 C 54.5522847498308 71 55 70.55228474983079 55 70 C 55 69.44771525016921 54.5522847498308 69 54 69 Z" stroke-linecap="round" />
</g>
		<g transform="matrix(1 0 0 1 11 20)"  >
<path style="stroke: none; stroke-width: 1; stroke-dasharray: none; stroke-linecap: butt; stroke-dashoffset: 0; stroke-linejoin: miter; stroke-miterlimit: 4; fill: rgb(226,226,226); fill-rule: nonzero; opacity: 1;" vector-effect="non-scaling-stroke"  transform=" translate(-61, -70)" d="M 62 69 L 60 69 C 59.4477152501692 69 59 69.44771525016921 59 70 C 59 70.55228474983079 59.4477152501692 71 60 71 L 62 71 C 62.5522847498308 71 63 70.55228474983079 63 70 C 63 69.44771525016921 62.5522847498308 69 62 69 Z" stroke-linecap="round" />
</g>
		<g transform="matrix(1 0 0 1 27 20)"  >
<path style="stroke: none; stroke-width: 1; stroke-dasharray: none; stroke-linecap: butt; stroke-dashoffset: 0; stroke-linejoin: miter; stroke-miterlimit: 4; fill: rgb(226,226,226); fill-rule: nonzero; opacity: 1;" vector-effect="non-scaling-stroke"  transform=" translate(-77, -70)" d="M 78 69 L 76 69 C 75.44771525016921 69 75 69.44771525016921 75 70 C 75 70.55228474983079 75.44771525016921 71 76 71 L 78 71 C 78.55228474983079 71 79 70.55228474983079 79 70 C 79 69.44771525016921 78.55228474983079 69 78 69 Z" stroke-linecap="round" />
</g>
		<g transform="matrix(1 0 0 1 35 20)"  >
<path style="stroke: none; stroke-width: 1; stroke-dasharray: none; stroke-linecap: butt; stroke-dashoffset: 0; stroke-linejoin: miter; stroke-miterlimit: 4; fill: rgb(226,226,226); fill-rule: nonzero; opacity: 1;" vector-effect="non-scaling-stroke"  transform=" translate(-85, -70)" d="M 86 69 L 84 69 C 83.44771525016921 69 83 69.44771525016921 83 70 C 83 70.55228474983079 83.44771525016921 71 84 71 L 86 71 C 86.55228474983079 71 87 70.55228474983079 87 70 C 87 69.44771525016921 86.55228474983079 69 86 69 Z" stroke-linecap="round" />
</g>
		<g transform="matrix(1 0 0 1 -5 20)"  >
<path style="stroke: none; stroke-width: 1; stroke-dasharray: none; stroke-linecap: butt; stroke-dashoffset: 0; stroke-linejoin: miter; stroke-miterlimit: 4; fill: rgb(226,226,226); fill-rule: nonzero; opacity: 1;" vector-effect="non-scaling-stroke"  transform=" translate(-45, -70)" d="M 46 69 L 44 69 C 43.4477152501692 69 43 69.44771525016921 43 70 C 43 70.55228474983079 43.4477152501692 71 44 71 L 46 71 C 46.5522847498308 71 47 70.55228474983079 47 70 C 47 69.44771525016921 46.5522847498308 69 46 69 Z" stroke-linecap="round" />
</g>
		<g transform="matrix(1 0 0 1 -13 20)"  >
<path style="stroke: none; stroke-width: 1; stroke-dasharray: none; stroke-linecap: butt; stroke-dashoffset: 0; stroke-linejoin: miter; stroke-miterlimit: 4; fill: rgb(226,226,226); fill-rule: nonzero; opacity: 1;" vector-effect="non-scaling-stroke"  transform=" translate(-37, -70)" d="M 38 69 L 36 69 C 35.4477152501692 69 35 69.44771525016921 35 70 C 35 70.55228474983079 35.4477152501692 71 36 71 L 38 71 C 38.5522847498308 71 39 70.55228474983079 39 70 C 39 69.44771525016921 38.5522847498308 69 38 69 Z" stroke-linecap="round" />
</g>
		<g transform="matrix(1 0 0 1 -20.71 20.71)"  >
<path style="stroke: none; stroke-width: 1; stroke-dasharray: none; stroke-linecap: butt; stroke-dashoffset: 0; stroke-linejoin: miter; stroke-miterlimit: 4; fill: rgb(226,226,226); fill-rule: nonzero; opacity: 1;" vector-effect="non-scaling-stroke"  transform=" translate(-29.29, -70.71)" d="M 30.92279 69.6178 C 30.795327412164195 69.31042508052708 30.52322879939812 69.08665956013714 30.19702525042113 69.02095341846373 C 29.870821701444143 68.95524727679035 29.533311836236653 69.05622130351121 29.296789999999998 69.29028 L 29.292789999999997 69.29290999999999 L 27.8786 70.70709 C 27.48808221481839 71.0976243537241 27.488095646275895 71.7307922148184 27.878629999999994 72.12131 C 28.269164353724094 72.51182778518161 28.90233221481839 72.5118143537241 29.292849999999998 72.12128 L 30.707089999999997 70.70709 C 30.991594229689454 70.42045779750802 31.076590469954056 69.99122481392979 30.92279 69.61779999999999 Z" stroke-linecap="round" />
</g>
		<g transform="matrix(1 0 0 1 -26.36 26.36)"  >
<path style="stroke: none; stroke-width: 1; stroke-dasharray: none; stroke-linecap: butt; stroke-dashoffset: 0; stroke-linejoin: miter; stroke-miterlimit: 4; fill: rgb(226,226,226); fill-rule: nonzero; opacity: 1;" vector-effect="non-scaling-stroke"  transform=" translate(-23.64, -76.36)" d="M 23.636 74.94971 L 22.22174 76.364 C 21.83414972216666 76.75503316523879 21.835557671061444 77.38581101260571 22.224889715552877 77.77511002226242 C 22.61422176004431 78.16440903191915 23.24499972460997 78.16576345702046 23.636 77.77814 L 25.05023 76.364 C 25.4407753994191 75.9734711691234 25.440788830876606 75.3402853994191 25.050260000000005 74.94974 C 24.6597311691234 74.5591946005809 24.0265453994191 74.55918116912339 23.636 74.94971 Z" stroke-linecap="round" />
</g>
		<g transform="matrix(1 0 0 1 -32.02 32.02)"  >
<path style="stroke: none; stroke-width: 1; stroke-dasharray: none; stroke-linecap: butt; stroke-dashoffset: 0; stroke-linejoin: miter; stroke-miterlimit: 4; fill: rgb(226,226,226); fill-rule: nonzero; opacity: 1;" vector-effect="non-scaling-stroke"  transform=" translate(-17.98, -82.02)" d="M 17.97913 80.60657 L 16.564880000000002 82.02081000000001 C 16.1743622148184 82.41134435372412 16.17437564627591 83.04451221481841 16.56491000000001 83.43503000000001 C 16.955444353724108 83.82554778518161 17.5886122148184 83.8255343537241 17.97913 83.435 L 19.39337 82.02081 C 19.645999643935863 81.76818035606414 19.744662750953598 81.39996462784134 19.652193883524056 81.05486611647595 C 19.559725016094514 80.70976760511054 19.29017239488946 80.44021498390548 18.945073883524056 80.34774611647595 C 18.599975372158653 80.2552772490464 18.231759643935863 80.35394035606413 17.97913 80.60656999999999 Z" stroke-linecap="round" />
</g>
		<g transform="matrix(1 0 0 1 -37.68 37.68)"  >
<path style="stroke: none; stroke-width: 1; stroke-dasharray: none; stroke-linecap: butt; stroke-dashoffset: 0; stroke-linejoin: miter; stroke-miterlimit: 4; fill: rgb(226,226,226); fill-rule: nonzero; opacity: 1;" vector-effect="non-scaling-stroke"  transform=" translate(-12.32, -87.68)" d="M 12.32227 86.26343 L 10.908 87.67767 C 10.517482214818394 88.06820435372411 10.517495646275897 88.7013722148184 10.908029999999997 89.09189 C 11.298564353724098 89.48240778518162 11.931732214818394 89.48239435372412 12.32225 89.09186000000001 L 13.73649 87.67761000000002 C 13.990054817193814 87.42517014749667 14.089424990487627 87.0564917935538 13.997070738580923 86.7108160961072 C 13.90471648667422 86.36514039866059 13.63471246289485 86.09514782996764 13.289032847490418 86.00280824395878 C 12.943353232085988 85.91046865794992 12.574679094404955 86.00985447289155 12.32225 86.26343000000001 Z" stroke-linecap="round" />
</g>
</g>
</g>
<g transform="matrix(NaN NaN NaN NaN 0 0)"  >
<g style=""   >
</g>
</g>
<g transform="matrix(NaN NaN NaN NaN 0 0)"  >
<g style=""   >
</g>
</g>
<g transform="matrix(NaN NaN NaN NaN 0 0)"  >
<g style=""   >
</g>
</g>
<g transform="matrix(NaN NaN NaN NaN 0 0)"  >
<g style=""   >
</g>
</g>
</svg>