<?xml version="1.0" encoding="UTF-8" standalone="no" ?>
<!DOCTYPE svg PUBLIC "-//W3C//DTD SVG 1.1//EN" "http://www.w3.org/Graphics/SVG/1.1/DTD/svg11.dtd">
<svg xmlns="http://www.w3.org/2000/svg" xmlns:xlink="http://www.w3.org/1999/xlink" version="1.1" width="1080" height="1080" viewBox="0 0 1080 1080" xml:space="preserve">
<desc>Created with Fabric.js 5.2.4</desc>
<defs>
</defs>
<rect x="0" y="0" width="100%" height="100%" fill="transparent"></rect>
<g transform="matrix(1 0 0 1 540 540)" id="54e6f626-ff4d-4913-b48c-18e90b6389e0"  >
</g>
<g transform="matrix(1 0 0 1 540 540)" id="b6a20425-67b2-4379-931f-2947eadf90e7"  >
<rect style="stroke: none; stroke-width: 1; stroke-dasharray: none; stroke-linecap: butt; stroke-dashoffset: 0; stroke-linejoin: miter; stroke-miterlimit: 4; fill: rgb(255,255,255); fill-rule: nonzero; opacity: 1; visibility: hidden;" vector-effect="non-scaling-stroke"  x="-540" y="-540" rx="0" ry="0" width="1080" height="1080" />
</g>
<g transform="matrix(NaN NaN NaN NaN 0 0)"  >
<g style=""   >
</g>
</g>
<g transform="matrix(NaN NaN NaN NaN 0 0)"  >
<g style=""   >
</g>
</g>
<g transform="matrix(53.78 0 0 53.78 540 540)" id="0f7ce902-11a6-48be-a870-f9b1df0270ef"  >
<path style="stroke: rgb(0,0,0); stroke-width: 0; stroke-dasharray: none; stroke-linecap: butt; stroke-dashoffset: 0; stroke-linejoin: miter; stroke-miterlimit: 4; fill: rgb(226,226,226); fill-rule: nonzero; opacity: 1;" vector-effect="non-scaling-stroke"  transform=" translate(-12, -12.25)" d="M 12 9.059 L 12 6.5 C 12 6.244 11.902 5.9879999999999995 11.707 5.792 C 11.512 5.597 11.256 5.5 11 5.5 C 10.744 5.5 10.488 5.597 10.293 5.792 L 4 12 L 10.293 18.207 C 10.488 18.402 10.744 18.5 11 18.5 C 11.256 18.5 11.512 18.402 11.707 18.207 C 11.902000000000001 18.012 12 17.755 12 17.5 L 12 15.011 C 14.75 15.078999999999999 17.755 15.577 20 19 L 20 18 C 20 13.367 16.5 9.557 12 9.059 z" stroke-linecap="round" />
</g>
<g transform="matrix(NaN NaN NaN NaN 0 0)"  >
<g style=""   >
</g>
</g>
</svg>