<?xml version="1.0" encoding="UTF-8" standalone="no" ?>
<!DOCTYPE svg PUBLIC "-//W3C//DTD SVG 1.1//EN" "http://www.w3.org/Graphics/SVG/1.1/DTD/svg11.dtd">
<svg xmlns="http://www.w3.org/2000/svg" xmlns:xlink="http://www.w3.org/1999/xlink" version="1.1" width="1080" height="1080" viewBox="0 0 1080 1080" xml:space="preserve">
<desc>Created with Fabric.js 5.2.4</desc>
<defs>
</defs>
<rect x="0" y="0" width="100%" height="100%" fill="transparent"></rect>
<g transform="matrix(1 0 0 1 540 540)" id="c3d7497d-0bbb-452e-ab02-473f0b54909d"  >
<rect style="stroke: none; stroke-width: 1; stroke-dasharray: none; stroke-linecap: butt; stroke-dashoffset: 0; stroke-linejoin: miter; stroke-miterlimit: 4; fill: rgb(255,255,255); fill-rule: nonzero; opacity: 1; visibility: hidden;" vector-effect="non-scaling-stroke"  x="-540" y="-540" rx="0" ry="0" width="1080" height="1080" />
</g>
<g transform="matrix(1 0 0 1 540 540)" id="1b9d66bb-3a4d-4c37-b29c-7031603fefa5"  >
</g>
<g transform="matrix(NaN NaN NaN NaN 0 0)"  >
<g style=""   >
</g>
</g>
<g transform="matrix(NaN NaN NaN NaN 0 0)"  >
<g style=""   >
</g>
</g>
<g transform="matrix(NaN NaN NaN NaN 0 0)"  >
<g style=""   >
</g>
</g>
<g transform="matrix(NaN NaN NaN NaN 0 0)"  >
<g style=""   >
</g>
</g>
<g transform="matrix(1.58 0 0 1.58 540 540)" id="c3fdf96c-172c-45ad-b8f9-ab7a5859163f"  >
<path style="stroke: rgb(0,0,0); stroke-width: 0; stroke-dasharray: none; stroke-linecap: butt; stroke-dashoffset: 0; stroke-linejoin: miter; stroke-miterlimit: 4; fill: rgb(226,226,226); fill-rule: nonzero; opacity: 1;" vector-effect="non-scaling-stroke"  transform=" translate(-256.01, -256)" d="M 499.5 332 C 499.5 326.34 496.388 320.87 491.297 317.93 L 444.687 291.02 C 446.8 279.6 448 267.1 448 256 C 448 244.89999999999998 446.758 232.35 444.66 220.98 L 491.27000000000004 194.07 C 496.362 191.129 499.473 185.659 499.473 180 C 499.473 165.9 457.493 80.96 435.613 80.96 C 432.781 80.96 429.925 81.6866 427.367 83.163 L 380.64700000000005 110.143 C 362.9 94.98 342.4 83.1 320 75.16 L 320 21.28 C 320 13.757000000000001 314.838 7.000000000000002 307.47 5.460000000000001 C 290.8 1.977 273.7 0 256 0 C 238.3 0 221.15 1.977 204.52 5.461 C 197.2 7.004 192 13.76 192 21.28 L 192 75.16 C 169.6 83.1 149.1 94.98 131.4 110.1 L 84.63 83.16 C 82.08 81.68 79.22 80.95 76.39 80.95 C 56.67 80.95 12.530000000000001 162.9 12.530000000000001 179.99 C 12.530000000000001 185.65 15.642000000000001 191.12 20.733 194.06 L 67.343 220.97 C 65.24 232.4 64 244 64 256 C 64 268 65.242 279.65 67.34 291.02 L 20.730000000000004 317.93 C 15.638000000000005 320.871 12.527000000000005 326.341 12.527000000000005 332 C 12.527000000000005 346.1 54.507000000000005 431.04 76.387 431.04 C 79.219 431.04 82.075 430.3134 84.633 428.83700000000005 L 131.353 401.857 C 149.1 417 169.6 428.9 192 436.8 L 192 490.68 C 192 498.20300000000003 197.162 504.96 204.53 506.5 C 221.2 510 238.3 512 255.1 512 C 271.9 512 289.95 510.023 306.58 506.539 C 314.8 504.1 320 498.2 320 490.7 L 320 436.82 C 342.42 428.882 362.93 417 380.65 401.85 L 427.37 428.83000000000004 C 429.927 430.307 432.786 431.033 435.616 431.033 C 455.3 431 499.5 349.1 499.5 332 z M 256 336 C 211.89 336 176 300.11 176 256 C 176 211.89 211.9 176 256 176 C 300.1 176 336 211.89 336 256 C 336 300.11 300.1 336 256 336 z" stroke-linecap="round" />
</g>
<g transform="matrix(NaN NaN NaN NaN 0 0)"  >
<g style=""   >
</g>
</g>
</svg>