<?xml version="1.0" encoding="UTF-8" standalone="no" ?>
<!DOCTYPE svg PUBLIC "-//W3C//DTD SVG 1.1//EN" "http://www.w3.org/Graphics/SVG/1.1/DTD/svg11.dtd">
<svg xmlns="http://www.w3.org/2000/svg" xmlns:xlink="http://www.w3.org/1999/xlink" version="1.1" width="1080" height="1080" viewBox="0 0 1080 1080" xml:space="preserve">
<desc>Created with Fabric.js 5.2.4</desc>
<defs>
</defs>
<rect x="0" y="0" width="100%" height="100%" fill="transparent"></rect>
<g transform="matrix(1 0 0 1 540 540)" id="8a54dd8b-e5ff-4e7a-9617-08d4213917d9"  >
<rect style="stroke: none; stroke-width: 1; stroke-dasharray: none; stroke-linecap: butt; stroke-dashoffset: 0; stroke-linejoin: miter; stroke-miterlimit: 4; fill: rgb(255,255,255); fill-rule: nonzero; opacity: 1; visibility: hidden;" vector-effect="non-scaling-stroke"  x="-540" y="-540" rx="0" ry="0" width="1080" height="1080" />
</g>
<g transform="matrix(1 0 0 1 540 540)" id="ea6ec344-e661-4b09-9ef7-b9f62851a133"  >
</g>
<g transform="matrix(NaN NaN NaN NaN 0 0)"  >
<g style=""   >
</g>
</g>
<g transform="matrix(NaN NaN NaN NaN 0 0)"  >
<g style=""   >
</g>
</g>
<g transform="matrix(21.51 0 0 21.51 540 540)"  >
<g style="" vector-effect="non-scaling-stroke"   >
		<g transform="matrix(1 0 0 1 5.22 0)"  >
<path style="stroke: none; stroke-width: 1; stroke-dasharray: none; stroke-linecap: butt; stroke-dashoffset: 0; stroke-linejoin: miter; stroke-miterlimit: 4; fill: rgb(226,226,226); fill-rule: nonzero; opacity: 1;" vector-effect="non-scaling-stroke"  transform=" translate(-31.22, -26)" d="M 50.4159241 17.089447 L 40.1170959 6.7906189 L 35.041107100000005 11.8674011 L 33.774078300000006 10.5993957 L 24.323638800000005 20.057525599999998 L 29.208892700000007 24.945892299999997 C 31.010650500000008 26.7481384 32.003814600000005 29.139739999999996 32.003814600000005 31.679290699999996 C 32.003814600000005 34.218841399999995 31.010650500000004 36.610443 29.207916200000007 38.413665699999996 C 27.418853700000007 40.2149352 25.026275600000005 41.209564099999994 22.474517800000008 41.209564099999994 C 19.92861940000001 41.209564099999994 17.53799440000001 40.21493519999999 15.745025600000009 38.4087828 L 12.1138 34.7797546 C 11.7025451 37.565277099999996 12.599090499999999 40.481842 14.6640319 42.539398199999994 C 16.3740539 44.25936889999999 18.6540221 45.209381099999995 21.0840758 45.209381099999995 C 23.5040587 45.209381099999995 25.784027000000002 44.25936889999999 27.494048900000003 42.539398199999994 L 46.6040343 23.439422599999993 L 45.335296500000005 22.16970819999999 L 50.4159241 17.089447 z M 40.1170959 9.6187439 L 41.2417907 10.7434387 L 39.410064600000005 12.574798600000001 L 40.824127100000005 13.988861100000001 L 42.6558532 12.1575012 L 45.049407900000006 14.551055900000001 L 43.21768180000001 16.3824158 L 44.63174430000001 17.7964783 L 46.463470400000006 15.9651184 L 47.587799000000004 17.089447 L 43.924713100000005 20.7520447 L 36.454986500000004 13.281829899999998 L 40.1170959 9.6187439 z" stroke-linecap="round" />
</g>
		<g transform="matrix(1 0 0 1 -10.21 -1)"  >
<path style="stroke: none; stroke-width: 1; stroke-dasharray: none; stroke-linecap: butt; stroke-dashoffset: 0; stroke-linejoin: miter; stroke-miterlimit: 4; fill: rgb(226,226,226); fill-rule: nonzero; opacity: 1;" vector-effect="non-scaling-stroke"  transform=" translate(-15.79, -25)" d="M 22.4740295 39.2093811 C 24.4840393 39.2093811 26.3740539 38.4294128 27.7940368 36.9994202 C 29.2140197 35.5793763 30.0040588 33.6894226 30.0040588 31.679412900000003 C 30.0040588 29.669403200000005 29.214019699999998 27.779388500000003 27.7940368 26.359405600000002 L 12.2340393 10.7893982 L 1.5840759 21.4294128 L 17.164032 36.9994202 C 18.5740662 38.4194031 20.4640198 39.2093811 22.4740295 39.2093811 z" stroke-linecap="round" />
</g>
</g>
</g>
<g transform="matrix(NaN NaN NaN NaN 0 0)"  >
<g style=""   >
</g>
</g>
</svg>