<?xml version="1.0" encoding="UTF-8" standalone="no" ?>
<!DOCTYPE svg PUBLIC "-//W3C//DTD SVG 1.1//EN" "http://www.w3.org/Graphics/SVG/1.1/DTD/svg11.dtd">
<svg xmlns="http://www.w3.org/2000/svg" xmlns:xlink="http://www.w3.org/1999/xlink" version="1.1" width="1080" height="1080" viewBox="0 0 1080 1080" xml:space="preserve">
<desc>Created with Fabric.js 5.2.4</desc>
<defs>
</defs>
<rect x="0" y="0" width="100%" height="100%" fill="transparent"></rect>
<g transform="matrix(1 0 0 1 540 540)" id="ea6ec344-e661-4b09-9ef7-b9f62851a133"  >
</g>
<g transform="matrix(1 0 0 1 540 540)" id="8a54dd8b-e5ff-4e7a-9617-08d4213917d9"  >
<rect style="stroke: none; stroke-width: 1; stroke-dasharray: none; stroke-linecap: butt; stroke-dashoffset: 0; stroke-linejoin: miter; stroke-miterlimit: 4; fill: rgb(255,255,255); fill-rule: nonzero; opacity: 1; visibility: hidden;" vector-effect="non-scaling-stroke"  x="-540" y="-540" rx="0" ry="0" width="1080" height="1080" />
</g>
<g transform="matrix(0 0 0 0 0 0)"  >
<g style=""   >
</g>
</g>
<g transform="matrix(0 0 0 0 0 0)"  >
<g style=""   >
</g>
</g>
<g transform="matrix(0 0 0 0 0 0)"  >
<g style=""   >
</g>
</g>
<g transform="matrix(0 0 0 0 0 0)"  >
<g style=""   >
</g>
</g>
<g transform="matrix(0 0 0 0 0 0)"  >
<g style=""   >
</g>
</g>
<g transform="matrix(0 0 0 0 0 0)"  >
<g style=""   >
</g>
</g>
<g transform="matrix(0 0 0 0 0 0)"  >
<g style=""   >
</g>
</g>
<g transform="matrix(0 0 0 0 0 0)"  >
<g style=""   >
</g>
</g>
<g transform="matrix(0 0 0 0 0 0)"  >
<g style=""   >
</g>
</g>
<g transform="matrix(0 0 0 0 0 0)"  >
<g style=""   >
</g>
</g>
<g transform="matrix(0 0 0 0 0 0)"  >
<g style=""   >
</g>
</g>
<g transform="matrix(0 0 0 0 0 0)"  >
<g style=""   >
</g>
</g>
<g transform="matrix(0 0 0 0 0 0)"  >
<g style=""   >
</g>
</g>
<g transform="matrix(0 0 0 0 0 0)"  >
<g style=""   >
</g>
</g>
<g transform="matrix(0 0 0 0 0 0)"  >
<g style=""   >
</g>
</g>
<g transform="matrix(0 0 0 0 0 0)"  >
<g style=""   >
</g>
</g>
<g transform="matrix(0 0 0 0 0 0)"  >
<g style=""   >
</g>
</g>
<g transform="matrix(0 0 0 0 0 0)"  >
<g style=""   >
</g>
</g>
<g transform="matrix(0 0 0 0 0 0)"  >
<g style=""   >
</g>
</g>
<g transform="matrix(0 0 0 0 0 0)"  >
<g style=""   >
</g>
</g>
<g transform="matrix(0 0 0 0 0 0)"  >
<g style=""   >
</g>
</g>
<g transform="matrix(0 0 0 0 0 0)"  >
<g style=""   >
</g>
</g>
<g transform="matrix(0 0 0 0 0 0)"  >
<g style=""   >
</g>
</g>
<g transform="matrix(0 0 0 0 0 0)"  >
<g style=""   >
</g>
</g>
<g transform="matrix(0 0 0 0 0 0)"  >
<g style=""   >
</g>
</g>
<g transform="matrix(0 0 0 0 0 0)"  >
<g style=""   >
</g>
</g>
<g transform="matrix(0.5 0 0 0.5 540 540)"  >
<g style="" vector-effect="non-scaling-stroke"   >
		<g transform="matrix(0.13 0 0 -0.13 0 0)"  >
<path style="stroke: none; stroke-width: 1; stroke-dasharray: none; stroke-linecap: butt; stroke-dashoffset: 0; stroke-linejoin: miter; stroke-miterlimit: 4; fill: rgb(226,226,226); fill-rule: nonzero; opacity: 1;" vector-effect="non-scaling-stroke"  transform=" translate(-9025, -9030)" d="M 3475 16445 C 3370 16424 3324 16421 3114 16421 C 2746 16420 2592 16385 2300 16240 C 2109 16146 2085 16130 1972 16035 C 1792 15884 1580 15639 1505 15495 C 1474 15435 1345 15069 1326 14987 C 1322 14972 1315 14915 1310 14860 C 1305 14805 1289 14698 1275 14623 L 1250 14487 L 1250 9030 L 1250 3573 L 1275 3439 C 1289 3365 1305 3244 1310 3170 C 1320 3026 1323 3012 1377 2850 C 1436 2676 1476 2584 1541 2477 C 1623 2342 1675 2274 1784 2161 C 1892 2050 1966 1990 2120 1888 C 2349 1737 2478 1690 2874 1615 L 3003 1590 L 5784 1590 C 8523 1590 8565 1590 8597 1610 C 8615 1620 8637 1641 8647 1657 C 8664 1683 8665 1800 8670 4285 L 8675 6885 L 8714 6990 C 8770 7138 8773 7208 8729 7321 C 8679 7449 8671 7506 8670 7703 C 8670 7928 8686 7977 8770 8000 C 8845 8020 8914 7976 8957 7880 C 8990 7808 9055 7609 9069 7540 C 9088 7450 9116 7411 9204 7352 C 9301 7289 9333 7259 9357 7211 C 9374 7177 9375 7045 9380 4423 L 9385 1670 L 9423 1633 L 9460 1595 L 12223 1592 L 14985 1590 L 15120 1614 C 15194 1627 15291 1643 15335 1650 C 15447 1667 15761 1792 15904 1877 C 16031 1952 16151 2044 16232 2127 C 16263 2159 16340 2255 16404 2340 C 16530 2508 16576 2601 16661 2852 C 16731 3058 16740 3129 16740 3465 C 16740 3750 16741 3766 16770 3928 L 16800 4095 L 16797 6410 L 16795 8725 L 16767 8859 C 16740 8991 16740 9000 16740 9362 C 16740 9728 16740 9732 16770 9897 L 16800 10063 L 16800 11989 L 16800 13916 L 16770 14080 C 16741 14240 16740 14252 16740 14565 C 16740 14924 16736 14961 16671 15150 C 16613 15320 16596 15363 16528 15498 C 16439 15675 16283 15860 16066 16043 C 15978 16118 15917 16156 15750 16240 C 15462 16384 15297 16420 14935 16420 C 14730 16420 14687 16423 14568 16445 L 14432 16470 L 11946 16468 L 9460 16465 L 9423 16427 L 9385 16390 L 9380 13387 L 9375 10385 L 9352 10335 C 9294 10209 9202 10180 9092 10254 C 9055 10279 9037 10302 9002 10370 C 8953 10465 8897 10601 8852 10735 C 8835 10785 8797 10868 8766 10920 C 8735 10972 8701 11038 8690 11067 C 8670 11120 8670 11148 8670 13743 C 8670 16342 8670 16365 8650 16398 C 8639 16416 8616 16439 8598 16450 C 8565 16470 8543 16470 6080 16469 L 3595 16468 L 3475 16445 z M 12926 12785 C 12970 12777 13039 12766 13080 12760 C 13218 12741 13274 12687 13311 12540 C 13337 12436 13365 12380 13420 12317 C 13523 12201 13689 12145 13915 12152 C 14064 12157 14096 12170 14214 12275 C 14316 12365 14353 12383 14441 12384 C 14503 12385 14516 12381 14635 12322 C 14768 12255 14837 12202 14864 12146 C 14885 12102 14884 12011 14864 11895 C 14844 11784 14850 11685 14880 11605 C 14900 11555 14921 11527 15014 11434 C 15082 11366 15143 11315 15171 11302 C 15274 11253 15385 11251 15560 11296 C 15680 11327 15714 11326 15781 11293 C 15839 11263 15883 11211 15988 11049 C 16050 10953 16065 10900 16051 10824 C 16038 10754 16029 10740 15958 10663 C 15879 10578 15858 10528 15852 10417 C 15846 10300 15864 10197 15912 10073 C 15988 9874 16074 9805 16282 9775 C 16339 9766 16399 9754 16415 9748 C 16535 9701 16575 9597 16568 9353 C 16563 9162 16540 9129 16361 9051 C 16274 9013 16233 8989 16203 8957 C 16115 8867 16066 8666 16072 8420 C 16075 8285 16077 8271 16103 8217 C 16125 8173 16151 8143 16213 8091 C 16322 8000 16345 7974 16371 7916 C 16399 7852 16392 7792 16344 7662 C 16301 7548 16274 7503 16229 7469 C 16152 7411 16136 7407 15955 7401 C 15794 7395 15782 7394 15727 7366 C 15680 7343 15655 7321 15604 7256 C 15568 7212 15527 7155 15513 7130 C 15499 7105 15468 7059 15444 7027 C 15394 6960 15350 6835 15350 6762 C 15350 6699 15364 6654 15417 6536 C 15456 6452 15462 6431 15458 6390 C 15450 6314 15422 6272 15324 6192 C 15214 6103 15150 6070 15071 6063 C 15013 6057 15006 6059 14897 6114 C 14749 6188 14693 6198 14562 6175 C 14495 6164 14439 6146 14380 6118 C 14241 6052 14063 5942 14030 5902 C 13995 5860 13969 5781 13940 5631 C 13913 5486 13864 5412 13771 5373 C 13723 5353 13550 5320 13492 5320 C 13408 5320 13339 5381 13279 5506 C 13220 5631 13135 5693 12982 5725 C 12879 5746 12505 5746 12433 5725 C 12362 5704 12299 5649 12231 5550 C 12109 5370 11995 5330 11761 5385 C 11701 5399 11679 5410 11643 5443 C 11560 5520 11548 5551 11541 5719 C 11535 5857 11533 5871 11505 5925 C 11469 5994 11380 6068 11260 6126 C 11219 6146 11152 6183 11112 6207 C 10987 6283 10875 6311 10781 6291 C 10732 6281 10648 6244 10566 6199 C 10513 6169 10446 6164 10374 6185 C 10322 6200 10304 6213 10219 6299 C 10133 6384 10120 6402 10105 6454 C 10081 6538 10089 6604 10139 6704 C 10221 6872 10221 6929 10141 7095 C 10081 7221 10004 7350 9944 7430 C 9851 7552 9828 7562 9605 7569 C 9467 7574 9428 7579 9396 7594 C 9348 7618 9284 7698 9269 7753 C 9263 7776 9245 7838 9229 7890 C 9200 7983 9200 7986 9215 8043 C 9240 8139 9263 8174 9332 8218 C 9416 8272 9505 8364 9526 8420 C 9552 8486 9558 8825 9536 8941 C 9505 9107 9437 9194 9277 9274 C 9152 9337 9109 9382 9091 9467 C 9079 9520 9080 9541 9094 9619 C 9121 9762 9137 9808 9181 9855 C 9228 9906 9304 9940 9430 9965 C 9543 9988 9647 10036 9687 10085 C 9725 10130 9815 10302 9865 10425 C 9898 10505 9902 10525 9902 10605 C 9903 10690 9901 10699 9865 10770 C 9844 10811 9812 10862 9794 10882 C 9746 10936 9728 10977 9722 11045 C 9716 11127 9734 11164 9850 11313 C 9928 11413 9950 11436 9994 11456 C 10066 11490 10156 11489 10230 11454 C 10366 11390 10440 11377 10517 11404 C 10624 11442 10877 11628 10930 11708 C 10981 11786 10994 11847 10985 11975 C 10971 12166 10973 12220 10998 12267 C 11026 12321 11067 12351 11162 12389 C 11204 12406 11271 12436 11312 12455 C 11450 12521 11526 12499 11669 12352 C 11751 12267 11774 12249 11825 12231 C 11950 12185 12165 12197 12330 12261 C 12460 12311 12506 12365 12560 12529 C 12597 12644 12621 12691 12666 12736 C 12733 12802 12785 12812 12926 12785 z M 4559 12709 C 4642 12691 4681 12655 4741 12538 C 4806 12414 4856 12360 4931 12334 C 4978 12318 5015 12315 5210 12315 C 5399 12315 5443 12318 5486 12333 C 5563 12360 5622 12428 5690 12568 C 5725 12640 5774 12685 5842 12705 C 5910 12725 5955 12724 6021 12701 C 6051 12691 6106 12677 6144 12671 C 6225 12657 6257 12642 6312 12592 C 6371 12539 6389 12491 6390 12395 C 6390 12351 6397 12285 6404 12249 C 6436 12099 6506 12021 6696 11924 C 6860 11840 6905 11827 6999 11832 C 7082 11837 7089 11840 7268 11945 C 7365 12001 7418 12011 7503 11986 C 7550 11972 7576 11954 7679 11859 C 7782 11764 7802 11740 7820 11694 C 7850 11614 7846 11566 7804 11481 C 7688 11245 7697 11130 7847 10933 C 7937 10815 8057 10706 8126 10680 C 8189 10657 8215 10657 8380 10680 C 8560 10706 8617 10656 8721 10380 C 8761 10273 8765 10186 8733 10125 C 8710 10080 8654 10028 8562 9962 C 8515 9929 8495 9906 8473 9862 C 8447 9809 8445 9796 8442 9645 C 8439 9514 8442 9468 8458 9388 C 8495 9209 8593 9089 8758 9020 C 8906 8958 8962 8901 8982 8791 C 8991 8743 8991 8711 8981 8652 C 8958 8506 8946 8477 8884 8421 C 8811 8354 8773 8336 8672 8317 C 8579 8299 8482 8253 8444 8207 C 8372 8121 8262 7842 8239 7688 C 8222 7568 8244 7506 8375 7314 C 8406 7270 8421 7235 8430 7187 C 8448 7088 8436 7049 8347 6927 C 8285 6842 8215 6785 8146 6765 C 8100 6751 8085 6751 8014 6765 C 7745 6815 7677 6802 7531 6666 C 7489 6627 7418 6567 7374 6533 C 7272 6456 7226 6402 7200 6332 C 7170 6253 7166 6179 7184 6075 C 7210 5926 7203 5879 7141 5809 C 7090 5751 6907 5643 6838 5630 C 6785 5620 6731 5625 6695 5643 C 6684 5648 6633 5693 6581 5743 C 6462 5856 6414 5880 6307 5880 C 6247 5880 6206 5873 6137 5851 C 6048 5823 5946 5794 5848 5769 C 5773 5751 5656 5677 5622 5628 C 5582 5569 5546 5494 5530 5437 C 5514 5377 5453 5307 5388 5274 C 5340 5250 5331 5249 5195 5252 L 5052 5255 L 4996 5294 C 4928 5341 4897 5390 4875 5485 C 4866 5524 4845 5584 4827 5620 C 4783 5708 4782 5709 4485 5799 C 4256 5869 4206 5880 4124 5880 C 4079 5880 4028 5875 4009 5869 C 3967 5854 3858 5775 3805 5720 C 3746 5659 3703 5640 3623 5640 C 3565 5640 3543 5646 3480 5676 C 3338 5744 3296 5775 3264 5832 C 3236 5883 3235 5890 3239 5985 C 3249 6257 3247 6291 3217 6354 C 3166 6463 2920 6689 2787 6750 C 2679 6799 2631 6803 2466 6775 C 2290 6746 2247 6753 2161 6825 C 2124 6856 2018 7013 2002 7060 C 1973 7142 1996 7230 2069 7320 C 2146 7415 2169 7460 2186 7543 C 2200 7611 2200 7626 2185 7707 C 2168 7798 2060 8087 2014 8166 C 2000 8190 1976 8220 1960 8234 C 1926 8262 1814 8303 1710 8325 C 1622 8343 1553 8389 1504 8462 C 1479 8499 1468 8533 1450 8630 C 1436 8706 1430 8766 1434 8792 C 1450 8890 1514 8959 1641 9012 C 1685 9030 1751 9068 1788 9095 C 1846 9138 1860 9155 1893 9223 C 1949 9337 1973 9462 1974 9635 C 1975 9768 1974 9778 1947 9835 C 1926 9881 1893 9920 1811 10000 C 1687 10121 1665 10159 1666 10245 C 1666 10293 1677 10331 1719 10437 C 1811 10669 1870 10710 2069 10677 C 2199 10655 2227 10656 2297 10681 C 2345 10699 2371 10719 2455 10804 C 2516 10866 2572 10935 2598 10979 C 2648 11064 2690 11182 2690 11238 C 2690 11287 2660 11388 2620 11472 C 2581 11553 2579 11632 2614 11705 C 2642 11766 2806 11927 2872 11958 C 2975 12009 3063 11996 3201 11913 C 3314 11845 3356 11830 3434 11830 C 3517 11830 3555 11842 3695 11911 C 3860 11992 3946 12058 3985 12134 C 4013 12189 4015 12203 4021 12335 C 4026 12454 4030 12484 4049 12523 C 4087 12602 4162 12650 4286 12674 C 4329 12683 4383 12696 4405 12704 C 4453 12722 4493 12723 4559 12709 z" stroke-linecap="round" />
</g>
		<g transform="matrix(0.13 0 0 -0.13 504.57 4.09)"  >
<path style="stroke: none; stroke-width: 1; stroke-dasharray: none; stroke-linecap: butt; stroke-dashoffset: 0; stroke-linejoin: miter; stroke-miterlimit: 4; fill: rgb(226,226,226); fill-rule: nonzero; opacity: 1;" vector-effect="non-scaling-stroke"  transform=" translate(-12809.25, -8999.33)" d="M 12595 10915 C 12320 10860 12237 10837 12057 10767 C 11965 10732 11672 10559 11585 10490 C 11518 10436 11350 10267 11304 10205 C 11261 10149 11085 9852 11061 9797 C 11020 9702 10952 9483 10940 9410 C 10933 9369 10915 9261 10899 9172 L 10870 9008 L 10911 8767 C 10952 8521 10981 8412 11061 8209 C 11109 8087 11138 8039 11262 7871 C 11432 7642 11605 7479 11803 7361 C 12063 7205 12174 7168 12629 7085 C 12825 7049 12806 7047 13235 7131 C 13296 7142 13395 7168 13455 7188 C 13565 7223 13795 7332 13900 7398 C 13975 7445 14351 7819 14405 7900 C 14459 7982 14578 8219 14629 8348 C 14654 8411 14674 8483 14685 8555 C 14695 8616 14713 8725 14726 8798 C 14756 8966 14756 9043 14726 9211 C 14713 9285 14694 9392 14685 9450 C 14675 9511 14654 9592 14633 9645 C 14573 9799 14439 10060 14379 10139 C 14314 10227 14076 10463 13980 10536 C 13756 10708 13488 10820 13125 10896 C 12888 10945 12765 10949 12595 10915 z M 12909 10034 C 13113 9996 13351 9896 13481 9792 C 13689 9627 13860 9271 13860 9003 C 13860 8856 13784 8600 13695 8448 C 13582 8256 13432 8134 13190 8038 C 13046 7981 12946 7960 12815 7960 C 12625 7960 12465 8007 12285 8114 C 12050 8255 11937 8401 11840 8687 C 11749 8955 11749 9051 11841 9322 C 11899 9493 11932 9544 12094 9708 C 12245 9861 12321 9916 12435 9953 C 12468 9963 12518 9981 12545 9991 C 12592 10009 12763 10047 12804 10049 C 12815 10050 12862 10043 12909 10034 z" stroke-linecap="round" />
</g>
		<g transform="matrix(0.13 0 0 -0.13 -508.8 3.88)"  >
<path style="stroke: none; stroke-width: 1; stroke-dasharray: none; stroke-linecap: butt; stroke-dashoffset: 0; stroke-linejoin: miter; stroke-miterlimit: 4; fill: rgb(226,226,226); fill-rule: nonzero; opacity: 1;" vector-effect="non-scaling-stroke"  transform=" translate(-5209, -9000.89)" d="M 5115 10933 C 5104 10930 4998 10911 4880 10890 C 4762 10869 4629 10840 4585 10825 C 4342 10742 4269 10702 4041 10530 C 3878 10407 3833 10364 3758 10265 C 3734 10232 3686 10169 3653 10125 C 3523 9953 3411 9732 3374 9574 C 3366 9539 3355 9498 3349 9483 C 3343 9467 3330 9411 3319 9357 C 3291 9215 3291 8790 3319 8645 C 3330 8590 3343 8533 3349 8517 C 3355 8502 3366 8462 3374 8427 C 3411 8271 3541 8021 3705 7795 C 3803 7661 3846 7621 4149 7383 C 4293 7271 4536 7170 4750 7135 C 4808 7126 4932 7104 5025 7088 C 5231 7051 5275 7053 5545 7108 C 5839 7169 6062 7251 6210 7354 C 6246 7379 6300 7414 6330 7433 C 6472 7520 6616 7649 6716 7780 C 6835 7935 7016 8282 7050 8419 C 7107 8647 7120 8753 7120 9001 C 7120 9190 7116 9256 7101 9341 C 7090 9398 7077 9457 7071 9473 C 7065 9488 7054 9529 7045 9565 C 7007 9732 6875 10002 6771 10127 C 6735 10171 6677 10241 6643 10283 C 6552 10394 6262 10628 6136 10691 C 5976 10772 5742 10858 5635 10875 C 5580 10884 5472 10902 5395 10915 C 5264 10938 5162 10945 5115 10933 z M 5331 10025 C 5451 10002 5623 9945 5710 9899 C 5854 9822 5967 9712 6086 9533 C 6207 9352 6230 9267 6230 9000 C 6230 8746 6209 8662 6107 8502 C 5966 8283 5818 8145 5615 8046 C 5467 7973 5375 7956 5167 7962 C 4992 7968 4973 7973 4791 8063 C 4383 8264 4190 8565 4190 9000 C 4190 9254 4242 9417 4386 9610 C 4553 9836 4742 9951 5060 10020 C 5167 10043 5226 10044 5331 10025 z" stroke-linecap="round" />
</g>
</g>
</g>
<g transform="matrix(NaN NaN NaN NaN 0 0)"  >
<g style=""   >
</g>
</g>
</svg>