<?xml version="1.0" encoding="UTF-8" standalone="no" ?>
<!DOCTYPE svg PUBLIC "-//W3C//DTD SVG 1.1//EN" "http://www.w3.org/Graphics/SVG/1.1/DTD/svg11.dtd">
<svg xmlns="http://www.w3.org/2000/svg" xmlns:xlink="http://www.w3.org/1999/xlink" version="1.1" width="1080" height="1080" viewBox="0 0 1080 1080" xml:space="preserve">
<desc>Created with Fabric.js 5.2.4</desc>
<defs>
</defs>
<rect x="0" y="0" width="100%" height="100%" fill="transparent"></rect>
<g transform="matrix(1 0 0 1 540 540)" id="d6bf9cad-075d-4a31-95e9-69ba721a9ad1"  >
</g>
<g transform="matrix(1 0 0 1 540 540)" id="968f4886-0e3d-4101-95fc-309b07110127"  >
<rect style="stroke: none; stroke-width: 1; stroke-dasharray: none; stroke-linecap: butt; stroke-dashoffset: 0; stroke-linejoin: miter; stroke-miterlimit: 4; fill: rgb(255,255,255); fill-rule: nonzero; opacity: 1; visibility: hidden;" vector-effect="non-scaling-stroke"  x="-540" y="-540" rx="0" ry="0" width="1080" height="1080" />
</g>
<g transform="matrix(0 0 0 0 0 0)"  >
<g style=""   >
</g>
</g>
<g transform="matrix(0 0 0 0 0 0)"  >
<g style=""   >
</g>
</g>
<g transform="matrix(25.21 0 0 31.19 540 540)"  >
<g style="" vector-effect="non-scaling-stroke"   >
		<g transform="matrix(1 0 0 1 -11.43 0)" id="Rectangle"  >
<rect style="stroke: none; stroke-width: 1; stroke-dasharray: none; stroke-linecap: butt; stroke-dashoffset: 0; stroke-linejoin: miter; stroke-miterlimit: 4; fill: rgb(226,226,226); fill-rule: evenodd; opacity: 1;" vector-effect="non-scaling-stroke"  x="-1.5" y="-14.85714285" rx="1.5" ry="1.5" width="3" height="29.7142857" />
</g>
		<g transform="matrix(1 0 0 1 0 0)" id="Rectangle"  >
<rect style="stroke: none; stroke-width: 1; stroke-dasharray: none; stroke-linecap: butt; stroke-dashoffset: 0; stroke-linejoin: miter; stroke-miterlimit: 4; fill: rgb(226,226,226); fill-rule: evenodd; opacity: 1;" vector-effect="non-scaling-stroke"  x="-1.5" y="-14.85714285" rx="1.5" ry="1.5" width="3" height="29.7142857" />
</g>
		<g transform="matrix(1 0 0 1 11.43 0)" id="Rectangle"  >
<rect style="stroke: none; stroke-width: 1; stroke-dasharray: none; stroke-linecap: butt; stroke-dashoffset: 0; stroke-linejoin: miter; stroke-miterlimit: 4; fill: rgb(226,226,226); fill-rule: evenodd; opacity: 1;" vector-effect="non-scaling-stroke"  x="-1.5" y="-14.85714285" rx="1.5" ry="1.5" width="3" height="29.7142857" />
</g>
		<g transform="matrix(0 1 -1 0 -11.43 -6.86)" id="Rectangle"  >
<rect style="stroke: none; stroke-width: 1; stroke-dasharray: none; stroke-linecap: butt; stroke-dashoffset: 0; stroke-linejoin: miter; stroke-miterlimit: 4; fill: rgb(226,226,226); fill-rule: evenodd; opacity: 1;" vector-effect="non-scaling-stroke"  x="-1.5" y="-4.57142857" rx="1.5" ry="1.5" width="3" height="9.14285714" />
</g>
		<g transform="matrix(0 1 -1 0 11.43 -6.86)" id="Rectangle"  >
<rect style="stroke: none; stroke-width: 1; stroke-dasharray: none; stroke-linecap: butt; stroke-dashoffset: 0; stroke-linejoin: miter; stroke-miterlimit: 4; fill: rgb(226,226,226); fill-rule: evenodd; opacity: 1;" vector-effect="non-scaling-stroke"  x="-1.5" y="-4.57142857" rx="1.5" ry="1.5" width="3" height="9.14285714" />
</g>
		<g transform="matrix(0 1 -1 0 0 5.71)" id="Rectangle"  >
<rect style="stroke: none; stroke-width: 1; stroke-dasharray: none; stroke-linecap: butt; stroke-dashoffset: 0; stroke-linejoin: miter; stroke-miterlimit: 4; fill: rgb(226,226,226); fill-rule: evenodd; opacity: 1;" vector-effect="non-scaling-stroke"  x="-1.5" y="-4.57142857" rx="1.5" ry="1.5" width="3" height="9.14285714" />
</g>
</g>
</g>
<g transform="matrix(NaN NaN NaN NaN 0 0)"  >
<g style=""   >
</g>
</g>
</svg>