<?xml version="1.0" encoding="UTF-8" standalone="no" ?>
<!DOCTYPE svg PUBLIC "-//W3C//DTD SVG 1.1//EN" "http://www.w3.org/Graphics/SVG/1.1/DTD/svg11.dtd">
<svg xmlns="http://www.w3.org/2000/svg" xmlns:xlink="http://www.w3.org/1999/xlink" version="1.1" width="1080" height="1080" viewBox="0 0 1080 1080" xml:space="preserve">
<desc>Created with Fabric.js 5.2.4</desc>
<defs>
</defs>
<rect x="0" y="0" width="100%" height="100%" fill="transparent"></rect>
<g transform="matrix(1 0 0 1 540 540)" id="485ae944-9eee-4dd6-8dab-21bfee128cea"  >
<rect style="stroke: none; stroke-width: 1; stroke-dasharray: none; stroke-linecap: butt; stroke-dashoffset: 0; stroke-linejoin: miter; stroke-miterlimit: 4; fill: rgb(255,255,255); fill-rule: nonzero; opacity: 1; visibility: hidden;" vector-effect="non-scaling-stroke"  x="-540" y="-540" rx="0" ry="0" width="1080" height="1080" />
</g>
<g transform="matrix(1 0 0 1 540 540)" id="0dadadeb-c0e0-47c4-a079-d605e61c1b6d"  >
</g>
<g transform="matrix(0.99 0 0 0.99 540 540)"  >
<g style="" vector-effect="non-scaling-stroke"   >
		<g transform="matrix(1 0 0 1 -490 -490)"  >
<rect style="stroke: none; stroke-width: 1; stroke-dasharray: none; stroke-linecap: butt; stroke-dashoffset: 0; stroke-linejoin: miter; stroke-miterlimit: 4; fill: rgb(255,255,255); fill-opacity: 0; fill-rule: nonzero; opacity: 1;" vector-effect="non-scaling-stroke"  x="-50" y="-50" rx="0" ry="0" width="100" height="100" />
</g>
		<g transform="matrix(1 0 0 1 0 0)"  >
<rect style="stroke: none; stroke-width: 1; stroke-dasharray: none; stroke-linecap: butt; stroke-dashoffset: 0; stroke-linejoin: miter; stroke-miterlimit: 4; fill: rgb(255,255,255); fill-rule: nonzero; opacity: 1; visibility: hidden;" vector-effect="non-scaling-stroke"  x="-540" y="-540" rx="0" ry="0" width="1080" height="1080" />
</g>
		<g transform="matrix(40.33 0 0 40.33 0 0)"  >
<path style="stroke: none; stroke-width: 1; stroke-dasharray: none; stroke-linecap: butt; stroke-dashoffset: 0; stroke-linejoin: miter; stroke-miterlimit: 4; fill: rgb(226,226,226); fill-rule: nonzero; opacity: 1;" vector-effect="non-scaling-stroke"  transform=" translate(-12, -1040.35)" d="M 4.2218 1031.2 L 6.3431 1031.9 L 6.4979 1032 C 6.8411 1031.8 7.1956999999999995 1031.6 7.5584999999999996 1031.4 L 7.4921999999999995 1031.2 L 7.9121 1029 L 9.8566 1028.5 L 11.337 1030.2 L 11.381 1030.4 C 11.797 1030.3000000000002 12.203 1030.3000000000002 12.619 1030.4 L 12.663 1030.2 L 14.143 1028.5 L 16.088 1029 L 16.508000000000003 1031.2 L 16.442000000000004 1031.4 C 16.804000000000002 1031.6000000000001 17.159000000000002 1031.8000000000002 17.502000000000002 1032 L 17.657000000000004 1031.9 L 19.778000000000002 1031.2 L 21.192000000000004 1032.6000000000001 L 20.485000000000003 1034.7 L 20.331000000000003 1034.9 C 20.557000000000002 1035.2 20.769000000000002 1035.6000000000001 20.949 1035.9 L 21.148000000000003 1035.9 L 23.336000000000002 1036.3000000000002 L 23.866000000000003 1038.2000000000003 L 22.165000000000003 1039.7000000000003 L 21.988000000000003 1039.7000000000003 C 22.014000000000003 1040.2000000000003 22.014000000000003 1040.6000000000004 21.988000000000003 1041.0000000000002 L 22.165000000000003 1041.0000000000002 L 23.866000000000003 1042.5000000000002 L 23.336000000000002 1044.5000000000002 L 21.148000000000003 1044.9000000000003 L 20.949 1044.8000000000004 C 20.769000000000002 1045.2000000000005 20.557000000000002 1045.5000000000005 20.331000000000003 1045.9000000000003 L 20.485000000000003 1046.0000000000002 L 21.192000000000004 1048.1000000000001 L 19.778000000000002 1049.6000000000001 L 17.657000000000004 1048.8000000000002 L 17.502000000000002 1048.7000000000003 C 17.159000000000002 1048.9000000000003 16.804000000000002 1049.1000000000004 16.442000000000004 1049.3000000000002 L 16.508000000000003 1049.5000000000002 L 16.088 1051.7000000000003 L 14.143 1052.2000000000003 L 12.663 1050.5000000000002 L 12.619 1050.4000000000003 L 11.381 1050.4000000000003 L 11.337 1050.5000000000002 L 9.8566 1052.2000000000003 L 7.912 1051.7000000000003 L 7.4921999999999995 1049.5000000000002 L 7.5584999999999996 1049.3000000000002 C 7.1956999999999995 1049.1000000000001 6.841099999999999 1048.9 6.4978 1048.7000000000003 L 6.3431 1048.8000000000002 L 4.2218 1049.6000000000001 L 2.8076 1048.1000000000001 L 3.5147 1046.0000000000002 L 3.6694 1045.9000000000003 C 3.4427 1045.5000000000002 3.2305 1045.2000000000003 3.0507 1044.8000000000004 L 2.8518 1044.9000000000003 L 0.6641999999999997 1044.5000000000002 L 0.13385999999999965 1042.5000000000002 L 1.8353599999999997 1041.0000000000002 L 2.0120599999999995 1041.0000000000002 C 1.9862599999999995 1040.6000000000001 1.9862599999999995 1040.2000000000003 2.0120599999999995 1039.7000000000003 L 1.8353599999999994 1039.7000000000003 L 0.13385999999999942 1038.2000000000003 L 0.6641899999999994 1036.3000000000002 L 2.8517899999999994 1035.9 L 3.0506899999999995 1035.9 C 3.2304899999999996 1035.6000000000001 3.4427899999999996 1035.2 3.6693899999999995 1034.9 L 3.5146899999999994 1034.7 L 2.8075899999999994 1032.6000000000001 L 4.2217899999999995 1031.2 z M 7.0503 1035.4 C 4.3166 1038.1000000000001 4.3166 1042.6000000000001 7.0503 1045.3000000000002 C 9.7839 1048.0000000000002 14.216000000000001 1048.0000000000002 16.95 1045.3000000000002 C 19.683 1042.6000000000001 19.683 1038.1000000000001 16.95 1035.4 C 14.216 1032.7 9.7839 1032.7 7.0503 1035.4 z" stroke-linecap="round" />
</g>
		<g transform="matrix(40.33 0 0 40.33 0 0)"  >
<path style="stroke: none; stroke-width: 1; stroke-dasharray: none; stroke-linecap: butt; stroke-dashoffset: 0; stroke-linejoin: miter; stroke-miterlimit: 4; fill: rgb(226,226,226); fill-rule: nonzero; opacity: 1;" vector-effect="non-scaling-stroke"  transform=" translate(-12, -1040.35)" d="M 6.3431 1034.7 C 9.4673 1031.6000000000001 14.533 1031.6000000000001 17.6571 1034.7 C 20.7811 1037.8 20.7811 1042.9 17.6571 1046 C 14.533100000000001 1049.1 9.4675 1049.1 6.3431 1046 C 3.219 1042.9 3.2190999999999996 1037.8 6.3431999999999995 1034.7 z M 7.8237 1034.8 L 9.9892 1036.8999999999999 C 10.874 1036.3999999999999 11.885 1036.1999999999998 12.862 1036.4999999999998 L 14.254 1033.6999999999998 C 12.112 1032.9999999999998 9.7022 1033.3999999999999 7.8237 1034.7999999999997 z M 6.4094999999999995 1036.2 C 5.0031 1038.1000000000001 4.6434999999999995 1040.5 5.3709 1042.6000000000001 L 8.088899999999999 1041.2 C 7.871799999999999 1040.2 8.053199999999999 1039.2 8.575 1038.4 L 6.4094999999999995 1036.2 z M 10.585999999999999 1038.9 C 9.804699999999999 1039.7 9.804699999999999 1041 10.585999999999999 1041.8000000000002 C 11.366999999999999 1042.6000000000001 12.633 1042.6000000000001 13.413999999999998 1041.8000000000002 C 14.194999999999997 1041.0000000000002 14.194999999999999 1039.7000000000003 13.413999999999998 1038.9 C 12.632999999999997 1038.2 11.366999999999997 1038.2 10.585999999999999 1038.9 z M 16.022 1034.7 L 14.629999999999999 1037.4 C 14.691999999999998 1037.4 14.767999999999999 1037.5 14.828 1037.5 C 15.517999999999999 1038.2 15.895999999999999 1039.1 15.977 1040 L 18.983 1040.5 C 19.005 1038.6 18.339000000000002 1036.8 16.95 1035.4 C 16.662 1035.1000000000001 16.343 1034.9 16.022 1034.7 z M 6.298999999999998 1044.4 C 6.526099999999998 1044.7 6.7624999999999975 1045 7.050299999999997 1045.3000000000002 C 8.439099999999998 1046.7000000000003 10.267999999999997 1047.4 12.087999999999997 1047.3000000000002 L 11.645999999999997 1044.3000000000002 C 10.745999999999997 1044.3000000000002 9.860599999999998 1043.9 9.171599999999998 1043.2000000000003 C 9.111399999999998 1043.1000000000004 9.072399999999998 1043.1000000000004 9.016899999999998 1043.0000000000002 L 6.298999999999998 1044.4000000000003 z M 15.667999999999997 1042 C 15.473999999999997 1042.4 15.193999999999997 1042.8 14.827999999999998 1043.2 C 14.462999999999997 1043.6000000000001 14.037999999999997 1043.8 13.590999999999998 1044 L 14.054999999999998 1047.1 C 15.112999999999998 1046.6999999999998 16.113 1046.1 16.95 1045.3 C 17.787 1044.5 18.371 1043.5 18.695 1042.3999999999999 L 15.668 1041.9999999999998 z" stroke-linecap="round" />
</g>
</g>
</g>
</svg>