<?xml version="1.0" encoding="UTF-8" standalone="no" ?>
<!DOCTYPE svg PUBLIC "-//W3C//DTD SVG 1.1//EN" "http://www.w3.org/Graphics/SVG/1.1/DTD/svg11.dtd">
<svg xmlns="http://www.w3.org/2000/svg" xmlns:xlink="http://www.w3.org/1999/xlink" version="1.1" width="1080" height="1080" viewBox="0 0 1080 1080" xml:space="preserve">
<desc>Created with Fabric.js 5.2.4</desc>
<defs>
</defs>
<g transform="matrix(1 0 0 1 540 540)" id="f727be5a-6f16-4bdb-94d0-7de480bee0d6"  >
<rect style="stroke: none; stroke-width: 1; stroke-dasharray: none; stroke-linecap: butt; stroke-dashoffset: 0; stroke-linejoin: miter; stroke-miterlimit: 4; fill: rgb(255,255,255); fill-rule: nonzero; opacity: 1; visibility: hidden;" vector-effect="non-scaling-stroke"  x="-540" y="-540" rx="0" ry="0" width="1080" height="1080" />
</g>
<g transform="matrix(1 0 0 1 540 540)" id="60904700-cd98-41ad-8c06-949183e08371"  >
</g>
<g transform="matrix(48.34 0 0 48.34 431.18 540)" id="path890"  >
<path style="stroke: rgb(0,0,0); stroke-width: 0; stroke-dasharray: none; stroke-linecap: butt; stroke-dashoffset: 0; stroke-linejoin: miter; stroke-miterlimit: 4; fill: rgb(209,209,209); fill-rule: nonzero; opacity: 1;" vector-effect="non-scaling-stroke"  transform=" translate(-12, -12)" d="M 7 4.5 L 17 4.5 L 17 10.5 L 19 10.5 L 19 15.5 L 16.5 15.5 L 13 19.5 L 11 19.5 L 7.5 15.5 L 5 15.5 L 5 10.5 L 7 10.5 L 7 4.5" stroke-linecap="round" />
</g>
<g transform="matrix(48.34 0 0 48.34 642.47 540)"  >
<path style="stroke: rgb(0,0,0); stroke-width: 0; stroke-dasharray: none; stroke-linecap: butt; stroke-dashoffset: 0; stroke-linejoin: miter; stroke-miterlimit: 4; fill: rgb(226,226,226); fill-rule: nonzero; opacity: 1;" vector-effect="non-scaling-stroke"  transform=" translate(-12, -12)" d="M 7 4.5 L 17 4.5 L 17 10.5 L 19 10.5 L 19 15.5 L 16.5 15.5 L 13 19.5 L 11 19.5 L 7.5 15.5 L 5 15.5 L 5 10.5 L 7 10.5 L 7 4.5" stroke-linecap="round" />
</g>
</svg>