<?xml version="1.0" encoding="UTF-8" standalone="no" ?>
<!DOCTYPE svg PUBLIC "-//W3C//DTD SVG 1.1//EN" "http://www.w3.org/Graphics/SVG/1.1/DTD/svg11.dtd">
<svg xmlns="http://www.w3.org/2000/svg" xmlns:xlink="http://www.w3.org/1999/xlink" version="1.1" width="1080" height="1080" viewBox="0 0 1080 1080" xml:space="preserve">
<desc>Created with Fabric.js 5.2.4</desc>
<defs>
</defs>
<rect x="0" y="0" width="100%" height="100%" fill="transparent"></rect>
<g transform="matrix(1 0 0 1 540 540)" id="54e6f626-ff4d-4913-b48c-18e90b6389e0"  >
</g>
<g transform="matrix(1 0 0 1 540 540)" id="b6a20425-67b2-4379-931f-2947eadf90e7"  >
<rect style="stroke: none; stroke-width: 1; stroke-dasharray: none; stroke-linecap: butt; stroke-dashoffset: 0; stroke-linejoin: miter; stroke-miterlimit: 4; fill: rgb(255,255,255); fill-rule: nonzero; opacity: 1; visibility: hidden;" vector-effect="non-scaling-stroke"  x="-540" y="-540" rx="0" ry="0" width="1080" height="1080" />
</g>
<g transform="matrix(NaN NaN NaN NaN 0 0)"  >
<g style=""   >
</g>
</g>
<g transform="matrix(NaN NaN NaN NaN 0 0)"  >
<g style=""   >
</g>
</g>
<g transform="matrix(NaN NaN NaN NaN 0 0)"  >
<g style=""   >
</g>
</g>
<g transform="matrix(NaN NaN NaN NaN 0 0)"  >
<g style=""   >
</g>
</g>
<g transform="matrix(NaN NaN NaN NaN 0 0)"  >
<g style=""   >
</g>
</g>
<g transform="matrix(NaN NaN NaN NaN 0 0)"  >
<g style=""   >
</g>
</g>
<g transform="matrix(NaN NaN NaN NaN 0 0)"  >
<g style=""   >
</g>
</g>
<g transform="matrix(NaN NaN NaN NaN 0 0)"  >
<g style=""   >
</g>
</g>
<g transform="matrix(1.84 0 0 1.84 540 540)" id="d3e3cc54-17be-4ba2-b9f6-ed84f30dd103"  >
<path style="stroke: rgb(0,0,0); stroke-width: 0; stroke-dasharray: none; stroke-linecap: butt; stroke-dashoffset: 0; stroke-linejoin: miter; stroke-miterlimit: 4; fill: rgb(226,226,226); fill-rule: nonzero; opacity: 1;" vector-effect="non-scaling-stroke"  transform=" translate(-224, -256)" d="M 160 32 L 32 32 C 14.33 32 0 46.33 0 64 L 0 192 C 0 209.67000000000002 14.33 224 32 224 L 160 224 C 177.67000000000002 224 192 209.67 192 192 L 192 64 C 192 46.33 177.7 32 160 32 z M 128 160 L 64 160 L 64 96 L 128 96 L 128 160 z M 160 288 L 32 288 C 14.329999999999998 288 0 302.33 0 320 L 0 448 C 0 465.67 14.33 480 32 480 L 160 480 C 177.67000000000002 480 192 465.67 192 448 L 192 320 C 192 302.3 177.7 288 160 288 z M 128 416 L 64 416 L 64 352 L 128 352 L 128 416 z M 416 32 L 288 32 C 270.33 32 256 46.33 256 64 L 256 192 C 256 209.67000000000002 270.33 224 288 224 L 416 224 C 433.67 224 448 209.67 448 192 L 448 64 C 448 46.33 433.7 32 416 32 z M 384 160 L 320 160 L 320 96 L 384 96 L 384 160 z M 352 480 L 384 480 L 384 448 L 352 448 L 352 480 z M 416 320 L 352 320 L 352 288 L 256 288 L 256 480 L 320 480 L 320 384 L 352 384 L 352 416 L 448 416 L 448 288 L 416 288 L 416 320 z M 416 480 L 448 480 L 448 448 L 416 448 L 416 480 z" stroke-linecap="round" />
</g>
<g transform="matrix(NaN NaN NaN NaN 0 0)"  >
<g style=""   >
</g>
</g>
</svg>