<?xml version="1.0" encoding="UTF-8" standalone="no" ?>
<!DOCTYPE svg PUBLIC "-//W3C//DTD SVG 1.1//EN" "http://www.w3.org/Graphics/SVG/1.1/DTD/svg11.dtd">
<svg xmlns="http://www.w3.org/2000/svg" xmlns:xlink="http://www.w3.org/1999/xlink" version="1.1" width="1080" height="1080" viewBox="0 0 1080 1080" xml:space="preserve">
<desc>Created with Fabric.js 5.2.4</desc>
<defs>
</defs>
<rect x="0" y="0" width="100%" height="100%" fill="transparent"></rect>
<g transform="matrix(1 0 0 1 540 540)" id="ea6ec344-e661-4b09-9ef7-b9f62851a133"  >
</g>
<g transform="matrix(1 0 0 1 540 540)" id="8a54dd8b-e5ff-4e7a-9617-08d4213917d9"  >
<rect style="stroke: none; stroke-width: 1; stroke-dasharray: none; stroke-linecap: butt; stroke-dashoffset: 0; stroke-linejoin: miter; stroke-miterlimit: 4; fill: rgb(255,255,255); fill-rule: nonzero; opacity: 1; visibility: hidden;" vector-effect="non-scaling-stroke"  x="-540" y="-540" rx="0" ry="0" width="1080" height="1080" />
</g>
<g transform="matrix(0 0 0 0 0 0)"  >
<g style=""   >
</g>
</g>
<g transform="matrix(0 0 0 0 0 0)"  >
<g style=""   >
</g>
</g>
<g transform="matrix(0 0 0 0 0 0)"  >
<g style=""   >
</g>
</g>
<g transform="matrix(0 0 0 0 0 0)"  >
<g style=""   >
</g>
</g>
<g transform="matrix(0 0 0 0 0 0)"  >
<g style=""   >
</g>
</g>
<g transform="matrix(0 0 0 0 0 0)"  >
<g style=""   >
</g>
</g>
<g transform="matrix(0 0 0 0 0 0)"  >
<g style=""   >
</g>
</g>
<g transform="matrix(0 0 0 0 0 0)"  >
<g style=""   >
</g>
</g>
<g transform="matrix(0 0 0 0 0 0)"  >
<g style=""   >
</g>
</g>
<g transform="matrix(0 0 0 0 0 0)"  >
<g style=""   >
</g>
</g>
<g transform="matrix(0 0 0 0 0 0)"  >
<g style=""   >
</g>
</g>
<g transform="matrix(0 0 0 0 0 0)"  >
<g style=""   >
</g>
</g>
<g transform="matrix(0 0 0 0 0 0)"  >
<g style=""   >
</g>
</g>
<g transform="matrix(36.89 0 0 36.89 398.92 540)"  >
<g style="" vector-effect="non-scaling-stroke"   >
		<g transform="matrix(1 0 0 1 0.5 9.55)"  >
<path style="stroke: none; stroke-width: 1; stroke-dasharray: none; stroke-linecap: butt; stroke-dashoffset: 0; stroke-linejoin: miter; stroke-miterlimit: 4; fill: rgb(226,226,226); fill-rule: nonzero; opacity: 1;" vector-effect="non-scaling-stroke"  transform=" translate(-16.5, -25.55)" d="M 13 26.7 L 15.2 29.599999999999998 C 15.399999999999999 29.9 15.7 29.999999999999996 16 29.999999999999996 C 16.3 29.999999999999996 16.6 29.899999999999995 16.8 29.599999999999998 L 19.8 25.599999999999998 C 19.900000000000002 25.4 20 25.2 20 24.999999999999996 L 20 21.099999999999998 L 13 26.7 z" stroke-linecap="round" />
</g>
		<g transform="matrix(1 0 0 1 0 3.95)"  >
<polygon style="stroke: none; stroke-width: 1; stroke-dasharray: none; stroke-linecap: butt; stroke-dashoffset: 0; stroke-linejoin: miter; stroke-miterlimit: 4; fill: rgb(226,226,226); fill-rule: nonzero; opacity: 1;" vector-effect="non-scaling-stroke"  points="-4,4.95 4,-1.45 4,-4.95 -4,1.45 " />
</g>
		<g transform="matrix(1 0 0 1 0 -5.6)"  >
<path style="stroke: none; stroke-width: 1; stroke-dasharray: none; stroke-linecap: butt; stroke-dashoffset: 0; stroke-linejoin: miter; stroke-miterlimit: 4; fill: rgb(226,226,226); fill-rule: nonzero; opacity: 1;" vector-effect="non-scaling-stroke"  transform=" translate(-16, -10.4)" d="M 25 2 L 18 2 C 17.4 2 17 2.4 17 3 L 17 5 L 15 5 L 15 3 C 15 2.4 14.6 2 14 2 L 7 2 C 6.4 2 6 2.4 6 3 C 6 5.8 7.3 8.5 9.4 10.3 L 12 12.4 L 12 18.8 L 20.4 12.100000000000001 C 20.4 12.100000000000001 20.4 12.100000000000001 20.5 12.100000000000001 L 22.6 10.3 C 24.7 8.5 26 5.8 26 3 C 26 2.4 25.6 2 25 2 z" stroke-linecap="round" />
</g>
</g>
</g>
<g transform="matrix(NaN NaN NaN NaN 0 0)"  >
<g style=""   >
</g>
</g>
<g transform="matrix(-16.46 21.49 -21.49 -16.46 804.3 708.08)" id="update"  >
<path style="stroke: rgb(0,0,0); stroke-width: 0; stroke-dasharray: none; stroke-linecap: butt; stroke-dashoffset: 0; stroke-linejoin: miter; stroke-miterlimit: 4; fill: rgb(226,226,226); fill-rule: nonzero; opacity: 1;" vector-effect="non-scaling-stroke"  transform=" translate(-12.54, -11.99)" d="M 20.3 3.7 L 18.400000000000002 5.6 C 14.900000000000002 2.0999999999999996 9.200000000000003 2.0999999999999996 5.700000000000003 5.6 C 2.200000000000003 9.1 2.200000000000003 14.799999999999999 5.700000000000003 18.299999999999997 C 7.4 20.1 9.7 21 12 21 C 14.3 21 16.6 20.1 18.4 18.4 C 19.2 17.599999999999998 19.2 16.4 18.4 15.599999999999998 C 17.599999999999998 14.799999999999997 16.4 14.799999999999997 15.599999999999998 15.599999999999998 C 13.699999999999998 17.599999999999998 10.499999999999998 17.499999999999996 8.499999999999998 15.599999999999998 C 7.5 14.6 7 13.3 7 12 C 7 10.7 7.5 9.4 8.5 8.5 C 10.4 6.5 13.6 6.5 15.6 8.5 L 13.799999999999999 10.3 C 13.2 10.9 13.6 12 14.499999999999998 12 L 21 12 C 21.6 12 22 11.6 22 11 L 22 4.4 C 22 3.5 20.9 3.1 20.3 3.7 z" stroke-linecap="round" />
</g>
<g transform="matrix(NaN NaN NaN NaN 0 0)"  >
<g style=""   >
</g>
</g>
</svg>