<?xml version="1.0" encoding="UTF-8" standalone="no" ?>
<!DOCTYPE svg PUBLIC "-//W3C//DTD SVG 1.1//EN" "http://www.w3.org/Graphics/SVG/1.1/DTD/svg11.dtd">
<svg xmlns="http://www.w3.org/2000/svg" xmlns:xlink="http://www.w3.org/1999/xlink" version="1.1" width="1080" height="1080" viewBox="0 0 1080 1080" xml:space="preserve">
<desc>Created with Fabric.js 5.2.4</desc>
<defs>
</defs>
<g transform="matrix(1 0 0 1 540 540)" id="cbee23c1-43b0-413c-9625-6e09f243d409"  >
<rect style="stroke: none; stroke-width: 1; stroke-dasharray: none; stroke-linecap: butt; stroke-dashoffset: 0; stroke-linejoin: miter; stroke-miterlimit: 4; fill: rgb(255,255,255); fill-rule: nonzero; opacity: 1; visibility: hidden;" vector-effect="non-scaling-stroke"  x="-540" y="-540" rx="0" ry="0" width="1080" height="1080" />
</g>
<g transform="matrix(1 0 0 1 540 540)" id="ecce4745-5c69-4834-b573-52817d3e2824"  >
</g>
<g transform="matrix(55.71 0 0 55.71 540 540)" id="1cd47da5-dad3-41dc-9df4-bcae1a172576"  >
<path style="stroke: rgb(0,0,0); stroke-width: 0; stroke-dasharray: none; stroke-linecap: butt; stroke-dashoffset: 0; stroke-linejoin: miter; stroke-miterlimit: 4; fill: rgb(226,226,226); fill-rule: nonzero; opacity: 1;" vector-effect="non-scaling-stroke"  transform=" translate(-12, -12)" d="M 20 3 L 4 3 C 3.4477152501692068 3 3 3.4477152501692068 3 4 L 3 20 C 3 20.552284749830793 3.4477152501692068 21 4 21 L 20 21 C 20.552284749830793 21 21 20.552284749830793 21 20 L 21 4 C 21 3.4477152501692068 20.552284749830793 3 20 3 z M 19 19 L 5 19 L 5 5 L 19 5 L 19 19 z" stroke-linecap="round" />
</g>
<g transform="matrix(29.09 0 0 29.09 540 540)" id="path2"  >
<path style="stroke: rgb(0,0,0); stroke-width: 0; stroke-dasharray: none; stroke-linecap: butt; stroke-dashoffset: 0; stroke-linejoin: miter; stroke-miterlimit: 4; fill: rgb(226,226,226); fill-rule: nonzero; opacity: 1;" vector-effect="non-scaling-stroke"  transform=" translate(-12, -12)" d="M 7.95 3 L 6.53 5.19 L 7.95 7.4 L 7.94 7.4 L 5.95 10.5 L 4.22 9.6 L 5.64 7.39 L 4.22 5.19 L 6.22 2.09 L 7.95 3 M 13.95 2.89 L 12.53 5.1 L 13.95 7.3 L 13.94 7.31 L 11.95 10.399999999999999 L 10.219999999999999 9.499999999999998 L 11.639999999999999 7.299999999999998 L 10.219999999999999 5.099999999999998 L 12.219999999999999 1.9999999999999978 L 13.95 2.889999999999998 M 20 2.89 L 18.56 5.1 L 20 7.3 L 20 7.31 L 18 10.4 L 16.25 9.5 L 17.67 7.3 L 16.25 5.1 L 18.25 2 L 20 2.89 M 2 22 L 2 14 C 2 12.895430500338414 2.895430500338413 12 4 12 L 20 12 C 21.104569499661586 12 22 12.895430500338414 22 14 L 22 22 L 20 22 L 20 20 L 4 20 L 4 22 L 2 22 M 6 14 C 5.447715250169207 14 5 14.447715250169207 5 15 L 5 17 C 5 17.552284749830793 5.447715250169207 18 6 18 C 6.552284749830793 18 7 17.552284749830793 7 17 L 7 15 C 7 14.447715250169207 6.552284749830793 14 6 14 M 10 14 C 9.447715250169207 14 9 14.447715250169207 9 15 L 9 17 C 9 17.552284749830793 9.447715250169207 18 10 18 C 10.552284749830793 18 11 17.552284749830793 11 17 L 11 15 C 11 14.447715250169207 10.552284749830793 14 10 14 M 14 14 C 13.447715250169207 14 13 14.447715250169207 13 15 L 13 17 C 13 17.552284749830793 13.447715250169207 18 14 18 C 14.552284749830793 18 15 17.552284749830793 15 17 L 15 15 C 15 14.447715250169207 14.552284749830793 14 14 14 M 18 14 C 17.447715250169207 14 17 14.447715250169207 17 15 L 17 17 C 17 17.552284749830793 17.447715250169207 18 18 18 C 18.552284749830793 18 19 17.552284749830793 19 17 L 19 15 C 19 14.447715250169207 18.552284749830793 14 18 14 z" stroke-linecap="round" />
</g>
</svg>