<?xml version="1.0" encoding="UTF-8" standalone="no" ?>
<!DOCTYPE svg PUBLIC "-//W3C//DTD SVG 1.1//EN" "http://www.w3.org/Graphics/SVG/1.1/DTD/svg11.dtd">
<svg xmlns="http://www.w3.org/2000/svg" xmlns:xlink="http://www.w3.org/1999/xlink" version="1.1" width="1080" height="1080" viewBox="0 0 1080 1080" xml:space="preserve">
<desc>Created with Fabric.js 5.2.4</desc>
<defs>
</defs>
<rect x="0" y="0" width="100%" height="100%" fill="transparent"></rect>
<g transform="matrix(1 0 0 1 540 540)" id="589b1b13-3196-484e-a15e-0dc602dd67d2"  >
<rect style="stroke: none; stroke-width: 1; stroke-dasharray: none; stroke-linecap: butt; stroke-dashoffset: 0; stroke-linejoin: miter; stroke-miterlimit: 4; fill: rgb(255,255,255); fill-rule: nonzero; opacity: 1; visibility: hidden;" vector-effect="non-scaling-stroke"  x="-540" y="-540" rx="0" ry="0" width="1080" height="1080" />
</g>
<g transform="matrix(1 0 0 1 540 540)" id="fe2fbb34-bbab-4256-ba02-326ae92b22ac"  >
</g>
<g transform="matrix(47.84 0 0 47.84 540 540)" id="path1150"  >
<path style="stroke: rgb(0,0,0); stroke-width: 0; stroke-dasharray: none; stroke-linecap: butt; stroke-dashoffset: 0; stroke-linejoin: miter; stroke-miterlimit: 4; fill: rgb(226,226,226); fill-rule: nonzero; opacity: 1;" vector-effect="non-scaling-stroke"  transform=" translate(-12, -12)" d="M 13 9 L 13 3.5 L 18.5 9 M 6 2 C 4.89 2 4 2.89 4 4 L 4 20 C 4 21.104569499661586 4.8954305003384135 22 6 22 L 18 22 C 19.104569499661586 22 20 21.104569499661586 20 20 L 20 8 L 14 2 L 6 2 Z" stroke-linecap="round" />
</g>
<g transform="matrix(1 0 0 1 50 50)"  >
<rect style="stroke: none; stroke-width: 1; stroke-dasharray: none; stroke-linecap: butt; stroke-dashoffset: 0; stroke-linejoin: miter; stroke-miterlimit: 4; fill: rgb(255,255,255); fill-opacity: 0; fill-rule: nonzero; opacity: 1;" vector-effect="non-scaling-stroke"  x="-50" y="-50" rx="0" ry="0" width="100" height="100" />
</g>
<g transform="matrix(1 0 0 1 540 540)"  >
<rect style="stroke: none; stroke-width: 1; stroke-dasharray: none; stroke-linecap: butt; stroke-dashoffset: 0; stroke-linejoin: miter; stroke-miterlimit: 4; fill: rgb(255,255,255); fill-rule: nonzero; opacity: 1; visibility: hidden;" vector-effect="non-scaling-stroke"  x="-540" y="-540" rx="0" ry="0" width="1080" height="1080" />
</g>
<g transform="matrix(1.74 0 0 1.74 723.54 889.31)"  >
<g style="" vector-effect="non-scaling-stroke"   >
		<g transform="matrix(1 0 0 1 0.25 -48)"  >
<path style="stroke: none; stroke-width: 1; stroke-dasharray: none; stroke-linecap: butt; stroke-dashoffset: 0; stroke-linejoin: miter; stroke-miterlimit: 4; fill: rgb(28,205,255); fill-rule: nonzero; opacity: 1;" vector-effect="non-scaling-stroke"  transform=" translate(-256.25, -208)" d="M 256.5 208 L 256 208 L 256 208 C 256.2 208 256.3 208 256.5 208 z" stroke-linecap="round" />
</g>
		<g transform="matrix(1 0 0 1 56 0)"  >
<path style="stroke: none; stroke-width: 1; stroke-dasharray: none; stroke-linecap: butt; stroke-dashoffset: 0; stroke-linejoin: miter; stroke-miterlimit: 4; fill: rgb(28,205,255); fill-rule: nonzero; opacity: 1;" vector-effect="non-scaling-stroke"  transform=" translate(-312, -256)" d="M 368.5 160 L 320 160 C 320 160 346 177 351.6 208 L 368 208 L 368.5 208 C 386.1 208 400 221.9 400 239.5 L 400 271.5 C 400 289.1 386.1 304 368.5 304 L 256.5 304 C 238.9 304 224 289.1 224 271.5 L 224 240 L 176 240 L 176 271.5 C 176 283 178.5 294 182.9 304 C 195.5 332.2 223.8 352 256.5 352 L 368.5 352 C 412.7 352 448 315.7 448 271.5 L 448 239.5 C 448 195.3 412.7 160 368.5 160 z" stroke-linecap="round" />
</g>
		<g transform="matrix(1 0 0 1 -56 0)"  >
<path style="stroke: none; stroke-width: 1; stroke-dasharray: none; stroke-linecap: butt; stroke-dashoffset: 0; stroke-linejoin: miter; stroke-miterlimit: 4; fill: rgb(28,205,255); fill-rule: nonzero; opacity: 1;" vector-effect="non-scaling-stroke"  transform=" translate(-200, -256)" d="M 329.6 208 C 317.5 179.7 289.5 160 256.5 160 L 144.5 160 C 100.3 160 64 195.3 64 239.5 L 64 271.5 C 64 315.7 100.3 352 144.5 352 L 192 352 C 192 352 166.2 335 159.9 304 L 144.5 304 C 126.9 304 112 289.1 112 271.5 L 112 239.5 C 112 221.9 126.9 208 144.5 208 L 256 208 L 256.5 208 C 274.1 208 288 221.9 288 239.5 L 288 271.5 C 288 271.7 288 271.8 288 272 L 336 272 C 336 271.8 336 271.7 336 271.5 L 336 239.5 C 336 228.3 333.7 217.6 329.6 208 z" stroke-linecap="round" />
</g>
</g>
</g>
</svg>