<?xml version="1.0" encoding="UTF-8" standalone="no" ?>
<!DOCTYPE svg PUBLIC "-//W3C//DTD SVG 1.1//EN" "http://www.w3.org/Graphics/SVG/1.1/DTD/svg11.dtd">
<svg xmlns="http://www.w3.org/2000/svg" xmlns:xlink="http://www.w3.org/1999/xlink" version="1.1" width="1080" height="1080" viewBox="0 0 1080 1080" xml:space="preserve">
<desc>Created with Fabric.js 5.2.4</desc>
<defs>
</defs>
<rect x="0" y="0" width="100%" height="100%" fill="transparent"></rect>
<g transform="matrix(1 0 0 1 540 540)" id="1d3c37d7-09c4-45e7-b966-d9e31101a1ea"  >
<rect style="stroke: none; stroke-width: 1; stroke-dasharray: none; stroke-linecap: butt; stroke-dashoffset: 0; stroke-linejoin: miter; stroke-miterlimit: 4; fill: rgb(255,255,255); fill-rule: nonzero; opacity: 1; visibility: hidden;" vector-effect="non-scaling-stroke"  x="-540" y="-540" rx="0" ry="0" width="1080" height="1080" />
</g>
<g transform="matrix(1 0 0 1 540 540)" id="e1905516-00a4-438c-a98d-50c007efb18e"  >
</g>
<g transform="matrix(42.24 0 0 42.24 540 540)"  >
<g style="" vector-effect="non-scaling-stroke"   >
		<g transform="matrix(1 0 0 1 4.3 0.92)"  >
<path style="stroke: none; stroke-width: 1; stroke-dasharray: none; stroke-linecap: butt; stroke-dashoffset: 0; stroke-linejoin: miter; stroke-miterlimit: 4; fill: rgb(226,226,226); fill-rule: nonzero; opacity: 1;" vector-effect="non-scaling-stroke"  transform=" translate(-16.3, -13.02)" d="M 22 12 C 22 11.1 21.6 10.3 20.9 9.9 L 19.099999999999998 8.700000000000001 C 18.599999999999998 8.4 17.999999999999996 8.500000000000002 17.7 9.000000000000002 C 17.4 9.500000000000002 17.5 10.100000000000001 18 10.400000000000002 L 19.8 11.600000000000001 C 20 11.7 20 11.9 20 12 C 20 12.1 20 12.3 19.8 12.5 L 17.8 13.9 C 16 15.1 13.8 15.700000000000001 11.600000000000001 15.6 C 11.100000000000001 15.6 10.600000000000001 16 10.600000000000001 16.5 C 10.600000000000001 17.1 11.000000000000002 17.5 11.500000000000002 17.5 C 11.700000000000001 17.5 11.900000000000002 17.5 12.100000000000001 17.5 C 14.500000000000002 17.5 16.8 16.8 18.900000000000002 15.4 L 20.900000000000002 14.1 C 21.6 13.7 22 12.9 22 12 z" stroke-linecap="round" />
</g>
		<g transform="matrix(1 0 0 1 -1.6 0)"  >
<path style="stroke: none; stroke-width: 1; stroke-dasharray: none; stroke-linecap: butt; stroke-dashoffset: 0; stroke-linejoin: miter; stroke-miterlimit: 4; fill: rgb(226,226,226); fill-rule: nonzero; opacity: 1;" vector-effect="non-scaling-stroke"  transform=" translate(-10.4, -12.1)" d="M 3.1 14.1 L 5.1 15.5 C 5.6 15.7 6 16 6.4 16.2 L 5.300000000000001 17.3 C 4.9 17.7 4.9 18.3 5.300000000000001 18.7 C 5.5 18.9 5.7 19 6 19 C 6.3 19 6.5 18.9 6.7 18.7 L 8.8 16.599999999999998 L 10.200000000000001 15.199999999999998 L 15 10.399999999999999 L 16.4 8.999999999999998 L 18.5 6.899999999999999 C 18.9 6.499999999999998 18.9 5.899999999999999 18.5 5.499999999999998 C 18.1 5.099999999999998 17.5 5.099999999999998 17.1 5.499999999999998 L 15.6 7 C 12.1 5.9 8.2 6.5 5.2 8.5 L 3.2 9.8 C 2.4 10.3 2 11.1 2 12 C 2 12.9 2.4 13.7 3.1 14.1 z M 12 9.6 C 12.3 9.6 12.6 9.7 12.9 9.799999999999999 L 9.8 12.899999999999999 C 9.700000000000001 12.599999999999998 9.600000000000001 12.299999999999999 9.600000000000001 11.999999999999998 C 9.6 10.7 10.7 9.6 12 9.6 z M 4.2 11.5 L 6.2 10.1 C 7.1 9.7 7.9 9.3 8.8 9 C 8 9.8 7.6 10.8 7.6 12 C 7.6 12.8 7.8 13.6 8.299999999999999 14.3 L 7.899999999999999 14.700000000000001 C 7.299999999999999 14.500000000000002 6.799999999999999 14.200000000000001 6.299999999999999 13.8 L 4.299999999999999 12.4 C 4 12.3 4 12.1 4 12 C 4 11.9 4 11.7 4.2 11.5 z" stroke-linecap="round" />
</g>
</g>
</g>
</svg>