<?xml version="1.0" encoding="UTF-8" standalone="no" ?>
<!DOCTYPE svg PUBLIC "-//W3C//DTD SVG 1.1//EN" "http://www.w3.org/Graphics/SVG/1.1/DTD/svg11.dtd">
<svg xmlns="http://www.w3.org/2000/svg" xmlns:xlink="http://www.w3.org/1999/xlink" version="1.1" width="1080" height="1080" viewBox="0 0 1080 1080" xml:space="preserve">
<desc>Created with Fabric.js 5.2.4</desc>
<defs>
</defs>
<g transform="matrix(1 0 0 1 540 540)" id="008b3fb4-12d0-4923-a9d0-a41e9b673450"  >
<rect style="stroke: none; stroke-width: 1; stroke-dasharray: none; stroke-linecap: butt; stroke-dashoffset: 0; stroke-linejoin: miter; stroke-miterlimit: 4; fill: rgb(255,255,255); fill-rule: nonzero; opacity: 1; visibility: hidden;" vector-effect="non-scaling-stroke"  x="-540" y="-540" rx="0" ry="0" width="1080" height="1080" />
</g>
<g transform="matrix(1 0 0 1 540 540)" id="28c75a36-9e40-40f6-bc80-1d8e0131ada7"  >
</g>
<g transform="matrix(1.12 0 0 1.12 540 540)" id="82ccdf93-d8f3-4962-a5c4-49fbe587dba8"  >
<path style="stroke: rgb(0,0,0); stroke-width: 0; stroke-dasharray: none; stroke-linecap: butt; stroke-dashoffset: 0; stroke-linejoin: miter; stroke-miterlimit: 4; fill: rgb(226,226,226); fill-rule: nonzero; opacity: 1;" vector-effect="non-scaling-stroke"  transform=" translate(-423.33, -423.33)" d="M 282.19 547.9 C 309.36 547.9 309.36 589.1999999999999 282.19 589.1999999999999 L 30.919999999999987 589.1999999999999 C 19.51999999999999 589.1999999999999 10.269999999999989 579.9499999999999 10.269999999999989 568.55 L 10.269999999999989 278.10999999999996 C 10.269999999999989 266.71 19.51999999999999 257.46 30.919999999999987 257.46 L 461.67999999999995 257.46 C 473.09 257.46 482.34 266.71 482.34 278.10999999999996 L 482.34 392.3299999999999 C 482.34 419.49999999999994 441.03 419.49999999999994 441.03 392.3299999999999 L 441.03 298.75999999999993 L 51.579999999999984 298.75999999999993 L 51.579999999999984 547.8999999999999 L 282.19 547.8999999999999 z M 564.47 298.76 C 537.3000000000001 298.76 537.3000000000001 257.46 564.47 257.46 L 815.74 257.46 C 827.14 257.46 836.39 266.71 836.39 278.10999999999996 L 836.39 568.55 C 836.39 579.9499999999999 827.14 589.1999999999999 815.74 589.1999999999999 L 384.98 589.1999999999999 C 373.58000000000004 589.1999999999999 364.33000000000004 579.9499999999999 364.33000000000004 568.55 L 364.33000000000004 454.3299999999999 C 364.33000000000004 427.1699999999999 405.63000000000005 427.1699999999999 405.63000000000005 454.3299999999999 L 405.63000000000005 547.8999999999999 L 795.08 547.8999999999999 L 795.08 298.7599999999999 L 564.47 298.7599999999999 z M 564.47 368.93 C 537.3000000000001 368.93 537.3000000000001 327.62 564.47 327.62 L 743.13 327.62 C 754.53 327.62 763.78 336.87 763.78 348.27 L 763.78 498.39 C 763.78 509.78999999999996 754.53 519.04 743.13 519.04 L 457.59 519.04 C 446.17999999999995 519.04 436.94 509.78999999999996 436.94 498.39 L 436.94 454.33 C 436.94 427.16999999999996 478.24 427.16999999999996 478.24 454.33 L 478.24 477.72999999999996 L 722.47 477.72999999999996 L 722.47 368.92999999999995 L 564.47 368.92999999999995 z M 282.19000000000005 477.73 C 309.36000000000007 477.73 309.36000000000007 519.04 282.19000000000005 519.04 L 103.53000000000006 519.04 C 92.13000000000005 519.04 82.88000000000005 509.78999999999996 82.88000000000005 498.39 L 82.88000000000005 348.27 C 82.88000000000005 336.87 92.13000000000005 327.62 103.53000000000006 327.62 L 389.07000000000005 327.62 C 400.4800000000001 327.62 409.72 336.87 409.72 348.27 L 409.72 392.33 C 409.72 419.5 368.42 419.5 368.42 392.33 L 368.42 368.93 L 124.19000000000003 368.93 L 124.19000000000003 477.73 L 282.19000000000005 477.73 z" stroke-linecap="round" />
</g>
</svg>