<?xml version="1.0" encoding="UTF-8" standalone="no" ?>
<!DOCTYPE svg PUBLIC "-//W3C//DTD SVG 1.1//EN" "http://www.w3.org/Graphics/SVG/1.1/DTD/svg11.dtd">
<svg xmlns="http://www.w3.org/2000/svg" xmlns:xlink="http://www.w3.org/1999/xlink" version="1.1" width="1080" height="1080" viewBox="0 0 1080 1080" xml:space="preserve">
<desc>Created with Fabric.js 5.2.4</desc>
<defs>
</defs>
<rect x="0" y="0" width="100%" height="100%" fill="transparent"></rect>
<g transform="matrix(1 0 0 1 540 540)" id="1c840151-1340-41e6-a03b-420c0c1f048e"  >
<rect style="stroke: none; stroke-width: 1; stroke-dasharray: none; stroke-linecap: butt; stroke-dashoffset: 0; stroke-linejoin: miter; stroke-miterlimit: 4; fill: rgb(255,255,255); fill-rule: nonzero; opacity: 1; visibility: hidden;" vector-effect="non-scaling-stroke"  x="-540" y="-540" rx="0" ry="0" width="1080" height="1080" />
</g>
<g transform="matrix(1 0 0 1 540 540)" id="c4ffbd32-714c-497c-b008-30f46362c1a4"  >
</g>
<g transform="matrix(39.78 0 0 39.78 540 540)"  >
<g style="" vector-effect="non-scaling-stroke"   >
		<g transform="matrix(1 0 0 1 0 -5)"  >
<path style="stroke: none; stroke-width: 1; stroke-dasharray: none; stroke-linecap: butt; stroke-dashoffset: 0; stroke-linejoin: miter; stroke-miterlimit: 4; fill: rgb(226,226,226); fill-rule: nonzero; opacity: 1;" vector-effect="non-scaling-stroke"  transform=" translate(-12, -7)" d="M 5 11 L 19 11 C 21.2 11 23 9.2 23 7 C 23 4.8 21.2 3 19 3 L 5 3 C 2.8 3 1 4.8 1 7 C 1 9.2 2.8 11 5 11 z M 5 5 C 6.1 5 7 5.9 7 7 C 7 8.1 6.1 9 5 9 C 3.9000000000000004 9 3 8.1 3 7 C 3 5.9 3.9 5 5 5 z" stroke-linecap="round" />
</g>
		<g transform="matrix(1 0 0 1 0 5)"  >
<path style="stroke: none; stroke-width: 1; stroke-dasharray: none; stroke-linecap: butt; stroke-dashoffset: 0; stroke-linejoin: miter; stroke-miterlimit: 4; fill: rgb(226,226,226); fill-rule: nonzero; opacity: 1;" vector-effect="non-scaling-stroke"  transform=" translate(-12, -17)" d="M 19 13 L 5 13 C 2.8 13 1 14.8 1 17 C 1 19.2 2.8 21 5 21 L 19 21 C 21.2 21 23 19.2 23 17 C 23 14.8 21.2 13 19 13 z M 19 19 C 17.9 19 17 18.1 17 17 C 17 15.9 17.9 15 19 15 C 20.1 15 21 15.9 21 17 C 21 18.1 20.1 19 19 19 z" stroke-linecap="round" />
</g>
</g>
</g>
</svg>