<?xml version="1.0" encoding="UTF-8" standalone="no" ?>
<!DOCTYPE svg PUBLIC "-//W3C//DTD SVG 1.1//EN" "http://www.w3.org/Graphics/SVG/1.1/DTD/svg11.dtd">
<svg xmlns="http://www.w3.org/2000/svg" xmlns:xlink="http://www.w3.org/1999/xlink" version="1.1" width="1080" height="1080" viewBox="0 0 1080 1080" xml:space="preserve">
<desc>Created with Fabric.js 5.2.4</desc>
<defs>
</defs>
<rect x="0" y="0" width="100%" height="100%" fill="transparent"></rect>
<g transform="matrix(1 0 0 1 540 540)" id="56197b9e-9c44-43ef-8a4c-e43398921f46"  >
<rect style="stroke: none; stroke-width: 1; stroke-dasharray: none; stroke-linecap: butt; stroke-dashoffset: 0; stroke-linejoin: miter; stroke-miterlimit: 4; fill: rgb(255,255,255); fill-rule: nonzero; opacity: 1; visibility: hidden;" vector-effect="non-scaling-stroke"  x="-540" y="-540" rx="0" ry="0" width="1080" height="1080" />
</g>
<g transform="matrix(1 0 0 1 540 540)" id="8be19551-c0e5-4bde-8cfd-9207fe043817"  >
</g>
<g transform="matrix(28.88 0 0 28.88 540 540)"  >
<g style="" vector-effect="non-scaling-stroke"   >
		<g transform="matrix(1 0 0 1 0 4)"  >
<path style="stroke: none; stroke-width: 1; stroke-dasharray: none; stroke-linecap: butt; stroke-dashoffset: 0; stroke-linejoin: miter; stroke-miterlimit: 4; fill: rgb(226,226,226); fill-rule: nonzero; opacity: 1;" vector-effect="non-scaling-stroke"  transform=" translate(-16, -19.5)" d="M 27 20 L 8 20 L 8 10 C 8 9.4 7.6 9 7 9 C 6.4 9 6 9.4 6 10 L 6 20 L 5 20 C 3.3 20 2 21.3 2 23 L 2 29 C 2 29.6 2.4 30 3 30 L 29 30 C 29.6 30 30 29.6 30 29 L 30 23 C 30 21.3 28.7 20 27 20 z M 18 26 L 17 26 C 16.4 26 16 25.6 16 25 C 16 24.4 16.4 24 17 24 L 18 24 C 18.6 24 19 24.4 19 25 C 19 25.6 18.6 26 18 26 z M 25 26 L 21 26 C 20.4 26 20 25.6 20 25 C 20 24.4 20.4 24 21 24 L 25 24 C 25.6 24 26 24.4 26 25 C 26 25.6 25.6 26 25 26 z" stroke-linecap="round" />
</g>
		<g transform="matrix(1 0 0 1 1.35 -5.6)"  >
<path style="stroke: none; stroke-width: 1; stroke-dasharray: none; stroke-linecap: butt; stroke-dashoffset: 0; stroke-linejoin: miter; stroke-miterlimit: 4; fill: rgb(226,226,226); fill-rule: nonzero; opacity: 1;" vector-effect="non-scaling-stroke"  transform=" translate(-17.35, -9.9)" d="M 18 10 C 18 12.7 16.9 15.2 15 17.1 C 14.6 17.5 14.6 18.1 15 18.5 C 15.2 18.7 15.5 18.8 15.7 18.8 C 16 18.8 16.2 18.7 16.4 18.5 C 18.7 16.2 20 13.2 20 9.9 C 20 6.600000000000001 18.7 3.6000000000000005 16.4 1.3000000000000007 C 15.999999999999998 0.9000000000000007 15.399999999999999 0.9000000000000007 14.999999999999998 1.3000000000000007 C 14.599999999999998 1.7000000000000006 14.599999999999998 2.3000000000000007 14.999999999999998 2.7000000000000006 C 16.9 4.8 18 7.3 18 10 z" stroke-linecap="round" />
</g>
		<g transform="matrix(1 0 0 1 -2.05 -5.5)"  >
<path style="stroke: none; stroke-width: 1; stroke-dasharray: none; stroke-linecap: butt; stroke-dashoffset: 0; stroke-linejoin: miter; stroke-miterlimit: 4; fill: rgb(226,226,226); fill-rule: nonzero; opacity: 1;" vector-effect="non-scaling-stroke"  transform=" translate(-13.95, -10)" d="M 14 10 C 14 11.6 13.4 13.2 12.2 14.3 C 11.799999999999999 14.700000000000001 11.799999999999999 15.3 12.2 15.700000000000001 C 12.399999999999999 15.9 12.7 16 12.899999999999999 16 C 13.2 16 13.399999999999999 15.9 13.599999999999998 15.7 C 15.199999999999998 14.2 15.999999999999998 12.1 15.999999999999998 10 C 15.999999999999998 7.9 15.099999999999998 5.8 13.599999999999998 4.3 C 13.199999999999998 3.9 12.599999999999998 3.9 12.199999999999998 4.3 C 11.799999999999997 4.7 11.799999999999997 5.3 12.199999999999998 5.699999999999999 C 13.4 6.8 14 8.4 14 10 z" stroke-linecap="round" />
</g>
		<g transform="matrix(1 0 0 1 -5.5 -5.5)"  >
<path style="stroke: none; stroke-width: 1; stroke-dasharray: none; stroke-linecap: butt; stroke-dashoffset: 0; stroke-linejoin: miter; stroke-miterlimit: 4; fill: rgb(226,226,226); fill-rule: nonzero; opacity: 1;" vector-effect="non-scaling-stroke"  transform=" translate(-10.5, -10)" d="M 9.3 12.9 C 9.5 13.1 9.8 13.200000000000001 10 13.200000000000001 C 10.2 13.200000000000001 10.5 13.100000000000001 10.7 12.9 C 11.5 12.1 12 11.1 12 10 C 12 8.9 11.5 7.9 10.7 7.1 C 10.299999999999999 6.699999999999999 9.7 6.699999999999999 9.299999999999999 7.1 C 8.899999999999999 7.5 8.899999999999999 8.1 9.299999999999999 8.5 C 9.8 8.9 10 9.4 10 10 C 10 10.6 9.8 11.1 9.4 11.5 C 9 11.8 8.9 12.5 9.3 12.9 z" stroke-linecap="round" />
</g>
</g>
</g>
</svg>