<?xml version="1.0" encoding="UTF-8" standalone="no" ?>
<!DOCTYPE svg PUBLIC "-//W3C//DTD SVG 1.1//EN" "http://www.w3.org/Graphics/SVG/1.1/DTD/svg11.dtd">
<svg xmlns="http://www.w3.org/2000/svg" xmlns:xlink="http://www.w3.org/1999/xlink" version="1.1" width="1080" height="1080" viewBox="0 0 1080 1080" xml:space="preserve">
<desc>Created with Fabric.js 5.2.4</desc>
<defs>
</defs>
<rect x="0" y="0" width="100%" height="100%" fill="transparent"></rect>
<g transform="matrix(1 0 0 1 540 540)" id="56c458bc-0703-47c9-807b-40c6c8945f92"  >
</g>
<g transform="matrix(1 0 0 1 540 540)" id="e642b775-a0da-417a-8347-b26424603f1d"  >
<rect style="stroke: none; stroke-width: 1; stroke-dasharray: none; stroke-linecap: butt; stroke-dashoffset: 0; stroke-linejoin: miter; stroke-miterlimit: 4; fill: rgb(255,255,255); fill-rule: nonzero; opacity: 1; visibility: hidden;" vector-effect="non-scaling-stroke"  x="-540" y="-540" rx="0" ry="0" width="1080" height="1080" />
</g>
<g transform="matrix(0 0 0 0 0 0)"  >
<g style=""   >
</g>
</g>
<g transform="matrix(0 0 0 0 0 0)"  >
<g style=""   >
</g>
</g>
<g transform="matrix(0 0 0 0 0 0)"  >
<g style=""   >
</g>
</g>
<g transform="matrix(0 0 0 0 0 0)"  >
<g style=""   >
</g>
</g>
<g transform="matrix(0 0 0 0 0 0)"  >
<g style=""   >
</g>
</g>
<g transform="matrix(NaN NaN NaN NaN 0 0)"  >
<g style=""   >
</g>
</g>
<g transform="matrix(49.97 0 0 49.97 540 540)"  >
<g style="" vector-effect="non-scaling-stroke"   >
		<g transform="matrix(1 0 0 1 0 -7.5)"  >
<path style="stroke: none; stroke-width: 1; stroke-dasharray: none; stroke-linecap: butt; stroke-dashoffset: 0; stroke-linejoin: miter; stroke-miterlimit: 4; fill: rgb(226,226,226); fill-rule: nonzero; opacity: 1;" vector-effect="non-scaling-stroke"  transform=" translate(-12, -4.5)" d="M 12 2 C 11.4 2 11 2.4 11 3 L 11 6 C 11 6.6 11.4 7 12 7 C 12.6 7 13 6.6 13 6 L 13 3 C 13 2.4 12.6 2 12 2 z" stroke-linecap="round" />
</g>
		<g transform="matrix(1 0 0 1 3.77 -6.52)"  >
<path style="stroke: none; stroke-width: 1; stroke-dasharray: none; stroke-linecap: butt; stroke-dashoffset: 0; stroke-linejoin: miter; stroke-miterlimit: 4; fill: rgb(226,226,226); fill-rule: nonzero; opacity: 1;" vector-effect="non-scaling-stroke"  transform=" translate(-15.77, -5.48)" d="M 14.5 7.7 C 14.7 7.8 14.8 7.8 15 7.8 C 15.3 7.8 15.7 7.6 15.9 7.3 L 17.4 4.699999999999999 C 17.7 4.199999999999999 17.5 3.599999999999999 17 3.2999999999999994 C 16.5 2.9999999999999996 15.9 3.1999999999999993 15.6 3.6999999999999993 L 14.1 6.299999999999999 C 13.9 6.8 14 7.4 14.5 7.7 z" stroke-linecap="round" />
</g>
		<g transform="matrix(1 0 0 1 6.5 -3.75)"  >
<path style="stroke: none; stroke-width: 1; stroke-dasharray: none; stroke-linecap: butt; stroke-dashoffset: 0; stroke-linejoin: miter; stroke-miterlimit: 4; fill: rgb(226,226,226); fill-rule: nonzero; opacity: 1;" vector-effect="non-scaling-stroke"  transform=" translate(-18.5, -8.25)" d="M 16.3 9.5 C 16.5 9.8 16.8 10 17.2 10 C 17.4 10 17.5 10 17.7 9.9 L 20.3 8.4 C 20.8 8.1 20.900000000000002 7.5 20.7 7 C 20.4 6.5 19.8 6.4 19.3 6.6 L 16.7 8.1 C 16.2 8.4 16.1 9 16.3 9.5 z" stroke-linecap="round" />
</g>
		<g transform="matrix(1 0 0 1 7.5 0)"  >
<path style="stroke: none; stroke-width: 1; stroke-dasharray: none; stroke-linecap: butt; stroke-dashoffset: 0; stroke-linejoin: miter; stroke-miterlimit: 4; fill: rgb(226,226,226); fill-rule: nonzero; opacity: 1;" vector-effect="non-scaling-stroke"  transform=" translate(-19.5, -12)" d="M 21 11 L 18 11 C 18 11 18 11 18 11 C 17.4 11 17 11.4 17 12 C 17 12.6 17.4 13 18 13 L 21 13 C 21 13 21 13 21 13 C 21.6 13 22 12.6 22 12 C 22 11.5 21.6 11 21 11 z" stroke-linecap="round" />
</g>
		<g transform="matrix(1 0 0 1 6.48 3.83)"  >
<path style="stroke: none; stroke-width: 1; stroke-dasharray: none; stroke-linecap: butt; stroke-dashoffset: 0; stroke-linejoin: miter; stroke-miterlimit: 4; fill: rgb(226,226,226); fill-rule: nonzero; opacity: 1;" vector-effect="non-scaling-stroke"  transform=" translate(-18.48, -15.83)" d="M 20.3 15.7 L 17.7 14.2 C 17.2 13.899999999999999 16.599999999999998 14.1 16.3 14.6 C 16 15.1 16.2 15.7 16.7 16 L 19.3 17.5 C 19.5 17.6 19.6 17.6 19.8 17.6 C 20.1 17.6 20.5 17.400000000000002 20.7 17.1 C 20.9 16.5 20.8 15.9 20.3 15.7 z" stroke-linecap="round" />
</g>
		<g transform="matrix(1 0 0 1 3.65 6.5)"  >
<path style="stroke: none; stroke-width: 1; stroke-dasharray: none; stroke-linecap: butt; stroke-dashoffset: 0; stroke-linejoin: miter; stroke-miterlimit: 4; fill: rgb(226,226,226); fill-rule: nonzero; opacity: 1;" vector-effect="non-scaling-stroke"  transform=" translate(-15.65, -18.5)" d="M 15.8 16.7 C 15.5 16.2 14.9 16.099999999999998 14.4 16.3 C 13.9 16.6 13.8 17.2 14 17.7 L 15.5 20.3 C 15.7 20.6 16 20.8 16.4 20.8 C 16.599999999999998 20.8 16.7 20.8 16.9 20.7 C 17.4 20.4 17.5 19.8 17.299999999999997 19.3 L 15.8 16.7 z" stroke-linecap="round" />
</g>
		<g transform="matrix(1 0 0 1 0 7.5)"  >
<path style="stroke: none; stroke-width: 1; stroke-dasharray: none; stroke-linecap: butt; stroke-dashoffset: 0; stroke-linejoin: miter; stroke-miterlimit: 4; fill: rgb(226,226,226); fill-rule: nonzero; opacity: 1;" vector-effect="non-scaling-stroke"  transform=" translate(-12, -19.5)" d="M 12 17 C 11.5 17 11 17.4 11 18 L 11 21 C 11 21.6 11.4 22 12 22 C 12 22 12 22 12 22 C 12.5 22 13 21.6 13 21 L 13 18 C 13 17.5 12.5 17 12 17 z" stroke-linecap="round" />
</g>
		<g transform="matrix(1 0 0 1 -3.77 6.48)"  >
<path style="stroke: none; stroke-width: 1; stroke-dasharray: none; stroke-linecap: butt; stroke-dashoffset: 0; stroke-linejoin: miter; stroke-miterlimit: 4; fill: rgb(226,226,226); fill-rule: nonzero; opacity: 1;" vector-effect="non-scaling-stroke"  transform=" translate(-8.23, -18.48)" d="M 9.5 16.3 C 9 16 8.4 16.2 8.1 16.7 L 6.6 19.3 C 6.3 19.8 6.5 20.400000000000002 7 20.7 C 7.2 20.8 7.3 20.8 7.5 20.8 C 7.8 20.8 8.2 20.6 8.4 20.3 L 9.9 17.7 C 10.1 17.2 10 16.6 9.5 16.3 z" stroke-linecap="round" />
</g>
		<g transform="matrix(1 0 0 1 -6.5 3.75)"  >
<path style="stroke: none; stroke-width: 1; stroke-dasharray: none; stroke-linecap: butt; stroke-dashoffset: 0; stroke-linejoin: miter; stroke-miterlimit: 4; fill: rgb(226,226,226); fill-rule: nonzero; opacity: 1;" vector-effect="non-scaling-stroke"  transform=" translate(-5.5, -15.75)" d="M 7.7 14.5 C 7.4 14 6.8 13.9 6.300000000000001 14.1 L 3.7000000000000006 15.6 C 3.2000000000000006 15.9 3.1000000000000005 16.5 3.3000000000000007 17 C 3.500000000000001 17.3 3.8000000000000007 17.5 4.200000000000001 17.5 C 4.400000000000001 17.5 4.500000000000001 17.5 4.700000000000001 17.4 L 7.300000000000001 15.899999999999999 C 7.8 15.6 7.9 15 7.7 14.5 z" stroke-linecap="round" />
</g>
		<g transform="matrix(1 0 0 1 -7.5 0)"  >
<path style="stroke: none; stroke-width: 1; stroke-dasharray: none; stroke-linecap: butt; stroke-dashoffset: 0; stroke-linejoin: miter; stroke-miterlimit: 4; fill: rgb(226,226,226); fill-rule: nonzero; opacity: 1;" vector-effect="non-scaling-stroke"  transform=" translate(-4.5, -12)" d="M 6 13 C 6.5 13 7 12.6 7 12 C 7 11.4 6.6 11 6 11 L 3 11 C 3 11 3 11 3 11 C 2.5 11 2 11.4 2 12 C 2 12.6 2.4 13 3 13 L 6 13 C 6 13 6 13 6 13 z" stroke-linecap="round" />
</g>
		<g transform="matrix(1 0 0 1 -6.45 -3.77)"  >
<path style="stroke: none; stroke-width: 1; stroke-dasharray: none; stroke-linecap: butt; stroke-dashoffset: 0; stroke-linejoin: miter; stroke-miterlimit: 4; fill: rgb(226,226,226); fill-rule: nonzero; opacity: 1;" vector-effect="non-scaling-stroke"  transform=" translate(-5.55, -8.23)" d="M 3.7 8.3 L 6.300000000000001 9.8 C 6.5 9.9 6.7 10 6.8 10 C 7.1 10 7.5 9.8 7.7 9.5 C 8 9 7.8 8.4 7.3 8.1 L 4.7 6.6 C 4.3 6.3 3.7 6.5 3.4 6.9 C 3.1 7.4 3.3 8 3.7 8.3 z" stroke-linecap="round" />
</g>
</g>
</g>
<g transform="matrix(NaN NaN NaN NaN 0 0)"  >
<g style=""   >
</g>
</g>
</svg>