<?xml version="1.0" encoding="UTF-8" standalone="no" ?>
<!DOCTYPE svg PUBLIC "-//W3C//DTD SVG 1.1//EN" "http://www.w3.org/Graphics/SVG/1.1/DTD/svg11.dtd">
<svg xmlns="http://www.w3.org/2000/svg" xmlns:xlink="http://www.w3.org/1999/xlink" version="1.1" width="1080" height="1080" viewBox="0 0 1080 1080" xml:space="preserve">
<desc>Created with Fabric.js 5.2.4</desc>
<defs>
</defs>
<rect x="0" y="0" width="100%" height="100%" fill="transparent"></rect>
<g transform="matrix(1 0 0 1 540 540)" id="5f6915d9-5e06-49cc-be22-1765f1766137"  >
<rect style="stroke: none; stroke-width: 1; stroke-dasharray: none; stroke-linecap: butt; stroke-dashoffset: 0; stroke-linejoin: miter; stroke-miterlimit: 4; fill: rgb(255,255,255); fill-rule: nonzero; opacity: 1; visibility: hidden;" vector-effect="non-scaling-stroke"  x="-540" y="-540" rx="0" ry="0" width="1080" height="1080" />
</g>
<g transform="matrix(1 0 0 1 540 540)" id="8b6f39de-5bf9-4c66-904b-cbae711eac1d"  >
</g>
<g transform="matrix(NaN NaN NaN NaN 0 0)"  >
<g style=""   >
</g>
</g>
<g transform="matrix(NaN NaN NaN NaN 0 0)"  >
<g style=""   >
</g>
</g>
<g transform="matrix(NaN NaN NaN NaN 0 0)"  >
<g style=""   >
</g>
</g>
<g transform="matrix(NaN NaN NaN NaN 0 0)"  >
<g style=""   >
</g>
</g>
<g transform="matrix(NaN NaN NaN NaN 0 0)"  >
<g style=""   >
</g>
</g>
<g transform="matrix(NaN NaN NaN NaN 0 0)"  >
<g style=""   >
</g>
</g>
<g transform="matrix(NaN NaN NaN NaN 0 0)"  >
<g style=""   >
</g>
</g>
<g transform="matrix(NaN NaN NaN NaN 0 0)"  >
<g style=""   >
</g>
</g>
<g transform="matrix(NaN NaN NaN NaN 0 0)"  >
<g style=""   >
</g>
</g>
<g transform="matrix(NaN NaN NaN NaN 0 0)"  >
<g style=""   >
</g>
</g>
<g transform="matrix(NaN NaN NaN NaN 0 0)"  >
<g style=""   >
</g>
</g>
<g transform="matrix(0.94 0 0 0.94 540 540)"  >
<g style="" vector-effect="non-scaling-stroke"   >
		<g transform="matrix(1 0 0 1 0 0)"  >
<rect style="stroke: none; stroke-width: 1; stroke-dasharray: none; stroke-linecap: butt; stroke-dashoffset: 0; stroke-linejoin: miter; stroke-miterlimit: 4; fill: rgb(62,184,22); fill-rule: nonzero; opacity: 1; visibility: hidden;" vector-effect="non-scaling-stroke"  x="-540" y="-540" rx="0" ry="0" width="1080" height="1080" />
</g>
		<g transform="matrix(54.55 0 0 54.55 0 0)"  >
<path style="stroke: rgb(0,0,0); stroke-width: 0; stroke-dasharray: none; stroke-linecap: butt; stroke-dashoffset: 0; stroke-linejoin: miter; stroke-miterlimit: 4; fill: rgb(62,184,22); fill-rule: nonzero; opacity: 1;" vector-effect="non-scaling-stroke"  transform=" translate(-12, -12)" d="M 10.4 5.6000001 L 10.4 8.7999999 L 13.600000000000001 8.7999999 L 13.600000000000001 5.6000001 L 10.400000000000002 5.6000001 M 15.200000000000003 5.6000001 L 15.200000000000003 8.7999999 L 18.400000000000002 8.7999999 L 18.400000000000002 5.6000001 L 15.2 5.6000001 M 15.2 10.4 L 15.2 13.600000000000001 L 18.4 13.600000000000001 L 18.4 10.400000000000002 L 15.2 10.400000000000002 M 15.2 15.200000000000003 L 15.2 18.400000000000002 L 18.4 18.400000000000002 L 18.4 15.200000000000003 L 15.2 15.200000000000003 M 13.6 18.400000000000002 L 13.6 15.200000000000003 L 10.399999999999999 15.200000000000003 L 10.399999999999999 18.400000000000002 L 13.599999999999998 18.400000000000002 M 8.800000099999998 18.400000000000002 L 8.800000099999998 15.200000000000003 L 5.600000099999998 15.200000000000003 L 5.600000099999998 18.400000000000002 L 8.800000099999998 18.400000000000002 M 8.800000099999998 13.600000000000001 L 8.800000099999998 10.400000000000002 L 5.600000099999998 10.400000000000002 L 5.600000099999998 13.600000000000001 L 8.800000099999998 13.600000000000001 M 8.800000099999998 8.799999900000001 L 8.800000099999998 5.6000001 L 5.600000099999998 5.6000001 L 5.600000099999998 8.7999999 L 8.800000099999998 8.7999999 M 10.4 13.6 L 13.600000000000001 13.6 L 13.600000000000001 10.399999999999999 L 10.400000000000002 10.399999999999999 L 10.400000000000002 13.599999999999998 M 5.6000001 4.0000001 L 18.4 4.0000001 C 18.82434638374327 4.000000099999999 19.231312644381617 4.1685710445846675 19.531370849898476 4.4686292501015235 C 19.83142905541533 4.7686874556183785 20 5.175653716256729 20 5.6000001 L 20 18.4 C 20 18.82434638374327 19.83142905541533 19.23131264438162 19.531370849898476 19.531370849898476 C 19.23131264438162 19.83142905541533 18.82434638374327 20 18.4 20 L 5.6000001 20 C 4.736 20 4 19.28 4 18.4 L 4 5.6000001 C 3.999999999999999 5.175653698930627 4.168570958311783 4.768687423137625 4.468629185456862 4.4686292147461835 C 4.76868741260194 4.1685710063547425 5.175653698930628 4.00000007347835 5.600000099999999 4.000000099999999 z" stroke-linecap="round" />
</g>
</g>
</g>
<g transform="matrix(NaN NaN NaN NaN 0 0)"  >
<g style=""   >
</g>
</g>
</svg>