<?xml version="1.0" encoding="UTF-8" standalone="no" ?>
<!DOCTYPE svg PUBLIC "-//W3C//DTD SVG 1.1//EN" "http://www.w3.org/Graphics/SVG/1.1/DTD/svg11.dtd">
<svg xmlns="http://www.w3.org/2000/svg" xmlns:xlink="http://www.w3.org/1999/xlink" version="1.1" width="1080" height="1080" viewBox="0 0 1080 1080" xml:space="preserve">
<desc>Created with Fabric.js 5.2.4</desc>
<defs>
</defs>
<rect x="0" y="0" width="100%" height="100%" fill="transparent"></rect>
<g transform="matrix(1 0 0 1 540 540)" id="0e62ac12-f387-4441-adee-dc550764eb09"  >
<rect style="stroke: none; stroke-width: 1; stroke-dasharray: none; stroke-linecap: butt; stroke-dashoffset: 0; stroke-linejoin: miter; stroke-miterlimit: 4; fill: rgb(255,255,255); fill-rule: nonzero; opacity: 1; visibility: hidden;" vector-effect="non-scaling-stroke"  x="-540" y="-540" rx="0" ry="0" width="1080" height="1080" />
</g>
<g transform="matrix(1 0 0 1 540 540)" id="79e30966-6c7f-4d47-9b1a-d2423c576ab7"  >
</g>
<g transform="matrix(0 0 0 0 0 0)"  >
<g style=""   >
</g>
</g>
<g transform="matrix(0 0 0 0 0 0)"  >
<g style=""   >
</g>
</g>
<g transform="matrix(0 0 0 0 0 0)"  >
<g style=""   >
</g>
</g>
<g transform="matrix(0 0 0 0 0 0)"  >
<g style=""   >
</g>
</g>
<g transform="matrix(0 0 0 0 0 0)"  >
<g style=""   >
</g>
</g>
<g transform="matrix(0 0 0 0 0 0)"  >
<g style=""   >
</g>
</g>
<g transform="matrix(0 0 0 0 0 0)"  >
<g style=""   >
</g>
</g>
<g transform="matrix(0 0 0 0 0 0)"  >
<g style=""   >
</g>
</g>
<g transform="matrix(0 0 0 0 0 0)"  >
<g style=""   >
</g>
</g>
<g transform="matrix(0 0 0 0 0 0)"  >
<g style=""   >
</g>
</g>
<g transform="matrix(0 0 0 0 0 0)"  >
<g style=""   >
</g>
</g>
<g transform="matrix(0 0 0 0 0 0)"  >
<g style=""   >
</g>
</g>
<g transform="matrix(0 0 0 0 0 0)"  >
<g style=""   >
</g>
</g>
<g transform="matrix(0 0 0 0 0 0)"  >
<g style=""   >
</g>
</g>
<g transform="matrix(0 0 0 0 0 0)"  >
<g style=""   >
</g>
</g>
<g transform="matrix(0 0 0 0 0 0)"  >
<g style=""   >
</g>
</g>
<g transform="matrix(0 0 0 0 0 0)"  >
<g style=""   >
</g>
</g>
<g transform="matrix(0 0 0 0 0 0)"  >
<g style=""   >
</g>
</g>
<g transform="matrix(0 0 0 0 0 0)"  >
<g style=""   >
</g>
</g>
<g transform="matrix(0 0 0 0 0 0)"  >
<g style=""   >
</g>
</g>
<g transform="matrix(0 0 0 0 0 0)"  >
<g style=""   >
</g>
</g>
<g transform="matrix(0 0 0 0 0 0)"  >
<g style=""   >
</g>
</g>
<g transform="matrix(1 0 0 1 -2.34 80.17)"  >
<rect style="stroke: none; stroke-width: 1; stroke-dasharray: none; stroke-linecap: butt; stroke-dashoffset: 0; stroke-linejoin: miter; stroke-miterlimit: 4; fill: rgb(34,30,30); fill-opacity: 0; fill-rule: nonzero; opacity: 1;" vector-effect="non-scaling-stroke"  x="-50" y="-50" rx="0" ry="0" width="100" height="100" />
</g>
<g transform="matrix(1 0 0 1 487.66 570.17)"  >
<rect style="stroke: none; stroke-width: 1; stroke-dasharray: none; stroke-linecap: butt; stroke-dashoffset: 0; stroke-linejoin: miter; stroke-miterlimit: 4; fill: rgb(34,30,30); fill-opacity: 0; fill-rule: nonzero; opacity: 1; visibility: hidden;" vector-effect="non-scaling-stroke"  x="-540" y="-540" rx="0" ry="0" width="1080" height="1080" />
</g>
<g transform="matrix(1 0 0 1 50 50)"  >
<rect style="stroke: none; stroke-width: 1; stroke-dasharray: none; stroke-linecap: butt; stroke-dashoffset: 0; stroke-linejoin: miter; stroke-miterlimit: 4; fill: rgb(255,255,255); fill-opacity: 0; fill-rule: nonzero; opacity: 1;" vector-effect="non-scaling-stroke"  x="-50" y="-50" rx="0" ry="0" width="100" height="100" />
</g>
<g transform="matrix(1 0 0 1 540 540)"  >
<rect style="stroke: none; stroke-width: 1; stroke-dasharray: none; stroke-linecap: butt; stroke-dashoffset: 0; stroke-linejoin: miter; stroke-miterlimit: 4; fill: rgb(255,255,255); fill-rule: nonzero; opacity: 1; visibility: hidden;" vector-effect="non-scaling-stroke"  x="-540" y="-540" rx="0" ry="0" width="1080" height="1080" />
</g>
<g transform="matrix(NaN NaN NaN NaN 0 0)"  >
<g style=""   >
</g>
</g>
<g transform="matrix(NaN NaN NaN NaN 0 0)"  >
<g style=""   >
</g>
</g>
<g transform="matrix(NaN NaN NaN NaN 0 0)"  >
<g style=""   >
</g>
</g>
<g transform="matrix(NaN NaN NaN NaN 0 0)"  >
<g style=""   >
</g>
</g>
<g transform="matrix(NaN NaN NaN NaN 0 0)"  >
<g style=""   >
</g>
</g>
<g transform="matrix(NaN NaN NaN NaN 0 0)"  >
<g style=""   >
</g>
</g>
<g transform="matrix(NaN NaN NaN NaN 0 0)"  >
<g style=""   >
</g>
</g>
<g transform="matrix(NaN NaN NaN NaN 0 0)"  >
<g style=""   >
</g>
</g>
<g transform="matrix(NaN NaN NaN NaN 0 0)"  >
<g style=""   >
</g>
</g>
<g transform="matrix(NaN NaN NaN NaN 0 0)"  >
<g style=""   >
</g>
</g>
<g transform="matrix(NaN NaN NaN NaN 0 0)"  >
<g style=""   >
</g>
</g>
<g transform="matrix(NaN NaN NaN NaN 0 0)"  >
<g style=""   >
</g>
</g>
<g transform="matrix(NaN NaN NaN NaN 0 0)"  >
<g style=""   >
</g>
</g>
<g transform="matrix(NaN NaN NaN NaN 0 0)"  >
<g style=""   >
</g>
</g>
<g transform="matrix(NaN NaN NaN NaN 0 0)"  >
<g style=""   >
</g>
</g>
<g transform="matrix(NaN NaN NaN NaN 0 0)"  >
<g style=""   >
</g>
</g>
<g transform="matrix(NaN NaN NaN NaN 0 0)"  >
<g style=""   >
</g>
</g>
<g transform="matrix(NaN NaN NaN NaN 0 0)"  >
<g style=""   >
</g>
</g>
<g transform="matrix(NaN NaN NaN NaN 0 0)"  >
<g style=""   >
</g>
</g>
<g transform="matrix(1 0 0 1 50 50)"  >
<rect style="stroke: none; stroke-width: 1; stroke-dasharray: none; stroke-linecap: butt; stroke-dashoffset: 0; stroke-linejoin: miter; stroke-miterlimit: 4; fill: rgb(255,255,255); fill-opacity: 0; fill-rule: nonzero; opacity: 1;" vector-effect="non-scaling-stroke"  x="-50" y="-50" rx="0" ry="0" width="100" height="100" />
</g>
<g transform="matrix(1 0 0 1 540 540)"  >
<rect style="stroke: none; stroke-width: 1; stroke-dasharray: none; stroke-linecap: butt; stroke-dashoffset: 0; stroke-linejoin: miter; stroke-miterlimit: 4; fill: rgb(255,255,255); fill-rule: nonzero; opacity: 1; visibility: hidden;" vector-effect="non-scaling-stroke"  x="-540" y="-540" rx="0" ry="0" width="1080" height="1080" />
</g>
<g transform="matrix(NaN NaN NaN NaN 0 0)"  >
<g style=""   >
</g>
</g>
<g transform="matrix(NaN NaN NaN NaN 0 0)"  >
<g style=""   >
</g>
</g>
<g transform="matrix(NaN NaN NaN NaN 0 0)"  >
<g style=""   >
</g>
</g>
<g transform="matrix(NaN NaN NaN NaN 0 0)"  >
<g style=""   >
</g>
</g>
<g transform="matrix(NaN NaN NaN NaN 0 0)"  >
<g style=""   >
</g>
</g>
<g transform="matrix(NaN NaN NaN NaN 0 0)"  >
<g style=""   >
</g>
</g>
<g transform="matrix(NaN NaN NaN NaN 0 0)"  >
<g style=""   >
</g>
</g>
<g transform="matrix(NaN NaN NaN NaN 0 0)"  >
<g style=""   >
</g>
</g>
<g transform="matrix(NaN NaN NaN NaN 0 0)"  >
<g style=""   >
</g>
</g>
<g transform="matrix(NaN NaN NaN NaN 0 0)"  >
<g style=""   >
</g>
</g>
<g transform="matrix(NaN NaN NaN NaN 0 0)"  >
<g style=""   >
</g>
</g>
<g transform="matrix(NaN NaN NaN NaN 0 0)"  >
<g style=""   >
</g>
</g>
<g transform="matrix(NaN NaN NaN NaN 0 0)"  >
<g style=""   >
</g>
</g>
<g transform="matrix(NaN NaN NaN NaN 0 0)"  >
<g style=""   >
</g>
</g>
<g transform="matrix(NaN NaN NaN NaN 0 0)"  >
<g style=""   >
</g>
</g>
<g transform="matrix(NaN NaN NaN NaN 0 0)"  >
<g style=""   >
</g>
</g>
<g transform="matrix(NaN NaN NaN NaN 0 0)"  >
<g style=""   >
</g>
</g>
<g transform="matrix(2.35 0 0 2.35 540 540)"  >
<g style="opacity: 0.58;" vector-effect="non-scaling-stroke"   >
		<g transform="matrix(1 0 0 1 -95.13 98.47)" id="XMLID_670_"  >
<path style="stroke: none; stroke-width: 1; stroke-dasharray: none; stroke-linecap: butt; stroke-dashoffset: 0; stroke-linejoin: miter; stroke-miterlimit: 4; fill: rgb(106,184,22); fill-rule: nonzero; opacity: 1;" vector-effect="non-scaling-stroke"  transform=" translate(-160.87, -354.47)" d="M 178.401 345.111 C 178.02100000000002 344.782 177.63500000000002 344.46 177.26000000000002 344.128 C 174.854 341.997 172.538 339.769 170.317 337.447 C 169.97 337.085 169.63400000000001 336.713 169.293 336.346 C 168.531 335.529 167.77700000000002 334.70300000000003 167.038 333.865 C 166.863 333.666 166.679 333.478 166.50500000000002 333.277 L 140.16000000000003 375.657 L 181.57100000000003 347.77599999999995 C 181.36500000000004 347.60999999999996 181.17000000000002 347.43199999999996 180.96500000000003 347.26599999999996 C 180.099 346.561 179.246 345.84 178.401 345.111 z" stroke-linecap="round" />
</g>
		<g transform="matrix(1 0 0 1 0.3 -155.35)" id="XMLID_671_"  >
<path style="stroke: none; stroke-width: 1; stroke-dasharray: none; stroke-linecap: butt; stroke-dashoffset: 0; stroke-linejoin: miter; stroke-miterlimit: 4; fill: rgb(106,184,22); fill-rule: nonzero; opacity: 1;" vector-effect="non-scaling-stroke"  transform=" translate(-256.3, -100.65)" d="M 242.354 141.078 C 242.64200000000002 141.048 242.93 141.024 243.21900000000002 140.996 C 244.05800000000002 140.91500000000002 244.89800000000002 140.84400000000002 245.73900000000003 140.78 C 246.17100000000002 140.748 246.60200000000003 140.714 247.03500000000003 140.685 C 247.98700000000002 140.624 248.94100000000003 140.576 249.89400000000003 140.538 C 250.44700000000003 140.51700000000002 250.99800000000005 140.502 251.55000000000004 140.488 C 252.11800000000005 140.473 252.68600000000004 140.465 253.25400000000005 140.459 C 253.66400000000004 140.454 254.07600000000005 140.43800000000002 254.48600000000005 140.43800000000002 C 254.69300000000004 140.43800000000002 254.89900000000006 140.45000000000002 255.10600000000005 140.45100000000002 C 256.30300000000005 140.45800000000003 257.50000000000006 140.484 258.696 140.526 C 259.019 140.538 259.34200000000004 140.54500000000002 259.66700000000003 140.559 C 261.04900000000004 140.62 262.42900000000003 140.71 263.807 140.819 C 264.03200000000004 140.838 264.257 140.851 264.482 140.87099999999998 C 265.93100000000004 140.99399999999997 267.37600000000003 141.14799999999997 268.81600000000003 141.325 C 268.98 141.34599999999998 269.14500000000004 141.363 269.30800000000005 141.384 C 270.77600000000007 141.571 272.237 141.78799999999998 273.69300000000004 142.02999999999997 C 273.79 142.04699999999997 273.88700000000006 142.05699999999996 273.98300000000006 142.07299999999998 L 257.81000000000006 59.234999999999985 L 238.60800000000006 141.529 C 238.74100000000007 141.51 238.87500000000006 141.499 239.00700000000006 141.481 C 240.122 141.331 241.237 141.194 242.354 141.078 z" stroke-linecap="round" />
</g>
		<g transform="matrix(1 0 0 1 0.33 156.31)" id="XMLID_672_"  >
<path style="stroke: none; stroke-width: 1; stroke-dasharray: none; stroke-linecap: butt; stroke-dashoffset: 0; stroke-linejoin: miter; stroke-miterlimit: 4; fill: rgb(106,184,22); fill-rule: nonzero; opacity: 1;" vector-effect="non-scaling-stroke"  transform=" translate(-256.33, -412.31)" d="M 269.89 372.395 C 269.496 372.447 269.103 372.49699999999996 268.709 372.54499999999996 C 267.681 372.67099999999994 266.652 372.78299999999996 265.621 372.88199999999995 C 265.344 372.90899999999993 265.065 372.93999999999994 264.787 372.96399999999994 C 263.443 373.08299999999997 262.097 373.1809999999999 260.75 373.25399999999996 C 260.665 373.258 260.58 373.25999999999993 260.495 373.265 C 259.24 373.329 257.984 373.37 256.729 373.395 C 256.46 373.40099999999995 256.192 373.404 255.92399999999998 373.407 C 255.44499999999996 373.41299999999995 254.96599999999998 373.428 254.486 373.428 C 252.321 373.428 250.15099999999998 373.36 247.982 373.238 C 247.765 373.226 247.548 373.212 247.332 373.199 C 246.055 373.12 244.778 373.02500000000003 243.503 372.904 C 243.44799999999998 372.899 243.39399999999998 372.896 243.339 372.89 C 242.059 372.767 240.782 372.61699999999996 239.507 372.452 C 239.357 372.431 239.207 372.42 239.05700000000002 372.4 L 257.81 452.767 L 273.608 371.849 C 273.384 371.88599999999997 273.161 371.912 272.938 371.947 C 271.924 372.108 270.908 372.259 269.89 372.395 z" stroke-linecap="round" />
</g>
		<g transform="matrix(1 0 0 1 -96.87 -92.87)" id="XMLID_673_"  >
<path style="stroke: none; stroke-width: 1; stroke-dasharray: none; stroke-linecap: butt; stroke-dashoffset: 0; stroke-linejoin: miter; stroke-miterlimit: 4; fill: rgb(106,184,22); fill-rule: nonzero; opacity: 1;" vector-effect="non-scaling-stroke"  transform=" translate(-159.13, -163.13)" d="M 164.995 182.373 C 165.684 181.546 166.391 180.732 167.103 179.92499999999998 C 167.382 179.60899999999998 167.655 179.28599999999997 167.937 178.97199999999998 C 168.93800000000002 177.86299999999997 169.958 176.771 171 175.701 C 171.187 175.509 171.381 175.326 171.568 175.136 C 172.431 174.261 173.306 173.396 174.198 172.548 C 174.568 172.196 174.946 171.854 175.321 171.507 C 176.053 170.828 176.792 170.155 177.541 169.496 C 177.728 169.33200000000002 177.904 169.16 178.09199999999998 168.997 L 140.15999999999997 143.45800000000003 L 164.61999999999998 182.80800000000002 C 164.743 182.659 164.873 182.52 164.995 182.373 z" stroke-linecap="round" />
</g>
		<g transform="matrix(1 0 0 1 95.09 -91.72)" id="XMLID_674_"  >
<path style="stroke: none; stroke-width: 1; stroke-dasharray: none; stroke-linecap: butt; stroke-dashoffset: 0; stroke-linejoin: miter; stroke-miterlimit: 4; fill: rgb(106,184,22); fill-rule: nonzero; opacity: 1;" vector-effect="non-scaling-stroke"  transform=" translate(-351.09, -164.28)" d="M 334.212 172.041 C 334.565 172.373 334.924 172.7 335.274 173.036 C 336.334 174.057 337.377 175.093 338.396 176.15 C 338.41700000000003 176.173 338.44100000000003 176.195 338.462 176.217 C 339.502 177.299 340.517 178.405 341.515 179.526 C 341.829 179.88000000000002 342.134 180.24300000000002 342.44599999999997 180.601 C 343.128 181.385 343.80199999999996 182.175 344.46299999999997 182.978 C 344.60299999999995 183.14700000000002 344.74899999999997 183.30700000000002 344.88699999999994 183.477 L 370.74299999999994 145.076 L 331.44699999999995 169.503 C 331.61699999999996 169.652 331.77799999999996 169.81099999999998 331.94599999999997 169.96099999999998 C 332.711 170.643 333.464 171.339 334.212 172.041 z" stroke-linecap="round" />
</g>
		<g transform="matrix(1 0 0 1 -156.71 0.27)" id="XMLID_675_"  >
<path style="stroke: none; stroke-width: 1; stroke-dasharray: none; stroke-linecap: butt; stroke-dashoffset: 0; stroke-linejoin: miter; stroke-miterlimit: 4; fill: rgb(106,184,22); fill-rule: nonzero; opacity: 1;" vector-effect="non-scaling-stroke"  transform=" translate(-99.29, -256.27)" d="M 139.156 273.415 C 139.12900000000002 273.221 139.11 273.024 139.084 272.83000000000004 C 138.951 271.855 138.83 270.879 138.721 269.89900000000006 C 138.69 269.61600000000004 138.655 269.33400000000006 138.625 269.05000000000007 C 138.499 267.83600000000007 138.392 266.62000000000006 138.304 265.40400000000005 C 138.284 265.14900000000006 138.273 264.89400000000006 138.256 264.63900000000007 C 138.19 263.64000000000004 138.137 262.6410000000001 138.097 261.64000000000004 C 138.083 261.30000000000007 138.07000000000002 260.96000000000004 138.05800000000002 260.62100000000004 C 138.02 259.391 137.99400000000003 258.16100000000006 137.99400000000003 256.932 C 137.99400000000003 255.60000000000002 138.02400000000003 254.27 138.07000000000002 252.94000000000003 C 138.08200000000002 252.57500000000002 138.097 252.21000000000004 138.11400000000003 251.84400000000002 C 138.16100000000003 250.747 138.22300000000004 249.65300000000002 138.30200000000002 248.55900000000003 C 138.32000000000002 248.30100000000002 138.33300000000003 248.04300000000003 138.354 247.78600000000003 C 138.45600000000002 246.47400000000002 138.58200000000002 245.16600000000003 138.728 243.86000000000004 C 138.764 243.53600000000003 138.806 243.21400000000006 138.845 242.89000000000004 C 138.97 241.84900000000005 139.109 240.81100000000004 139.262 239.77500000000003 C 139.294 239.55600000000004 139.316 239.33600000000004 139.35 239.11700000000005 L 59.235 257.81000000000006 L 139.156 273.415 z" stroke-linecap="round" />
</g>
		<g transform="matrix(1 0 0 1 155.13 0.2)" id="XMLID_676_"  >
<path style="stroke: none; stroke-width: 1; stroke-dasharray: none; stroke-linecap: butt; stroke-dashoffset: 0; stroke-linejoin: miter; stroke-miterlimit: 4; fill: rgb(106,184,22); fill-rule: nonzero; opacity: 1;" vector-effect="non-scaling-stroke"  transform=" translate(-411.13, -256.2)" d="M 370.871 261.801 C 370.827 262.849 370.769 263.895 370.698 264.941 C 370.68 265.19199999999995 370.669 265.443 370.65 265.69399999999996 C 370.556 266.94399999999996 370.43899999999996 268.193 370.30499999999995 269.43899999999996 C 370.27099999999996 269.765 370.22999999999996 270.08899999999994 370.1929999999999 270.41499999999996 C 370.07699999999994 271.405 369.9509999999999 272.395 369.80999999999995 273.383 C 369.78 273.597 369.75899999999996 273.81199999999995 369.7269999999999 274.025 L 452.7659999999999 257.81199999999995 L 369.4949999999999 238.38199999999995 C 369.5289999999999 238.59499999999994 369.5529999999999 238.80999999999995 369.58499999999987 239.02299999999994 C 369.7569999999999 240.12899999999993 369.91299999999984 241.23899999999995 370.0529999999999 242.34899999999993 C 370.0959999999999 242.69299999999993 370.1419999999999 243.03599999999994 370.1819999999999 243.37899999999993 C 370.3419999999999 244.74099999999993 370.4809999999999 246.10599999999994 370.5929999999999 247.47099999999995 C 370.6119999999999 247.70099999999994 370.6229999999999 247.93199999999996 370.6409999999999 248.16099999999994 C 370.7299999999999 249.33199999999994 370.7989999999999 250.50199999999995 370.8519999999999 251.67399999999995 C 370.8699999999999 252.04699999999994 370.8859999999999 252.41999999999996 370.8999999999999 252.79299999999995 C 370.9489999999999 254.17399999999995 370.98299999999995 255.55399999999995 370.98299999999995 256.93399999999997 C 370.98299999999995 258.205 370.9549999999999 259.477 370.91299999999995 260.74899999999997 C 370.9 261.1 370.886 261.451 370.871 261.801 z" stroke-linecap="round" />
</g>
		<g transform="matrix(1 0 0 1 -1.51 0.93)" id="XMLID_677_"  >
<path style="stroke: none; stroke-width: 1; stroke-dasharray: none; stroke-linecap: butt; stroke-dashoffset: 0; stroke-linejoin: miter; stroke-miterlimit: 4; fill: rgb(106,184,22); fill-rule: nonzero; opacity: 1;" vector-effect="non-scaling-stroke"  transform=" translate(-254.49, -256.93)" d="M 339.583 322.073 C 349.29400000000004 309.411 356.14200000000005 294.49899999999997 359.39000000000004 278.948 C 359.39000000000004 278.948 359.39000000000004 278.947 359.39000000000004 278.94599999999997 C 360.71000000000004 272.628 361.46000000000004 266.167 361.62700000000007 259.702 C 361.6500000000001 258.778 361.6620000000001 257.855 361.6620000000001 256.932 C 361.6620000000001 248.99200000000002 360.7710000000001 241.02 359.0150000000001 233.23700000000002 C 355.8240000000001 219.098 349.8830000000001 205.95900000000003 341.3600000000001 194.18200000000002 C 335.4860000000001 186.06600000000003 328.5100000000001 178.811 320.62600000000015 172.61800000000002 C 309.39000000000016 163.79300000000003 296.7690000000001 157.40300000000002 283.11200000000014 153.62800000000001 C 281.79900000000015 153.26500000000001 280.4010000000001 152.912 278.8390000000001 152.55 C 276.8220000000001 152.08200000000002 274.8390000000001 151.679 272.94400000000013 151.34900000000002 C 271.4370000000001 151.08700000000002 269.92200000000014 150.858 268.4010000000001 150.66100000000003 C 267.3290000000001 150.52100000000004 266.2520000000001 150.41800000000003 265.17400000000015 150.31100000000004 C 264.73400000000015 150.26700000000002 264.29400000000015 150.20700000000002 263.8530000000001 150.16800000000003 C 256.34500000000014 149.51700000000002 248.74600000000012 149.65800000000004 241.2190000000001 150.59200000000004 C 241.1160000000001 150.60500000000005 241.0140000000001 150.61200000000005 240.91100000000012 150.62400000000005 C 239.38900000000012 150.81700000000006 237.8690000000001 151.04400000000004 236.35300000000012 151.30300000000005 C 235.35800000000012 151.47300000000004 234.37000000000012 151.66500000000005 233.38200000000012 151.86000000000004 C 231.68600000000012 152.19600000000005 230.30100000000013 152.49700000000004 229.02500000000012 152.80800000000005 C 214.3150000000001 156.39300000000006 200.7620000000001 162.95000000000005 188.74500000000012 172.29800000000006 C 188.7440000000001 172.29800000000006 188.7430000000001 172.30000000000007 188.74100000000013 172.30100000000004 C 180.84500000000014 178.44400000000005 173.84900000000013 185.64200000000005 167.9520000000001 193.69600000000005 C 159.08400000000012 205.80800000000005 152.97100000000012 219.35300000000007 149.78000000000011 233.95500000000004 C 149.5760000000001 234.89300000000003 149.38400000000013 235.83400000000003 149.20500000000013 236.77800000000005 C 147.94800000000012 243.38800000000006 147.31200000000013 250.15400000000005 147.31200000000013 256.93300000000005 C 147.31200000000013 264.12700000000007 148.03500000000014 271.33500000000004 149.45900000000012 278.357 C 152.6890000000001 294.288 159.6780000000001 309.53200000000004 169.6660000000001 322.44300000000004 C 176.1060000000001 330.76700000000005 183.7180000000001 338.09000000000003 192.28700000000012 344.20900000000006 C 203.5710000000001 352.26500000000004 216.0940000000001 357.97300000000007 229.5060000000001 361.17500000000007 C 230.7770000000001 361.47800000000007 232.19200000000012 361.78100000000006 233.82800000000012 362.1020000000001 C 233.82900000000012 362.1020000000001 233.83000000000013 362.1020000000001 233.8310000000001 362.1020000000001 C 234.7520000000001 362.2820000000001 235.6760000000001 362.4510000000001 236.6020000000001 362.6060000000001 C 243.1100000000001 363.70100000000014 249.70600000000007 364.1910000000001 256.2870000000001 364.0820000000001 C 263.7500000000001 363.9570000000001 271.1940000000001 363.0610000000001 278.4710000000001 361.39600000000013 C 280.1100000000001 361.02000000000015 281.4570000000001 360.6870000000001 282.7110000000001 360.3460000000001 C 295.0000000000001 357.0000000000001 306.5240000000001 351.5010000000001 316.96000000000015 344.0000000000001 C 325.547 337.826 333.159 330.45 339.583 322.073 z M 205.575 221.191 C 200.563 228.036 197.10799999999998 235.691 195.30499999999998 243.943 C 194.379 248.181 193.909 252.55100000000002 193.909 256.932 C 193.909 259.505 191.82299999999998 261.591 189.25 261.591 C 186.67700000000002 261.591 184.59 259.505 184.59 256.932 C 184.59 251.88400000000001 185.132 246.84500000000003 186.20000000000002 241.95300000000003 C 188.281 232.42300000000003 192.27 223.58600000000004 198.05400000000003 215.68400000000003 C 199.57500000000002 213.60700000000003 202.49200000000002 213.15800000000002 204.56700000000004 214.67700000000002 C 206.645 216.199 207.096 219.114 205.575 221.191 z M 322.902 271.281 C 320.78499999999997 281.42900000000003 316.316 291.16 309.981 299.422 C 309.064 300.617 307.679 301.245 306.28 301.245 C 305.291 301.245 304.294 300.932 303.448 300.283 C 301.406 298.71700000000004 301.019 295.79200000000003 302.58599999999996 293.75 C 308.07499999999993 286.593 311.94499999999994 278.164 313.77899999999994 269.377 C 314.6329999999999 265.293 315.06399999999996 261.106 315.06399999999996 256.933 C 315.06399999999996 252.444 314.561 247.93699999999998 313.568 243.53699999999998 C 311.764 235.54799999999997 308.407 228.12199999999999 303.589 221.46699999999998 C 300.269 216.878 296.325 212.777 291.867 209.27599999999998 C 289.845 207.68699999999998 289.492 204.75699999999998 291.082 202.73399999999998 C 292.67199999999997 200.70899999999997 295.602 200.35799999999998 297.625 201.94699999999997 C 302.764 205.98399999999998 307.311 210.71299999999997 311.14 216.00399999999996 C 316.7 223.68599999999995 320.57599999999996 232.25999999999996 322.658 241.48599999999996 C 323.80400000000003 246.55699999999996 324.384 251.75499999999997 324.384 256.93299999999994 C 324.384 261.745 323.886 266.572 322.902 271.281 z" stroke-linecap="round" />
</g>
		<g transform="matrix(1 0 0 1 93.31 97.39)" id="XMLID_681_"  >
<path style="stroke: none; stroke-width: 1; stroke-dasharray: none; stroke-linecap: butt; stroke-dashoffset: 0; stroke-linejoin: miter; stroke-miterlimit: 4; fill: rgb(106,184,22); fill-rule: nonzero; opacity: 1;" vector-effect="non-scaling-stroke"  transform=" translate(-349.31, -353.39)" d="M 342.349 333.382 C 341.625 334.213 340.887 335.032 340.139 335.844 C 339.78000000000003 336.233 339.426 336.62399999999997 339.063 337.008 C 338.106 338.018 337.13 339.01 336.137 339.986 C 335.978 340.14099999999996 335.825 340.303 335.666 340.46 C 334.506 341.58599999999996 333.318 342.68699999999995 332.112 343.765 C 331.774 344.067 331.427 344.35699999999997 331.08700000000005 344.655 C 330.20700000000005 345.424 329.31800000000004 346.18199999999996 328.415 346.92499999999995 C 328.23 347.07699999999994 328.055 347.23799999999994 327.869 347.38999999999993 L 370.742 374.0399999999999 L 342.93100000000004 332.7339999999999 C 342.742 332.953 342.54 333.162 342.349 333.382 z" stroke-linecap="round" />
</g>
</g>
</g>
<g transform="matrix(NaN NaN NaN NaN 0 0)"  >
<g style=""   >
</g>
</g>
</svg>