<?xml version="1.0" encoding="UTF-8" standalone="no" ?>
<!DOCTYPE svg PUBLIC "-//W3C//DTD SVG 1.1//EN" "http://www.w3.org/Graphics/SVG/1.1/DTD/svg11.dtd">
<svg xmlns="http://www.w3.org/2000/svg" xmlns:xlink="http://www.w3.org/1999/xlink" version="1.1" width="1080" height="1080" viewBox="0 0 1080 1080" xml:space="preserve">
<desc>Created with Fabric.js 5.2.4</desc>
<defs>
</defs>
<g transform="matrix(1 0 0 1 540 540)" id="ec824419-965b-43b9-8818-d7c6fa3a40f0"  >
</g>
<g transform="matrix(1 0 0 1 540 540)" id="1ab07c67-81f5-450d-93c7-34f042b0f15d"  >
<rect style="stroke: none; stroke-width: 1; stroke-dasharray: none; stroke-linecap: butt; stroke-dashoffset: 0; stroke-linejoin: miter; stroke-miterlimit: 4; fill: rgb(255,255,255); fill-rule: nonzero; opacity: 1; visibility: hidden;" vector-effect="non-scaling-stroke"  x="-540" y="-540" rx="0" ry="0" width="1080" height="1080" />
</g>
<g transform="matrix(1 0 0 1 50 50)"  >
<rect style="stroke: none; stroke-width: 1; stroke-dasharray: none; stroke-linecap: butt; stroke-dashoffset: 0; stroke-linejoin: miter; stroke-miterlimit: 4; fill: rgb(255,255,255); fill-opacity: 0; fill-rule: nonzero; opacity: 1;" vector-effect="non-scaling-stroke"  x="-50" y="-50" rx="0" ry="0" width="100" height="100" />
</g>
<g transform="matrix(1 0 0 1 540 540)"  >
<rect style="stroke: none; stroke-width: 1; stroke-dasharray: none; stroke-linecap: butt; stroke-dashoffset: 0; stroke-linejoin: miter; stroke-miterlimit: 4; fill: rgb(255,255,255); fill-rule: nonzero; opacity: 1; visibility: hidden;" vector-effect="non-scaling-stroke"  x="-540" y="-540" rx="0" ry="0" width="1080" height="1080" />
</g>
<g transform="matrix(1 0 0 1 50 50)"  >
<rect style="stroke: none; stroke-width: 1; stroke-dasharray: none; stroke-linecap: butt; stroke-dashoffset: 0; stroke-linejoin: miter; stroke-miterlimit: 4; fill: rgb(255,255,255); fill-opacity: 0; fill-rule: nonzero; opacity: 1;" vector-effect="non-scaling-stroke"  x="-50" y="-50" rx="0" ry="0" width="100" height="100" />
</g>
<g transform="matrix(1 0 0 1 540 540)"  >
<rect style="stroke: none; stroke-width: 1; stroke-dasharray: none; stroke-linecap: butt; stroke-dashoffset: 0; stroke-linejoin: miter; stroke-miterlimit: 4; fill: rgb(255,255,255); fill-rule: nonzero; opacity: 1; visibility: hidden;" vector-effect="non-scaling-stroke"  x="-540" y="-540" rx="0" ry="0" width="1080" height="1080" />
</g>
<g transform="matrix(0.94 0 0 0.94 79.29 79.3)"  >
<rect style="stroke: none; stroke-width: 1; stroke-dasharray: none; stroke-linecap: butt; stroke-dashoffset: 0; stroke-linejoin: miter; stroke-miterlimit: 4; fill: rgb(177,189,197); fill-opacity: 0; fill-rule: nonzero; opacity: 1;" vector-effect="non-scaling-stroke"  x="-50" y="-50" rx="0" ry="0" width="100" height="100" />
</g>
<g transform="matrix(0.94 0 0 0.94 539.89 539.9)"  >
<rect style="stroke: none; stroke-width: 1; stroke-dasharray: none; stroke-linecap: butt; stroke-dashoffset: 0; stroke-linejoin: miter; stroke-miterlimit: 4; fill: rgb(177,189,197); fill-opacity: 0; fill-rule: nonzero; opacity: 1; visibility: hidden;" vector-effect="non-scaling-stroke"  x="-540" y="-540" rx="0" ry="0" width="1080" height="1080" />
</g>
<g transform="matrix(1 0 0 1 50 50)"  >
<rect style="stroke: none; stroke-width: 1; stroke-dasharray: none; stroke-linecap: butt; stroke-dashoffset: 0; stroke-linejoin: miter; stroke-miterlimit: 4; fill: rgb(255,255,255); fill-opacity: 0; fill-rule: nonzero; opacity: 1;" vector-effect="non-scaling-stroke"  x="-50" y="-50" rx="0" ry="0" width="100" height="100" />
</g>
<g transform="matrix(1 0 0 1 540 540)"  >
<rect style="stroke: none; stroke-width: 1; stroke-dasharray: none; stroke-linecap: butt; stroke-dashoffset: 0; stroke-linejoin: miter; stroke-miterlimit: 4; fill: rgb(255,255,255); fill-rule: nonzero; opacity: 1; visibility: hidden;" vector-effect="non-scaling-stroke"  x="-540" y="-540" rx="0" ry="0" width="1080" height="1080" />
</g>
<g transform="matrix(1 0 0 1 76.17 34.91)"  >
<rect style="stroke: none; stroke-width: 1; stroke-dasharray: none; stroke-linecap: butt; stroke-dashoffset: 0; stroke-linejoin: miter; stroke-miterlimit: 4; fill: rgb(255,255,255); fill-opacity: 0; fill-rule: nonzero; opacity: 1;" vector-effect="non-scaling-stroke"  x="-50" y="-50" rx="0" ry="0" width="100" height="100" />
</g>
<g transform="matrix(1 0 0 1 566.17 524.91)"  >
<rect style="stroke: none; stroke-width: 1; stroke-dasharray: none; stroke-linecap: butt; stroke-dashoffset: 0; stroke-linejoin: miter; stroke-miterlimit: 4; fill: rgb(255,255,255); fill-rule: nonzero; opacity: 1; visibility: hidden;" vector-effect="non-scaling-stroke"  x="-540" y="-540" rx="0" ry="0" width="1080" height="1080" />
</g>
<g transform="matrix(1 0 0 1 23.83 65.09)"  >
<rect style="stroke: none; stroke-width: 1; stroke-dasharray: none; stroke-linecap: butt; stroke-dashoffset: 0; stroke-linejoin: miter; stroke-miterlimit: 4; fill: rgb(34,30,30); fill-opacity: 0; fill-rule: nonzero; opacity: 1;" vector-effect="non-scaling-stroke"  x="-50" y="-50" rx="0" ry="0" width="100" height="100" />
</g>
<g transform="matrix(1 0 0 1 513.83 555.09)"  >
<rect style="stroke: none; stroke-width: 1; stroke-dasharray: none; stroke-linecap: butt; stroke-dashoffset: 0; stroke-linejoin: miter; stroke-miterlimit: 4; fill: rgb(34,30,30); fill-opacity: 0; fill-rule: nonzero; opacity: 1; visibility: hidden;" vector-effect="non-scaling-stroke"  x="-540" y="-540" rx="0" ry="0" width="1080" height="1080" />
</g>
<g transform="matrix(1 0 0 1 76.17 34.91)"  >
<rect style="stroke: none; stroke-width: 1; stroke-dasharray: none; stroke-linecap: butt; stroke-dashoffset: 0; stroke-linejoin: miter; stroke-miterlimit: 4; fill: rgb(255,255,255); fill-opacity: 0; fill-rule: nonzero; opacity: 1;" vector-effect="non-scaling-stroke"  x="-50" y="-50" rx="0" ry="0" width="100" height="100" />
</g>
<g transform="matrix(1 0 0 1 566.17 524.91)"  >
<rect style="stroke: none; stroke-width: 1; stroke-dasharray: none; stroke-linecap: butt; stroke-dashoffset: 0; stroke-linejoin: miter; stroke-miterlimit: 4; fill: rgb(255,255,255); fill-rule: nonzero; opacity: 1; visibility: hidden;" vector-effect="non-scaling-stroke"  x="-540" y="-540" rx="0" ry="0" width="1080" height="1080" />
</g>
<g transform="matrix(1 0 0 1 76.17 34.91)"  >
<rect style="stroke: none; stroke-width: 1; stroke-dasharray: none; stroke-linecap: butt; stroke-dashoffset: 0; stroke-linejoin: miter; stroke-miterlimit: 4; fill: rgb(255,255,255); fill-opacity: 0; fill-rule: nonzero; opacity: 1;" vector-effect="non-scaling-stroke"  x="-50" y="-50" rx="0" ry="0" width="100" height="100" />
</g>
<g transform="matrix(1 0 0 1 566.17 524.91)"  >
<rect style="stroke: none; stroke-width: 1; stroke-dasharray: none; stroke-linecap: butt; stroke-dashoffset: 0; stroke-linejoin: miter; stroke-miterlimit: 4; fill: rgb(255,255,255); fill-rule: nonzero; opacity: 1; visibility: hidden;" vector-effect="non-scaling-stroke"  x="-540" y="-540" rx="0" ry="0" width="1080" height="1080" />
</g>
<g transform="matrix(33.69 0 0 33.69 775.9 304.11)"  >
<path style="stroke: none; stroke-width: 1; stroke-dasharray: none; stroke-linecap: butt; stroke-dashoffset: 0; stroke-linejoin: miter; stroke-miterlimit: 4; fill: rgb(62,184,22); fill-rule: nonzero; opacity: 1;" vector-effect="non-scaling-stroke"  transform=" translate(-23, -9)" d="M 27 12 L 21.41 12 L 27.71 5.71 C 27.9636585688348 5.456341431165203 28.06272351676809 5.086626012228983 27.969878036686953 4.740121963313047 C 27.877032556605812 4.393617914397113 27.606382085602885 4.122967443394186 27.25987803668695 4.030121963313048 C 26.913373987771017 3.937276483231909 26.543658568834797 4.036341431165203 26.29 4.29 L 20 10.59 L 20 5 C 20 4.447715250169207 19.552284749830793 4 19 4 C 18.447715250169207 4 18 4.447715250169207 18 5 L 18 13 C 18.00157998741386 13.130677257271158 18.028759025338367 13.259777687412585 18.08 13.38 C 18.170923798695565 13.6312302565594 18.3687697434406 13.829076201304433 18.619999999999997 13.920000000000002 C 18.740222312587413 13.971240974661633 18.86932274272884 13.998420012586143 19 14 L 27 14 C 27.552284749830793 14 28 13.552284749830793 28 13 C 28 12.447715250169207 27.552284749830793 12 27 12 Z" stroke-linecap="round" />
</g>
<g transform="matrix(33.69 0 0 33.69 304.1 304.11)"  >
<path style="stroke: none; stroke-width: 1; stroke-dasharray: none; stroke-linecap: butt; stroke-dashoffset: 0; stroke-linejoin: miter; stroke-miterlimit: 4; fill: rgb(62,184,22); fill-rule: nonzero; opacity: 1;" vector-effect="non-scaling-stroke"  transform=" translate(-9, -9)" d="M 13 4 C 12.447715250169207 4 12 4.447715250169207 12 5 L 12 10.59 L 5.71 4.29 C 5.317877827620136 3.8978778276201367 4.682122172379863 3.8978778276201367 4.29 4.29 C 3.8978778276201367 4.682122172379864 3.8978778276201367 5.317877827620137 4.29 5.71 L 10.59 12 L 5 12 C 4.447715250169207 12 4 12.447715250169207 4 13 C 4 13.552284749830793 4.447715250169207 14 5 14 L 13 14 C 13.130677257271158 13.998420012586141 13.259777687412585 13.971240974661631 13.38 13.92 C 13.6312302565594 13.829076201304431 13.829076201304433 13.631230256559398 13.920000000000002 13.379999999999999 C 13.971240974661631 13.259777687412583 13.998420012586141 13.130677257271158 14 13 L 14 5 C 14 4.447715250169207 13.552284749830793 4 13 4 Z" stroke-linecap="round" />
</g>
<g transform="matrix(33.69 0 0 33.69 775.93 775.93)"  >
<path style="stroke: none; stroke-width: 1; stroke-dasharray: none; stroke-linecap: butt; stroke-dashoffset: 0; stroke-linejoin: miter; stroke-miterlimit: 4; fill: rgb(62,184,22); fill-rule: nonzero; opacity: 1;" vector-effect="non-scaling-stroke"  transform=" translate(-23, -23)" d="M 28 19 C 28 18.447715250169207 27.552284749830793 18 27 18 L 19 18 C 18.869322742728844 18.00157998741386 18.740222312587417 18.028759025338367 18.62 18.08 C 18.368769743440602 18.170923798695565 18.17092379869557 18.3687697434406 18.080000000000002 18.619999999999997 C 18.02875902533837 18.740222312587413 18.00157998741386 18.86932274272884 18 19 L 18 27 C 18 27.552284749830793 18.447715250169207 28 19 28 C 19.552284749830793 28 20 27.552284749830793 20 27 L 20 21.41 L 26.29 27.71 C 26.477766599905557 27.8993126508231 26.73336246362944 28.005798324341672 27 28.005798324341672 C 27.26663753637056 28.005798324341672 27.522233400094443 27.8993126508231 27.71 27.71 C 27.8993126508231 27.522233400094443 28.005798324341672 27.26663753637056 28.005798324341672 27 C 28.005798324341672 26.73336246362944 27.8993126508231 26.477766599905554 27.71 26.29 L 21.41 20 L 27 20 C 27.552284749830793 20 28 19.552284749830793 28 19 Z" stroke-linecap="round" />
</g>
<g transform="matrix(33.69 0 0 33.69 304.07 775.93)"  >
<path style="stroke: none; stroke-width: 1; stroke-dasharray: none; stroke-linecap: butt; stroke-dashoffset: 0; stroke-linejoin: miter; stroke-miterlimit: 4; fill: rgb(62,184,22); fill-rule: nonzero; opacity: 1;" vector-effect="non-scaling-stroke"  transform=" translate(-9, -23)" d="M 13.71 18.29 C 13.6127990590074 18.201669064243198 13.501184893282439 18.130641867872768 13.38 18.08 C 13.259777687412585 18.028759025338367 13.130677257271158 18.00157998741386 13 18 L 5 18 C 4.447715250169207 18 4 18.447715250169207 4 19 C 4 19.552284749830793 4.447715250169207 20 5 20 L 10.59 20 L 4.29 26.29 C 4.100687349176903 26.477766599905554 3.9942016756583296 26.73336246362944 3.9942016756583296 27 C 3.9942016756583296 27.26663753637056 4.100687349176903 27.522233400094443 4.29 27.71 C 4.477766599905556 27.8993126508231 4.733362463629442 28.005798324341672 5 28.005798324341672 C 5.266637536370558 28.005798324341672 5.522233400094444 27.8993126508231 5.71 27.71 L 12 21.41 L 12 27 C 12 27.552284749830793 12.447715250169207 28 13 28 C 13.552284749830793 28 14 27.552284749830793 14 27 L 14 19 C 13.998420012586141 18.869322742728844 13.971240974661631 18.740222312587417 13.92 18.62 C 13.86935813212723 18.49881510671756 13.7983309357568 18.3872009409926 13.71 18.29 Z" stroke-linecap="round" />
</g>
<g transform="matrix(0 0 0 0 0 0)"  >
<g style=""   >
</g>
</g>
<g transform="matrix(0 0 0 0 0 0)"  >
<g style=""   >
</g>
</g>
<g transform="matrix(0 0 0 0 0 0)"  >
<g style=""   >
</g>
</g>
<g transform="matrix(0 0 0 0 0 0)"  >
<g style=""   >
</g>
</g>
</svg>