<?xml version="1.0" encoding="UTF-8" standalone="no" ?>
<!DOCTYPE svg PUBLIC "-//W3C//DTD SVG 1.1//EN" "http://www.w3.org/Graphics/SVG/1.1/DTD/svg11.dtd">
<svg xmlns="http://www.w3.org/2000/svg" xmlns:xlink="http://www.w3.org/1999/xlink" version="1.1" width="1080" height="1080" viewBox="0 0 1080 1080" xml:space="preserve">
<desc>Created with Fabric.js 5.2.4</desc>
<defs>
</defs>
<rect x="0" y="0" width="100%" height="100%" fill="transparent"></rect>
<g transform="matrix(1 0 0 1 540 540)" id="79e30966-6c7f-4d47-9b1a-d2423c576ab7"  >
</g>
<g transform="matrix(1 0 0 1 540 540)" id="0e62ac12-f387-4441-adee-dc550764eb09"  >
<rect style="stroke: none; stroke-width: 1; stroke-dasharray: none; stroke-linecap: butt; stroke-dashoffset: 0; stroke-linejoin: miter; stroke-miterlimit: 4; fill: rgb(255,255,255); fill-rule: nonzero; opacity: 1; visibility: hidden;" vector-effect="non-scaling-stroke"  x="-540" y="-540" rx="0" ry="0" width="1080" height="1080" />
</g>
<g transform="matrix(NaN NaN NaN NaN 0 0)"  >
<g style=""   >
</g>
</g>
<g transform="matrix(NaN NaN NaN NaN 0 0)"  >
<g style=""   >
</g>
</g>
<g transform="matrix(NaN NaN NaN NaN 0 0)"  >
<g style=""   >
</g>
</g>
<g transform="matrix(NaN NaN NaN NaN 0 0)"  >
<g style=""   >
</g>
</g>
<g transform="matrix(NaN NaN NaN NaN 0 0)"  >
<g style=""   >
</g>
</g>
<g transform="matrix(NaN NaN NaN NaN 0 0)"  >
<g style=""   >
</g>
</g>
<g transform="matrix(NaN NaN NaN NaN 0 0)"  >
<g style=""   >
</g>
</g>
<g transform="matrix(NaN NaN NaN NaN 0 0)"  >
<g style=""   >
</g>
</g>
<g transform="matrix(NaN NaN NaN NaN 0 0)"  >
<g style=""   >
</g>
</g>
<g transform="matrix(30.46 0 0 30.46 540 540)"  >
<g style="" vector-effect="non-scaling-stroke"   >
		<g transform="matrix(1 0 0 1 0 0)" id="path12913"  >
<path style="stroke: none; stroke-width: 0.99999994; stroke-dasharray: none; stroke-linecap: round; stroke-dashoffset: 0; stroke-linejoin: round; stroke-miterlimit: 4; fill: rgb(62,184,22); fill-rule: nonzero; opacity: 1;" vector-effect="non-scaling-stroke"  transform=" translate(-16, -1036.36)" d="M 16 1031.3622 C 13.2445 1031.3622 11 1033.6067 11 1036.3622 C 11 1039.1177 13.2445 1041.3622 16 1041.3622 C 18.7555 1041.3622 21 1039.1177 21 1036.3622 C 21 1033.6067 18.7555 1031.3622 16 1031.3622 z M 16 1032.3622 C 18.21506 1032.3622 20 1034.1471000000001 20 1036.3622 C 20 1038.5773 18.21506 1040.3622 16 1040.3622 C 13.78494 1040.3622 12 1038.5773 12 1036.3622 C 12 1034.1471000000001 13.78494 1032.3622 16 1032.3622 z" stroke-linecap="round" />
</g>
		<g transform="matrix(1 0 0 1 0 0)" id="path12915"  >
<path style="stroke: none; stroke-width: 1; stroke-dasharray: none; stroke-linecap: round; stroke-dashoffset: 0; stroke-linejoin: round; stroke-miterlimit: 4; fill: rgb(62,184,22); fill-rule: nonzero; opacity: 1;" vector-effect="non-scaling-stroke"  transform=" translate(-16, -1036.36)" d="M 16 1029.3622 C 12.13993 1029.3622 9 1032.5021 9 1036.3622 C 9 1040.2223000000001 12.13993 1043.3622 16 1043.3622 C 19.86007 1043.3622 23 1040.2223000000001 23 1036.3622 C 23 1032.5021 19.86007 1029.3622 16 1029.3622 z M 16 1030.3622 C 19.31963 1030.3622 22 1033.0426 22 1036.3622 C 22 1039.6818 19.31963 1042.3622 16 1042.3622 C 12.68037 1042.3622 10 1039.6818 10 1036.3622 C 10 1033.0426 12.68037 1030.3622 16 1030.3622 z" stroke-linecap="round" />
</g>
		<g transform="matrix(1 0 0 1 1 -1)" id="path12917"  >
<path style="stroke: none; stroke-width: 1; stroke-dasharray: none; stroke-linecap: butt; stroke-dashoffset: 0; stroke-linejoin: miter; stroke-miterlimit: 4; fill: rgb(62,184,22); fill-rule: evenodd; opacity: 1;" vector-effect="non-scaling-stroke"  transform=" translate(-17, -1035.36)" d="M 15.5 1033.8622 L 15.5 1036.8622 L 18.5 1036.8622 L 18.5 1035.8622 L 16.5 1035.8622 L 16.5 1033.8622 z" stroke-linecap="round" />
</g>
		<g transform="matrix(1 0 0 1 -6.12 -11.12)" id="path12919"  >
<path style="stroke: none; stroke-width: 0.99999988; stroke-dasharray: none; stroke-linecap: butt; stroke-dashoffset: 0; stroke-linejoin: round; stroke-miterlimit: 4; fill: rgb(62,184,22); fill-rule: nonzero; opacity: 1;" vector-effect="non-scaling-stroke"  transform=" translate(-9.88, -1025.24)" d="M 7 1022.3622 C 6.723869048173251 1022.3622275758283 6.500027575828264 1022.5860690481733 6.5 1022.8622 L 6.5 1028.1122 L 7.5 1028.1122 L 7.5 1023.3622 L 13.25 1023.3622 L 13.25 1022.3622 z" stroke-linecap="round" />
</g>
		<g transform="matrix(1 0 0 1 0 -6.5)" id="path12921"  >
<path style="stroke: none; stroke-width: 1; stroke-dasharray: none; stroke-linecap: butt; stroke-dashoffset: 0; stroke-linejoin: round; stroke-miterlimit: 4; fill: rgb(62,184,22); fill-rule: nonzero; opacity: 1;" vector-effect="non-scaling-stroke"  transform=" translate(-16, -1029.86)" d="M 6 1027.36 C 5.723869061895771 1027.3600276089526 5.500027608952674 1027.5838690618957 5.5 1027.86 L 5.5 1031.86 C 5.500027608952674 1032.136130938104 5.723869061895771 1032.3599723910472 6 1032.36 L 11.25 1032.36 L 11.25 1031.36 L 6.5 1031.36 L 6.5 1028.36 L 25.5 1028.36 L 25.5 1031.36 L 20.75 1031.36 L 20.75 1032.36 L 26 1032.36 C 26.27613093810423 1032.3599723910472 26.499972391047326 1032.136130938104 26.5 1031.86 L 26.5 1027.86 C 26.499972391047326 1027.5838690618957 26.27613093810423 1027.3600276089526 26 1027.36 z" stroke-linecap="round" />
</g>
		<g transform="matrix(1 0 0 1 6.25 -11.12)" id="path12923"  >
<path style="stroke: none; stroke-width: 0.99999988; stroke-dasharray: none; stroke-linecap: butt; stroke-dashoffset: 0; stroke-linejoin: round; stroke-miterlimit: 4; fill: rgb(62,184,22); fill-rule: nonzero; opacity: 1;" vector-effect="non-scaling-stroke"  transform=" translate(-22.25, -1025.24)" d="M 19 1022.3622 L 19 1023.3622 L 24.5 1023.3622 L 24.5 1028.1122 L 25.5 1028.1122 L 25.5 1022.8622 C 25.499972424171737 1022.5860690481733 25.276130951826747 1022.3622275758283 25 1022.3622 z" stroke-linecap="round" />
</g>
		<g transform="matrix(1 0 0 1 0 -11.75)" id="path12925"  >
<path style="stroke: none; stroke-width: 0.99999982; stroke-dasharray: none; stroke-linecap: butt; stroke-dashoffset: 0; stroke-linejoin: round; stroke-miterlimit: 4; fill: rgb(62,184,22); fill-rule: nonzero; opacity: 1;" vector-effect="non-scaling-stroke"  transform=" translate(-16, -1024.61)" d="M 13 1021.3622 C 12.72386904131199 1021.3622275592661 12.500027559266053 1021.586069041312 12.5 1021.8622 L 12.5 1027.8622 L 13.5 1027.8622 L 13.5 1022.3622 L 18.5 1022.3622 L 18.5 1027.8622 L 19.5 1027.8622 L 19.5 1021.8622 C 19.499972440733945 1021.586069041312 19.27613095868801 1021.3622275592661 19 1021.3622 z" stroke-linecap="round" />
</g>
		<g transform="matrix(1 0 0 1 0 11.75)" id="path12927"  >
<path style="stroke: none; stroke-width: 0.99999982; stroke-dasharray: none; stroke-linecap: butt; stroke-dashoffset: 0; stroke-linejoin: round; stroke-miterlimit: 4; fill: rgb(62,184,22); fill-rule: nonzero; opacity: 1;" vector-effect="non-scaling-stroke"  transform=" translate(-16, -1048.11)" d="M 18.5 1044.8622 L 18.5 1050.3525 L 13.5 1050.3625 L 13.5 1044.8742 L 12.5 1044.8742 L 12.5 1050.8624 C 12.50004458590008 1051.1384254920952 12.723881081886853 1051.3621724534837 13 1051.3622 L 19 1051.3522 C 19.27611891811315 1051.3521724534837 19.49995541409992 1051.1284254920952 19.5 1050.8524 L 19.5 1044.8642 z" stroke-linecap="round" />
</g>
		<g transform="matrix(1 0 0 1 -6.25 11.12)" id="path12929"  >
<path style="stroke: none; stroke-width: 0.99999988; stroke-dasharray: none; stroke-linecap: butt; stroke-dashoffset: 0; stroke-linejoin: round; stroke-miterlimit: 4; fill: rgb(62,184,22); fill-rule: nonzero; opacity: 1;" vector-effect="non-scaling-stroke"  transform=" translate(-9.75, -1047.49)" d="M 6.49999 1044.6122 L 6.49999 1049.8622 C 6.500017608859538 1050.1383303668583 6.724127448437407 1050.36217159696 7.000590000000001 1050.3622 L 12.99999 1050.3622 L 12.99999 1049.3622 L 7.50119 1049.3622 L 7.50119 1044.6122 z" stroke-linecap="round" />
</g>
		<g transform="matrix(1 0 0 1 0 6.5)" id="path12931"  >
<path style="stroke: none; stroke-width: 1; stroke-dasharray: none; stroke-linecap: butt; stroke-dashoffset: 0; stroke-linejoin: round; stroke-miterlimit: 4; fill: rgb(62,184,22); fill-rule: nonzero; opacity: 1;" vector-effect="non-scaling-stroke"  transform=" translate(-16, -1042.86)" d="M 6 1040.3622 C 5.723869061895771 1040.3622276089527 5.500027608952674 1040.5860690618958 5.5 1040.8622 L 5.5 1044.8622 C 5.500027608952674 1045.1383309381042 5.723869061895771 1045.3621723910474 6 1045.3622 L 26 1045.3622 C 26.27613093810423 1045.3621723910474 26.499972391047326 1045.1383309381042 26.5 1044.8622 L 26.5 1040.8622 C 26.499972391047326 1040.5860690618958 26.27613093810423 1040.3622276089527 26 1040.3622 L 20.75 1040.3622 L 20.75 1041.3622 L 25.5 1041.3622 L 25.5 1044.3622 L 6.5 1044.3622 L 6.5 1041.3622 L 11.25 1041.3622 L 11.25 1040.3622 z" stroke-linecap="round" />
</g>
		<g transform="matrix(1 0 0 1 6.25 11.12)" id="path12933"  >
<path style="stroke: none; stroke-width: 0.99999988; stroke-dasharray: none; stroke-linecap: butt; stroke-dashoffset: 0; stroke-linejoin: round; stroke-miterlimit: 4; fill: rgb(62,184,22); fill-rule: nonzero; opacity: 1;" vector-effect="non-scaling-stroke"  transform=" translate(-22.25, -1047.49)" d="M 24.5 1044.6122 L 24.5 1049.3622 L 19 1049.3622 L 19 1050.3622 L 25 1050.3622 C 25.276130951826747 1050.3621724241718 25.499972424171737 1050.1383309518267 25.5 1049.8622 L 25.5 1044.6122 z" stroke-linecap="round" />
</g>
		<g transform="matrix(1 0 0 1 -9 0)" id="path12935"  >
<path style="stroke: none; stroke-width: 1; stroke-dasharray: none; stroke-linecap: butt; stroke-dashoffset: 0; stroke-linejoin: miter; stroke-miterlimit: 4; fill: rgb(62,184,22); fill-rule: evenodd; opacity: 1;" vector-effect="non-scaling-stroke"  transform=" translate(-7, -1036.36)" d="M 6.5 1031.8622 L 6.5 1040.8622 L 7.5 1040.8622 L 7.5 1031.8622 z" stroke-linecap="round" />
</g>
		<g transform="matrix(1 0 0 1 9 0)" id="path12937"  >
<path style="stroke: none; stroke-width: 1; stroke-dasharray: none; stroke-linecap: butt; stroke-dashoffset: 0; stroke-linejoin: miter; stroke-miterlimit: 4; fill: rgb(62,184,22); fill-rule: evenodd; opacity: 1;" vector-effect="non-scaling-stroke"  transform=" translate(-25, -1036.36)" d="M 24.5 1031.8622 L 24.5 1040.8622 L 25.5 1040.8622 L 25.5 1031.8622 z" stroke-linecap="round" />
</g>
</g>
</g>
<g transform="matrix(NaN NaN NaN NaN 0 0)"  >
<g style=""   >
</g>
</g>
<g transform="matrix(NaN NaN NaN NaN 0 0)"  >
<g style=""   >
</g>
</g>
</svg>