<?xml version="1.0" encoding="UTF-8" standalone="no" ?>
<!DOCTYPE svg PUBLIC "-//W3C//DTD SVG 1.1//EN" "http://www.w3.org/Graphics/SVG/1.1/DTD/svg11.dtd">
<svg xmlns="http://www.w3.org/2000/svg" xmlns:xlink="http://www.w3.org/1999/xlink" version="1.1" width="1080" height="1080" viewBox="0 0 1080 1080" xml:space="preserve">
<desc>Created with Fabric.js 5.2.4</desc>
<defs>
</defs>
<g transform="matrix(1 0 0 1 540 540)" id="5f6915d9-5e06-49cc-be22-1765f1766137"  >
<rect style="stroke: none; stroke-width: 1; stroke-dasharray: none; stroke-linecap: butt; stroke-dashoffset: 0; stroke-linejoin: miter; stroke-miterlimit: 4; fill: rgb(255,255,255); fill-rule: nonzero; opacity: 1; visibility: hidden;" vector-effect="non-scaling-stroke"  x="-540" y="-540" rx="0" ry="0" width="1080" height="1080" />
</g>
<g transform="matrix(1 0 0 1 540 540)" id="8b6f39de-5bf9-4c66-904b-cbae711eac1d"  >
</g>
<g transform="matrix(1.9 0 0 1.9 540 540)"  >
<g style="" vector-effect="non-scaling-stroke"   >
		<g transform="matrix(1 0 0 1 0 0)"  >
<path style="stroke: none; stroke-width: 1; stroke-dasharray: none; stroke-linecap: butt; stroke-dashoffset: 0; stroke-linejoin: miter; stroke-miterlimit: 4; fill: rgb(62,184,22); fill-rule: nonzero; opacity: 1;" vector-effect="non-scaling-stroke"  transform=" translate(-256, -256)" d="M 475.3571 413.24 C 473.2836210650905 388.3409363871598 458.07784160641984 366.44193762444087 435.4726 355.7993 L 395.5439 337.0006 L 417.123 292.43850000000003 C 429.0460845951345 267.81671108653137 429.04700561113634 239.09265347289937 417.1255 214.47010000000006 L 359.7988 96.0682 C 317.7933 9.3105 194.2088 9.31 152.2019 96.0666 L 94.87 214.4745 C 82.94785363610019 239.09738041730708 82.94965886426112 267.8223182795983 94.87490000000003 292.44370000000004 L 116.45590000000001 337.0006 L 76.5256 355.8 C 53.92112211788387 366.44239354979635 38.71588864813077 388.34072655974666 36.6425 413.23900000000003 L 33.030499999999996 456.6163 C 32.50798856789326 462.89092149412204 34.63664870439306 469.0976750206847 38.900103649858835 473.7309076955202 C 43.1635585953246 478.3641403703557 49.172260341844776 481.0005179301121 55.46860000000001 481.00050000000005 L 456.5337 481.00050000000005 C 462.8294992826644 481.0006576515192 468.83773414872894 478.3645969419884 473.1008652153413 473.73180057895485 C 477.36399628195363 469.09900421592135 479.4924920015572 462.8927808682038 478.97 456.6187 Z M 364 260.1205 C 363.9884020180102 315.9199163491955 321.46225041331405 362.5192863768177 265.8965 367.6205 L 265.8965 341.1249 C 265.8965 335.6592139732996 261.46568602670044 331.2284 256 331.2284 C 250.53431397329956 331.2284 246.1035 335.6592139732996 246.1035 341.1249 L 246.1035 367.6206 C 190.53771141465495 362.51938286162647 148.0115463106567 315.91995469345386 148 260.1205 L 148 203.44 C 147.99997347818476 195.7966382837918 151.03627535083015 188.46632115208016 156.44094825145515 183.06164825145515 C 161.84562115208016 177.65697535083015 169.1759382837918 174.62067347818476 176.8193 174.6207 L 335.1806 174.6207 C 342.8239709117205 174.6206734782909 350.1542983240912 177.65697215952795 355.55898710374106 183.06164218553 C 360.9636758833909 188.46631221153203 364.000000000046 195.79662908823352 364 203.44 Z" stroke-linecap="round" />
</g>
		<g transform="matrix(1 0 0 1 40.5 37.87)"  >
<path style="stroke: none; stroke-width: 1; stroke-dasharray: none; stroke-linecap: butt; stroke-dashoffset: 0; stroke-linejoin: miter; stroke-miterlimit: 4; fill: rgb(62,184,22); fill-rule: nonzero; opacity: 1;" vector-effect="non-scaling-stroke"  transform=" translate(-296.5, -293.87)" d="M 321.8213 275.9979 C 316.5793608750016 274.44412960976865 311.069388512801 277.4291846007139 309.50780000000003 282.66880000000003 C 307.78798015072226 288.4166309415222 302.4996117246277 292.35431046865574 296.5 292.35431046865574 C 290.5003882753724 292.35431046865574 285.2120198492778 288.4166309415222 283.4922 282.66880000000003 C 281.9340390353024 277.42640269765616 276.42109730234387 274.4397390353024 271.1787 275.9979000000001 C 265.9363026976562 277.5560609646977 262.9496390353024 283.0690026976562 264.50780000000003 288.31140000000005 C 268.73061598495445 302.4549756131911 281.7394815142273 312.14725983959113 296.5 312.14725983959113 C 311.26051848577276 312.14725983959113 324.2693840150456 302.4549756131911 328.4922 288.31140000000005 C 330.0444887144547 283.06961586853953 327.0599762847132 277.5606449945012 321.8213 275.9979 Z" stroke-linecap="round" />
</g>
		<g transform="matrix(1 0 0 1 -40.5 37.87)"  >
<path style="stroke: none; stroke-width: 1; stroke-dasharray: none; stroke-linecap: butt; stroke-dashoffset: 0; stroke-linejoin: miter; stroke-miterlimit: 4; fill: rgb(62,184,22); fill-rule: nonzero; opacity: 1;" vector-effect="non-scaling-stroke"  transform=" translate(-215.5, -293.87)" d="M 240.8213 275.9979 C 238.30378514847922 275.24636330416945 235.5907028310981 275.52733739828926 233.28062731581053 276.7788323229599 C 230.97055180052294 278.0303272476305 229.25332126463329 280.1494972240743 228.5078 282.66880000000003 C 226.78798015072223 288.4166309415222 221.49961172462764 292.35431046865574 215.5 292.35431046865574 C 209.50038827537236 292.35431046865574 204.21201984927777 288.4166309415222 202.4922 282.66880000000003 C 200.93403903530236 277.42640269765616 195.42109730234384 274.4397390353024 190.1787 275.9979000000001 C 184.93630269765612 277.5560609646977 181.94963903530237 283.0690026976562 183.5078 288.31140000000005 C 187.7306159849544 302.4549756131911 200.73948151422726 312.14725983959113 215.5 312.14725983959113 C 230.26051848577274 312.14725983959113 243.2693840150456 302.4549756131911 247.4922 288.31140000000005 C 249.04448871445467 283.06961586853953 246.05997628471314 277.5606449945012 240.8213 275.9979 Z" stroke-linecap="round" />
</g>
		<g transform="matrix(1 0 0 1 45 -18.67)"  >
<path style="stroke: none; stroke-width: 1; stroke-dasharray: none; stroke-linecap: butt; stroke-dashoffset: 0; stroke-linejoin: miter; stroke-miterlimit: 4; fill: rgb(62,184,22); fill-rule: nonzero; opacity: 1;" vector-effect="non-scaling-stroke"  transform=" translate(-301, -237.33)" d="M 319 227.4384 L 283 227.4384 C 279.4568451815398 227.42713708100976 276.1780055525723 229.31092272365203 274.4031688577579 232.37752143030775 C 272.62833216294354 235.44412013696348 272.62833216294354 239.22557986303656 274.4031688577579 242.29217856969228 C 276.1780055525723 245.35877727634798 279.4568451815398 247.24256291899025 283 247.2313 L 319 247.2313 C 322.5431548184602 247.24256291899025 325.8219944474277 245.35877727634798 327.5968311422421 242.29217856969225 C 329.37166783705646 239.22557986303656 329.37166783705646 235.44412013696345 327.5968311422421 232.37752143030775 C 325.8219944474277 229.31092272365203 322.5431548184602 227.42713708100976 319 227.4384 Z" stroke-linecap="round" />
</g>
		<g transform="matrix(1 0 0 1 -45 -18.67)"  >
<path style="stroke: none; stroke-width: 1; stroke-dasharray: none; stroke-linecap: butt; stroke-dashoffset: 0; stroke-linejoin: miter; stroke-miterlimit: 4; fill: rgb(62,184,22); fill-rule: nonzero; opacity: 1;" vector-effect="non-scaling-stroke"  transform=" translate(-211, -237.33)" d="M 193 247.2313 L 229 247.2313 C 232.54315481846024 247.24256291899025 235.82199444742773 245.35877727634798 237.59683114224208 242.29217856969225 C 239.37166783705646 239.22557986303656 239.37166783705646 235.44412013696345 237.59683114224208 232.37752143030775 C 235.82199444742773 229.31092272365203 232.54315481846024 227.42713708100976 229 227.4384 L 193 227.4384 C 189.45684518153976 227.42713708100976 186.17800555257227 229.31092272365203 184.40316885775792 232.37752143030775 C 182.62833216294354 235.44412013696348 182.62833216294354 239.22557986303656 184.40316885775792 242.29217856969228 C 186.1780055525723 245.35877727634798 189.45684518153976 247.24256291899025 193 247.2313 Z" stroke-linecap="round" />
</g>
</g>
</g>
<g transform="matrix(NaN NaN NaN NaN 0 0)"  >
<g style=""   >
</g>
</g>
</svg>