<?xml version="1.0" encoding="UTF-8" standalone="no" ?>
<!DOCTYPE svg PUBLIC "-//W3C//DTD SVG 1.1//EN" "http://www.w3.org/Graphics/SVG/1.1/DTD/svg11.dtd">
<svg xmlns="http://www.w3.org/2000/svg" xmlns:xlink="http://www.w3.org/1999/xlink" version="1.1" width="1080" height="1080" viewBox="0 0 1080 1080" xml:space="preserve">
<desc>Created with Fabric.js 5.2.4</desc>
<defs>
</defs>
<rect x="0" y="0" width="100%" height="100%" fill="transparent"></rect>
<g transform="matrix(1 0 0 1 540 540)" id="79e30966-6c7f-4d47-9b1a-d2423c576ab7"  >
</g>
<g transform="matrix(1 0 0 1 540 540)" id="0e62ac12-f387-4441-adee-dc550764eb09"  >
<rect style="stroke: none; stroke-width: 1; stroke-dasharray: none; stroke-linecap: butt; stroke-dashoffset: 0; stroke-linejoin: miter; stroke-miterlimit: 4; fill: rgb(255,255,255); fill-rule: nonzero; opacity: 1; visibility: hidden;" vector-effect="non-scaling-stroke"  x="-540" y="-540" rx="0" ry="0" width="1080" height="1080" />
</g>
<g transform="matrix(NaN NaN NaN NaN 0 0)"  >
<g style=""   >
</g>
</g>
<g transform="matrix(NaN NaN NaN NaN 0 0)"  >
<g style=""   >
</g>
</g>
<g transform="matrix(NaN NaN NaN NaN 0 0)"  >
<g style=""   >
</g>
</g>
<g transform="matrix(NaN NaN NaN NaN 0 0)"  >
<g style=""   >
</g>
</g>
<g transform="matrix(NaN NaN NaN NaN 0 0)"  >
<g style=""   >
</g>
</g>
<g transform="matrix(NaN NaN NaN NaN 0 0)"  >
<g style=""   >
</g>
</g>
<g transform="matrix(NaN NaN NaN NaN 0 0)"  >
<g style=""   >
</g>
</g>
<g transform="matrix(NaN NaN NaN NaN 0 0)"  >
<g style=""   >
</g>
</g>
<g transform="matrix(NaN NaN NaN NaN 0 0)"  >
<g style=""   >
</g>
</g>
<g transform="matrix(NaN NaN NaN NaN 0 0)"  >
<g style=""   >
</g>
</g>
<g transform="matrix(NaN NaN NaN NaN 0 0)"  >
<g style=""   >
</g>
</g>
<g transform="matrix(NaN NaN NaN NaN 0 0)"  >
<g style=""   >
</g>
</g>
<g transform="matrix(11.2 0 0 11.2 540 540)" id="97abebdf-aa25-4175-b2df-5f3314ef54b1"  >
<path style="stroke: rgb(0,0,0); stroke-width: 0; stroke-dasharray: none; stroke-linecap: butt; stroke-dashoffset: 0; stroke-linejoin: miter; stroke-miterlimit: 4; fill: rgb(34,173,195); fill-rule: nonzero; opacity: 1;" vector-effect="non-scaling-stroke"  transform=" translate(-64, -64)" d="M 103.87793 54.80811 C 103.44794981772031 53.49769112229863 102.0404837893904 52.78043247035306 100.72754 53.20264 L 93.34131 55.603 L 95.16063999999999 51.208 C 95.68878990626317 49.93245971033329 95.08291028966669 48.47027990626319 93.80736999999999 47.94213 C 92.53182971033328 47.41398009373681 91.06964990626318 48.01985971033329 90.54149999999998 49.2954 L 87.08886999999999 57.63427 L 82.26757999999998 59.20116 L 87.728 46.01123 C 88.25614990626318 44.73568971033329 87.6502702896667 43.273509906263186 86.37473 42.74536 C 85.09918971033329 42.21721009373681 83.63700990626319 42.82308971033329 83.10885999999999 44.09863 L 76.01514 61.23242 L 66.5 64.32373 L 66.5 54.05566 L 80.23975 42.3252 C 81.28984765478577 41.428546378683464 81.41423862131654 39.85039265478578 80.517585 38.800295000000006 C 79.62093137868347 37.75019734521423 78.04277765478578 37.625806378683464 76.99268000000001 38.52246 L 66.5 47.48145 L 66.5 42.7373 L 73.47949 36.7783 C 74.52958489336203 35.88164637868346 74.65397362131654 34.303494893362036 73.75731999999999 33.253400000000006 C 72.86066637868346 32.203305106637984 71.28251489336203 32.07891637868347 70.23242 32.975570000000005 L 66.5 36.1626 L 66.5 28.33545 C 66.5 26.954738125423017 65.38071187457699 25.83545 64 25.83545 C 62.61928812542302 25.83545 61.5 26.954738125423017 61.5 28.33545 L 61.5 36.1626 L 57.7666 32.9751 C 56.71650510663797 32.07871699821088 55.13857300178912 32.20332510663797 54.242189999999994 33.25341999999999 C 53.345806998210875 34.30351489336202 53.47041510663797 35.881446998210876 54.520509999999994 36.777829999999994 L 61.5 42.7373 L 61.5 47.5791 L 50.89258 38.52246 C 49.842197337825105 37.62907690724916 48.26679853466014 37.754845910164846 47.371459712765756 38.803562021140294 C 46.476120890871364 39.852278132115735 46.59895408163098 41.4279085578044 47.646 42.3252 L 61.5 54.15332 L 61.5 64.32422 L 51.77783 61.165 L 44.83545 44.39746 C 44.30730009373681 43.121919710333295 42.84512028966671 42.51604009373681 41.56958 43.04419 C 40.294039710333294 43.57233990626319 39.68816009373681 45.03451971033329 40.21631 46.31006 L 45.52539 59.13379 L 40.91113 57.63428 L 37.4585 49.29492 C 36.93035009373681 48.01937971033329 35.46817028966671 47.41350009373681 34.19263 47.941649999999996 C 32.91708971033329 48.469799906263184 32.31121009373681 49.93197971033329 32.83936 51.207519999999995 L 34.65869 55.603 L 27.27148 53.20261 C 25.95885958900422 52.77842680970914 24.550710591193585 53.497554406227835 24.124767241802918 54.80960470457692 C 23.698823892412253 56.121655002926005 24.416062174582798 57.53076725775133 25.72754 57.95847 L 33.30078 60.419 L 28.986780000000003 63.06353 C 27.812455786266238 63.78649583527937 27.445280064477966 65.32379957837053 28.166138785467947 66.49941842064693 C 28.88699750645793 67.67503726292333 30.423640310015642 68.04496928839168 31.600550000000002 67.32622 L 39.553180000000005 62.451220000000006 L 43.984820000000006 63.89067000000001 L 32.145 71.14844 C 30.970675786265904 71.87140583527922 30.603500064477398 73.40870957837062 31.324358785467492 74.58432842064721 C 32.04521750645758 75.75994726292379 33.58186031001562 76.12987928839203 34.758770000000005 75.41113 L 50.237770000000005 65.92236 L 59.954570000000004 69.07959 L 53.946270000000005 77.34912 L 35.98975 78.75928 C 34.979350225156736 78.83829061905323 34.11662326803895 79.5194986859315 33.805422953796665 80.48402175322538 C 33.49422263955437 81.44854482051926 33.79613069807843 82.5055186882738 34.56982 83.16016 C 35.07114462629947 83.58881537815745 35.72303602617051 83.79925472889762 36.38037 83.74463 L 50.082 82.66846 L 47.32809 86.45846 L 38.11667 87.18209 C 36.74000361121553 87.29036266378058 35.711767336219424 88.49414361121553 35.820040000000006 89.87081 C 35.92831266378058 91.24747638878448 37.13209361121553 92.27571266378058 38.50876 92.16744 L 43.463350000000005 91.77828 L 38.80124000000001 98.19478 C 38.41135328676478 98.73131142958131 38.25064720752771 99.40078340185438 38.3544955008212 100.0558354273195 C 38.45834379411469 100.71088745278462 38.81823433627839 101.29782694133866 39.35495000000001 101.68745999999999 C 40.48059414967387 102.46098891196367 42.014803849796984 102.21787678456312 42.84616000000001 101.13423999999999 L 47.46140000000001 94.78169999999999 L 48.59372000000001 99.49409999999999 C 48.9162542939012 100.83651921144745 50.26596578855255 101.66329929390118 51.60838500000002 101.34076499999999 C 52.95080421144748 101.0182307060988 53.7775842939012 99.66851921144745 53.455050000000014 98.32609999999998 L 51.32614000000002 89.46281999999998 L 54.12842 85.605 L 57.339839999999995 98.97219000000001 C 57.66237429390118 100.31460921144748 59.01208578855253 101.1413892939012 60.354505 100.81885500000001 C 61.69692421144747 100.49632070609883 62.52370429390118 99.14660921144747 62.20117 97.80419 L 57.99317 80.28612000000001 L 64 72.01807 L 70.00586 80.28466999999999 L 65.80566 97.76758 C 65.48312570609882 99.10999921144746 66.30990578855253 100.45971070609882 67.652325 100.78224499999999 C 68.99474421144747 101.10477929390117 70.34445570609881 100.27799921144747 70.66699 98.93558 L 73.87012 85.60358 L 76.67383 89.46294999999999 L 74.54491999999999 98.32623 C 74.2223857060988 99.66864921144746 75.04916578855253 101.01836070609882 76.39158499999999 101.34089499999999 C 77.73400421144746 101.66342929390117 79.0837157060988 100.83664921144747 79.40624999999999 99.49423 L 80.53856999999999 94.78183 L 85.15381 101.13437 C 85.7481975399931 101.95237639558452 86.77681220513226 102.3317873777356 87.7600144333901 102.0956848803641 C 88.74321666164793 101.85958238299263 89.48738253214606 101.0544625286219 89.64550999999999 100.05575 C 89.75112896012732 99.40069238485117 89.59024445094333 98.73060793597269 89.19872999999998 98.19491000000001 L 84.53661999999998 91.77841000000001 L 89.5 92.168 C 90.87549992215195 92.27153480756395 92.07499011878822 91.24154115232564 92.18058818808305 89.86619808967599 C 92.28618625737788 88.49085502702634 91.25799310823875 87.28982109340038 89.88281 87.18216000000001 L 80.67188 86.45853000000001 L 77.91797 82.66853 L 91.59277 83.74275 C 92.96812859801751 83.84448137553579 94.16614815503678 82.81337877430643 94.27037683676537 81.43820717489993 C 94.37460551849395 80.06303557549343 93.34568006631767 78.86314564423871 91.97070000000001 78.75642 L 74.0537 77.34968 L 68.0454 69.07968000000001 L 77.96874 65.85556000000001 L 93.21482999999999 75.20126000000002 C 93.97641033385777 75.67141720240471 94.9312260951328 75.69857953214986 95.71830294229665 75.27247809287682 C 96.5053797894605 74.84637665360377 97.00462427735084 74.03202668494933 97.02729376305481 73.13729851711852 C 97.04996324875879 72.24257034928773 96.59259878586212 71.40398303826063 95.82811 70.93857000000001 L 84.22168 63.82324 L 88.44678 62.45117 L 96.39941 67.32616999999999 C 97.57621148007726 68.04317308169756 99.11130361025073 67.6727028462956 99.8315425532868 66.4978790264783 C 100.55178149632285 65.323055206661 100.18553726190424 63.78694934956831 99.01270000000001 63.06347999999999 L 94.69922 60.419 L 102.27246 57.958549999999995 C 103.584350830337 57.5302597146528 104.30238671258981 56.121246176633086 103.87793 54.80811 Z" stroke-linecap="round" />
</g>
</svg>