<?xml version="1.0" encoding="UTF-8" standalone="no" ?>
<!DOCTYPE svg PUBLIC "-//W3C//DTD SVG 1.1//EN" "http://www.w3.org/Graphics/SVG/1.1/DTD/svg11.dtd">
<svg xmlns="http://www.w3.org/2000/svg" xmlns:xlink="http://www.w3.org/1999/xlink" version="1.1" width="1080" height="1080" viewBox="0 0 1080 1080" xml:space="preserve">
<desc>Created with Fabric.js 5.2.4</desc>
<defs>
</defs>
<rect x="0" y="0" width="100%" height="100%" fill="transparent"></rect>
<g transform="matrix(1 0 0 1 540 540)" id="9ba45f89-8c6d-404e-8be8-a4fd13976e0b"  >
<rect style="stroke: none; stroke-width: 1; stroke-dasharray: none; stroke-linecap: butt; stroke-dashoffset: 0; stroke-linejoin: miter; stroke-miterlimit: 4; fill: rgb(255,255,255); fill-rule: nonzero; opacity: 1; visibility: hidden;" vector-effect="non-scaling-stroke"  x="-540" y="-540" rx="0" ry="0" width="1080" height="1080" />
</g>
<g transform="matrix(1 0 0 1 540 540)" id="a772512f-08f5-44e3-8ceb-ff1ee2a7c094"  >
</g>
<g transform="matrix(1 0 0 1 50 50)"  >
<rect style="stroke: none; stroke-width: 1; stroke-dasharray: none; stroke-linecap: butt; stroke-dashoffset: 0; stroke-linejoin: miter; stroke-miterlimit: 4; fill: rgb(255,255,255); fill-opacity: 0; fill-rule: nonzero; opacity: 1;" vector-effect="non-scaling-stroke"  x="-50" y="-50" rx="0" ry="0" width="100" height="100" />
</g>
<g transform="matrix(1 0 0 1 540 540)"  >
<rect style="stroke: none; stroke-width: 1; stroke-dasharray: none; stroke-linecap: butt; stroke-dashoffset: 0; stroke-linejoin: miter; stroke-miterlimit: 4; fill: rgb(255,255,255); fill-rule: nonzero; opacity: 1; visibility: hidden;" vector-effect="non-scaling-stroke"  x="-540" y="-540" rx="0" ry="0" width="1080" height="1080" />
</g>
<g transform="matrix(NaN NaN NaN NaN 0 0)"  >
<g style=""   >
</g>
</g>
<g transform="matrix(NaN NaN NaN NaN 0 0)"  >
<g style=""   >
</g>
</g>
<g transform="matrix(NaN NaN NaN NaN 0 0)"  >
<g style=""   >
</g>
</g>
<g transform="matrix(NaN NaN NaN NaN 0 0)"  >
<g style=""   >
</g>
</g>
<g transform="matrix(NaN NaN NaN NaN 0 0)"  >
<g style=""   >
</g>
</g>
<g transform="matrix(NaN NaN NaN NaN 0 0)"  >
<g style=""   >
</g>
</g>
<g transform="matrix(NaN NaN NaN NaN 0 0)"  >
<g style=""   >
</g>
</g>
<g transform="matrix(NaN NaN NaN NaN 0 0)"  >
<g style=""   >
</g>
</g>
<g transform="matrix(NaN NaN NaN NaN 0 0)"  >
<g style=""   >
</g>
</g>
<g transform="matrix(NaN NaN NaN NaN 0 0)"  >
<g style=""   >
</g>
</g>
<g transform="matrix(NaN NaN NaN NaN 0 0)"  >
<g style=""   >
</g>
</g>
<g transform="matrix(NaN NaN NaN NaN 0 0)"  >
<g style=""   >
</g>
</g>
<g transform="matrix(1.43 0 0 1.43 540 540)" id="19cef8de-feee-43f2-897d-a4a5e7f6c38a"  >
<path style="stroke: rgb(0,0,0); stroke-width: 0; stroke-dasharray: none; stroke-linecap: butt; stroke-dashoffset: 0; stroke-linejoin: miter; stroke-miterlimit: 4; fill: rgb(62,184,22); fill-rule: nonzero; opacity: 1;" vector-effect="non-scaling-stroke"  transform=" translate(-320, -256.02)" d="M 278.9 511.5 L 217.89999999999998 493.8 C 211.49999999999997 492 207.89999999999998 485.3 209.7 478.90000000000003 L 346.2 8.7 C 348 2.299999999999999 354.7 -1.3000000000000007 361.09999999999997 0.5 L 422.09999999999997 18.2 C 428.49999999999994 20 432.09999999999997 26.7 430.29999999999995 33.1 L 293.8 503.3 C 291.90000000000003 509.7 285.3 513.4 278.90000000000003 511.5 z M 164.89999999999998 399.3 L 208.39999999999998 352.90000000000003 C 212.99999999999997 348.00000000000006 212.7 340.20000000000005 207.59999999999997 335.70000000000005 L 117 256 L 207.6 176.3 C 212.7 171.8 213.1 164 208.4 159.10000000000002 L 164.9 112.70000000000002 C 160.4 107.90000000000002 152.8 107.60000000000002 147.9 112.20000000000002 L 3.8 247.2 C -1.2999999999999998 251.89999999999998 -1.2999999999999998 260 3.8 264.7 L 147.9 399.79999999999995 C 152.8 404.4 160.4 404.19999999999993 164.9 399.29999999999995 z M 492.09999999999997 399.90000000000003 L 636.1999999999999 264.80000000000007 C 641.3 260.1000000000001 641.3 252.00000000000006 636.1999999999999 247.30000000000007 L 492.1 112.1 C 487.3 107.6 479.70000000000005 107.8 475.1 112.6 L 431.6 159 C 427 163.9 427.3 171.7 432.40000000000003 176.2 L 523 256 L 432.4 335.7 C 427.29999999999995 340.2 426.9 348 431.59999999999997 352.9 L 475.09999999999997 399.29999999999995 C 479.59999999999997 404.19999999999993 487.2 404.4 492.09999999999997 399.9 z" stroke-linecap="round" />
</g>
<g transform="matrix(NaN NaN NaN NaN 0 0)"  >
<g style=""   >
</g>
</g>
</svg>