<?xml version="1.0" encoding="UTF-8" standalone="no" ?>
<!DOCTYPE svg PUBLIC "-//W3C//DTD SVG 1.1//EN" "http://www.w3.org/Graphics/SVG/1.1/DTD/svg11.dtd">
<svg xmlns="http://www.w3.org/2000/svg" xmlns:xlink="http://www.w3.org/1999/xlink" version="1.1" width="1080" height="1080" viewBox="0 0 1080 1080" xml:space="preserve">
<desc>Created with Fabric.js 5.2.4</desc>
<defs>
</defs>
<rect x="0" y="0" width="100%" height="100%" fill="transparent"></rect>
<g transform="matrix(1 0 0 1 540 540)" id="79e30966-6c7f-4d47-9b1a-d2423c576ab7"  >
</g>
<g transform="matrix(1 0 0 1 540 540)" id="0e62ac12-f387-4441-adee-dc550764eb09"  >
<rect style="stroke: none; stroke-width: 1; stroke-dasharray: none; stroke-linecap: butt; stroke-dashoffset: 0; stroke-linejoin: miter; stroke-miterlimit: 4; fill: rgb(255,255,255); fill-rule: nonzero; opacity: 1; visibility: hidden;" vector-effect="non-scaling-stroke"  x="-540" y="-540" rx="0" ry="0" width="1080" height="1080" />
</g>
<g transform="matrix(NaN NaN NaN NaN 0 0)"  >
<g style=""   >
</g>
</g>
<g transform="matrix(NaN NaN NaN NaN 0 0)"  >
<g style=""   >
</g>
</g>
<g transform="matrix(NaN NaN NaN NaN 0 0)"  >
<g style=""   >
</g>
</g>
<g transform="matrix(NaN NaN NaN NaN 0 0)"  >
<g style=""   >
</g>
</g>
<g transform="matrix(NaN NaN NaN NaN 0 0)"  >
<g style=""   >
</g>
</g>
<g transform="matrix(NaN NaN NaN NaN 0 0)"  >
<g style=""   >
</g>
</g>
<g transform="matrix(NaN NaN NaN NaN 0 0)"  >
<g style=""   >
</g>
</g>
<g transform="matrix(NaN NaN NaN NaN 0 0)"  >
<g style=""   >
</g>
</g>
<g transform="matrix(NaN NaN NaN NaN 0 0)"  >
<g style=""   >
</g>
</g>
<g transform="matrix(NaN NaN NaN NaN 0 0)"  >
<g style=""   >
</g>
</g>
<g transform="matrix(NaN NaN NaN NaN 0 0)"  >
<g style=""   >
</g>
</g>
<g transform="matrix(NaN NaN NaN NaN 0 0)"  >
<g style=""   >
</g>
</g>
<g transform="matrix(NaN NaN NaN NaN 0 0)"  >
<g style=""   >
</g>
</g>
<g transform="matrix(45.05 0 0 45.05 540 540)"  >
<g style="" vector-effect="non-scaling-stroke"   >
		<g transform="matrix(1 0 0 1 0 -2.32)"  >
<path style="stroke: none; stroke-width: 1; stroke-dasharray: none; stroke-linecap: butt; stroke-dashoffset: 0; stroke-linejoin: miter; stroke-miterlimit: 4; fill: rgb(62,184,22); fill-rule: nonzero; opacity: 1;" vector-effect="non-scaling-stroke"  transform=" translate(-12, -10)" d="M 20 9 C 20 5.134006751184446 16.865993248815556 2 13 2 L 11 2 C 7.134006751184446 2 4 5.134006751184446 4 9 L 4 10 C 4 10.57813 4.59167 10.69482 4.59167 11 C 4.59167 11.30518 4 11.69482 4 12 L 4 13 C 4 14.104569499661586 4.8954305003384135 15 6 15 L 9 15 L 9 17 C 9 17.552284749830793 9.447715250169207 18 10 18 L 10.5 18 L 10.5 17 L 11.5 17 L 11.5 18 L 12.5 18 L 12.5 17 L 13.5 17 L 13.5 18 L 14 18 C 14.552284749830793 18 15 17.552284749830793 15 17 L 15 15 L 18 15 C 19.104569499661586 15 20 14.104569499661586 20 13 L 20 12 C 20 11.54688 19.40833 11.30518 19.40833 11 C 19.40833 10.69482 20 10.51563 20 10 Z M 10.28552 11.08051 C 9.79809 13.20075 9.01952 12.839120000000001 7.99286 12.80475 C 6.90344 12.7674 6.17474 12.66388 5.94641 12.17951 C 5.38702 11.51917 5.474060000000001 8.48792 8.16528 9.61829 C 9.38379 10.13007 10.43683 10.53571 10.28552 11.08051 Z M 12.66864 15.33063 C 12.14441 15.33063 12.26984 14.722349999999999 12 14.727049999999998 C 11.71655 14.732419999999998 11.80292 15.33063 11.29407 15.33063 C 11.125881285282063 15.333237940355033 10.966262463618552 15.256579310944199 10.86315358436938 15.123677828140782 C 10.76004470512021 14.990776345337363 10.725457530041888 14.817114487082602 10.769779999999999 14.65485 C 10.957017413636036 14.129777576964361 11.210358505620613 13.63068645196502 11.523689999999998 13.169620000000002 C 11.620854564459629 13.00979408727861 11.794351489115886 12.912227175064723 11.981395 12.912227175064723 C 12.16843851088411 12.912227175064723 12.341935435540368 13.00979408727861 12.439099999999998 13.16962 C 12.752826205270068 13.630537761359697 13.006366323368622 14.129656852634932 13.193559999999998 14.654849999999996 C 13.237635762618604 14.817198594343656 13.202864001170804 14.99082263786386 13.099667813076165 15.123677015655895 C 12.996471624981528 15.256531393447931 12.836846029022094 15.333173764216875 12.66864 15.33063 Z M 18.02393 12.179509999999999 C 17.7956 12.663889999999999 17.06693 12.767399999999999 15.97748 12.804749999999999 C 14.95081 12.839109999999998 14.1723 13.20075 13.68488 11.080509999999999 C 13.53357 10.535709999999998 14.586549999999999 10.130069999999998 15.805119999999999 9.618289999999998 C 18.49634 8.48792 18.58331 11.51917 18.02393 12.1795 Z" stroke-linecap="round" />
</g>
		<g transform="matrix(1 0 0 1 0 7)"  >
<path style="stroke: none; stroke-width: 1; stroke-dasharray: none; stroke-linecap: butt; stroke-dashoffset: 0; stroke-linejoin: miter; stroke-miterlimit: 4; fill: rgb(62,184,22); fill-rule: nonzero; opacity: 1;" vector-effect="non-scaling-stroke"  transform=" translate(-12, -19.32)" d="M 16.5 17.58331 C 16.5 18.687879499661587 15.604569499661586 19.58331 14.5 19.58331 L 13.5 19.58331 L 13.5 20.5 L 12.5 20.5 L 12.5 19.58331 L 11.5 19.58331 L 11.5 20.5 L 10.5 20.5 L 10.5 19.58331 L 9.5 19.58331 C 8.395430500338414 19.58331 7.5 18.687879499661587 7.5 17.58331 L 7.5 16 L 6 16 L 6 18.72565 C 6.000012952535403 19.368809869295962 6.309328539819861 19.972720235635038 6.831239999999999 20.348570000000002 L 10 22.63049 L 10.6 22.33049 C 11.481321000348785 21.889832109482153 12.518678999651211 21.889832109482153 13.399999999999999 22.33049 L 13.999999999999998 22.63049 L 17.16876 20.348570000000002 C 17.690671460180138 19.972720235635038 17.999987047464597 19.368809869295962 18 18.72565 L 18 16 L 16.5 16 Z" stroke-linecap="round" />
</g>
</g>
</g>
<g transform="matrix(NaN NaN NaN NaN 0 0)"  >
<g style=""   >
</g>
</g>
</svg>