<?xml version="1.0" encoding="UTF-8" standalone="no" ?>
<!DOCTYPE svg PUBLIC "-//W3C//DTD SVG 1.1//EN" "http://www.w3.org/Graphics/SVG/1.1/DTD/svg11.dtd">
<svg xmlns="http://www.w3.org/2000/svg" xmlns:xlink="http://www.w3.org/1999/xlink" version="1.1" width="1080" height="1080" viewBox="0 0 1080 1080" xml:space="preserve">
<desc>Created with Fabric.js 5.2.4</desc>
<defs>
</defs>
<rect x="0" y="0" width="100%" height="100%" fill="transparent"></rect>
<g transform="matrix(1 0 0 1 540 540)" id="0e62ac12-f387-4441-adee-dc550764eb09"  >
<rect style="stroke: none; stroke-width: 1; stroke-dasharray: none; stroke-linecap: butt; stroke-dashoffset: 0; stroke-linejoin: miter; stroke-miterlimit: 4; fill: rgb(255,255,255); fill-rule: nonzero; opacity: 1; visibility: hidden;" vector-effect="non-scaling-stroke"  x="-540" y="-540" rx="0" ry="0" width="1080" height="1080" />
</g>
<g transform="matrix(1 0 0 1 540 540)" id="79e30966-6c7f-4d47-9b1a-d2423c576ab7"  >
</g>
<g transform="matrix(0 0 0 0 0 0)"  >
<g style=""   >
</g>
</g>
<g transform="matrix(0 0 0 0 0 0)"  >
<g style=""   >
</g>
</g>
<g transform="matrix(0 0 0 0 0 0)"  >
<g style=""   >
</g>
</g>
<g transform="matrix(0 0 0 0 0 0)"  >
<g style=""   >
</g>
</g>
<g transform="matrix(0 0 0 0 0 0)"  >
<g style=""   >
</g>
</g>
<g transform="matrix(0 0 0 0 0 0)"  >
<g style=""   >
</g>
</g>
<g transform="matrix(0 0 0 0 0 0)"  >
<g style=""   >
</g>
</g>
<g transform="matrix(0 0 0 0 0 0)"  >
<g style=""   >
</g>
</g>
<g transform="matrix(0 0 0 0 0 0)"  >
<g style=""   >
</g>
</g>
<g transform="matrix(0 0 0 0 0 0)"  >
<g style=""   >
</g>
</g>
<g transform="matrix(0 0 0 0 0 0)"  >
<g style=""   >
</g>
</g>
<g transform="matrix(0 0 0 0 0 0)"  >
<g style=""   >
</g>
</g>
<g transform="matrix(0 0 0 0 0 0)"  >
<g style=""   >
</g>
</g>
<g transform="matrix(0 0 0 0 0 0)"  >
<g style=""   >
</g>
</g>
<g transform="matrix(0 16.1 -16.1 0 540 451.57)"  >
<path style="stroke: none; stroke-width: 1; stroke-dasharray: none; stroke-linecap: butt; stroke-dashoffset: 0; stroke-linejoin: miter; stroke-miterlimit: 4; fill: rgb(62,184,22); fill-rule: nonzero; opacity: 1;" vector-effect="non-scaling-stroke"  transform=" translate(-39, -32)" d="M 59 25 L 31 25 C 30.8 25 30.7 25 30.6 25.1 L 26 27.4 L 26 26 C 26 25.4 25.6 25 25 25 L 19 25 C 18.4 25 18 25.4 18 26 L 18 28 L 15 28 C 14.4 28 14 28.4 14 29 L 14 35 C 14 35.6 14.4 36 15 36 L 18 36 L 18 38 C 18 38.6 18.4 39 19 39 L 25 39 C 25.6 39 26 38.6 26 38 L 26 36.6 L 30.6 38.9 C 30.7 39 30.8 39 31 39 L 59 39 C 61.8 39 64 36.8 64 34 L 64 30 C 64 27.2 61.8 25 59 25 z M 32 27 L 42 27 L 42 37 L 32 37 L 32 27 z M 44 27 L 54 27 L 54 37 L 44 37 L 44 27 z M 16 34 L 16 30 L 18 30 L 18 34 L 16 34 z M 26 29.6 L 30 27.6 L 30 36.400000000000006 L 26 34.400000000000006 L 26 29.6 z" stroke-linecap="round" />
</g>
<g transform="matrix(NaN NaN NaN NaN 0 0)"  >
<g style=""   >
</g>
</g>
<g transform="matrix(-6.78 0 0 -6.78 583.68 936.5)"  >
<g style="" vector-effect="non-scaling-stroke"   >
		<g transform="matrix(1 0 0 1 0 -24)"  >
<path style="stroke: none; stroke-width: 1; stroke-dasharray: none; stroke-linecap: butt; stroke-dashoffset: 0; stroke-linejoin: miter; stroke-miterlimit: 4; fill: rgb(62,184,22); fill-rule: nonzero; opacity: 1;" vector-effect="non-scaling-stroke"  transform=" translate(-45, -24)" d="M 24 26.001 L 66 26.001 C 67.104 26.001 68 25.105 68 24.001 C 68 22.897000000000002 67.104 22.001 66 22.001 L 24 22.001 C 22.896 22.001 22 22.897000000000002 22 24.001 C 22 25.105 22.896 26.001 24 26.001 z" stroke-linecap="round" />
</g>
		<g transform="matrix(1 0 0 1 1.5 -16)"  >
<path style="stroke: none; stroke-width: 1; stroke-dasharray: none; stroke-linecap: butt; stroke-dashoffset: 0; stroke-linejoin: miter; stroke-miterlimit: 4; fill: rgb(62,184,22); fill-rule: nonzero; opacity: 1;" vector-effect="non-scaling-stroke"  transform=" translate(-46.5, -32)" d="M 66 30 L 27 30 C 25.896 30 25 30.896 25 32 C 25 33.104 25.896 34 27 34 L 66 34 C 67.104 34 68 33.104 68 32 C 68 30.896 67.104 30 66 30 z" stroke-linecap="round" />
</g>
		<g transform="matrix(1 0 0 1 -3 -8)"  >
<path style="stroke: none; stroke-width: 1; stroke-dasharray: none; stroke-linecap: butt; stroke-dashoffset: 0; stroke-linejoin: miter; stroke-miterlimit: 4; fill: rgb(62,184,22); fill-rule: nonzero; opacity: 1;" vector-effect="non-scaling-stroke"  transform=" translate(-42, -40)" d="M 62 40 C 62 38.896 61.104 38 60 38 L 24 38 C 22.896 38 22 38.896 22 40 C 22 41.104 22.896 42 24 42 L 60 42 C 61.104 42 62 41.104 62 40 z" stroke-linecap="round" />
</g>
		<g transform="matrix(1 0 0 1 4.5 0)"  >
<path style="stroke: none; stroke-width: 1; stroke-dasharray: none; stroke-linecap: butt; stroke-dashoffset: 0; stroke-linejoin: miter; stroke-miterlimit: 4; fill: rgb(62,184,22); fill-rule: nonzero; opacity: 1;" vector-effect="non-scaling-stroke"  transform=" translate(-49.5, -48)" d="M 66 46 L 33 46 C 31.896 46 31 46.896 31 48 C 31 49.104 31.896 50 33 50 L 66 50 C 67.104 50 68 49.104 68 48 C 68 46.896 67.104 46 66 46 z" stroke-linecap="round" />
</g>
		<g transform="matrix(1 0 0 1 6 8)"  >
<path style="stroke: none; stroke-width: 1; stroke-dasharray: none; stroke-linecap: butt; stroke-dashoffset: 0; stroke-linejoin: miter; stroke-miterlimit: 4; fill: rgb(62,184,22); fill-rule: nonzero; opacity: 1;" vector-effect="non-scaling-stroke"  transform=" translate(-51, -56)" d="M 60 54 L 42 54 C 40.896 54 40 54.896 40 56 C 40 57.104 40.896 58 42 58 L 60 58 C 61.104 58 62 57.104 62 56 C 62 54.896 61.104 54 60 54 z" stroke-linecap="round" />
</g>
		<g transform="matrix(1 0 0 1 3 16)"  >
<path style="stroke: none; stroke-width: 1; stroke-dasharray: none; stroke-linecap: butt; stroke-dashoffset: 0; stroke-linejoin: miter; stroke-miterlimit: 4; fill: rgb(62,184,22); fill-rule: nonzero; opacity: 1;" vector-effect="non-scaling-stroke"  transform=" translate(-48, -64)" d="M 54 62 L 42 62 C 40.896 62 40 62.896 40 64 C 40 65.104 40.896 66 42 66 L 54 66 C 55.104 66 56 65.104 56 64 C 56 62.896 55.104 62 54 62 z" stroke-linecap="round" />
</g>
		<g transform="matrix(1 0 0 1 0 24)"  >
<path style="stroke: none; stroke-width: 1; stroke-dasharray: none; stroke-linecap: butt; stroke-dashoffset: 0; stroke-linejoin: miter; stroke-miterlimit: 4; fill: rgb(62,184,22); fill-rule: nonzero; opacity: 1;" vector-effect="non-scaling-stroke"  transform=" translate(-45, -72)" d="M 48 70 L 42 70 C 40.896 70 40 70.896 40 72 C 40 73.104 40.896 74 42 74 L 48 74 C 49.104 74 50 73.104 50 72 C 50 70.896 49.104 70 48 70 z" stroke-linecap="round" />
</g>
</g>
</g>
<g transform="matrix(NaN NaN NaN NaN 0 0)"  >
<g style=""   >
</g>
</g>
</svg>