<?xml version="1.0" encoding="UTF-8" standalone="no" ?>
<!DOCTYPE svg PUBLIC "-//W3C//DTD SVG 1.1//EN" "http://www.w3.org/Graphics/SVG/1.1/DTD/svg11.dtd">
<svg xmlns="http://www.w3.org/2000/svg" xmlns:xlink="http://www.w3.org/1999/xlink" version="1.1" width="1080" height="1080" viewBox="0 0 1080 1080" xml:space="preserve">
<desc>Created with Fabric.js 5.2.4</desc>
<defs>
</defs>
<g transform="matrix(1 0 0 1 540 540)" id="3e55ed4e-3f1f-4064-b177-59fac91111b4"  >
</g>
<g transform="matrix(1 0 0 1 540 540)" id="e0f98009-2fc4-4f58-816e-b3d4b6a48888"  >
<rect style="stroke: none; stroke-width: 1; stroke-dasharray: none; stroke-linecap: butt; stroke-dashoffset: 0; stroke-linejoin: miter; stroke-miterlimit: 4; fill: rgb(255,255,255); fill-rule: nonzero; opacity: 1; visibility: hidden;" vector-effect="non-scaling-stroke"  x="-540" y="-540" rx="0" ry="0" width="1080" height="1080" />
</g>
<g transform="matrix(1 0 0 1 50 50)"  >
<rect style="stroke: none; stroke-width: 1; stroke-dasharray: none; stroke-linecap: butt; stroke-dashoffset: 0; stroke-linejoin: miter; stroke-miterlimit: 4; fill: rgb(255,255,255); fill-opacity: 0; fill-rule: nonzero; opacity: 1;" vector-effect="non-scaling-stroke"  x="-50" y="-50" rx="0" ry="0" width="100" height="100" />
</g>
<g transform="matrix(1 0 0 1 540 540)"  >
<rect style="stroke: none; stroke-width: 1; stroke-dasharray: none; stroke-linecap: butt; stroke-dashoffset: 0; stroke-linejoin: miter; stroke-miterlimit: 4; fill: rgb(255,255,255); fill-rule: nonzero; opacity: 1; visibility: hidden;" vector-effect="non-scaling-stroke"  x="-540" y="-540" rx="0" ry="0" width="1080" height="1080" />
</g>
<g transform="matrix(37.72 0 0 37.72 823.95 540)"  >
<path style="stroke: rgb(0,0,0); stroke-width: 0; stroke-dasharray: none; stroke-linecap: butt; stroke-dashoffset: 0; stroke-linejoin: miter; stroke-miterlimit: 4; fill: rgb(62,184,22); fill-rule: nonzero; opacity: 1;" vector-effect="non-scaling-stroke"  transform=" translate(-12, -12)" d="M 16.5 23.5 L 7.5 23.5 C 7.3 23.5 7 23.3 7 23 L 7 21 C 7 20.7 7.2 20.5 7.5 20.5 L 8.9 20.5 L 8.9 3.5 L 7.5 3.5 C 7.3 3.5 7 3.3 7 3 L 7 1 C 7 0.7 7.2 0.5 7.5 0.5 L 16.4 0.5 C 16.7 0.5 17 0.7 17 1 L 17 3 C 17 3.3 16.8 3.5 16.5 3.5 L 15.1 3.5 L 15.1 20.5 L 16.5 20.5 C 16.8 20.5 17 20.7 17 21 L 17 23 C 17 23.3 16.7 23.5 16.5 23.5 z" stroke-linecap="round" />
</g>
<g transform="matrix(0 0 0 0 0 0)"  >
<g style=""   >
</g>
</g>
<g transform="matrix(0 0 0 0 0 0)"  >
<g style=""   >
</g>
</g>
<g transform="matrix(87.16 0 0 87.16 403.71 540)"  >
<path style="stroke: rgb(0,0,0); stroke-width: 0; stroke-dasharray: none; stroke-linecap: butt; stroke-dashoffset: 0; stroke-linejoin: miter; stroke-miterlimit: 4; fill: rgb(62,184,22); fill-rule: nonzero; opacity: 1;" vector-effect="non-scaling-stroke"  transform=" translate(-8.01, -7.99)" d="M 5.031 3 C 4.997321157778149 2.998961238888287 4.963611317456842 2.999628760478808 4.93 3.002 C 4.61310150775817 3.0244935409609597 4.325845083972643 3.196521789457458 4.1564206986583905 3.4652707270013945 C 3.9869963133441377 3.7340196645453316 3.9556480237143252 4.067377214368504 4.072 4.362999999999999 L 7.066000000000001 12.35 C 7.210521363617377 12.742389978798526 7.584341752438945 13.003077182546587 8.002500000000001 13.003077182546587 C 8.420658247561056 13.003077182546587 8.794478636382625 12.742389978798526 8.939 12.35 L 11.934000000000001 4.3629999999999995 C 12.07979452470196 4.0242238044921255 12.027281123301304 3.632699695911568 11.797368337371003 3.344315464474364 C 11.5674555514407 3.0559312330371604 11.19747179872544 2.9175086638759185 10.834728441061195 2.984161574887584 C 10.47198508339695 3.050814485899249 10.175376781792725 3.311721174862802 10.063 3.6629999999999994 L 8.002 9.152999999999999 L 5.9430000000000005 3.6629999999999985 C 5.804920591132777 3.274992631979717 5.442679309822086 3.0116527531321435 5.031000000000001 3 z" stroke-linecap="round" />
</g>
<g transform="matrix(0 0 0 0 0 0)"  >
<g style=""   >
</g>
</g>
<g transform="matrix(0 0 0 0 0 0)"  >
<g style=""   >
</g>
</g>
</svg>