<?xml version="1.0" encoding="UTF-8" standalone="no" ?>
<!DOCTYPE svg PUBLIC "-//W3C//DTD SVG 1.1//EN" "http://www.w3.org/Graphics/SVG/1.1/DTD/svg11.dtd">
<svg xmlns="http://www.w3.org/2000/svg" xmlns:xlink="http://www.w3.org/1999/xlink" version="1.1" width="1080" height="1080" viewBox="0 0 1080 1080" xml:space="preserve">
<desc>Created with Fabric.js 5.2.4</desc>
<defs>
</defs>
<rect x="0" y="0" width="100%" height="100%" fill="transparent"></rect>
<g transform="matrix(1 0 0 1 540 540)" id="16e2ed21-42f5-4f75-8d61-295ca47ddc35"  >
<rect style="stroke: none; stroke-width: 1; stroke-dasharray: none; stroke-linecap: butt; stroke-dashoffset: 0; stroke-linejoin: miter; stroke-miterlimit: 4; fill: rgb(255,255,255); fill-rule: nonzero; opacity: 1; visibility: hidden;" vector-effect="non-scaling-stroke"  x="-540" y="-540" rx="0" ry="0" width="1080" height="1080" />
</g>
<g transform="matrix(1 0 0 1 540 540)" id="2c62e66d-b566-42d2-8dc1-1f5cd3996ae2"  >
</g>
<g transform="matrix(16.14 0 0 16.14 875.92 875.92)" id="path955"  >
<path style="stroke: rgb(0,0,0); stroke-width: 0; stroke-dasharray: none; stroke-linecap: butt; stroke-dashoffset: 0; stroke-linejoin: miter; stroke-miterlimit: 4; fill: rgb(62,184,22); fill-rule: nonzero; opacity: 1;" vector-effect="non-scaling-stroke"  transform=" translate(-12, -12)" d="M 20 14 L 14 14 L 14 20 L 10 20 L 10 14 L 4 14 L 4 10 L 10 10 L 10 4 L 14 4 L 14 10 L 20 10 L 20 14 Z" stroke-linecap="round" />
</g>
<g transform="matrix(1 0 0 1 76.17 34.91)"  >
<rect style="stroke: none; stroke-width: 1; stroke-dasharray: none; stroke-linecap: butt; stroke-dashoffset: 0; stroke-linejoin: miter; stroke-miterlimit: 4; fill: rgb(255,255,255); fill-opacity: 0; fill-rule: nonzero; opacity: 1;" vector-effect="non-scaling-stroke"  x="-50" y="-50" rx="0" ry="0" width="100" height="100" />
</g>
<g transform="matrix(1 0 0 1 566.17 524.91)"  >
<rect style="stroke: none; stroke-width: 1; stroke-dasharray: none; stroke-linecap: butt; stroke-dashoffset: 0; stroke-linejoin: miter; stroke-miterlimit: 4; fill: rgb(255,255,255); fill-rule: nonzero; opacity: 1; visibility: hidden;" vector-effect="non-scaling-stroke"  x="-540" y="-540" rx="0" ry="0" width="1080" height="1080" />
</g>
<g transform="matrix(1 0 0 1 23.83 65.08)"  >
<rect style="stroke: none; stroke-width: 1; stroke-dasharray: none; stroke-linecap: butt; stroke-dashoffset: 0; stroke-linejoin: miter; stroke-miterlimit: 4; fill: rgb(34,30,30); fill-opacity: 0; fill-rule: nonzero; opacity: 1;" vector-effect="non-scaling-stroke"  x="-50" y="-50" rx="0" ry="0" width="100" height="100" />
</g>
<g transform="matrix(1 0 0 1 513.83 555.08)"  >
<rect style="stroke: none; stroke-width: 1; stroke-dasharray: none; stroke-linecap: butt; stroke-dashoffset: 0; stroke-linejoin: miter; stroke-miterlimit: 4; fill: rgb(34,30,30); fill-opacity: 0; fill-rule: nonzero; opacity: 1; visibility: hidden;" vector-effect="non-scaling-stroke"  x="-540" y="-540" rx="0" ry="0" width="1080" height="1080" />
</g>
<g transform="matrix(1 0 0 1 76.17 34.91)"  >
<rect style="stroke: none; stroke-width: 1; stroke-dasharray: none; stroke-linecap: butt; stroke-dashoffset: 0; stroke-linejoin: miter; stroke-miterlimit: 4; fill: rgb(255,255,255); fill-opacity: 0; fill-rule: nonzero; opacity: 1;" vector-effect="non-scaling-stroke"  x="-50" y="-50" rx="0" ry="0" width="100" height="100" />
</g>
<g transform="matrix(1 0 0 1 566.17 524.91)"  >
<rect style="stroke: none; stroke-width: 1; stroke-dasharray: none; stroke-linecap: butt; stroke-dashoffset: 0; stroke-linejoin: miter; stroke-miterlimit: 4; fill: rgb(255,255,255); fill-rule: nonzero; opacity: 1; visibility: hidden;" vector-effect="non-scaling-stroke"  x="-540" y="-540" rx="0" ry="0" width="1080" height="1080" />
</g>
<g transform="matrix(1 0 0 1 76.17 34.91)"  >
<rect style="stroke: none; stroke-width: 1; stroke-dasharray: none; stroke-linecap: butt; stroke-dashoffset: 0; stroke-linejoin: miter; stroke-miterlimit: 4; fill: rgb(255,255,255); fill-opacity: 0; fill-rule: nonzero; opacity: 1;" vector-effect="non-scaling-stroke"  x="-50" y="-50" rx="0" ry="0" width="100" height="100" />
</g>
<g transform="matrix(1 0 0 1 566.17 524.91)"  >
<rect style="stroke: none; stroke-width: 1; stroke-dasharray: none; stroke-linecap: butt; stroke-dashoffset: 0; stroke-linejoin: miter; stroke-miterlimit: 4; fill: rgb(255,255,255); fill-rule: nonzero; opacity: 1; visibility: hidden;" vector-effect="non-scaling-stroke"  x="-540" y="-540" rx="0" ry="0" width="1080" height="1080" />
</g>
<g transform="matrix(NaN NaN NaN NaN 0 0)"  >
<g style=""   >
</g>
</g>
<g transform="matrix(NaN NaN NaN NaN 0 0)"  >
<g style=""   >
</g>
</g>
<g transform="matrix(NaN NaN NaN NaN 0 0)"  >
<g style=""   >
</g>
</g>
<g transform="matrix(NaN NaN NaN NaN 0 0)"  >
<g style=""   >
</g>
</g>
<g transform="matrix(NaN NaN NaN NaN 0 0)"  >
<g style=""   >
</g>
</g>
<g transform="matrix(NaN NaN NaN NaN 0 0)"  >
<g style=""   >
</g>
</g>
<g transform="matrix(0.74 0 0 0.74 468.42 440.83)"  >
<g style="" vector-effect="non-scaling-stroke"   >
		<g transform="matrix(1 0 0 1 -490 -490)"  >
<rect style="stroke: none; stroke-width: 1; stroke-dasharray: none; stroke-linecap: butt; stroke-dashoffset: 0; stroke-linejoin: miter; stroke-miterlimit: 4; fill: rgb(255,255,255); fill-opacity: 0; fill-rule: nonzero; opacity: 1;" vector-effect="non-scaling-stroke"  x="-50" y="-50" rx="0" ry="0" width="100" height="100" />
</g>
		<g transform="matrix(1 0 0 1 0 0)"  >
<rect style="stroke: none; stroke-width: 1; stroke-dasharray: none; stroke-linecap: butt; stroke-dashoffset: 0; stroke-linejoin: miter; stroke-miterlimit: 4; fill: rgb(255,255,255); fill-rule: nonzero; opacity: 1; visibility: hidden;" vector-effect="non-scaling-stroke"  x="-540" y="-540" rx="0" ry="0" width="1080" height="1080" />
</g>
		<g transform="matrix(2.34 0 0 2.34 0 0)"  >
<path style="stroke: rgb(0,0,0); stroke-width: 0; stroke-dasharray: none; stroke-linecap: butt; stroke-dashoffset: 0; stroke-linejoin: miter; stroke-miterlimit: 4; fill: rgb(62,184,22); fill-rule: nonzero; opacity: 1;" vector-effect="non-scaling-stroke"  transform=" translate(-256.01, -256.01)" d="M 375.52 62.24 C 374.2041512838615 61.96719258488206 372.86383097646717 61.82980975337414 371.52 61.830000000000005 C 370.77 61.830000000000005 370.06 61.830000000000005 369.37 61.830000000000005 C 351.22 61.830000000000005 333.85 61.830000000000005 318.09000000000003 72.66000000000001 C 314.6560450205426 75.04402786201732 311.4878993528842 77.78975410732126 308.64000000000004 80.85000000000001 C 299.11 70.71 286 64 269.56 62.24 C 268.24411921078934 61.96740023444546 266.90382025703224 61.83001959168536 265.56 61.83 C 264.82 61.830000000000005 264.11 61.830000000000005 263.41 61.830000000000005 C 245.26000000000002 61.830000000000005 227.90000000000003 61.830000000000005 212.14000000000001 72.66000000000001 C 208.70494857573445 75.0465389111726 205.53374349162436 77.79201138885355 202.68 80.85000000000001 C 193.15 70.71 180 64 163.6 62.24 C 162.28411921078933 61.96740023444546 160.94382025703223 61.83001959168536 159.59999999999997 61.83 C 158.85999999999999 61.830000000000005 158.15 61.830000000000005 157.45 61.830000000000005 C 139.29999999999998 61.830000000000005 121.94 61.830000000000005 106.17999999999998 72.66000000000001 C 89.10999999999999 84.34 80.38999999999999 103.12 79.57999999999998 123.42000000000002 C 78.90999999999998 140.26000000000002 79.57999999999998 157.26000000000002 79.57999999999998 174.10000000000002 L 79.57999999999998 432.54 C 79.71980079985532 442.233210588829 87.5467117812562 450.0556895708067 97.23999999999998 450.19 L 415.09 450.19 C 424.78159357489653 450.0555619176025 432.6055619176025 442.2315935748966 432.73999999999995 432.54 L 432.73999999999995 131.54000000000002 C 432.74 95.38 412.51 66.16 375.52 62.24 Z M 326.78 123.08000000000001 C 328.78 97.08000000000001 351.33 97.14000000000001 371.5 97.14000000000001 C 397.01 98.51000000000002 397.44 120.64000000000001 397.44 139.62 L 397.44 342.43 L 326.78 342.43 L 326.78 131.5 C 326.78 130.33 326.7 129.19 326.65999999999997 128.04 C 326.64 126.38 326.66 124.72 326.78 123.08 Z M 397.43999999999994 414.89 L 326.78 414.89 L 326.78 377.74 L 397.43999999999994 377.74 L 397.43999999999994 414.89 Z M 114.86 377.74 L 185.51999999999998 377.74 L 185.51999999999998 414.89 L 114.86 414.89 Z M 220.86 377.74 L 291.52 377.74 L 291.52 414.89 L 220.82 414.89 Z M 220.86 123.08000000000001 C 222.86 97.08000000000001 245.41000000000003 97.14000000000001 265.57 97.14000000000001 C 286.94 98.29000000000002 290.7 114.00000000000001 291.36 130.22000000000003 C 291.07 144.83000000000004 291.52000000000004 159.52000000000004 291.52000000000004 174.10000000000002 L 291.52000000000004 342.43 L 220.82 342.43 L 220.82 131.5 C 220.82 130.33 220.73999999999998 129.19 220.69 128.04 C 220.68 126.38 220.69 124.72 220.82 123.08 Z M 114.86000000000001 123.08000000000001 C 116.86000000000001 97.08000000000001 139.41000000000003 97.14000000000001 159.57000000000002 97.14000000000001 C 180.94000000000003 98.29000000000002 184.70000000000002 114.00000000000001 185.36 130.22000000000003 C 185.06 144.83000000000004 185.52 159.52000000000004 185.52 174.10000000000002 L 185.52 342.43 L 114.86 342.43 L 114.86 135.62 C 114.86 131.49 114.54 127.21 114.86 123.08 Z" stroke-linecap="round" />
</g>
</g>
</g>
</svg>