<?xml version="1.0" encoding="UTF-8" standalone="no" ?>
<!DOCTYPE svg PUBLIC "-//W3C//DTD SVG 1.1//EN" "http://www.w3.org/Graphics/SVG/1.1/DTD/svg11.dtd">
<svg xmlns="http://www.w3.org/2000/svg" xmlns:xlink="http://www.w3.org/1999/xlink" version="1.1" width="1080" height="1080" viewBox="0 0 1080 1080" xml:space="preserve">
<desc>Created with Fabric.js 5.2.4</desc>
<defs>
</defs>
<rect x="0" y="0" width="100%" height="100%" fill="transparent"></rect>
<g transform="matrix(1 0 0 1 540 540)" id="0e62ac12-f387-4441-adee-dc550764eb09"  >
<rect style="stroke: none; stroke-width: 1; stroke-dasharray: none; stroke-linecap: butt; stroke-dashoffset: 0; stroke-linejoin: miter; stroke-miterlimit: 4; fill: rgb(255,255,255); fill-rule: nonzero; opacity: 1; visibility: hidden;" vector-effect="non-scaling-stroke"  x="-540" y="-540" rx="0" ry="0" width="1080" height="1080" />
</g>
<g transform="matrix(1 0 0 1 540 540)" id="79e30966-6c7f-4d47-9b1a-d2423c576ab7"  >
</g>
<g transform="matrix(0 0 0 0 0 0)"  >
<g style=""   >
</g>
</g>
<g transform="matrix(0 0 0 0 0 0)"  >
<g style=""   >
</g>
</g>
<g transform="matrix(0 0 0 0 0 0)"  >
<g style=""   >
</g>
</g>
<g transform="matrix(0 0 0 0 0 0)"  >
<g style=""   >
</g>
</g>
<g transform="matrix(0 0 0 0 0 0)"  >
<g style=""   >
</g>
</g>
<g transform="matrix(0 0 0 0 0 0)"  >
<g style=""   >
</g>
</g>
<g transform="matrix(0 0 0 0 0 0)"  >
<g style=""   >
</g>
</g>
<g transform="matrix(0 0 0 0 0 0)"  >
<g style=""   >
</g>
</g>
<g transform="matrix(0 0 0 0 0 0)"  >
<g style=""   >
</g>
</g>
<g transform="matrix(0 0 0 0 0 0)"  >
<g style=""   >
</g>
</g>
<g transform="matrix(0 0 0 0 0 0)"  >
<g style=""   >
</g>
</g>
<g transform="matrix(0 0 0 0 0 0)"  >
<g style=""   >
</g>
</g>
<g transform="matrix(0 0 0 0 0 0)"  >
<g style=""   >
</g>
</g>
<g transform="matrix(0 0 0 0 0 0)"  >
<g style=""   >
</g>
</g>
<g transform="matrix(0 0 0 0 0 0)"  >
<g style=""   >
</g>
</g>
<g transform="matrix(0 0 0 0 0 0)"  >
<g style=""   >
</g>
</g>
<g transform="matrix(0 0 0 0 0 0)"  >
<g style=""   >
</g>
</g>
<g transform="matrix(0 0 0 0 0 0)"  >
<g style=""   >
</g>
</g>
<g transform="matrix(0 0 0 0 0 0)"  >
<g style=""   >
</g>
</g>
<g transform="matrix(0 0 0 0 0 0)"  >
<g style=""   >
</g>
</g>
<g transform="matrix(0 0 0 0 0 0)"  >
<g style=""   >
</g>
</g>
<g transform="matrix(0 0 0 0 0 0)"  >
<g style=""   >
</g>
</g>
<g transform="matrix(1 0 0 1 -2.34 80.17)"  >
<rect style="stroke: none; stroke-width: 1; stroke-dasharray: none; stroke-linecap: butt; stroke-dashoffset: 0; stroke-linejoin: miter; stroke-miterlimit: 4; fill: rgb(34,30,30); fill-opacity: 0; fill-rule: nonzero; opacity: 1;" vector-effect="non-scaling-stroke"  x="-50" y="-50" rx="0" ry="0" width="100" height="100" />
</g>
<g transform="matrix(1 0 0 1 487.66 570.17)"  >
<rect style="stroke: none; stroke-width: 1; stroke-dasharray: none; stroke-linecap: butt; stroke-dashoffset: 0; stroke-linejoin: miter; stroke-miterlimit: 4; fill: rgb(34,30,30); fill-opacity: 0; fill-rule: nonzero; opacity: 1; visibility: hidden;" vector-effect="non-scaling-stroke"  x="-540" y="-540" rx="0" ry="0" width="1080" height="1080" />
</g>
<g transform="matrix(1 0 0 1 50 50)"  >
<rect style="stroke: none; stroke-width: 1; stroke-dasharray: none; stroke-linecap: butt; stroke-dashoffset: 0; stroke-linejoin: miter; stroke-miterlimit: 4; fill: rgb(255,255,255); fill-opacity: 0; fill-rule: nonzero; opacity: 1;" vector-effect="non-scaling-stroke"  x="-50" y="-50" rx="0" ry="0" width="100" height="100" />
</g>
<g transform="matrix(1 0 0 1 540 540)"  >
<rect style="stroke: none; stroke-width: 1; stroke-dasharray: none; stroke-linecap: butt; stroke-dashoffset: 0; stroke-linejoin: miter; stroke-miterlimit: 4; fill: rgb(255,255,255); fill-rule: nonzero; opacity: 1; visibility: hidden;" vector-effect="non-scaling-stroke"  x="-540" y="-540" rx="0" ry="0" width="1080" height="1080" />
</g>
<g transform="matrix(NaN NaN NaN NaN 0 0)"  >
<g style=""   >
</g>
</g>
<g transform="matrix(NaN NaN NaN NaN 0 0)"  >
<g style=""   >
</g>
</g>
<g transform="matrix(NaN NaN NaN NaN 0 0)"  >
<g style=""   >
</g>
</g>
<g transform="matrix(NaN NaN NaN NaN 0 0)"  >
<g style=""   >
</g>
</g>
<g transform="matrix(37.11 0 0 37.11 540 540)" id="path2"  >
<path style="stroke: rgb(0,0,0); stroke-width: 0; stroke-dasharray: none; stroke-linecap: butt; stroke-dashoffset: 0; stroke-linejoin: miter; stroke-miterlimit: 4; fill: rgb(62,184,22); fill-rule: nonzero; opacity: 1;" vector-effect="non-scaling-stroke"  transform=" translate(-12, -12)" d="M 12 19 C 10.895430500338414 19 10 19.895430500338414 10 21 C 10 22.104569499661586 10.895430500338414 23 12 23 C 13.104569499661586 23 14 22.104569499661586 14 21 C 14 19.895430500338414 13.104569499661586 19 12 19 M 6.0000002 1.0000004 C 4.895430700338412 1.0000004 4.0000002 1.895430900338413 4.0000002 3.0000004000000002 C 4.000000365685407 4.1045697825042975 4.895430817495689 5.000000100000012 6.000000199999999 5.0000001 C 7.104569582504309 5.000000100000012 8.000000034314592 4.1045697825042975 8.000000199999999 3.0000004000000007 C 8.000000199999999 1.8954309003384133 7.104569699661585 1.0000004000000002 6.000000199999999 1.0000004000000002 M 6.000000199999999 6.999999600000001 C 4.895430700338412 6.999999600000001 4.000000199999999 7.895430100338414 4.000000199999999 8.9999996 C 4.000000093913389 9.530432648983494 4.210713727811116 10.03914057754278 4.58578649620553 10.414213420951747 C 4.960859264599943 10.789286264360713 5.469567151016496 11.00000000000001 6.0000002 11 C 6.530433248983503 11.00000000000001 7.039141135400056 10.789286264360713 7.414213903794469 10.414213420951747 C 7.789286672188882 10.03914057754278 8.000000306086609 9.530432648983494 8.000000199999999 8.999999599999999 C 8.000000199999999 7.895430100338414 7.104569699661585 6.999999600000001 6.000000199999999 6.999999600000001 M 6.000000199999999 13 C 4.895430700338412 13 4.000000199999999 13.895430500338414 4.000000199999999 15 C 4.000000199999999 16.104569499661586 4.895430700338412 17 6.000000199999999 17 C 7.104569699661585 17 8.000000199999999 16.104569499661586 8.000000199999999 15 C 8.000000199999999 13.895430500338414 7.104569699661585 13 6.000000199999999 13 M 18 5.0000001 C 19.10456938250431 5.000000100000013 19.999999834314593 4.1045697825042975 20 3.0000004 C 20 1.8954309003384133 19.104569499661586 1.0000004000000002 18 1.0000004000000002 C 16.895430500338414 1.0000004000000002 16 1.8954309003384133 16 3.0000004000000002 C 16.000000165685407 4.1045697825042975 16.89543061749569 5.000000100000012 18 5.0000001 M 12 13 C 10.895430500338414 13 10 13.895430500338414 10 15 C 10 16.104569499661586 10.895430500338414 17 12 17 C 13.104569499661586 17 14 16.104569499661586 14 15 C 14 13.895430500338414 13.104569499661586 13 12 13 M 18 13 C 16.895430500338414 13 16 13.895430500338414 16 15 C 16 16.104569499661586 16.895430500338414 17 18 17 C 19.104569499661586 17 20 16.104569499661586 20 15 C 20 13.895430500338414 19.104569499661586 13 18 13 M 18 6.9999996 C 16.895430500338414 6.9999996 16 7.895430100338412 16 8.999999599999999 C 15.99999989391339 9.530432648983492 16.210713527811116 10.039140577542778 16.58578629620553 10.414213420951745 C 16.96085906459994 10.789286264360712 17.469566951016496 11.00000000000001 18 11 C 18.530433048983504 11.00000000000001 19.039140935400056 10.789286264360713 19.41421370379447 10.414213420951747 C 19.789286472188884 10.03914057754278 20.00000010608661 9.530432648983494 20 8.999999599999999 C 20 7.895430100338414 19.104569499661586 6.999999600000001 18 6.999999600000001 M 12 6.999999600000001 C 10.895430500338414 6.999999600000001 10 7.895430100338414 10 8.9999996 C 9.99999989391339 9.530432648983494 10.210713527811118 10.03914057754278 10.58578629620553 10.414213420951747 C 10.960859064599944 10.789286264360713 11.469566951016496 11.00000000000001 12 11 C 12.530433048983504 11.00000000000001 13.039140935400058 10.789286264360713 13.41421370379447 10.414213420951747 C 13.789286472188884 10.03914057754278 14.00000010608661 9.530432648983494 14 8.999999599999999 C 14 7.895430100338414 13.104569499661586 6.999999600000001 12 6.999999600000001 M 12 1.0000004000000002 C 10.895430500338414 1.0000004000000002 10 1.8954309003384133 10 3.0000004000000002 C 10.000000165685407 4.1045697825042975 10.89543061749569 5.000000100000012 11.999999999999998 5.0000001 C 13.10456938250431 5.000000100000013 13.999999834314593 4.1045697825042975 14 3.0000004 C 14 1.8954309003384133 13.104569499661586 1.0000004000000002 12 1.0000004000000002 z" stroke-linecap="round" />
</g>
<g transform="matrix(NaN NaN NaN NaN 0 0)"  >
<g style=""   >
</g>
</g>
</svg>