<?xml version="1.0" encoding="UTF-8" standalone="no" ?>
<!DOCTYPE svg PUBLIC "-//W3C//DTD SVG 1.1//EN" "http://www.w3.org/Graphics/SVG/1.1/DTD/svg11.dtd">
<svg xmlns="http://www.w3.org/2000/svg" xmlns:xlink="http://www.w3.org/1999/xlink" version="1.1" width="1080" height="1080" viewBox="0 0 1080 1080" xml:space="preserve">
<desc>Created with Fabric.js 5.2.4</desc>
<defs>
</defs>
<rect x="0" y="0" width="100%" height="100%" fill="transparent"></rect>
<g transform="matrix(1 0 0 1 540 540)" id="0e62ac12-f387-4441-adee-dc550764eb09"  >
<rect style="stroke: none; stroke-width: 1; stroke-dasharray: none; stroke-linecap: butt; stroke-dashoffset: 0; stroke-linejoin: miter; stroke-miterlimit: 4; fill: rgb(255,255,255); fill-rule: nonzero; opacity: 1; visibility: hidden;" vector-effect="non-scaling-stroke"  x="-540" y="-540" rx="0" ry="0" width="1080" height="1080" />
</g>
<g transform="matrix(1 0 0 1 540 540)" id="79e30966-6c7f-4d47-9b1a-d2423c576ab7"  >
</g>
<g transform="matrix(0 0 0 0 0 0)"  >
<g style=""   >
</g>
</g>
<g transform="matrix(0 0 0 0 0 0)"  >
<g style=""   >
</g>
</g>
<g transform="matrix(0 0 0 0 0 0)"  >
<g style=""   >
</g>
</g>
<g transform="matrix(0 0 0 0 0 0)"  >
<g style=""   >
</g>
</g>
<g transform="matrix(0 0 0 0 0 0)"  >
<g style=""   >
</g>
</g>
<g transform="matrix(0 0 0 0 0 0)"  >
<g style=""   >
</g>
</g>
<g transform="matrix(0 0 0 0 0 0)"  >
<g style=""   >
</g>
</g>
<g transform="matrix(0 0 0 0 0 0)"  >
<g style=""   >
</g>
</g>
<g transform="matrix(0 0 0 0 0 0)"  >
<g style=""   >
</g>
</g>
<g transform="matrix(0 0 0 0 0 0)"  >
<g style=""   >
</g>
</g>
<g transform="matrix(0 0 0 0 0 0)"  >
<g style=""   >
</g>
</g>
<g transform="matrix(0 0 0 0 0 0)"  >
<g style=""   >
</g>
</g>
<g transform="matrix(0 0 0 0 0 0)"  >
<g style=""   >
</g>
</g>
<g transform="matrix(0 0 0 0 0 0)"  >
<g style=""   >
</g>
</g>
<g transform="matrix(0 0 0 0 0 0)"  >
<g style=""   >
</g>
</g>
<g transform="matrix(0 0 0 0 0 0)"  >
<g style=""   >
</g>
</g>
<g transform="matrix(0 0 0 0 0 0)"  >
<g style=""   >
</g>
</g>
<g transform="matrix(0 0 0 0 0 0)"  >
<g style=""   >
</g>
</g>
<g transform="matrix(0 0 0 0 0 0)"  >
<g style=""   >
</g>
</g>
<g transform="matrix(0 0 0 0 0 0)"  >
<g style=""   >
</g>
</g>
<g transform="matrix(0 0 0 0 0 0)"  >
<g style=""   >
</g>
</g>
<g transform="matrix(0 0 0 0 0 0)"  >
<g style=""   >
</g>
</g>
<g transform="matrix(1 0 0 1 -2.34 80.17)"  >
<rect style="stroke: none; stroke-width: 1; stroke-dasharray: none; stroke-linecap: butt; stroke-dashoffset: 0; stroke-linejoin: miter; stroke-miterlimit: 4; fill: rgb(34,30,30); fill-opacity: 0; fill-rule: nonzero; opacity: 1;" vector-effect="non-scaling-stroke"  x="-50" y="-50" rx="0" ry="0" width="100" height="100" />
</g>
<g transform="matrix(1 0 0 1 487.66 570.17)"  >
<rect style="stroke: none; stroke-width: 1; stroke-dasharray: none; stroke-linecap: butt; stroke-dashoffset: 0; stroke-linejoin: miter; stroke-miterlimit: 4; fill: rgb(34,30,30); fill-opacity: 0; fill-rule: nonzero; opacity: 1; visibility: hidden;" vector-effect="non-scaling-stroke"  x="-540" y="-540" rx="0" ry="0" width="1080" height="1080" />
</g>
<g transform="matrix(1 0 0 1 50 50)"  >
<rect style="stroke: none; stroke-width: 1; stroke-dasharray: none; stroke-linecap: butt; stroke-dashoffset: 0; stroke-linejoin: miter; stroke-miterlimit: 4; fill: rgb(255,255,255); fill-opacity: 0; fill-rule: nonzero; opacity: 1;" vector-effect="non-scaling-stroke"  x="-50" y="-50" rx="0" ry="0" width="100" height="100" />
</g>
<g transform="matrix(1 0 0 1 540 540)"  >
<rect style="stroke: none; stroke-width: 1; stroke-dasharray: none; stroke-linecap: butt; stroke-dashoffset: 0; stroke-linejoin: miter; stroke-miterlimit: 4; fill: rgb(255,255,255); fill-rule: nonzero; opacity: 1; visibility: hidden;" vector-effect="non-scaling-stroke"  x="-540" y="-540" rx="0" ry="0" width="1080" height="1080" />
</g>
<g transform="matrix(NaN NaN NaN NaN 0 0)"  >
<g style=""   >
</g>
</g>
<g transform="matrix(NaN NaN NaN NaN 0 0)"  >
<g style=""   >
</g>
</g>
<g transform="matrix(NaN NaN NaN NaN 0 0)"  >
<g style=""   >
</g>
</g>
<g transform="matrix(NaN NaN NaN NaN 0 0)"  >
<g style=""   >
</g>
</g>
<g transform="matrix(NaN NaN NaN NaN 0 0)"  >
<g style=""   >
</g>
</g>
<g transform="matrix(NaN NaN NaN NaN 0 0)"  >
<g style=""   >
</g>
</g>
<g transform="matrix(NaN NaN NaN NaN 0 0)"  >
<g style=""   >
</g>
</g>
<g transform="matrix(28.92 0 0 28.92 540 540)"  >
<path style="stroke: none; stroke-width: 1; stroke-dasharray: none; stroke-linecap: butt; stroke-dashoffset: 0; stroke-linejoin: miter; stroke-miterlimit: 4; fill: rgb(62,184,22); fill-rule: nonzero; opacity: 1;" vector-effect="non-scaling-stroke"  transform=" translate(-16, -16)" d="M 22 9 C 21.938 11.675 19.93 13.934000000000001 19.93 13.934000000000001 C 19.93 8.958 16 5 16 5 C 16 5 15.947 7.962 13.957 10.948 C 11.967 3.981 5.995 0 5.995 0 C 8.981 10.948 5 14.93 5 22.892 C 5 27.563 8.954 32 15 32 C 23.957 32 25.689 28.712 26.615000000000002 25.006999999999998 C 27.891 19.906 25.98 13.976 22 9 z M 24.676 24.521 C 24.033 27.09 23.307 30 15 30 C 9.992 30 7 26.386 7 22.892 C 7 20.216 7.4879999999999995 18.019 8.004 15.693 C 8.66 12.744 9.331999999999999 9.725 9.041 5.731999999999999 C 12.125 10.001 13.223 15.657 13.223 15.657 C 13.223 15.657 16.094 11.626000000000001 16.866 9.754000000000001 C 17.457 10.957 18 15 18 19 C 18 19 20.656 16.812 22.648 13.522 C 24.746 17.284 25.502 21.217 24.676 24.521 z" stroke-linecap="round" />
</g>
<g transform="matrix(28.92 0 0 28.92 540 638.27)"  >
<path style="stroke: none; stroke-width: 1; stroke-dasharray: none; stroke-linecap: butt; stroke-dashoffset: 0; stroke-linejoin: miter; stroke-miterlimit: 4; fill: rgb(165,159,48); fill-rule: nonzero; opacity: 1;" vector-effect="non-scaling-stroke"  transform=" translate(-15.72, -19.4)" d="M 22.432 16.795 L 21.581999999999997 17.78 C 20.528999999999996 19.008000000000003 19.532999999999998 20.172 16.873999999999995 21.51 C 16.492999999999995 20.368000000000002 16.146999999999995 19.111 16.146999999999995 17.187 L 16.146999999999995 15.478000000000002 L 14.628999999999994 17.856 C 14.116999999999994 18.667 13.692999999999994 19.339000000000002 13.060999999999995 20.232000000000003 C 12.101999999999995 18.070000000000004 11.423999999999994 16.471000000000004 10.908999999999995 15.020000000000003 L 10.429999999999996 13.670000000000003 L 9.909999999999997 15.180000000000003 C 9.249999999999996 17.101000000000003 8.624999999999996 18.915000000000003 8.624999999999996 23.624000000000002 C 8.624999999999996 23.900000000000002 8.847999999999997 24.124000000000002 9.124999999999996 24.124000000000002 C 9.399999999999997 24.124000000000002 9.624999999999996 23.900000000000002 9.624999999999996 23.624000000000002 C 9.624999999999996 20.015 9.983999999999996 18.228 10.464999999999996 16.683000000000003 C 10.984999999999996 18.005000000000003 11.640999999999996 19.508000000000003 12.501999999999995 21.433000000000003 L 12.853999999999996 22.217000000000002 L 13.361999999999995 21.525000000000002 C 14.191999999999995 20.395000000000003 14.685999999999995 19.635 15.226999999999995 18.782000000000004 C 15.384999999999994 20.261000000000003 15.749999999999995 21.322000000000003 16.111999999999995 22.372000000000003 L 16.293999999999993 22.900000000000002 L 16.799999999999994 22.661 C 19.502999999999993 21.377000000000002 20.767999999999994 20.208000000000002 21.771999999999995 19.086000000000002 C 21.927999999999994 20.950000000000003 21.681999999999995 22.990000000000002 21.097999999999995 24.439 C 20.993999999999996 24.695 21.118999999999996 24.986 21.374999999999996 25.089 C 21.435999999999996 25.113 21.499999999999996 25.125 21.562999999999995 25.125 C 21.759999999999994 25.125 21.947999999999997 25.007 22.025999999999996 24.812 C 22.800999999999995 22.888 23.033999999999995 20.148000000000003 22.617999999999995 17.830000000000002 L 22.432 16.795 z" stroke-linecap="round" />
</g>
</svg>