<?xml version="1.0" encoding="UTF-8" standalone="no" ?>
<!DOCTYPE svg PUBLIC "-//W3C//DTD SVG 1.1//EN" "http://www.w3.org/Graphics/SVG/1.1/DTD/svg11.dtd">
<svg xmlns="http://www.w3.org/2000/svg" xmlns:xlink="http://www.w3.org/1999/xlink" version="1.1" width="1080" height="1080" viewBox="0 0 1080 1080" xml:space="preserve">
<desc>Created with Fabric.js 5.2.4</desc>
<defs>
</defs>
<rect x="0" y="0" width="100%" height="100%" fill="transparent"></rect>
<g transform="matrix(1 0 0 1 540 540)" id="0e62ac12-f387-4441-adee-dc550764eb09"  >
<rect style="stroke: none; stroke-width: 1; stroke-dasharray: none; stroke-linecap: butt; stroke-dashoffset: 0; stroke-linejoin: miter; stroke-miterlimit: 4; fill: rgb(255,255,255); fill-rule: nonzero; opacity: 1; visibility: hidden;" vector-effect="non-scaling-stroke"  x="-540" y="-540" rx="0" ry="0" width="1080" height="1080" />
</g>
<g transform="matrix(1 0 0 1 540 540)" id="79e30966-6c7f-4d47-9b1a-d2423c576ab7"  >
</g>
<g transform="matrix(0 0 0 0 0 0)"  >
<g style=""   >
</g>
</g>
<g transform="matrix(0 0 0 0 0 0)"  >
<g style=""   >
</g>
</g>
<g transform="matrix(0 0 0 0 0 0)"  >
<g style=""   >
</g>
</g>
<g transform="matrix(0 0 0 0 0 0)"  >
<g style=""   >
</g>
</g>
<g transform="matrix(0 0 0 0 0 0)"  >
<g style=""   >
</g>
</g>
<g transform="matrix(0 0 0 0 0 0)"  >
<g style=""   >
</g>
</g>
<g transform="matrix(0 0 0 0 0 0)"  >
<g style=""   >
</g>
</g>
<g transform="matrix(0 0 0 0 0 0)"  >
<g style=""   >
</g>
</g>
<g transform="matrix(0 0 0 0 0 0)"  >
<g style=""   >
</g>
</g>
<g transform="matrix(0 0 0 0 0 0)"  >
<g style=""   >
</g>
</g>
<g transform="matrix(0 0 0 0 0 0)"  >
<g style=""   >
</g>
</g>
<g transform="matrix(0 0 0 0 0 0)"  >
<g style=""   >
</g>
</g>
<g transform="matrix(0 0 0 0 0 0)"  >
<g style=""   >
</g>
</g>
<g transform="matrix(0 0 0 0 0 0)"  >
<g style=""   >
</g>
</g>
<g transform="matrix(0 0 0 0 0 0)"  >
<g style=""   >
</g>
</g>
<g transform="matrix(0 0 0 0 0 0)"  >
<g style=""   >
</g>
</g>
<g transform="matrix(0 0 0 0 0 0)"  >
<g style=""   >
</g>
</g>
<g transform="matrix(0 0 0 0 0 0)"  >
<g style=""   >
</g>
</g>
<g transform="matrix(0 0 0 0 0 0)"  >
<g style=""   >
</g>
</g>
<g transform="matrix(0 0 0 0 0 0)"  >
<g style=""   >
</g>
</g>
<g transform="matrix(0 0 0 0 0 0)"  >
<g style=""   >
</g>
</g>
<g transform="matrix(0 0 0 0 0 0)"  >
<g style=""   >
</g>
</g>
<g transform="matrix(1 0 0 1 -2.34 80.17)"  >
<rect style="stroke: none; stroke-width: 1; stroke-dasharray: none; stroke-linecap: butt; stroke-dashoffset: 0; stroke-linejoin: miter; stroke-miterlimit: 4; fill: rgb(34,30,30); fill-opacity: 0; fill-rule: nonzero; opacity: 1;" vector-effect="non-scaling-stroke"  x="-50" y="-50" rx="0" ry="0" width="100" height="100" />
</g>
<g transform="matrix(1 0 0 1 487.66 570.17)"  >
<rect style="stroke: none; stroke-width: 1; stroke-dasharray: none; stroke-linecap: butt; stroke-dashoffset: 0; stroke-linejoin: miter; stroke-miterlimit: 4; fill: rgb(34,30,30); fill-opacity: 0; fill-rule: nonzero; opacity: 1; visibility: hidden;" vector-effect="non-scaling-stroke"  x="-540" y="-540" rx="0" ry="0" width="1080" height="1080" />
</g>
<g transform="matrix(1 0 0 1 50 50)"  >
<rect style="stroke: none; stroke-width: 1; stroke-dasharray: none; stroke-linecap: butt; stroke-dashoffset: 0; stroke-linejoin: miter; stroke-miterlimit: 4; fill: rgb(255,255,255); fill-opacity: 0; fill-rule: nonzero; opacity: 1;" vector-effect="non-scaling-stroke"  x="-50" y="-50" rx="0" ry="0" width="100" height="100" />
</g>
<g transform="matrix(1 0 0 1 540 540)"  >
<rect style="stroke: none; stroke-width: 1; stroke-dasharray: none; stroke-linecap: butt; stroke-dashoffset: 0; stroke-linejoin: miter; stroke-miterlimit: 4; fill: rgb(255,255,255); fill-rule: nonzero; opacity: 1; visibility: hidden;" vector-effect="non-scaling-stroke"  x="-540" y="-540" rx="0" ry="0" width="1080" height="1080" />
</g>
<g transform="matrix(NaN NaN NaN NaN 0 0)"  >
<g style=""   >
</g>
</g>
<g transform="matrix(NaN NaN NaN NaN 0 0)"  >
<g style=""   >
</g>
</g>
<g transform="matrix(NaN NaN NaN NaN 0 0)"  >
<g style=""   >
</g>
</g>
<g transform="matrix(NaN NaN NaN NaN 0 0)"  >
<g style=""   >
</g>
</g>
<g transform="matrix(NaN NaN NaN NaN 0 0)"  >
<g style=""   >
</g>
</g>
<g transform="matrix(NaN NaN NaN NaN 0 0)"  >
<g style=""   >
</g>
</g>
<g transform="matrix(NaN NaN NaN NaN 0 0)"  >
<g style=""   >
</g>
</g>
<g transform="matrix(NaN NaN NaN NaN 0 0)"  >
<g style=""   >
</g>
</g>
<g transform="matrix(NaN NaN NaN NaN 0 0)"  >
<g style=""   >
</g>
</g>
<g transform="matrix(NaN NaN NaN NaN 0 0)"  >
<g style=""   >
</g>
</g>
<g transform="matrix(NaN NaN NaN NaN 0 0)"  >
<g style=""   >
</g>
</g>
<g transform="matrix(41.21 0 0 41.21 540 540)" id="307afbb4-1031-44fe-86ce-fb5415da1695"  >
<path style="stroke: rgb(0,0,0); stroke-width: 0; stroke-dasharray: none; stroke-linecap: butt; stroke-dashoffset: 0; stroke-linejoin: miter; stroke-miterlimit: 4; fill: rgb(62,184,22); fill-rule: nonzero; opacity: 1;" vector-effect="non-scaling-stroke"  transform=" translate(-11.99, -12)" d="M 18.9917 21.002 L 17.9917 21.002 L 17.9917 19.335 C 17.98858328807682 18.762735551199373 17.887258718270548 18.19525234082055 17.692140000000002 17.657269999999997 C 17.681210000000004 17.62791 17.66974 17.60069 17.656250000000004 17.57273 C 17.49428582188723 17.131149364623916 17.270543437942113 16.714757229578964 16.9917 16.33598 L 15.591800000000005 14.468789999999998 C 15.203381528021975 13.948649737554364 14.992945555963185 13.317173500653805 14.991700000000005 12.668009999999999 L 14.991700000000005 11.6582 C 14.993988441531558 10.863125995370611 15.309610489835956 10.101004492629354 15.870120000000005 9.537110000000002 L 16.527340000000006 8.87988 C 17.290955762830787 8.112126162112245 17.78149382240922 7.114974084460262 17.92365 6.041500000000001 C 17.92419 6.02759 17.931649999999998 6.01599 17.931649999999998 6.00195 L 17.928839999999997 5.98822 C 17.963606873374697 5.775297733018611 17.98460711336211 5.560355082636867 17.991709999999998 5.34473 L 17.991709999999998 3.002 L 18.991709999999998 3.002 C 19.54399474983079 3.002 19.991709999999998 2.554284749830793 19.991709999999998 2.002 C 19.991709999999998 1.4497152501692063 19.54399474983079 1.0019999999999998 18.991709999999998 1.0019999999999998 L 4.991709999999998 1.0019999999999998 C 4.439425250169204 1.0019999999999998 3.9917099999999976 1.4497152501692063 3.9917099999999976 2.002 C 3.9917099999999976 2.554284749830793 4.439425250169204 3.002 4.991709999999998 3.002 L 5.991709999999998 3.002 L 5.991709999999998 5.34473 C 5.998812886637885 5.560355082636867 6.019813126625298 5.775297733018611 6.054579999999998 5.988219999999999 L 6.05176 6.002 C 6.05176 6.016 6.0592 6.02764 6.05976 6.04155 C 6.201917012097434 7.115021753159194 6.692450948974492 8.112172591627361 7.456059999999999 8.879929999999998 L 8.11329 9.53716 C 8.673783690432177 10.10104381147019 8.989401070870244 10.863144753632 8.9917 11.658200000000003 L 8.9917 12.668 C 8.990397671882294 13.317075628077102 8.78015551497943 13.948485830221054 8.39209 14.468779999999999 L 6.99121 16.33594 C 6.712454158985628 16.71489881625663 6.4887761919204765 17.131428622379214 6.326839999999999 17.57312 C 6.31354 17.60083 6.3021199999999995 17.62775 6.29132 17.6568 C 6.096176237042125 18.194940246375186 5.994832047943089 18.7625786488383 5.991699999999998 19.335000000000004 L 5.9917 21.002000000000002 L 4.9917 21.002000000000002 C 4.439415250169207 21.002000000000002 3.9917 21.44971525016921 3.9917 22.002000000000002 C 3.9917 22.554284749830796 4.439415250169207 23.002000000000002 4.9917 23.002000000000002 L 18.9917 23.002000000000002 C 19.543984749830795 23.002000000000002 19.9917 22.554284749830796 19.9917 22.002000000000002 C 19.9917 21.44971525016921 19.543984749830795 21.002000000000002 18.9917 21.002000000000002 Z M 7.991700000000002 5.001999999999999 L 7.991700000000002 3.001999999999999 L 15.991700000000002 3.001999999999999 L 15.991700000000002 5.001999999999999 Z M 8.870120000000002 7.465869999999999 C 8.729213713047566 7.324311374177048 8.602944671575287 7.168901519132484 8.49323 7.001999999999999 L 15.49017 7.002 C 15.380452142839903 7.168899187061023 15.254183352128065 7.3243087334737735 15.113280000000001 7.46587 L 14.456050000000001 8.123099999999999 C 13.676018233169538 8.898549800757218 13.17584482072354 9.911264913313763 13.03418 11.002 L 10.949180000000002 11.001999999999999 C 10.807548353310416 9.911232085567896 10.307383617217997 8.898477995649149 9.527339999999999 8.123 Z M 9.99219 15.668 C 10.570808507822846 14.892682820909302 10.913906952142796 13.967134947273308 10.980470000000002 13.002 L 13.002930000000001 13.001999999999999 C 13.069437276523768 13.967228440486647 13.412727721751422 14.892835332864982 13.991700000000002 15.668 L 14.99182 17.002 L 8.99133 17.002 Z M 15.991700000000002 21.002 L 7.991700000000002 21.002 L 7.991700000000002 19.335 C 7.994483741240679 19.223575362767363 8.003571606790151 19.1123975806963 8.018920000000001 19.002000000000002 L 15.964480000000002 19.002000000000002 C 15.979828393209852 19.1123975806963 15.988916258759323 19.223575362767363 15.991700000000002 19.335 Z" stroke-linecap="round" />
</g>
<g transform="matrix(NaN NaN NaN NaN 0 0)"  >
<g style=""   >
</g>
</g>
<g transform="matrix(NaN NaN NaN NaN 0 0)"  >
<g style=""   >
</g>
</g>
</svg>