<?xml version="1.0" encoding="UTF-8" standalone="no" ?>
<!DOCTYPE svg PUBLIC "-//W3C//DTD SVG 1.1//EN" "http://www.w3.org/Graphics/SVG/1.1/DTD/svg11.dtd">
<svg xmlns="http://www.w3.org/2000/svg" xmlns:xlink="http://www.w3.org/1999/xlink" version="1.1" width="1080" height="1080" viewBox="0 0 1080 1080" xml:space="preserve">
<desc>Created with Fabric.js 5.2.4</desc>
<defs>
</defs>
<rect x="0" y="0" width="100%" height="100%" fill="transparent"></rect>
<g transform="matrix(1 0 0 1 540 540)" id="0e62ac12-f387-4441-adee-dc550764eb09"  >
<rect style="stroke: none; stroke-width: 1; stroke-dasharray: none; stroke-linecap: butt; stroke-dashoffset: 0; stroke-linejoin: miter; stroke-miterlimit: 4; fill: rgb(255,255,255); fill-rule: nonzero; opacity: 1; visibility: hidden;" vector-effect="non-scaling-stroke"  x="-540" y="-540" rx="0" ry="0" width="1080" height="1080" />
</g>
<g transform="matrix(1 0 0 1 540 540)" id="79e30966-6c7f-4d47-9b1a-d2423c576ab7"  >
</g>
<g transform="matrix(0 0 0 0 0 0)"  >
<g style=""   >
</g>
</g>
<g transform="matrix(0 0 0 0 0 0)"  >
<g style=""   >
</g>
</g>
<g transform="matrix(0 0 0 0 0 0)"  >
<g style=""   >
</g>
</g>
<g transform="matrix(0 0 0 0 0 0)"  >
<g style=""   >
</g>
</g>
<g transform="matrix(0 0 0 0 0 0)"  >
<g style=""   >
</g>
</g>
<g transform="matrix(0 0 0 0 0 0)"  >
<g style=""   >
</g>
</g>
<g transform="matrix(0 0 0 0 0 0)"  >
<g style=""   >
</g>
</g>
<g transform="matrix(0 0 0 0 0 0)"  >
<g style=""   >
</g>
</g>
<g transform="matrix(0 0 0 0 0 0)"  >
<g style=""   >
</g>
</g>
<g transform="matrix(0 0 0 0 0 0)"  >
<g style=""   >
</g>
</g>
<g transform="matrix(0 0 0 0 0 0)"  >
<g style=""   >
</g>
</g>
<g transform="matrix(0 0 0 0 0 0)"  >
<g style=""   >
</g>
</g>
<g transform="matrix(0 0 0 0 0 0)"  >
<g style=""   >
</g>
</g>
<g transform="matrix(0 0 0 0 0 0)"  >
<g style=""   >
</g>
</g>
<g transform="matrix(0 0 0 0 0 0)"  >
<g style=""   >
</g>
</g>
<g transform="matrix(0 0 0 0 0 0)"  >
<g style=""   >
</g>
</g>
<g transform="matrix(0 0 0 0 0 0)"  >
<g style=""   >
</g>
</g>
<g transform="matrix(0 0 0 0 0 0)"  >
<g style=""   >
</g>
</g>
<g transform="matrix(0 0 0 0 0 0)"  >
<g style=""   >
</g>
</g>
<g transform="matrix(0 0 0 0 0 0)"  >
<g style=""   >
</g>
</g>
<g transform="matrix(0 0 0 0 0 0)"  >
<g style=""   >
</g>
</g>
<g transform="matrix(0 0 0 0 0 0)"  >
<g style=""   >
</g>
</g>
<g transform="matrix(1 0 0 1 -2.34 80.17)"  >
<rect style="stroke: none; stroke-width: 1; stroke-dasharray: none; stroke-linecap: butt; stroke-dashoffset: 0; stroke-linejoin: miter; stroke-miterlimit: 4; fill: rgb(34,30,30); fill-opacity: 0; fill-rule: nonzero; opacity: 1;" vector-effect="non-scaling-stroke"  x="-50" y="-50" rx="0" ry="0" width="100" height="100" />
</g>
<g transform="matrix(1 0 0 1 487.66 570.17)"  >
<rect style="stroke: none; stroke-width: 1; stroke-dasharray: none; stroke-linecap: butt; stroke-dashoffset: 0; stroke-linejoin: miter; stroke-miterlimit: 4; fill: rgb(34,30,30); fill-opacity: 0; fill-rule: nonzero; opacity: 1; visibility: hidden;" vector-effect="non-scaling-stroke"  x="-540" y="-540" rx="0" ry="0" width="1080" height="1080" />
</g>
<g transform="matrix(1 0 0 1 50 50)"  >
<rect style="stroke: none; stroke-width: 1; stroke-dasharray: none; stroke-linecap: butt; stroke-dashoffset: 0; stroke-linejoin: miter; stroke-miterlimit: 4; fill: rgb(255,255,255); fill-opacity: 0; fill-rule: nonzero; opacity: 1;" vector-effect="non-scaling-stroke"  x="-50" y="-50" rx="0" ry="0" width="100" height="100" />
</g>
<g transform="matrix(1 0 0 1 540 540)"  >
<rect style="stroke: none; stroke-width: 1; stroke-dasharray: none; stroke-linecap: butt; stroke-dashoffset: 0; stroke-linejoin: miter; stroke-miterlimit: 4; fill: rgb(255,255,255); fill-rule: nonzero; opacity: 1; visibility: hidden;" vector-effect="non-scaling-stroke"  x="-540" y="-540" rx="0" ry="0" width="1080" height="1080" />
</g>
<g transform="matrix(NaN NaN NaN NaN 0 0)"  >
<g style=""   >
</g>
</g>
<g transform="matrix(NaN NaN NaN NaN 0 0)"  >
<g style=""   >
</g>
</g>
<g transform="matrix(NaN NaN NaN NaN 0 0)"  >
<g style=""   >
</g>
</g>
<g transform="matrix(NaN NaN NaN NaN 0 0)"  >
<g style=""   >
</g>
</g>
<g transform="matrix(NaN NaN NaN NaN 0 0)"  >
<g style=""   >
</g>
</g>
<g transform="matrix(NaN NaN NaN NaN 0 0)"  >
<g style=""   >
</g>
</g>
<g transform="matrix(NaN NaN NaN NaN 0 0)"  >
<g style=""   >
</g>
</g>
<g transform="matrix(NaN NaN NaN NaN 0 0)"  >
<g style=""   >
</g>
</g>
<g transform="matrix(NaN NaN NaN NaN 0 0)"  >
<g style=""   >
</g>
</g>
<g transform="matrix(NaN NaN NaN NaN 0 0)"  >
<g style=""   >
</g>
</g>
<g transform="matrix(NaN NaN NaN NaN 0 0)"  >
<g style=""   >
</g>
</g>
<g transform="matrix(NaN NaN NaN NaN 0 0)"  >
<g style=""   >
</g>
</g>
<g transform="matrix(NaN NaN NaN NaN 0 0)"  >
<g style=""   >
</g>
</g>
<g transform="matrix(NaN NaN NaN NaN 0 0)"  >
<g style=""   >
</g>
</g>
<g transform="matrix(NaN NaN NaN NaN 0 0)"  >
<g style=""   >
</g>
</g>
<g transform="matrix(1.12 0 0 1.12 540 540)" id="8563fe4d-c09b-40e1-8bf1-53892e74e285"  >
<path style="stroke: rgb(0,0,0); stroke-width: 0; stroke-dasharray: none; stroke-linecap: butt; stroke-dashoffset: 0; stroke-linejoin: miter; stroke-miterlimit: 4; fill: rgb(62,184,22); fill-rule: nonzero; opacity: 1;" vector-effect="non-scaling-stroke"  transform=" translate(-423.33, -423.33)" d="M 526.48 585.84 C 526.48 597.0600000000001 517.38 606.1600000000001 506.16 606.1600000000001 C 494.94 606.1600000000001 485.84000000000003 597.0600000000001 485.84000000000003 585.84 L 485.84000000000003 141.76000000000005 L 393.53000000000003 234.08000000000004 C 385.59000000000003 242.01000000000005 372.72 242.01000000000005 364.79 234.08000000000004 C 356.86 226.15000000000003 356.86 213.28000000000003 364.79 205.34000000000003 L 491.79 78.34000000000003 L 492.14000000000004 78.00000000000003 L 492.17 77.97000000000003 L 492.5 77.67000000000003 L 492.55 77.62000000000003 L 492.86 77.35000000000004 L 493.21000000000004 77.05000000000004 L 493.24 77.03000000000004 L 493.34000000000003 76.95000000000005 L 493.62 76.72000000000004 L 493.64 76.71000000000004 L 493.96 76.46000000000004 L 494.03 76.41000000000004 C 494.4 76.13000000000004 494.77 75.87000000000003 495.15999999999997 75.62000000000003 L 495.26 75.56000000000003 L 495.59999999999997 75.34000000000003 L 495.65 75.32000000000004 L 496 75.11000000000004 L 496.05 75.08000000000004 L 496.27000000000004 74.95000000000005 L 496.48 74.84000000000005 L 496.71000000000004 74.72000000000004 L 496.91 74.61000000000004 L 497.16 74.49000000000004 L 497.22 74.46000000000004 L 497.56 74.30000000000004 L 497.63 74.26000000000003 L 498.05 74.08000000000003 L 498.07 74.07000000000002 C 500.55 72.99000000000002 503.28 72.39000000000001 506.15999999999997 72.39000000000001 C 509.03999999999996 72.39000000000001 511.78 72.99000000000001 514.25 74.07000000000002 L 514.27 74.08000000000003 L 514.6899999999999 74.26000000000003 L 514.76 74.30000000000004 L 515.1 74.46000000000004 L 515.1700000000001 74.49000000000004 L 515.4100000000001 74.61000000000004 L 515.6100000000001 74.72000000000004 L 515.8500000000001 74.84000000000005 L 516.0500000000002 74.95000000000005 L 516.2700000000002 75.08000000000004 L 516.3200000000002 75.11000000000004 L 516.6700000000002 75.32000000000004 L 516.7200000000001 75.34000000000003 L 517.0600000000002 75.56000000000003 L 517.1700000000002 75.62000000000003 C 517.5500000000002 75.87000000000003 517.9200000000002 76.13000000000004 518.2900000000002 76.41000000000004 L 518.3600000000002 76.46000000000004 L 518.6900000000003 76.71000000000004 L 518.7000000000003 76.72000000000004 L 518.9800000000002 76.95000000000005 L 519.0800000000003 77.03000000000004 L 519.1100000000002 77.05000000000004 L 519.4600000000003 77.35000000000004 L 519.7700000000002 77.62000000000003 L 519.8200000000002 77.67000000000003 L 520.1500000000002 77.97000000000003 L 520.1800000000002 78.00000000000003 L 520.5300000000002 78.34000000000003 L 647.5300000000002 205.34000000000003 C 655.4600000000002 213.28000000000003 655.4600000000002 226.15000000000003 647.5300000000002 234.08000000000004 C 639.6000000000003 242.01000000000005 626.7300000000002 242.01000000000005 618.8000000000002 234.08000000000004 L 526.4800000000002 141.76000000000005 L 526.4800000000002 585.84 z M 283.72 547.7900000000001 C 308.98 556.2500000000001 296.13000000000005 594.6700000000001 270.86 586.21 L 212.78000000000003 566.82 C 201.86000000000004 563.9200000000001 195.44000000000003 552.6800000000001 198.40000000000003 541.86 L 210.65000000000003 481.90000000000003 C 215.98000000000005 455.8 255.66000000000003 463.89000000000004 250.34000000000003 489.99 L 245.26000000000002 514.88 C 342.38 463.51 340.64 335.33 232.85000000000002 304.14 C 222.11 301.03 215.93 289.78999999999996 219.04000000000002 279.06 C 222.15000000000003 268.32 233.38000000000002 262.13 244.12 265.24 C 380.98 304.84000000000003 395.03 470.89 274.66 544.77 L 283.72 547.79 z M 155.42000000000002 346.93000000000006 C 150.09 373.0300000000001 110.41000000000003 364.94000000000005 115.73000000000002 338.8400000000001 L 120.26000000000002 316.6400000000001 C 23.140000000000015 368.0100000000001 24.880000000000024 496.1900000000001 132.67000000000002 527.3800000000001 C 158.24 534.7900000000001 146.98000000000002 573.6800000000001 121.40000000000002 566.2700000000001 C -17.179999999999993 526.1700000000001 -29.12999999999998 357.2800000000001 93.93000000000002 284.9100000000001 L 82.35000000000002 281.0400000000001 C 57.09000000000002 272.5900000000001 69.94000000000003 234.17000000000007 95.21000000000002 242.63000000000008 L 154.52000000000004 262.4200000000001 C 164.09000000000003 265.62000000000006 170.00000000000003 275.5300000000001 167.93000000000004 285.68000000000006 C 163.76000000000005 306.0900000000001 159.59000000000003 326.5200000000001 155.42000000000004 346.93000000000006 z M 322.6 684.69 C 295.87 684.69 295.87 644.0500000000001 322.6 644.0500000000001 L 689.73 644.0500000000001 C 716.46 644.0500000000001 716.46 684.69 689.73 684.69 L 322.6 684.69 z M 427.93 313.0400000000001 C 454.66 313.0400000000001 454.66 353.68000000000006 427.93 353.68000000000006 L 378.85 353.68000000000006 C 352.12 353.68000000000006 352.12 313.0400000000001 378.85 313.0400000000001 L 427.93 313.0400000000001 z M 174.66 606.71 C 174.66 595.49 183.76 586.39 194.98 586.39 C 206.2 586.39 215.29999999999998 595.49 215.29999999999998 606.71 L 215.29999999999998 655.39 C 215.29999999999998 698.46 250.48 733.63 293.53999999999996 733.63 L 718.79 733.63 C 761.8499999999999 733.63 797.03 698.46 797.03 655.39 L 797.03 431.91999999999996 C 797.03 388.84999999999997 761.85 353.67999999999995 718.79 353.67999999999995 L 584.4 353.67999999999995 C 557.67 353.67999999999995 557.67 313.03999999999996 584.4 313.03999999999996 L 718.79 313.03999999999996 C 784.29 313.03999999999996 837.67 366.41999999999996 837.67 431.91999999999996 L 837.67 655.39 C 837.67 720.89 784.29 774.27 718.79 774.27 L 293.53999999999996 774.27 C 228.03999999999996 774.27 174.65999999999997 720.89 174.65999999999997 655.39 L 174.65999999999997 606.71 z" stroke-linecap="round" />
</g>
<g transform="matrix(NaN NaN NaN NaN 0 0)"  >
<g style=""   >
</g>
</g>
</svg>