<?xml version="1.0" encoding="UTF-8" standalone="no" ?>
<!DOCTYPE svg PUBLIC "-//W3C//DTD SVG 1.1//EN" "http://www.w3.org/Graphics/SVG/1.1/DTD/svg11.dtd">
<svg xmlns="http://www.w3.org/2000/svg" xmlns:xlink="http://www.w3.org/1999/xlink" version="1.1" width="1080" height="1080" viewBox="0 0 1080 1080" xml:space="preserve">
<desc>Created with Fabric.js 5.2.4</desc>
<defs>
</defs>
<rect x="0" y="0" width="100%" height="100%" fill="transparent"></rect>
<g transform="matrix(1 0 0 1 540 540)" id="0e62ac12-f387-4441-adee-dc550764eb09"  >
<rect style="stroke: none; stroke-width: 1; stroke-dasharray: none; stroke-linecap: butt; stroke-dashoffset: 0; stroke-linejoin: miter; stroke-miterlimit: 4; fill: rgb(255,255,255); fill-rule: nonzero; opacity: 1; visibility: hidden;" vector-effect="non-scaling-stroke"  x="-540" y="-540" rx="0" ry="0" width="1080" height="1080" />
</g>
<g transform="matrix(1 0 0 1 540 540)" id="79e30966-6c7f-4d47-9b1a-d2423c576ab7"  >
</g>
<g transform="matrix(0 0 0 0 0 0)"  >
<g style=""   >
</g>
</g>
<g transform="matrix(0 0 0 0 0 0)"  >
<g style=""   >
</g>
</g>
<g transform="matrix(0 0 0 0 0 0)"  >
<g style=""   >
</g>
</g>
<g transform="matrix(0 0 0 0 0 0)"  >
<g style=""   >
</g>
</g>
<g transform="matrix(0 0 0 0 0 0)"  >
<g style=""   >
</g>
</g>
<g transform="matrix(0 0 0 0 0 0)"  >
<g style=""   >
</g>
</g>
<g transform="matrix(0 0 0 0 0 0)"  >
<g style=""   >
</g>
</g>
<g transform="matrix(0 0 0 0 0 0)"  >
<g style=""   >
</g>
</g>
<g transform="matrix(0 0 0 0 0 0)"  >
<g style=""   >
</g>
</g>
<g transform="matrix(0 0 0 0 0 0)"  >
<g style=""   >
</g>
</g>
<g transform="matrix(0 0 0 0 0 0)"  >
<g style=""   >
</g>
</g>
<g transform="matrix(0 0 0 0 0 0)"  >
<g style=""   >
</g>
</g>
<g transform="matrix(0 0 0 0 0 0)"  >
<g style=""   >
</g>
</g>
<g transform="matrix(0 0 0 0 0 0)"  >
<g style=""   >
</g>
</g>
<g transform="matrix(0 0 0 0 0 0)"  >
<g style=""   >
</g>
</g>
<g transform="matrix(0 0 0 0 0 0)"  >
<g style=""   >
</g>
</g>
<g transform="matrix(0 0 0 0 0 0)"  >
<g style=""   >
</g>
</g>
<g transform="matrix(0 0 0 0 0 0)"  >
<g style=""   >
</g>
</g>
<g transform="matrix(0 0 0 0 0 0)"  >
<g style=""   >
</g>
</g>
<g transform="matrix(0 0 0 0 0 0)"  >
<g style=""   >
</g>
</g>
<g transform="matrix(0 0 0 0 0 0)"  >
<g style=""   >
</g>
</g>
<g transform="matrix(0 0 0 0 0 0)"  >
<g style=""   >
</g>
</g>
<g transform="matrix(1 0 0 1 -2.34 80.17)"  >
<rect style="stroke: none; stroke-width: 1; stroke-dasharray: none; stroke-linecap: butt; stroke-dashoffset: 0; stroke-linejoin: miter; stroke-miterlimit: 4; fill: rgb(34,30,30); fill-opacity: 0; fill-rule: nonzero; opacity: 1;" vector-effect="non-scaling-stroke"  x="-50" y="-50" rx="0" ry="0" width="100" height="100" />
</g>
<g transform="matrix(1 0 0 1 487.66 570.17)"  >
<rect style="stroke: none; stroke-width: 1; stroke-dasharray: none; stroke-linecap: butt; stroke-dashoffset: 0; stroke-linejoin: miter; stroke-miterlimit: 4; fill: rgb(34,30,30); fill-opacity: 0; fill-rule: nonzero; opacity: 1; visibility: hidden;" vector-effect="non-scaling-stroke"  x="-540" y="-540" rx="0" ry="0" width="1080" height="1080" />
</g>
<g transform="matrix(1 0 0 1 50 50)"  >
<rect style="stroke: none; stroke-width: 1; stroke-dasharray: none; stroke-linecap: butt; stroke-dashoffset: 0; stroke-linejoin: miter; stroke-miterlimit: 4; fill: rgb(255,255,255); fill-opacity: 0; fill-rule: nonzero; opacity: 1;" vector-effect="non-scaling-stroke"  x="-50" y="-50" rx="0" ry="0" width="100" height="100" />
</g>
<g transform="matrix(1 0 0 1 540 540)"  >
<rect style="stroke: none; stroke-width: 1; stroke-dasharray: none; stroke-linecap: butt; stroke-dashoffset: 0; stroke-linejoin: miter; stroke-miterlimit: 4; fill: rgb(255,255,255); fill-rule: nonzero; opacity: 1; visibility: hidden;" vector-effect="non-scaling-stroke"  x="-540" y="-540" rx="0" ry="0" width="1080" height="1080" />
</g>
<g transform="matrix(NaN NaN NaN NaN 0 0)"  >
<g style=""   >
</g>
</g>
<g transform="matrix(NaN NaN NaN NaN 0 0)"  >
<g style=""   >
</g>
</g>
<g transform="matrix(NaN NaN NaN NaN 0 0)"  >
<g style=""   >
</g>
</g>
<g transform="matrix(NaN NaN NaN NaN 0 0)"  >
<g style=""   >
</g>
</g>
<g transform="matrix(NaN NaN NaN NaN 0 0)"  >
<g style=""   >
</g>
</g>
<g transform="matrix(NaN NaN NaN NaN 0 0)"  >
<g style=""   >
</g>
</g>
<g transform="matrix(NaN NaN NaN NaN 0 0)"  >
<g style=""   >
</g>
</g>
<g transform="matrix(NaN NaN NaN NaN 0 0)"  >
<g style=""   >
</g>
</g>
<g transform="matrix(NaN NaN NaN NaN 0 0)"  >
<g style=""   >
</g>
</g>
<g transform="matrix(NaN NaN NaN NaN 0 0)"  >
<g style=""   >
</g>
</g>
<g transform="matrix(NaN NaN NaN NaN 0 0)"  >
<g style=""   >
</g>
</g>
<g transform="matrix(NaN NaN NaN NaN 0 0)"  >
<g style=""   >
</g>
</g>
<g transform="matrix(NaN NaN NaN NaN 0 0)"  >
<g style=""   >
</g>
</g>
<g transform="matrix(NaN NaN NaN NaN 0 0)"  >
<g style=""   >
</g>
</g>
<g transform="matrix(NaN NaN NaN NaN 0 0)"  >
<g style=""   >
</g>
</g>
<g transform="matrix(NaN NaN NaN NaN 0 0)"  >
<g style=""   >
</g>
</g>
<g transform="matrix(NaN NaN NaN NaN 0 0)"  >
<g style=""   >
</g>
</g>
<g transform="matrix(1.74 0 0 1.74 540 540)"  >
<g style="" vector-effect="non-scaling-stroke"   >
		<g transform="matrix(1 0 0 1 0 0)"  >
<path style="stroke: none; stroke-width: 1; stroke-dasharray: none; stroke-linecap: butt; stroke-dashoffset: 0; stroke-linejoin: miter; stroke-miterlimit: 4; fill: rgb(62,184,22); fill-rule: nonzero; opacity: 1;" vector-effect="non-scaling-stroke"  transform=" translate(-256, -256)" d="M 471.185 181 C 464.785 181 448.908 181 431 181 C 431 158.944 413.056 141 391 141 L 381.803 141 L 344.682 76.039 C 342.902 72.923 339.588 71 336 71 L 316 71 L 316 21 L 336 21 C 341.523 21 346 16.522 346 11 C 346 5.4780000000000015 341.523 1 336 1 L 276 1 C 270.477 1 266 5.477 266 11 C 266 16.523 270.477 21 276 21 L 296 21 L 296 71 L 216 71 L 216 21 L 236 21 C 241.523 21 246 16.522 246 11 C 246 5.4780000000000015 241.523 1 236 1 L 176 1 C 170.477 1 166 5.477 166 11 C 166 16.523 170.477 21 176 21 L 196 21 L 196 71 L 176 71 C 172.412 71 169.098 72.923 167.317 76.039 L 130.197 141 L 121 141 C 98.944 141 81 158.944 81 181 L 51 181 C 45.477000000000004 181 41 185.477 41 191 L 41 231 L 11 231 C 5.477 231 1 235.477 1 241 L 1 301 C 1 306.522 5.477 311 11 311 L 41 311 L 41 351 C 41 356.522 45.477000000000004 361 51 361 L 81 361 C 81 376.946 90.382 390.737 103.913 397.158 L 61.785 497.116 C 59.001 503.723 63.873 511 71 511 L 141 511 C 144.148 511 147.111 509.519 149 507 L 176 471 L 336 471 L 363 507 C 364.889 509.519 367.853 511 371 511 L 441 511 C 448.17 511 452.98199999999997 503.683 450.215 497.116 L 408.087 397.158 C 421.618 390.737 431 376.946 431 361 L 471 361 C 493.056 361 511 343.056 511 321 L 511 221 C 511 199.006 493.157 181.101 471.185 181 z M 491 241 L 491 261 L 431 261 L 431 241 L 491 241 z M 431 281 L 491 281 L 491 301 L 431 301 L 431 281 z M 471 201 C 482.028 201 491 209.972 491 221 L 431 221 L 431 201 L 471 201 z M 181.803 91 L 330.197 91 L 358.76800000000003 141 L 153.232 141 L 181.803 91 z M 61 341 C 61 301.538 61 248.81 61 201 L 81 201 L 81 341 L 61 341 z M 376 491 L 349 455 C 347.111 452.481 344.147 451 341 451 L 171 451 C 167.852 451 164.889 452.481 163 455 L 136 491 L 86.066 491 L 123.997 401 L 388.003 401 L 425.93399999999997 491 L 376 491 z M 391 381 L 121 381 C 109.972 381 101 372.028 101 361 L 151 361 C 156.523 361 161 356.522 161 351 C 161 345.478 156.523 341 151 341 L 101 341 L 101 321 L 151 321 C 156.523 321 161 316.522 161 311 C 161 305.478 156.523 301 151 301 L 101 301 L 101 281 L 151 281 C 156.523 281 161 276.522 161 271 C 161 265.478 156.523 261 151 261 L 101 261 L 101 241 L 151 241 C 156.523 241 161 236.523 161 231 C 161 225.477 156.523 221 151 221 L 101 221 L 101 201 L 151 201 C 156.523 201 161 196.523 161 191 C 161 185.477 156.523 181 151 181 L 101 181 C 101 169.972 109.972 161 121 161 C 121.158 161 391.152 161 391 161 C 402.028 161 411 169.972 411 181 C 389.381 181 368.693 181 361 181 C 355.477 181 351 185.477 351 191 C 351 196.523 355.477 201 361 201 L 411 201 L 411 221 L 361 221 C 355.477 221 351 225.477 351 231 C 351 236.523 355.477 241 361 241 L 411 241 L 411 261 L 361 261 C 355.477 261 351 265.478 351 271 C 351 276.522 355.477 281 361 281 L 411 281 L 411 301 L 361 301 C 355.477 301 351 305.478 351 311 C 351 316.522 355.477 321 361 321 L 411 321 L 411 341 L 361 341 C 355.477 341 351 345.478 351 351 C 351 356.522 355.477 361 361 361 L 411 361 C 411 372.028 402.028 381 391 381 z M 471 341 L 431 341 L 431 321 L 491 321 C 491 332.028 482.028 341 471 341 z" stroke-linecap="round" />
</g>
		<g transform="matrix(1 0 0 1 0 15)"  >
<path style="stroke: none; stroke-width: 1; stroke-dasharray: none; stroke-linecap: butt; stroke-dashoffset: 0; stroke-linejoin: miter; stroke-miterlimit: 4; fill: rgb(62,184,22); fill-rule: nonzero; opacity: 1;" vector-effect="non-scaling-stroke"  transform=" translate(-256, -271)" d="M 321 231 L 272.89300000000003 231 L 290.01500000000004 195.327 C 293.198 188.696 288.355 181 281 181 L 231 181 C 227.048 181 223.467 183.327 221.862 186.939 L 181.862 276.93899999999996 C 178.926 283.546 183.771 291 191 291 L 227.743 291 L 211.385 348.253 C 210.10899999999998 352.71999999999997 212.077 357.477 216.136 359.73699999999997 C 220.182 361.989 225.266 361.17499999999995 228.4 357.72599999999994 L 328.4 247.72599999999994 C 334.234 241.309 329.655 231 321 231 z" stroke-linecap="round" />
</g>
</g>
</g>
<g transform="matrix(NaN NaN NaN NaN 0 0)"  >
<g style=""   >
</g>
</g>
<g transform="matrix(NaN NaN NaN NaN 0 0)"  >
<g style=""   >
</g>
</g>
<g transform="matrix(1 0 0 1 50 50)"  >
<rect style="stroke: none; stroke-width: 1; stroke-dasharray: none; stroke-linecap: butt; stroke-dashoffset: 0; stroke-linejoin: miter; stroke-miterlimit: 4; fill: rgb(255,255,255); fill-opacity: 0; fill-rule: nonzero; opacity: 1;" vector-effect="non-scaling-stroke"  x="-50" y="-50" rx="0" ry="0" width="100" height="100" />
</g>
<g transform="matrix(1 0 0 1 540 540)"  >
<rect style="stroke: none; stroke-width: 1; stroke-dasharray: none; stroke-linecap: butt; stroke-dashoffset: 0; stroke-linejoin: miter; stroke-miterlimit: 4; fill: rgb(255,255,255); fill-rule: nonzero; opacity: 1; visibility: hidden;" vector-effect="non-scaling-stroke"  x="-540" y="-540" rx="0" ry="0" width="1080" height="1080" />
</g>
<g transform="matrix(6.65 0 0 6.65 540 540)"  >
<path style="stroke: rgb(0,0,0); stroke-width: 0; stroke-dasharray: none; stroke-linecap: butt; stroke-dashoffset: 0; stroke-linejoin: miter; stroke-miterlimit: 4; fill: rgb(184,35,22); fill-rule: nonzero; opacity: 0.77;" vector-effect="non-scaling-stroke"  transform=" translate(-100, -100)" d="M 114 100 L 163 51 C 166.799634961987 47.12281747078504 166.7682510334145 40.90895812215808 162.92964645562822 37.07035354437179 C 159.09104187784192 33.231748966585506 152.87718252921496 33.200365038013 149 37 L 100 86 L 51 37 C 47.12281747078504 33.200365038013 40.90895812215808 33.231748966585506 37.07035354437179 37.07035354437179 C 33.2317489665855 40.90895812215808 33.200365038013 47.12281747078504 37 51 L 86 100 L 37 149 C 33.200365038013 152.87718252921496 33.231748966585506 159.09104187784192 37.07035354437179 162.92964645562822 C 40.90895812215808 166.7682510334145 47.12281747078504 166.799634961987 51 163 L 100 114 L 149 163 C 152.87718252921496 166.799634961987 159.09104187784192 166.7682510334145 162.92964645562822 162.92964645562822 C 166.7682510334145 159.09104187784192 166.799634961987 152.87718252921496 163 149 Z" stroke-linecap="round" />
</g>
</svg>