<?xml version="1.0" encoding="UTF-8" standalone="no" ?>
<!DOCTYPE svg PUBLIC "-//W3C//DTD SVG 1.1//EN" "http://www.w3.org/Graphics/SVG/1.1/DTD/svg11.dtd">
<svg xmlns="http://www.w3.org/2000/svg" xmlns:xlink="http://www.w3.org/1999/xlink" version="1.1" width="1080" height="1080" viewBox="0 0 1080 1080" xml:space="preserve">
<desc>Created with Fabric.js 5.2.4</desc>
<defs>
</defs>
<rect x="0" y="0" width="100%" height="100%" fill="transparent"></rect>
<g transform="matrix(1 0 0 1 540 540)" id="b1da8c28-6a13-40ee-90c7-78f4c2dc76d5"  >
<rect style="stroke: none; stroke-width: 1; stroke-dasharray: none; stroke-linecap: butt; stroke-dashoffset: 0; stroke-linejoin: miter; stroke-miterlimit: 4; fill: rgb(255,255,255); fill-rule: nonzero; opacity: 1; visibility: hidden;" vector-effect="non-scaling-stroke"  x="-540" y="-540" rx="0" ry="0" width="1080" height="1080" />
</g>
<g transform="matrix(1 0 0 1 540 540)" id="62b20edd-6a43-4e00-a416-0423b7a947f2"  >
</g>
<g transform="matrix(1 0 0 1 50 50)"  >
<rect style="stroke: none; stroke-width: 1; stroke-dasharray: none; stroke-linecap: butt; stroke-dashoffset: 0; stroke-linejoin: miter; stroke-miterlimit: 4; fill: rgb(255,255,255); fill-opacity: 0; fill-rule: nonzero; opacity: 1;" vector-effect="non-scaling-stroke"  x="-50" y="-50" rx="0" ry="0" width="100" height="100" />
</g>
<g transform="matrix(1 0 0 1 540 540)"  >
<rect style="stroke: none; stroke-width: 1; stroke-dasharray: none; stroke-linecap: butt; stroke-dashoffset: 0; stroke-linejoin: miter; stroke-miterlimit: 4; fill: rgb(255,255,255); fill-rule: nonzero; opacity: 1; visibility: hidden;" vector-effect="non-scaling-stroke"  x="-540" y="-540" rx="0" ry="0" width="1080" height="1080" />
</g>
<g transform="matrix(30.97 0 0 30.97 540 587.94)"  >
<rect style="stroke: none; stroke-width: 1; stroke-dasharray: none; stroke-linecap: butt; stroke-dashoffset: 0; stroke-linejoin: miter; stroke-miterlimit: 4; fill: none; fill-rule: nonzero; opacity: 1;" vector-effect="non-scaling-stroke"  x="-16" y="-16" rx="0" ry="0" width="32" height="32" />
</g>
<g transform="matrix(0 0 0 0 0 0)"  >
<g style=""   >
</g>
</g>
<g transform="matrix(0 0 0 0 0 0)"  >
<g style=""   >
</g>
</g>
<g transform="matrix(0 0 0 0 0 0)"  >
<g style=""   >
</g>
</g>
<g transform="matrix(0 0 0 0 0 0)"  >
<g style=""   >
</g>
</g>
<g transform="matrix(30.97 0 0 30.97 540 540)"  >
<path style="stroke: none; stroke-width: 1; stroke-dasharray: none; stroke-linecap: butt; stroke-dashoffset: 0; stroke-linejoin: miter; stroke-miterlimit: 4; fill: rgb(62,184,22); fill-rule: nonzero; opacity: 1;" vector-effect="non-scaling-stroke"  transform=" translate(-16, -14)" d="M 0 0 L 0 28 L 31.999 28 L 32 0 L 0 0 z M 22 2 L 22 4 L 10 4 L 10 2 L 22 2 z M 8 2 L 8 4 L 6 4 L 6 2 L 8 2 z M 2 2 L 4 2 L 4 4 L 2 4 L 2 2 z M 29.999 26 L 2 26 L 2 6 L 29.999 6 L 29.999 26 z M 30 4 L 26 4 L 26 2 L 30 2 L 30 4 z" stroke-linecap="round" />
</g>
<g transform="matrix(0 0 0 0 0 0)"  >
<g style=""   >
</g>
</g>
<g transform="matrix(1 0 0 1 540 795.38)" style="" id="10550512-652d-4893-aa59-569e656c66fe"  >
		<text xml:space="preserve" font-family="Lato" font-size="166" font-style="normal" font-weight="700" style="stroke: none; stroke-width: 1; stroke-dasharray: none; stroke-linecap: butt; stroke-dashoffset: 0; stroke-linejoin: miter; stroke-miterlimit: 4; fill: rgb(62,184,22); fill-rule: nonzero; opacity: 1; white-space: pre;" ><tspan x="-219.62" y="52.15" >Metal</tspan></text>
</g>
<g transform="matrix(0 0 0 0 0 0)"  >
<g style=""   >
</g>
</g>
<g transform="matrix(0.24 0 0 0.24 276.74 562)"  >
<g style="" vector-effect="non-scaling-stroke"   >
		<g transform="matrix(1 0 0 1 -488.68 -489.86)"  >
<rect style="stroke: none; stroke-width: 1; stroke-dasharray: none; stroke-linecap: butt; stroke-dashoffset: 0; stroke-linejoin: miter; stroke-miterlimit: 4; fill: rgb(255,255,255); fill-opacity: 0; fill-rule: nonzero; opacity: 1;" vector-effect="non-scaling-stroke"  x="-50" y="-50" rx="0" ry="0" width="100" height="100" />
</g>
		<g transform="matrix(1 0 0 1 1.32 0.14)"  >
<rect style="stroke: none; stroke-width: 1; stroke-dasharray: none; stroke-linecap: butt; stroke-dashoffset: 0; stroke-linejoin: miter; stroke-miterlimit: 4; fill: rgb(255,255,255); fill-rule: nonzero; opacity: 1; visibility: hidden;" vector-effect="non-scaling-stroke"  x="-540" y="-540" rx="0" ry="0" width="1080" height="1080" />
</g>
		<g transform="matrix(0.8 -0.49 0.49 0.8 -632.86 -149.94)"  >
<rect style="stroke: none; stroke-width: 1; stroke-dasharray: none; stroke-linecap: butt; stroke-dashoffset: 0; stroke-linejoin: miter; stroke-miterlimit: 4; fill: rgb(255,255,255); fill-opacity: 0; fill-rule: nonzero; opacity: 1;" vector-effect="non-scaling-stroke"  x="-50" y="-50" rx="0" ry="0" width="100" height="100" />
</g>
		<g transform="matrix(0.8 -0.49 0.49 0.8 2.29 0.3)"  >
<rect style="stroke: none; stroke-width: 1; stroke-dasharray: none; stroke-linecap: butt; stroke-dashoffset: 0; stroke-linejoin: miter; stroke-miterlimit: 4; fill: rgb(255,255,255); fill-rule: nonzero; opacity: 1; visibility: hidden;" vector-effect="non-scaling-stroke"  x="-540" y="-540" rx="0" ry="0" width="1080" height="1080" />
</g>
		<g transform="matrix(2.03 0 0 2.03 1.32 0.14)"  >
<path style="stroke: rgb(0,0,0); stroke-width: 0; stroke-dasharray: none; stroke-linecap: butt; stroke-dashoffset: 0; stroke-linejoin: miter; stroke-miterlimit: 4; fill: rgb(62,184,22); fill-rule: nonzero; opacity: 1;" vector-effect="non-scaling-stroke"  transform=" translate(-160, -255.56)" d="M 160 32.01 C 71.63 32.01 0 103.63999999999999 0 192.01 L 0 319.11 C 0 407.48 71.63 479.11 160 479.11 C 248.37 479.11 320 407.48 320 319.11 L 320 192 C 320 103.6 248.4 32.01 160 32.01 z M 256 320 C 256 372.93 212.94 416 160 416 C 107.07 416 64 372.93 64 320 L 64 192 C 64 139.06 107.07 96 160 96 C 212.94 96 256 139.06 256 192 L 256 320 z" stroke-linecap="round" />
</g>
</g>
</g>
<g transform="matrix(0.74 0 0 0.74 674.8 511.57)" id="bb002c71-f3ab-4885-bff0-10a271f8a3e8"  >
<path style="stroke: rgb(0,0,0); stroke-width: 0; stroke-dasharray: none; stroke-linecap: butt; stroke-dashoffset: 0; stroke-linejoin: miter; stroke-miterlimit: 4; fill: rgb(62,184,22); fill-rule: nonzero; opacity: 1;" vector-effect="non-scaling-stroke"  transform=" translate(-256, -256)" d="M 128 24 C 70.5624 24 24 70.5624 24 128 L 24 384 C 24 441.438 70.5624 488 128 488 L 384 488 C 441.438 488 488 441.438 488 384 L 488 128 C 488 70.5624 441.438 24 384 24 L 128 24 Z M 40 128 C 40 79.3989 79.3989 40 128 40 L 384 40 C 432.601 40 472 79.3989 472 128 L 472 384 C 472 432.601 432.601 472 384 472 L 128 472 C 79.3989 472 40 432.601 40 384 L 40 128 Z M 160 100 C 144.536 100 132 112.536 132 128 L 132 240 C 132 264.301 151.699 284 176 284 L 324 284 L 324 384 C 324 399.464 336.536 412 352 412 C 367.464 412 380 399.464 380 384 L 380 128 C 380 112.536 367.464 100 352 100 C 336.536 100 324 112.536 324 128 L 324 228 L 188 228 L 188 128 C 188 112.536 175.464 100 160 100 Z M 148 128 C 148 121.373 153.373 116 160 116 C 166.627 116 172 121.373 172 128 L 172 236 C 172 240.418 175.582 244 180 244 L 332 244 C 336.418 244 340 240.418 340 236 L 340 128 C 340 121.373 345.373 116 352 116 C 358.627 116 364 121.373 364 128 L 364 384 C 364 390.627 358.627 396 352 396 C 345.373 396 340 390.627 340 384 L 340 276 C 340 271.582 336.418 268 332 268 L 176 268 C 160.536 268 148 255.464 148 240 L 148 128 Z" stroke-linecap="round" />
</g>
<g transform="matrix(1 0 0 1 422.65 640.85)" id="1cbc3f21-2bf9-4b5a-bbc8-9d7791fcff7c"  >
<circle style="stroke: rgb(0,0,0); stroke-width: 0; stroke-dasharray: none; stroke-linecap: butt; stroke-dashoffset: 0; stroke-linejoin: miter; stroke-miterlimit: 4; fill: rgb(62,184,22); fill-rule: nonzero; opacity: 1;" vector-effect="non-scaling-stroke"  cx="0" cy="0" r="35" />
</g>
<g transform="matrix(0 0 0 0 0 0)"  >
<g style=""   >
</g>
</g>
<g transform="matrix(0 0 0 0 0 0)"  >
<g style=""   >
</g>
</g>
<g transform="matrix(0 0 0 0 0 0)"  >
<g style=""   >
</g>
</g>
<g transform="matrix(0 0 0 0 0 0)"  >
<g style=""   >
</g>
</g>
<g transform="matrix(0 0 0 0 0 0)"  >
<g style=""   >
</g>
</g>
<g transform="matrix(NaN NaN NaN NaN 0 0)"  >
<g style=""   >
</g>
</g>
<g transform="matrix(NaN NaN NaN NaN 0 0)"  >
<g style=""   >
</g>
</g>
</svg>