<?xml version="1.0" encoding="UTF-8" standalone="no" ?>
<!DOCTYPE svg PUBLIC "-//W3C//DTD SVG 1.1//EN" "http://www.w3.org/Graphics/SVG/1.1/DTD/svg11.dtd">
<svg xmlns="http://www.w3.org/2000/svg" xmlns:xlink="http://www.w3.org/1999/xlink" version="1.1" width="1080" height="1080" viewBox="0 0 1080 1080" xml:space="preserve">
<desc>Created with Fabric.js 5.2.4</desc>
<defs>
</defs>
<rect x="0" y="0" width="100%" height="100%" fill="transparent"></rect>
<g transform="matrix(1 0 0 1 540 540)" id="6a18d6e6-15db-4a08-9e51-9ac9bbd6ef2c"  >
<rect style="stroke: none; stroke-width: 1; stroke-dasharray: none; stroke-linecap: butt; stroke-dashoffset: 0; stroke-linejoin: miter; stroke-miterlimit: 4; fill: rgb(255,255,255); fill-rule: nonzero; opacity: 1; visibility: hidden;" vector-effect="non-scaling-stroke"  x="-540" y="-540" rx="0" ry="0" width="1080" height="1080" />
</g>
<g transform="matrix(1 0 0 1 540 540)" id="9ec662dd-82b9-45ff-adff-1d7a390fdf63"  >
</g>
<g transform="matrix(15.07 0 0 15.07 540 540)"  >
<g style="" vector-effect="non-scaling-stroke"   >
		<g transform="matrix(1 0 0 1 12 12.34)"  >
<path style="stroke: none; stroke-width: 1; stroke-dasharray: none; stroke-linecap: butt; stroke-dashoffset: 0; stroke-linejoin: miter; stroke-miterlimit: 4; fill: rgb(62,184,22); fill-rule: nonzero; opacity: 1;" vector-effect="non-scaling-stroke"  transform=" translate(-36, -36)" d="M 36 24 C 29.373 24 24 29.373 24 36 C 24 42.626999999999995 29.373 48 36 48 C 42.626999999999995 48 48 42.627 48 36 C 48 29.372999999999998 42.627 24 36 24 z M 36 46 C 30.477 46 26 41.522999999999996 26 36 C 26 30.477000000000004 30.477 26 36 26 C 41.522999999999996 26 46 30.477 46 36 C 46 41.522999999999996 41.523 46 36 46 z" stroke-linecap="round" />
</g>
		<g transform="matrix(1 0 0 1 12 4.59)"  >
<rect style="stroke: none; stroke-width: 1; stroke-dasharray: none; stroke-linecap: butt; stroke-dashoffset: 0; stroke-linejoin: miter; stroke-miterlimit: 4; fill: rgb(62,184,22); fill-rule: nonzero; opacity: 1;" vector-effect="non-scaling-stroke"  x="-0.75" y="-0.75" rx="0" ry="0" width="1.5" height="1.5" />
</g>
		<g transform="matrix(1 0 0 1 4.25 12.34)"  >
<rect style="stroke: none; stroke-width: 1; stroke-dasharray: none; stroke-linecap: butt; stroke-dashoffset: 0; stroke-linejoin: miter; stroke-miterlimit: 4; fill: rgb(62,184,22); fill-rule: nonzero; opacity: 1;" vector-effect="non-scaling-stroke"  x="-0.75" y="-0.75" rx="0" ry="0" width="1.5" height="1.5" />
</g>
		<g transform="matrix(0.71 0.71 -0.71 0.71 17.52 6.82)"  >
<rect style="stroke: none; stroke-width: 1; stroke-dasharray: none; stroke-linecap: butt; stroke-dashoffset: 0; stroke-linejoin: miter; stroke-miterlimit: 4; fill: rgb(62,184,22); fill-rule: nonzero; opacity: 1;" vector-effect="non-scaling-stroke"  x="-0.7505" y="-0.75" rx="0" ry="0" width="1.501" height="1.5" />
</g>
		<g transform="matrix(-0.71 -0.71 0.71 -0.71 6.56 17.78)"  >
<rect style="stroke: none; stroke-width: 1; stroke-dasharray: none; stroke-linecap: butt; stroke-dashoffset: 0; stroke-linejoin: miter; stroke-miterlimit: 4; fill: rgb(62,184,22); fill-rule: nonzero; opacity: 1;" vector-effect="non-scaling-stroke"  x="-0.75" y="-0.75" rx="0" ry="0" width="1.5" height="1.5" />
</g>
		<g transform="matrix(0.71 0.71 -0.71 0.71 6.52 6.86)"  >
<rect style="stroke: none; stroke-width: 1; stroke-dasharray: none; stroke-linecap: butt; stroke-dashoffset: 0; stroke-linejoin: miter; stroke-miterlimit: 4; fill: rgb(62,184,22); fill-rule: nonzero; opacity: 1;" vector-effect="non-scaling-stroke"  x="-0.75" y="-0.7505" rx="0" ry="0" width="1.5" height="1.501" />
</g>
		<g transform="matrix(-0.71 -0.71 0.71 -0.71 17.48 17.82)"  >
<rect style="stroke: none; stroke-width: 1; stroke-dasharray: none; stroke-linecap: butt; stroke-dashoffset: 0; stroke-linejoin: miter; stroke-miterlimit: 4; fill: rgb(62,184,22); fill-rule: nonzero; opacity: 1;" vector-effect="non-scaling-stroke"  x="-0.75" y="-0.75" rx="0" ry="0" width="1.5" height="1.5" />
</g>
		<g transform="matrix(1 0 0 1 15.88 16.22)"  >
<polygon style="stroke: none; stroke-width: 1; stroke-dasharray: none; stroke-linecap: butt; stroke-dashoffset: 0; stroke-linejoin: miter; stroke-miterlimit: 4; fill: rgb(62,184,22); fill-rule: nonzero; opacity: 1;" vector-effect="non-scaling-stroke"  points="-4.63,-4.63 -4.63,-3.88 -4.63,-3.13 -4.63,3.13 -4.63,4.63 -3.13,4.63 -3.13,3.13 -3.13,-3.13 3.13,-3.13 4.63,-3.13 4.63,-4.63 3.13,-4.63 " />
</g>
		<g transform="matrix(1 0 0 1 2.02 23.52)"  >
<path style="stroke: none; stroke-width: 1; stroke-dasharray: none; stroke-linecap: butt; stroke-dashoffset: 0; stroke-linejoin: miter; stroke-miterlimit: 4; fill: rgb(62,184,22); fill-rule: nonzero; opacity: 1;" vector-effect="non-scaling-stroke"  transform=" translate(-26.02, -47.18)" d="M 26.015 47.222 C 26.032 47.221000000000004 26.047 47.217 26.064 47.215 C 26.037 47.191 26.012 47.161 25.985 47.137 C 25.994 47.164 26.005 47.194 26.015 47.222 z" stroke-linecap="round" />
</g>
		<g transform="matrix(1 0 0 1 0 -0.34)"  >
<path style="stroke: none; stroke-width: 1; stroke-dasharray: none; stroke-linecap: butt; stroke-dashoffset: 0; stroke-linejoin: miter; stroke-miterlimit: 4; fill: rgb(62,184,22); fill-rule: nonzero; opacity: 1;" vector-effect="non-scaling-stroke"  transform=" translate(-24, -23.31)" d="M 16.403 34.099 C 16.188 33.635999999999996 16.084 33.375 16.084 33.375 L 21.244 33.375 C 21.84 30.006 23.557 27.033 26 24.842 L 26 19.25 L 33.566 19.25 C 33.662 19.885 33.733000000000004 20.53 33.784000000000006 21.182 C 34.509 21.074 35.245 21 36 21 C 36.543 21 37.077 21.032 37.604 21.088 C 37.561 20.470000000000002 37.505 19.856 37.43 19.25 L 43.585 19.25 C 43.856 20.562 44 21.92 44 23.312 C 44 23.317 43.999 23.321 43.999 23.326 C 45.427 24.229 46.691 25.36 47.738 26.677 C 47.894 25.575 48 24.458 48 23.312 C 48 10.736 38.325 0.42600000000000193 26.014 -0.597999999999999 C 26.009 -0.6 26.005 -0.604 26 -0.607 L 26 -0.598 C 25.34 -0.652 24.674 -0.6869999999999999 24 -0.6869999999999999 C 23.326 -0.6869999999999999 22.66 -0.6519999999999999 22 -0.598 L 22 -0.607 C 21.995 -0.604 21.991 -0.6 21.986 -0.597 C 9.675 0.427 0 10.736 0 23.312 C 0 35.888000000000005 9.674 46.198 21.986 47.221000000000004 C 21.991 47.225 21.995 47.229000000000006 22 47.232000000000006 L 22 47.22200000000001 C 22.66 47.27700000000001 23.326 47.31200000000001 24 47.31200000000001 C 24.674 47.31200000000001 25.34 47.277000000000015 26 47.22200000000001 L 26 47.232000000000006 C 26.005 47.229000000000006 26.01 47.22500000000001 26.015 47.221000000000004 C 22.028 43.396 19.403 39.535000000000004 17.858 36.866 C 17.318 35.99 16.836 35.063 16.403 34.099 z M 42.295 15.25 L 36.669000000000004 15.25 C 35.667 11.345 33.965 7.81 31.726000000000006 4.862 C 36.443 6.84 40.232 10.578 42.295 15.25 z M 26 4.818 C 28.988 7.423 31.320999999999998 11.041 32.647 15.25 L 26 15.25 L 26 4.818 z M 22 29.375 L 14.817 29.375 C 14.374 27.443 14.129 25.413 14.129 23.313 C 14.129 21.926 14.235 20.569 14.433 19.250999999999998 L 22 19.250999999999998 L 22 29.375 z M 22 4.818 L 22 15.25 L 15.353 15.25 C 16.679 11.041 19.012 7.423 22 4.818 z M 16.274 4.862 C 14.035 7.809 12.333000000000002 11.344999999999999 11.331000000000001 15.25 L 5.706 15.25 C 7.768 10.578 11.557 6.84 16.274 4.862 z M 4.941 29.375 C 4.333 27.462 4 25.427 4 23.312 C 4 21.92 4.144 20.562 4.415 19.25 L 10.568999999999999 19.25 C 10.404 20.576 10.312999999999999 21.931 10.312999999999999 23.312 C 10.312999999999999 25.397000000000002 10.517 27.423000000000002 10.883999999999999 29.374000000000002 L 4.941 29.374000000000002 z M 6.735 33.375 L 11.917000000000002 33.375 C 12.944 36.489 14.425 39.328 16.275000000000002 41.763 C 12.253 40.077 8.915 37.106 6.735 33.375 z" stroke-linecap="round" />
</g>
</g>
</g>
<g transform="matrix(1 0 0 1 50 50)"  >
<rect style="stroke: none; stroke-width: 1; stroke-dasharray: none; stroke-linecap: butt; stroke-dashoffset: 0; stroke-linejoin: miter; stroke-miterlimit: 4; fill: rgb(255,255,255); fill-opacity: 0; fill-rule: nonzero; opacity: 1;" vector-effect="non-scaling-stroke"  x="-50" y="-50" rx="0" ry="0" width="100" height="100" />
</g>
<g transform="matrix(1 0 0 1 540 540)"  >
<rect style="stroke: none; stroke-width: 1; stroke-dasharray: none; stroke-linecap: butt; stroke-dashoffset: 0; stroke-linejoin: miter; stroke-miterlimit: 4; fill: rgb(255,255,255); fill-rule: nonzero; opacity: 1; visibility: hidden;" vector-effect="non-scaling-stroke"  x="-540" y="-540" rx="0" ry="0" width="1080" height="1080" />
</g>
<g transform="matrix(NaN NaN NaN NaN 0 0)"  >
<g style=""   >
</g>
</g>
<g transform="matrix(NaN NaN NaN NaN 0 0)"  >
<g style=""   >
</g>
</g>
</svg>