<?xml version="1.0" encoding="UTF-8" standalone="no" ?>
<!DOCTYPE svg PUBLIC "-//W3C//DTD SVG 1.1//EN" "http://www.w3.org/Graphics/SVG/1.1/DTD/svg11.dtd">
<svg xmlns="http://www.w3.org/2000/svg" xmlns:xlink="http://www.w3.org/1999/xlink" version="1.1" width="1080" height="1080" viewBox="0 0 1080 1080" xml:space="preserve">
<desc>Created with Fabric.js 5.2.4</desc>
<defs>
</defs>
<rect x="0" y="0" width="100%" height="100%" fill="transparent"></rect>
<g transform="matrix(1 0 0 1 540 540)" id="5f6915d9-5e06-49cc-be22-1765f1766137"  >
<rect style="stroke: none; stroke-width: 1; stroke-dasharray: none; stroke-linecap: butt; stroke-dashoffset: 0; stroke-linejoin: miter; stroke-miterlimit: 4; fill: rgb(255,255,255); fill-rule: nonzero; opacity: 1; visibility: hidden;" vector-effect="non-scaling-stroke"  x="-540" y="-540" rx="0" ry="0" width="1080" height="1080" />
</g>
<g transform="matrix(1 0 0 1 540 540)" id="8b6f39de-5bf9-4c66-904b-cbae711eac1d"  >
</g>
<g transform="matrix(NaN NaN NaN NaN 0 0)"  >
<g style=""   >
</g>
</g>
<g transform="matrix(NaN NaN NaN NaN 0 0)"  >
<g style=""   >
</g>
</g>
<g transform="matrix(NaN NaN NaN NaN 0 0)"  >
<g style=""   >
</g>
</g>
<g transform="matrix(NaN NaN NaN NaN 0 0)"  >
<g style=""   >
</g>
</g>
<g transform="matrix(NaN NaN NaN NaN 0 0)"  >
<g style=""   >
</g>
</g>
<g transform="matrix(NaN NaN NaN NaN 0 0)"  >
<g style=""   >
</g>
</g>
<g transform="matrix(NaN NaN NaN NaN 0 0)"  >
<g style=""   >
</g>
</g>
<g transform="matrix(NaN NaN NaN NaN 0 0)"  >
<g style=""   >
</g>
</g>
<g transform="matrix(NaN NaN NaN NaN 0 0)"  >
<g style=""   >
</g>
</g>
<g transform="matrix(NaN NaN NaN NaN 0 0)"  >
<g style=""   >
</g>
</g>
<g transform="matrix(NaN NaN NaN NaN 0 0)"  >
<g style=""   >
</g>
</g>
<g transform="matrix(NaN NaN NaN NaN 0 0)"  >
<g style=""   >
</g>
</g>
<g transform="matrix(0.8 -0.49 0.49 0.8 -94.28 389.91)"  >
<rect style="stroke: none; stroke-width: 1; stroke-dasharray: none; stroke-linecap: butt; stroke-dashoffset: 0; stroke-linejoin: miter; stroke-miterlimit: 4; fill: rgb(255,255,255); fill-opacity: 0; fill-rule: nonzero; opacity: 1;" vector-effect="non-scaling-stroke"  x="-50" y="-50" rx="0" ry="0" width="100" height="100" />
</g>
<g transform="matrix(0.8 -0.49 0.49 0.8 540 540)"  >
<rect style="stroke: none; stroke-width: 1; stroke-dasharray: none; stroke-linecap: butt; stroke-dashoffset: 0; stroke-linejoin: miter; stroke-miterlimit: 4; fill: rgb(255,255,255); fill-rule: nonzero; opacity: 1; visibility: hidden;" vector-effect="non-scaling-stroke"  x="-540" y="-540" rx="0" ry="0" width="1080" height="1080" />
</g>
<g transform="matrix(1.61 0 0 1.61 540 540)" id="99664260-d960-4879-b4a6-91537aadd16a"  >
<path style="stroke: rgb(0,0,0); stroke-width: 0; stroke-dasharray: none; stroke-linecap: butt; stroke-dashoffset: 0; stroke-linejoin: miter; stroke-miterlimit: 4; fill: rgb(62,184,22); fill-rule: nonzero; opacity: 1;" vector-effect="non-scaling-stroke"  transform=" translate(-287.9, -256.03)" d="M 287.9 112 C 306.5 112 324.09999999999997 115.8 340.7 121.6 C 354 111.3 364.3 97.3 370.2 80.89999999999999 C 345 69.99999999999999 317.2 63.89999999999999 288 63.89999999999999 C 258.9 63.89999999999999 231.1 69.89999999999999 205.9 80.79999999999998 C 211.8 97.19999999999999 222.1 111.19999999999999 235.4 121.49999999999999 C 251.9 115.79999999999998 269.4 111.99999999999999 287.9 111.99999999999999 z M 163.6 438.7 C 175.6 426.9 184 412.3 188.1 396.3 C 155.2 369.90000000000003 133.3 331 129.2 286.70000000000005 C 120.69999999999999 283.90000000000003 111.99999999999999 282.1 102.79999999999998 282.1 C 95.19999999999999 282.1 87.59999999999998 283.1 80.29999999999998 285.20000000000005 C 84.39999999999998 348.00000000000006 116.09999999999998 403.20000000000005 163.59999999999997 438.70000000000005 z M 387.79999999999995 396.09999999999997 C 391.9 412.09999999999997 400.29999999999995 426.79999999999995 412.29999999999995 438.59999999999997 C 459.69999999999993 403.09999999999997 491.4 347.9 495.29999999999995 285.09999999999997 C 488.09999999999997 283.09999999999997 480.59999999999997 282.09999999999997 473.09999999999997 282.09999999999997 C 463.9 282.09999999999997 455.09999999999997 283.99999999999994 446.49999999999994 286.79999999999995 C 442.3999999999999 330.99999999999994 420.49999999999994 369.69999999999993 387.79999999999995 396.09999999999997 z M 501.29999999999995 191.09999999999997 C 483.69999999999993 180.69999999999996 464.99999999999994 174.49999999999997 445.99999999999994 171.19999999999996 C 451.99999999999994 153.49999999999997 455.99999999999994 134.79999999999995 455.99999999999994 114.99999999999996 C 455.99999999999994 73.99999999999996 441.49999999999994 34.19999999999996 414.99999999999994 2.7999999999999545 C 412.49999999999994 -0.20000000000004547 408.3999999999999 -0.9000000000000457 404.99999999999994 0.9999999999999545 C 401.69999999999993 2.899999999999954 400.19999999999993 6.999999999999955 401.3999999999999 10.699999999999953 C 405.8999999999999 24.499999999999954 407.99999999999994 36.99999999999996 407.99999999999994 49.19999999999995 C 407.99999999999994 116.99999999999994 354.19999999999993 172.09999999999997 287.99999999999994 172.09999999999997 C 221.79999999999995 172.09999999999997 168 117 168 49.2 C 168 37.1 170.2 24.500000000000004 174.6 10.700000000000003 C 175.79999999999998 7.000000000000003 174.29999999999998 2.900000000000003 171 1.0000000000000036 C 167.6 -0.8999999999999964 163.5 -0.1999999999999964 161 2.8000000000000034 C 134.6 34.2 120 74 120 115 C 120 134.8 123.9 153.5 130 171.2 C 111.1 174.5 92.3 180.7 74.7 191.1 C 40.1 211.6 13.700000000000003 244.39999999999998 0.4000000000000057 283.5 C -0.8999999999999944 287.2 0.6000000000000056 291.2 3.9000000000000057 293.3 C 7.2000000000000055 295.3 11.400000000000006 294.6 13.900000000000006 291.7 C 23.300000000000004 280.9 32.900000000000006 272.59999999999997 43.10000000000001 266.59999999999997 C 100.4 232.69999999999996 173.90000000000003 252.89999999999998 207 311.59999999999997 C 240.1 370.29999999999995 220.4 445.59999999999997 163.1 479.5 C 152.9 485.6 141.1 489.9 127.3 492.9 C 123.6 493.7 120.89999999999999 497.09999999999997 120.89999999999999 501 C 120.99999999999999 505 123.6 508.3 127.39999999999999 509 C 167.1 516.8 208 509.8 242.6 489.3 C 260.6 478.7 275.5 464.8 287.9 449.2 C 300.29999999999995 464.8 315.2 478.7 333.2 489.3 C 367.8 509.8 408.7 516.8 448.4 509 C 452.2 508.3 454.79999999999995 505 454.9 501 C 454.9 497.1 452.29999999999995 493.7 448.5 492.9 C 434.6 490 422.9 485.59999999999997 412.7 479.5 C 355.4 445.6 335.7 370.3 368.8 311.6 C 401.90000000000003 252.90000000000003 475.4 232.70000000000002 532.7 266.6 C 542.9000000000001 272.70000000000005 552.5 280.90000000000003 561.9000000000001 291.70000000000005 C 564.4000000000001 294.6 568.6000000000001 295.30000000000007 571.9000000000001 293.30000000000007 C 575.2 291.30000000000007 576.7 287.20000000000005 575.4000000000001 283.50000000000006 C 562.3000000000001 244.40000000000006 535.9000000000001 211.50000000000006 501.30000000000007 191.10000000000005 z M 287.9 320.09999999999997 C 261.4 320.09999999999997 239.89999999999998 298.59999999999997 239.89999999999998 272.09999999999997 C 239.89999999999998 245.59999999999997 261.4 224.09999999999997 287.9 224.09999999999997 C 314.4 224.09999999999997 335.9 245.59999999999997 335.9 272.09999999999997 C 335.9 298.59999999999997 314.4 320.09999999999997 287.9 320.09999999999997 z" stroke-linecap="round" />
</g>
<g transform="matrix(NaN NaN NaN NaN 0 0)"  >
<g style=""   >
</g>
</g>
</svg>