<?xml version="1.0" encoding="UTF-8" standalone="no" ?>
<!DOCTYPE svg PUBLIC "-//W3C//DTD SVG 1.1//EN" "http://www.w3.org/Graphics/SVG/1.1/DTD/svg11.dtd">
<svg xmlns="http://www.w3.org/2000/svg" xmlns:xlink="http://www.w3.org/1999/xlink" version="1.1" width="1080" height="1080" viewBox="0 0 1080 1080" xml:space="preserve">
<desc>Created with Fabric.js 5.2.4</desc>
<defs>
</defs>
<rect x="0" y="0" width="100%" height="100%" fill="transparent"></rect>
<g transform="matrix(1 0 0 1 540 540)" id="9ba45f89-8c6d-404e-8be8-a4fd13976e0b"  >
<rect style="stroke: none; stroke-width: 1; stroke-dasharray: none; stroke-linecap: butt; stroke-dashoffset: 0; stroke-linejoin: miter; stroke-miterlimit: 4; fill: rgb(255,255,255); fill-rule: nonzero; opacity: 1; visibility: hidden;" vector-effect="non-scaling-stroke"  x="-540" y="-540" rx="0" ry="0" width="1080" height="1080" />
</g>
<g transform="matrix(1 0 0 1 540 540)" id="a772512f-08f5-44e3-8ceb-ff1ee2a7c094"  >
</g>
<g transform="matrix(1 0 0 1 50 50)"  >
<rect style="stroke: none; stroke-width: 1; stroke-dasharray: none; stroke-linecap: butt; stroke-dashoffset: 0; stroke-linejoin: miter; stroke-miterlimit: 4; fill: rgb(255,255,255); fill-opacity: 0; fill-rule: nonzero; opacity: 1;" vector-effect="non-scaling-stroke"  x="-50" y="-50" rx="0" ry="0" width="100" height="100" />
</g>
<g transform="matrix(1 0 0 1 540 540)"  >
<rect style="stroke: none; stroke-width: 1; stroke-dasharray: none; stroke-linecap: butt; stroke-dashoffset: 0; stroke-linejoin: miter; stroke-miterlimit: 4; fill: rgb(255,255,255); fill-rule: nonzero; opacity: 1; visibility: hidden;" vector-effect="non-scaling-stroke"  x="-540" y="-540" rx="0" ry="0" width="1080" height="1080" />
</g>
<g transform="matrix(NaN NaN NaN NaN 0 0)"  >
<g style=""   >
</g>
</g>
<g transform="matrix(NaN NaN NaN NaN 0 0)"  >
<g style=""   >
</g>
</g>
<g transform="matrix(11.26 0 0 11.26 540 540)" id="f5dd9b38-28a1-4d45-9487-f63a18d9a9d9"  >
<path style="stroke: rgb(0,0,0); stroke-width: 0; stroke-dasharray: none; stroke-linecap: butt; stroke-dashoffset: 0; stroke-linejoin: miter; stroke-miterlimit: 4; fill: rgb(62,184,22); fill-rule: nonzero; opacity: 1;" vector-effect="non-scaling-stroke"  transform=" translate(-39, -39)" d="M 39 0 C 17.461 0 0 17.461 0 39 C 0 60.539 17.461 78 39 78 C 60.539 78 78 60.539 78 39 C 78 17.461 60.539 0 39 0 z M 40.221 70.934 C 39.775999999999996 71.333 39.31399999999999 71.417 39.004 71.417 C 38.690999999999995 71.417 38.224 71.33200000000001 37.772 70.926 C 32.283 65.988 28.243 59.675000000000004 25.944 52.68600000000001 C 34.510999999999996 50.49700000000001 43.51 50.467000000000006 52.09 52.595000000000006 C 49.795 59.624 45.738 65.974 40.221 70.934 z M 24.474 46.87 C 24.005 44.296 23.75 41.665 23.75 39 C 23.75 36.335 24.005 33.704 24.473 31.13 C 29.299999999999997 32.361 34.248999999999995 32.979 39.2 32.979 C 44.02 32.979 48.839 32.391999999999996 53.545 31.224999999999998 C 54.002 33.769 54.251000000000005 36.367999999999995 54.251000000000005 39 C 54.251000000000005 41.632000000000005 54.002 44.231 53.545 46.775 C 44.005 44.409 34 44.439 24.474 46.87 z M 37.78 7.066 C 38.224000000000004 6.667 38.687 6.583 38.996 6.583 C 39.309000000000005 6.583 39.776 6.6690000000000005 40.228 7.074 C 45.741 12.033 49.794000000000004 18.38 52.088 25.405 C 43.508 27.532 34.509 27.503 25.942 25.314 C 28.242 18.322 32.286 12.005 37.78 7.066 z M 59.318 29.472 C 62.605 28.291 65.807 26.809 68.887 25.031000000000002 C 70.88 29.276 72 34.009 72 39 C 72 43.991 70.88 48.724000000000004 68.888 52.969 C 65.808 51.19 62.60600000000001 49.709 59.319 48.528 C 59.923 45.422 60.251000000000005 42.235 60.251000000000005 39 C 60.25 35.765 59.923 32.579 59.318 29.472 z M 65.854 19.855 C 63.263999999999996 21.349 60.579 22.614 57.825 23.637 C 55.908 17.73 52.891000000000005 12.264000000000001 48.959 7.538 C 55.838 9.721 61.742 14.104 65.854 19.855 z M 29.042 7.539 C 25.141000000000002 12.228 22.143 17.646 20.225 23.5 C 17.493000000000002 22.463 14.829 21.195 12.262 19.693 C 16.368 14.022 22.227 9.701 29.042 7.539 z M 9.193 24.85 C 12.254 26.643 15.437 28.142000000000003 18.706 29.341 C 18.085 32.489 17.75 35.72 17.75 39 C 17.75 42.28 18.084 45.511 18.706 48.659 C 15.437 49.859 12.254 51.357 9.193 53.15 C 7.148 48.859 6 44.062 6 39 C 6 33.938 7.148 29.141 9.193 24.85 z M 12.262 58.306 C 14.828 56.805 17.492 55.535999999999994 20.225 54.498999999999995 C 22.143 60.352999999999994 25.141000000000002 65.77199999999999 29.042 70.461 C 22.227 68.299 16.368 63.978 12.262 58.306 z M 48.959 70.461 C 52.891000000000005 65.734 55.907000000000004 60.269 57.824000000000005 54.361999999999995 C 60.578 55.385 63.263000000000005 56.650999999999996 65.85300000000001 58.14399999999999 C 61.742 63.895 55.838 68.278 48.959 70.461 z" stroke-linecap="round" />
</g>
<g transform="matrix(NaN NaN NaN NaN 0 0)"  >
<g style=""   >
</g>
</g>
</svg>