<?xml version="1.0" encoding="UTF-8" standalone="no" ?>
<!DOCTYPE svg PUBLIC "-//W3C//DTD SVG 1.1//EN" "http://www.w3.org/Graphics/SVG/1.1/DTD/svg11.dtd">
<svg xmlns="http://www.w3.org/2000/svg" xmlns:xlink="http://www.w3.org/1999/xlink" version="1.1" width="1080" height="1080" viewBox="0 0 1080 1080" xml:space="preserve">
<desc>Created with Fabric.js 5.2.4</desc>
<defs>
</defs>
<rect x="0" y="0" width="100%" height="100%" fill="transparent"></rect>
<g transform="matrix(1 0 0 1 540 540)" id="9ba45f89-8c6d-404e-8be8-a4fd13976e0b"  >
<rect style="stroke: none; stroke-width: 1; stroke-dasharray: none; stroke-linecap: butt; stroke-dashoffset: 0; stroke-linejoin: miter; stroke-miterlimit: 4; fill: rgb(255,255,255); fill-rule: nonzero; opacity: 1; visibility: hidden;" vector-effect="non-scaling-stroke"  x="-540" y="-540" rx="0" ry="0" width="1080" height="1080" />
</g>
<g transform="matrix(1 0 0 1 540 540)" id="a772512f-08f5-44e3-8ceb-ff1ee2a7c094"  >
</g>
<g transform="matrix(1 0 0 1 50 50)"  >
<rect style="stroke: none; stroke-width: 1; stroke-dasharray: none; stroke-linecap: butt; stroke-dashoffset: 0; stroke-linejoin: miter; stroke-miterlimit: 4; fill: rgb(255,255,255); fill-opacity: 0; fill-rule: nonzero; opacity: 1;" vector-effect="non-scaling-stroke"  x="-50" y="-50" rx="0" ry="0" width="100" height="100" />
</g>
<g transform="matrix(1 0 0 1 540 540)"  >
<rect style="stroke: none; stroke-width: 1; stroke-dasharray: none; stroke-linecap: butt; stroke-dashoffset: 0; stroke-linejoin: miter; stroke-miterlimit: 4; fill: rgb(255,255,255); fill-rule: nonzero; opacity: 1; visibility: hidden;" vector-effect="non-scaling-stroke"  x="-540" y="-540" rx="0" ry="0" width="1080" height="1080" />
</g>
<g transform="matrix(NaN NaN NaN NaN 0 0)"  >
<g style=""   >
</g>
</g>
<g transform="matrix(NaN NaN NaN NaN 0 0)"  >
<g style=""   >
</g>
</g>
<g transform="matrix(NaN NaN NaN NaN 0 0)"  >
<g style=""   >
</g>
</g>
<g transform="matrix(NaN NaN NaN NaN 0 0)"  >
<g style=""   >
</g>
</g>
<g transform="matrix(NaN NaN NaN NaN 0 0)"  >
<g style=""   >
</g>
</g>
<g transform="matrix(NaN NaN NaN NaN 0 0)"  >
<g style=""   >
</g>
</g>
<g transform="matrix(NaN NaN NaN NaN 0 0)"  >
<g style=""   >
</g>
</g>
<g transform="matrix(NaN NaN NaN NaN 0 0)"  >
<g style=""   >
</g>
</g>
<g transform="matrix(13.28 0 0 13.28 540 540)"  >
<g style="" vector-effect="non-scaling-stroke"   >
		<g transform="matrix(1 0 0 1 8.29 7.47)"  >
<path style="stroke: none; stroke-width: 1; stroke-dasharray: none; stroke-linecap: butt; stroke-dashoffset: 0; stroke-linejoin: miter; stroke-miterlimit: 4; fill: rgb(62,184,22); fill-rule: nonzero; opacity: 1;" vector-effect="non-scaling-stroke"  transform=" translate(-40.29, -39.47)" d="M 62.37 54.759 L 42.63 35.015 C 40.016000000000005 32.401 41.278000000000006 30.481 41.278000000000006 30.481 L 41.266000000000005 30.468 C 42.139 28.67 41.845000000000006 26.453 40.355000000000004 24.96 L 32.67100000000001 17.276 C 30.785000000000007 15.389 27.727000000000007 15.389 25.840000000000007 17.276 L 24.666000000000007 18.448 L 24.541000000000007 18.574 C 24.541000000000007 18.574 24.002000000000006 19.646 26.459000000000007 19.789 L 26.460000000000008 19.792 C 26.460000000000008 19.792 27.590000000000007 19.888 28.69400000000001 20.992 L 31.41400000000001 23.712 C 32.40800000000001 24.705 32.43500000000001 25.741 32.38900000000001 26.207 C 32.16200000000001 27.487000000000002 31.57200000000001 28.714000000000002 30.58100000000001 29.702 C 29.60000000000001 30.686 28.38000000000001 31.271 27.11000000000001 31.499000000000002 C 26.54700000000001 31.551000000000002 25.47600000000001 31.454 24.29000000000001 30.268 L 22.22800000000001 28.203 C 20.92900000000001 26.904 20.65300000000001 25.227999999999998 20.65300000000001 25.227999999999998 L 20.65000000000001 25.227999999999998 C 20.14700000000001 22.948999999999998 19.45900000000001 23.659 19.45900000000001 23.659 L 18.15900000000001 24.959 C 16.27300000000001 26.844 16.27300000000001 29.903 18.15800000000001 31.79 L 25.841000000000008 39.472 C 27.41100000000001 41.043 29.788000000000007 41.286 31.631000000000007 40.243 L 31.645000000000007 40.258 C 31.645000000000007 40.258 33.336000000000006 39.189 35.61200000000001 41.467000000000006 L 56.09800000000001 61.956 C 56.09800000000001 61.956 58.588000000000015 64.401 60.93700000000001 62.053000000000004 L 62.875000000000014 60.115 C 63.53 59.383 64.917 57.306 62.37 54.759 z" stroke-linecap="round" />
</g>
		<g transform="matrix(1 0 0 1 -0.38 0)"  >
<path style="stroke: none; stroke-width: 1; stroke-dasharray: none; stroke-linecap: butt; stroke-dashoffset: 0; stroke-linejoin: miter; stroke-miterlimit: 4; fill: rgb(62,184,22); fill-rule: nonzero; opacity: 1;" vector-effect="non-scaling-stroke"  transform=" translate(-31.62, -32)" d="M 40.965 52.071 C 39.739000000000004 50.613 37.771 51.516999999999996 37.771 51.516999999999996 L 37.766 51.504 C 37.598 51.561 37.433 51.628 37.262 51.681 C 37.208 51.701 37.174 51.723 37.111 51.748 C 34.422999999999995 52.738 34.397999999999996 54.782 34.397999999999996 54.782 L 34.397999999999996 57.178999999999995 C 34.36 59.218999999999994 32.732 59.577 31.889999999999997 59.63099999999999 L 30.914999999999996 59.63099999999999 C 28.822999999999997 59.672999999999995 28.447999999999997 58.39399999999999 28.393999999999995 57.709999999999994 L 28.393999999999995 54.949999999999996 C 28.393999999999995 52.412 25.560999999999993 51.711 25.560999999999993 51.711 L 25.569999999999993 51.699 C 24.035999999999994 51.245 22.584999999999994 50.6 21.221999999999994 49.826 C 21.164999999999996 49.801 21.119999999999994 49.786 21.057999999999993 49.755 C 18.764999999999993 48.606 17.055999999999994 50.227000000000004 17.055999999999994 50.227000000000004 L 15.106999999999994 52.176 C 13.745999999999993 53.532000000000004 12.738999999999994 52.9 12.369999999999994 52.565000000000005 L 12.212999999999994 52.406000000000006 L 12.206999999999994 52.398 L 12.205999999999994 52.398 L 10.604999999999993 50.797000000000004 C 10.603999999999994 50.794000000000004 10.601999999999993 50.794000000000004 10.598999999999993 50.791000000000004 C 9.345999999999993 49.540000000000006 10.975999999999994 47.819 11.192999999999993 47.602000000000004 L 13.093999999999992 45.703 C 13.094999999999992 45.703 13.094999999999992 45.698 13.094999999999992 45.698 C 14.559999999999992 44.233 13.408999999999992 41.952 13.408999999999992 41.952 C 13.408999999999992 41.952 13.424999999999992 41.949 13.427999999999992 41.949 C 12.696999999999992 40.620999999999995 12.092999999999993 39.214 11.661999999999992 37.726 C 11.647999999999993 37.687 11.631999999999993 37.662 11.616999999999992 37.621 C 10.651999999999992 34.953 8.217999999999993 34.998000000000005 8.170999999999992 34.998000000000005 L 6.323999999999993 35.00600000000001 C 4.161999999999993 35.00900000000001 3.7729999999999926 33.604000000000006 3.7149999999999928 32.86500000000001 L 3.709999999999993 31.37600000000001 C 3.7229999999999928 30.76100000000001 3.9459999999999926 29.021000000000008 6.132999999999993 29.00200000000001 C 6.133999999999993 29.00200000000001 6.133999999999993 29.00200000000001 6.133999999999993 29.00200000000001 L 8.500999999999994 28.992000000000008 C 8.500999999999994 28.992000000000008 10.731999999999994 29.096000000000007 11.523999999999994 26.71900000000001 C 11.534999999999993 26.689000000000007 11.549999999999994 26.67300000000001 11.559999999999993 26.643000000000008 C 12.034999999999993 24.892000000000007 12.719999999999994 23.230000000000008 13.609999999999992 21.701000000000008 C 13.609999999999992 21.701000000000008 13.609999999999992 21.700000000000006 13.609999999999992 21.698000000000008 C 14.739999999999991 19.425000000000008 13.125999999999992 17.720000000000006 12.914999999999992 17.51300000000001 L 11.304999999999993 15.905000000000008 C 11.304999999999993 15.905000000000008 11.304999999999993 15.904000000000009 11.301999999999992 15.901000000000009 C 9.748999999999992 14.34800000000001 10.812999999999992 13.00200000000001 11.181999999999993 12.61800000000001 L 12.020999999999994 11.779000000000009 C 12.020999999999994 11.779000000000009 13.790999999999993 9.905000000000008 15.664999999999994 11.779000000000009 C 15.667999999999994 11.779000000000009 15.667999999999994 11.780000000000008 15.669999999999995 11.782000000000009 L 17.499999999999993 13.612000000000009 C 17.84499999999999 13.939000000000009 19.252999999999993 15.084000000000009 21.272999999999993 14.103000000000009 C 21.28099999999999 14.100000000000009 21.283999999999992 14.100000000000009 21.290999999999993 14.097000000000008 C 22.590999999999994 13.361000000000008 23.988999999999994 12.783000000000008 25.443999999999992 12.33900000000001 C 25.482999999999993 12.32300000000001 25.50399999999999 12.30400000000001 25.54799999999999 12.286000000000008 C 27.891999999999992 11.365000000000009 28.32899999999999 9.920000000000009 28.39399999999999 9.173000000000009 L 28.39399999999999 6.441 C 28.406999999999993 5.984 28.58199999999999 4.1850000000000005 30.682999999999993 4.1850000000000005 L 31.996999999999993 4.1850000000000005 C 31.996999999999993 4.1850000000000005 34.39399999999999 4.105 34.39399999999999 6.774000000000001 L 34.39399999999999 8.836 C 34.40699999999999 9.424 34.611999999999995 11.383000000000001 36.87199999999999 12.18 C 36.87599999999999 12.181 36.87599999999999 12.183 36.88199999999999 12.185 C 38.24999999999999 12.562000000000001 39.55499999999999 13.092 40.79299999999999 13.732000000000001 L 40.80599999999999 13.721000000000002 C 40.80599999999999 13.721000000000002 43.62599999999999 15.471000000000002 45.75499999999999 13.344000000000001 L 47.17899999999999 11.920000000000002 C 47.24499999999999 11.854000000000001 49.17199999999999 9.988000000000001 50.612999999999985 11.429000000000002 C 50.615999999999985 11.430000000000001 50.618999999999986 11.432000000000002 50.618999999999986 11.435000000000002 L 51.798999999999985 12.612000000000002 C 51.798999999999985 12.612000000000002 53.22999999999998 14.354000000000003 51.42799999999998 16.157000000000004 L 49.832999999999984 17.752000000000002 C 49.832999999999984 17.752000000000002 48.16999999999999 19.456000000000003 49.377999999999986 22.038000000000004 C 49.39899999999999 22.083000000000006 49.39899999999999 22.110000000000003 49.417999999999985 22.154000000000003 C 50.15399999999998 23.495000000000005 50.734999999999985 24.930000000000003 51.16299999999998 26.433000000000003 C 51.16699999999998 26.430000000000003 51.182999999999986 26.417000000000005 51.182999999999986 26.417000000000005 C 51.182999999999986 26.417000000000005 51.698999999999984 29.007000000000005 54.008999999999986 29.001000000000005 L 56.25099999999998 28.991000000000003 L 56.310999999999986 28.991000000000003 L 56.411999999999985 28.991000000000003 C 56.47699999999998 28.990000000000002 59.149999999999984 28.947000000000003 59.155999999999985 31.472 L 59.16299999999998 32.533 L 59.16299999999998 32.536 L 59.16299999999998 32.797000000000004 C 59.140999999999984 33.422000000000004 58.84299999999998 34.984 56.35799999999998 34.993 L 54.207999999999984 35 C 52.52699999999999 35.016 51.69099999999998 36.393 51.322999999999986 37.269 C 51.182999999999986 37.652 50.85599999999999 38.894 52.04199999999999 40.061 L 52.34699999999999 40.361 C 52.35299999999999 40.366 52.356999999999985 40.369 52.36099999999999 40.373999999999995 C 54.13299999999999 42.273999999999994 55.39799999999999 39.61299999999999 55.39799999999999 39.61299999999999 C 56.20199999999999 38.276999999999994 57.37699999999999 38.00899999999999 58.005999999999986 37.965999999999994 L 61.28499999999998 37.965999999999994 C 62.28199999999998 37.965999999999994 63.08999999999998 37.15899999999999 63.08999999999998 36.160999999999994 L 63.08999999999998 27.835999999999995 C 63.08999999999998 26.840999999999994 62.28199999999998 26.030999999999995 61.28499999999998 26.030999999999995 L 58.15699999999998 26.030999999999995 C 55.70399999999998 26.030999999999995 55.08499999999998 23.754999999999995 55.08499999999998 23.754999999999995 C 55.08499999999998 23.754999999999995 55.06899999999998 23.758999999999997 55.06399999999998 23.760999999999996 C 54.69899999999998 22.710999999999995 54.28399999999998 21.681999999999995 53.78699999999998 20.699999999999996 C 53.78699999999998 20.696999999999996 53.78699999999998 20.694999999999997 53.78399999999998 20.691999999999997 C 52.95699999999998 18.871999999999996 54.507999999999974 17.320999999999998 54.592999999999975 17.239999999999995 L 56.58899999999998 15.239999999999995 C 57.29299999999998 14.534999999999995 57.29299999999998 13.392999999999995 56.58899999999998 12.686999999999994 L 50.702999999999975 6.800999999999994 C 49.995999999999974 6.096999999999994 48.85399999999998 6.097999999999994 48.14999999999998 6.801999999999994 L 46.7 8.25 C 44.436 10.528 42.313 9.428 42.313 9.428 L 42.31 9.434000000000001 C 41.496 9.044 40.663000000000004 8.692 39.807 8.387 C 39.767 8.368 39.739000000000004 8.351 39.698 8.334 C 37.805 7.558999999999999 37.556 5.619 37.532000000000004 4.833 L 37.532000000000004 2.734 C 37.532000000000004 1.737 36.723000000000006 0.929 35.727000000000004 0.929 L 27.062000000000005 0.929 C 26.067000000000004 0.929 25.257000000000005 1.737 25.257000000000005 2.734 L 25.257000000000005 5.343 C 25.257000000000005 7.9559999999999995 23.047000000000004 8.352 23.047000000000004 8.352 L 23.060000000000006 8.365 C 22.104000000000006 8.706 21.167000000000005 9.087 20.265000000000008 9.535 C 20.24900000000001 9.541 20.24000000000001 9.538 20.224000000000007 9.544 C 18.422000000000008 10.342 17.42600000000001 9.56 17.17300000000001 9.315000000000001 L 17.111000000000008 9.253000000000002 L 17.102000000000007 9.242000000000003 L 17.101000000000006 9.242000000000003 L 14.66 6.796 C 13.954 6.0920000000000005 12.811 6.0920000000000005 12.107 6.793 L 6.214999999999999 12.677 C 5.510999999999999 13.383 5.508999999999999 14.524 6.214999999999999 15.229 L 8.171 17.186999999999998 C 8.171 17.186999999999998 9.866999999999999 18.822 9.026 20.657999999999998 C 9.026 20.660999999999998 9.026 20.660999999999998 9.026 20.660999999999998 C 8.539 21.618 8.129999999999999 22.618999999999996 7.768 23.641 C 7.742999999999999 23.694 7.718999999999999 23.735 7.694 23.796999999999997 C 6.944 25.627999999999997 5.551 25.976999999999997 4.806 26.031 L 1.96 26.031 C 0.963 26.031 0.15500000000000003 26.840999999999998 0.15500000000000003 27.836 L 0.15500000000000003 36.161 C 0.15500000000000003 37.159 0.9630000000000001 37.966 1.96 37.966 L 5.2 37.966 C 7.033 37.966 7.515000000000001 39.657000000000004 7.515000000000001 39.657000000000004 C 7.515000000000001 39.657000000000004 7.5280000000000005 39.626000000000005 7.5360000000000005 39.611000000000004 C 7.9110000000000005 40.778000000000006 8.339 41.92100000000001 8.872 43.00600000000001 C 8.871 43.00600000000001 8.861 43.01100000000001 8.861 43.01100000000001 C 8.861 43.01100000000001 10.006 44.95200000000001 8.723 46.235000000000014 L 8.723 46.238000000000014 L 6.204000000000001 48.756000000000014 C 5.500000000000001 49.460000000000015 5.500000000000001 50.606000000000016 6.204000000000001 51.307000000000016 L 12.091000000000001 57.19300000000002 C 12.797 57.89900000000002 13.938 57.89900000000002 14.642000000000001 57.19300000000002 L 16.908 54.93100000000002 L 16.913 54.92400000000002 L 17.014 54.825000000000024 C 17.325 54.529000000000025 18.416 53.724000000000025 20.521 54.593000000000025 C 20.543 54.60400000000003 20.556 54.60700000000003 20.576 54.614000000000026 C 21.379 54.99400000000003 22.205000000000002 55.340000000000025 23.051000000000002 55.63700000000003 L 23.041 55.64600000000003 C 23.041 55.64600000000003 25.258 56.306000000000026 25.258 58.53300000000003 L 25.258 61.26500000000003 C 25.258 62.26300000000003 26.067999999999998 63.07000000000003 27.063 63.07000000000003 L 35.727999999999994 63.07000000000003 C 36.724 63.07000000000003 37.532999999999994 62.26300000000003 37.532999999999994 61.26500000000003 L 37.532999999999994 58.27300000000003 C 37.57299999999999 57.613000000000035 37.86599999999999 56.36700000000003 39.419 55.75600000000003 C 39.479 55.73100000000003 39.516999999999996 55.71000000000003 39.564 55.68900000000003 C 40.164 55.480000000000025 40.74 55.22500000000003 41.32 54.977000000000025 C 42.721000000000004 54.19900000000003 41.422 52.61300000000003 41.422 52.61300000000003 L 40.965 52.071 z" stroke-linecap="round" />
</g>
</g>
</g>
<g transform="matrix(NaN NaN NaN NaN 0 0)"  >
<g style=""   >
</g>
</g>
</svg>