<?xml version="1.0" encoding="UTF-8" standalone="no" ?>
<!DOCTYPE svg PUBLIC "-//W3C//DTD SVG 1.1//EN" "http://www.w3.org/Graphics/SVG/1.1/DTD/svg11.dtd">
<svg xmlns="http://www.w3.org/2000/svg" xmlns:xlink="http://www.w3.org/1999/xlink" version="1.1" width="1080" height="1080" viewBox="0 0 1080 1080" xml:space="preserve">
<desc>Created with Fabric.js 5.2.4</desc>
<defs>
</defs>
<rect x="0" y="0" width="100%" height="100%" fill="transparent"></rect>
<g transform="matrix(1 0 0 1 540 540)" id="9ba45f89-8c6d-404e-8be8-a4fd13976e0b"  >
<rect style="stroke: none; stroke-width: 1; stroke-dasharray: none; stroke-linecap: butt; stroke-dashoffset: 0; stroke-linejoin: miter; stroke-miterlimit: 4; fill: rgb(255,255,255); fill-rule: nonzero; opacity: 1; visibility: hidden;" vector-effect="non-scaling-stroke"  x="-540" y="-540" rx="0" ry="0" width="1080" height="1080" />
</g>
<g transform="matrix(1 0 0 1 540 540)" id="a772512f-08f5-44e3-8ceb-ff1ee2a7c094"  >
</g>
<g transform="matrix(1 0 0 1 50 50)"  >
<rect style="stroke: none; stroke-width: 1; stroke-dasharray: none; stroke-linecap: butt; stroke-dashoffset: 0; stroke-linejoin: miter; stroke-miterlimit: 4; fill: rgb(255,255,255); fill-opacity: 0; fill-rule: nonzero; opacity: 1;" vector-effect="non-scaling-stroke"  x="-50" y="-50" rx="0" ry="0" width="100" height="100" />
</g>
<g transform="matrix(1 0 0 1 540 540)"  >
<rect style="stroke: none; stroke-width: 1; stroke-dasharray: none; stroke-linecap: butt; stroke-dashoffset: 0; stroke-linejoin: miter; stroke-miterlimit: 4; fill: rgb(255,255,255); fill-rule: nonzero; opacity: 1; visibility: hidden;" vector-effect="non-scaling-stroke"  x="-540" y="-540" rx="0" ry="0" width="1080" height="1080" />
</g>
<g transform="matrix(NaN NaN NaN NaN 0 0)"  >
<g style=""   >
</g>
</g>
<g transform="matrix(NaN NaN NaN NaN 0 0)"  >
<g style=""   >
</g>
</g>
<g transform="matrix(NaN NaN NaN NaN 0 0)"  >
<g style=""   >
</g>
</g>
<g transform="matrix(NaN NaN NaN NaN 0 0)"  >
<g style=""   >
</g>
</g>
<g transform="matrix(NaN NaN NaN NaN 0 0)"  >
<g style=""   >
</g>
</g>
<g transform="matrix(-34.57 0 0 34.57 540 540)" id="2f0803d5-ba80-4307-ba13-31609cc216bd"  >
<path style="stroke: rgb(0,0,0); stroke-width: 0; stroke-dasharray: none; stroke-linecap: butt; stroke-dashoffset: 0; stroke-linejoin: miter; stroke-miterlimit: 4; fill: rgb(62,184,22); fill-rule: nonzero; opacity: 1;" vector-effect="non-scaling-stroke"  transform=" translate(-16.27, -16.27)" d="M 25.26 12.931 C 25.833000000000002 14.937 25.482000000000003 16.951999999999998 24.203000000000003 18.23 C 21.981 20.452 19.089000000000002 19.415 16.866000000000003 18.496000000000002 L 10.414000000000003 24.948 C 9.634000000000004 25.728 8.365000000000004 25.728 7.586000000000004 24.948 C 6.807000000000004 24.168 6.806000000000004 22.899 7.586000000000004 22.12 L 14.038000000000004 15.668000000000001 C 13.606000000000003 14.625000000000002 11.715000000000003 10.920000000000002 14.304000000000004 8.331000000000001 C 15.583000000000004 7.052000000000001 17.597000000000005 6.701000000000001 19.603000000000005 7.274000000000001 L 15.904000000000005 10.973 L 17.318000000000005 15.216000000000001 L 21.561000000000007 16.630000000000003 L 25.26 12.931 M 25.835 9.528 L 21.021 14.342 L 18.900000000000002 13.635 L 18.193 11.514 L 23.007 6.699999999999999 C 19.637 4.402999999999999 15.413 4.393999999999999 12.89 6.917999999999999 C 10.809000000000001 8.998999999999999 10.455 12.236999999999998 11.68 15.199 L 6.172 20.707 C 4.609999999999999 22.269000000000002 4.609999999999999 24.802 6.172 26.364 C 7.734 27.926000000000002 10.267 27.926000000000002 11.829 26.364 L 17.337 20.856 C 20.299 22.081000000000003 23.537 21.727 25.618000000000002 19.646 C 28.14 17.122 28.131 12.898 25.835 9.528 L 25.835 9.528 z" stroke-linecap="round" />
</g>
<g transform="matrix(NaN NaN NaN NaN 0 0)"  >
<g style=""   >
</g>
</g>
</svg>