<?xml version="1.0" encoding="UTF-8" standalone="no" ?>
<!DOCTYPE svg PUBLIC "-//W3C//DTD SVG 1.1//EN" "http://www.w3.org/Graphics/SVG/1.1/DTD/svg11.dtd">
<svg xmlns="http://www.w3.org/2000/svg" xmlns:xlink="http://www.w3.org/1999/xlink" version="1.1" width="1080" height="1080" viewBox="0 0 1080 1080" xml:space="preserve">
<desc>Created with Fabric.js 5.2.4</desc>
<defs>
</defs>
<rect x="0" y="0" width="100%" height="100%" fill="transparent"></rect>
<g transform="matrix(1 0 0 1 540 540)" id="56c458bc-0703-47c9-807b-40c6c8945f92"  >
</g>
<g transform="matrix(1 0 0 1 540 540)" id="e642b775-a0da-417a-8347-b26424603f1d"  >
<rect style="stroke: none; stroke-width: 1; stroke-dasharray: none; stroke-linecap: butt; stroke-dashoffset: 0; stroke-linejoin: miter; stroke-miterlimit: 4; fill: rgb(255,255,255); fill-rule: nonzero; opacity: 1; visibility: hidden;" vector-effect="non-scaling-stroke"  x="-540" y="-540" rx="0" ry="0" width="1080" height="1080" />
</g>
<g transform="matrix(0 0 0 0 0 0)"  >
<g style=""   >
</g>
</g>
<g transform="matrix(0 0 0 0 0 0)"  >
<g style=""   >
</g>
</g>
<g transform="matrix(0 0 0 0 0 0)"  >
<g style=""   >
</g>
</g>
<g transform="matrix(0 0 0 0 0 0)"  >
<g style=""   >
</g>
</g>
<g transform="matrix(0 0 0 0 0 0)"  >
<g style=""   >
</g>
</g>
<g transform="matrix(1.94 0 0 1.94 540 540)" id="2da17c97-aef4-49bd-9487-db05461fdeb8"  >
<path style="stroke: rgb(0,0,0); stroke-width: 0; stroke-dasharray: none; stroke-linecap: butt; stroke-dashoffset: 0; stroke-linejoin: miter; stroke-miterlimit: 4; fill: rgb(226,226,226); fill-rule: nonzero; opacity: 1;" vector-effect="non-scaling-stroke"  transform=" translate(-256, -256.01)" d="M 457 344.4 C 432 364.77 404.37 381.65 374.5 393.52 L 428.88 487.64 L 482.76 510.76 C 492.635 514.885 503.76 508.51 505.01 497.89 L 512 439.6 L 457 344.4 z M 488.7 265.7 C 499.96999999999997 250.26 494.805 228.23 478.09 218.95 C 464.09999999999997 211.176 446.46 214.96499999999997 437.03 227.897 C 395.2 285.3 328.1 319.1 256 319.1 C 232.12 319.1 208.72 314.85 186.6 307.6 L 254 190.90000000000003 L 258 190.90000000000003 L 309.13 279.40000000000003 C 340.38 270.52500000000003 368.63 253.65000000000003 391.76 230.53000000000003 L 340 141.6 C 350.75 121.74 355.66 98.16 348.912 72.41 C 339.215 35.4 307.412 6.090000000000003 269.51199999999994 0.9099999999999966 C 210.51199999999994 -7.147000000000004 160.01199999999994 38.55 160.01199999999994 95.97999999999999 C 160.01199999999994 112.6 164.63699999999994 127.07999999999998 171.11199999999994 141.6 L 103.7 260 C 94.31 251.3 85.57 241.8 77.69 231.5 C 67.82 218.7 50.24 214.8 36.23 222.9 C 19.699999999999996 232.50300000000001 14.779999999999998 254.66 26.424 269.81 C 39.67 287 54.83 302.4 71.25 316.2 L 0 439.6 L 7.003 497.87 C 8.28 508.5 19.413 514.94 29.253 510.72 L 83.13300000000001 487.6 L 153.983 365 C 186.1 377.2 220.6 383.1 256 383.1 C 348.6 383.1 434.9 339.4 488.7 265.7 z M 256 63.1 C 273.62 63.1 288 77.47 288 94.2 C 288 110.93 273.62 126.2 256 126.2 C 238.38 126.2 224 111.82000000000001 224 94.2 C 224 76.58 238.4 63.1 256 63.1 z" stroke-linecap="round" />
</g>
<g transform="matrix(NaN NaN NaN NaN 0 0)"  >
<g style=""   >
</g>
</g>
</svg>