<?xml version="1.0" encoding="UTF-8" standalone="no" ?>
<!DOCTYPE svg PUBLIC "-//W3C//DTD SVG 1.1//EN" "http://www.w3.org/Graphics/SVG/1.1/DTD/svg11.dtd">
<svg xmlns="http://www.w3.org/2000/svg" xmlns:xlink="http://www.w3.org/1999/xlink" version="1.1" width="1080" height="1080" viewBox="0 0 1080 1080" xml:space="preserve">
<desc>Created with Fabric.js 5.2.4</desc>
<defs>
</defs>
<rect x="0" y="0" width="100%" height="100%" fill="transparent"></rect>
<g transform="matrix(1 0 0 1 540 540)" id="d6bf9cad-075d-4a31-95e9-69ba721a9ad1"  >
</g>
<g transform="matrix(1 0 0 1 540 540)" id="968f4886-0e3d-4101-95fc-309b07110127"  >
<rect style="stroke: none; stroke-width: 1; stroke-dasharray: none; stroke-linecap: butt; stroke-dashoffset: 0; stroke-linejoin: miter; stroke-miterlimit: 4; fill: rgb(255,255,255); fill-rule: nonzero; opacity: 1; visibility: hidden;" vector-effect="non-scaling-stroke"  x="-540" y="-540" rx="0" ry="0" width="1080" height="1080" />
</g>
<g transform="matrix(0 0 0 0 0 0)"  >
<g style=""   >
</g>
</g>
<g transform="matrix(0 0 0 0 0 0)"  >
<g style=""   >
</g>
</g>
<g transform="matrix(NaN NaN NaN NaN 0 0)"  >
<g style=""   >
</g>
</g>
<g transform="matrix(39.44 0 0 39.44 540 540)" id="70144c36-f1d7-409f-8e8d-8dc201c03d8f"  >
<path style="stroke: rgb(0,0,0); stroke-width: 0; stroke-dasharray: none; stroke-linecap: butt; stroke-dashoffset: 0; stroke-linejoin: miter; stroke-miterlimit: 4; fill: rgb(226,226,226); fill-rule: nonzero; opacity: 1;" vector-effect="non-scaling-stroke"  transform=" translate(-12, -12)" d="M 9.29 13.29 L 4 18.59 L 4 17 C 4 16.447715250169207 3.5522847498307932 16 3 16 C 2.4477152501692068 16 2 16.447715250169207 2 17 L 2 21 C 2.0015799874138582 21.130677257271156 2.028759025338369 21.259777687412583 2.08 21.38 C 2.181474921856852 21.62434931888823 2.375650681111769 21.818525078143146 2.6199999999999997 21.919999999999998 C 2.7402223125874157 21.97124097466163 2.8693227427288424 21.99842001258614 3 22 L 7 22 C 7.552284749830793 22 8 21.552284749830793 8 21 C 8 20.447715250169207 7.552284749830793 20 7 20 L 5.41 20 L 10.71 14.71 C 11.102122172379865 14.317877827620137 11.102122172379865 13.682122172379865 10.71 13.290000000000001 C 10.317877827620137 12.897877827620137 9.682122172379865 12.897877827620137 9.290000000000001 13.290000000000001 Z M 5.41 4 L 7 4 C 7.552284749830793 4 8 3.5522847498307932 8 3 C 8 2.4477152501692068 7.552284749830793 2 7 2 L 3 2 C 2.8693227427288424 2.0015799874138582 2.740222312587415 2.028759025338369 2.619999999999999 2.08 C 2.375650681111769 2.181474921856852 2.1814749218568514 2.375650681111769 2.08 2.6200000000000006 C 2.028759025338369 2.7402223125874157 2.0015799874138582 2.8693227427288424 2 2.9999999999999996 L 2 7 C 2 7.552284749830793 2.4477152501692068 8 3 8 C 3.5522847498307932 8 4 7.552284749830793 4 7 L 4 5.41 L 9.29 10.71 C 9.477766599905555 10.899312650823097 9.73336246362944 11.00579832434167 10 11.00579832434167 C 10.266637536370558 11.00579832434167 10.522233400094443 10.899312650823097 10.709999999999999 10.71 C 10.899312650823095 10.522233400094445 11.005798324341669 10.26663753637056 11.005798324341669 10 C 11.005798324341669 9.733362463629442 10.899312650823095 9.477766599905557 10.709999999999999 9.290000000000001 Z M 21 16 C 20.447715250169207 16 20 16.447715250169207 20 17 L 20 18.59 L 14.71 13.29 C 14.317877827620137 12.897877827620135 13.682122172379865 12.897877827620135 13.290000000000001 13.29 C 12.897877827620137 13.682122172379863 12.897877827620137 14.317877827620135 13.290000000000001 14.709999999999999 L 18.59 20 L 17 20 C 16.447715250169207 20 16 20.447715250169207 16 21 C 16 21.552284749830793 16.447715250169207 22 17 22 L 21 22 C 21.130677257271156 21.99842001258614 21.259777687412583 21.971240974661633 21.38 21.92 C 21.62434931888823 21.81852507814315 21.818525078143146 21.624349318888232 21.919999999999998 21.380000000000003 C 21.97124097466163 21.259777687412587 21.99842001258614 21.13067725727116 22 21 L 22 17 C 22 16.447715250169207 21.552284749830793 16 21 16 Z M 21.92 2.619999999999999 C 21.81852507814315 2.375650681111768 21.624349318888232 2.1814749218568514 21.380000000000003 2.079999999999999 C 21.259777687412587 2.0287590253383683 21.130677257271156 2.0015799874138573 21 2 L 17 2 C 16.447715250169207 2 16 2.4477152501692068 16 3 C 16 3.5522847498307932 16.447715250169207 4 17 4 L 18.59 4 L 13.29 9.29 C 13.100687349176903 9.477766599905555 12.99420167565833 9.73336246362944 12.99420167565833 10 C 12.99420167565833 10.266637536370558 13.100687349176903 10.522233400094443 13.29 10.709999999999999 C 13.477766599905555 10.899312650823095 13.73336246362944 11.005798324341669 14 11.005798324341669 C 14.266637536370558 11.005798324341669 14.522233400094443 10.899312650823095 14.709999999999999 10.709999999999999 L 20 5.41 L 20 7 C 20 7.552284749830793 20.447715250169207 8 21 8 C 21.552284749830793 8 22 7.552284749830793 22 7 L 22 3 C 21.99842001258614 2.869322742728843 21.971240974661633 2.7402223125874157 21.92 2.62 Z" stroke-linecap="round" />
</g>
<g transform="matrix(NaN NaN NaN NaN 0 0)"  >
<g style=""   >
</g>
</g>
</svg>