<?xml version="1.0" encoding="UTF-8" standalone="no" ?>
<!DOCTYPE svg PUBLIC "-//W3C//DTD SVG 1.1//EN" "http://www.w3.org/Graphics/SVG/1.1/DTD/svg11.dtd">
<svg xmlns="http://www.w3.org/2000/svg" xmlns:xlink="http://www.w3.org/1999/xlink" version="1.1" width="1080" height="1080" viewBox="0 0 1080 1080" xml:space="preserve">
<desc>Created with Fabric.js 5.2.4</desc>
<defs>
</defs>
<rect x="0" y="0" width="100%" height="100%" fill="transparent"></rect>
<g transform="matrix(1 0 0 1 540 540)" id="8a54dd8b-e5ff-4e7a-9617-08d4213917d9"  >
<rect style="stroke: none; stroke-width: 1; stroke-dasharray: none; stroke-linecap: butt; stroke-dashoffset: 0; stroke-linejoin: miter; stroke-miterlimit: 4; fill: rgb(255,255,255); fill-rule: nonzero; opacity: 1; visibility: hidden;" vector-effect="non-scaling-stroke"  x="-540" y="-540" rx="0" ry="0" width="1080" height="1080" />
</g>
<g transform="matrix(1 0 0 1 540 540)" id="ea6ec344-e661-4b09-9ef7-b9f62851a133"  >
</g>
<g transform="matrix(0 0 0 0 0 0)"  >
<g style=""   >
</g>
</g>
<g transform="matrix(0 0 0 0 0 0)"  >
<g style=""   >
</g>
</g>
<g transform="matrix(0 0 0 0 0 0)"  >
<g style=""   >
</g>
</g>
<g transform="matrix(0 0 0 0 0 0)"  >
<g style=""   >
</g>
</g>
<g transform="matrix(0 0 0 0 0 0)"  >
<g style=""   >
</g>
</g>
<g transform="matrix(0 0 0 0 0 0)"  >
<g style=""   >
</g>
</g>
<g transform="matrix(NaN NaN NaN NaN 0 0)"  >
<g style=""   >
</g>
</g>
<g transform="matrix(NaN NaN NaN NaN 0 0)"  >
<g style=""   >
</g>
</g>
<g transform="matrix(NaN NaN NaN NaN 0 0)"  >
<g style=""   >
</g>
</g>
<g transform="matrix(NaN NaN NaN NaN 0 0)"  >
<g style=""   >
</g>
</g>
<g transform="matrix(NaN NaN NaN NaN 0 0)"  >
<g style=""   >
</g>
</g>
<g transform="matrix(2.39 0 0 2.39 540 540)"  >
<g style="" vector-effect="non-scaling-stroke"   >
		<g transform="matrix(1 0 0 1 1.29 -59.71)"  >
<path style="stroke: none; stroke-width: 1; stroke-dasharray: none; stroke-linecap: butt; stroke-dashoffset: 0; stroke-linejoin: miter; stroke-miterlimit: 4; fill: rgb(226,226,226); fill-rule: nonzero; opacity: 1;" vector-effect="non-scaling-stroke"  transform=" translate(-257.29, -196.29)" d="M 85.242 299.116 L 428.279 303.80899999999997 C 449.207 304.102 466.367 287.385 466.67 266.48699999999997 C 466.963 245.57999999999996 450.24600000000004 228.38999999999996 429.34000000000003 228.09599999999998 L 410.65200000000004 227.83999999999997 C 417.56800000000004 213.72899999999998 421.56200000000007 196.724 421.56200000000007 178.23899999999998 C 421.56200000000007 128.07 392.1690000000001 88.77099999999997 354.6670000000001 88.77099999999997 L 157.321 88.77099999999997 C 119.805 88.77099999999997 90.43599999999999 128.06999999999996 90.43599999999999 178.23899999999998 C 90.43599999999999 194.89999999999998 93.678 210.35999999999999 99.37899999999999 223.582 L 86.282 223.403 C 65.374 223.10999999999999 48.193999999999996 239.817 47.900999999999996 260.735 C 47.618 281.644 64.344 298.823 85.242 299.116 z M 127.299 178.24 C 127.299 147.24800000000002 143.126 125.659 157.321 125.659 L 354.668 125.659 C 368.867 125.659 384.68600000000004 147.248 384.68600000000004 178.24 C 384.68600000000004 201.752 375.581 219.845 364.987 227.216 L 143.34900000000002 224.185 C 134.398 215.52 127.299 198.992 127.299 178.24 z" stroke-linecap="round" />
</g>
		<g transform="matrix(1 0 0 1 0 89.62)"  >
<path style="stroke: none; stroke-width: 1; stroke-dasharray: none; stroke-linecap: butt; stroke-dashoffset: 0; stroke-linejoin: miter; stroke-miterlimit: 4; fill: rgb(226,226,226); fill-rule: nonzero; opacity: 1;" vector-effect="non-scaling-stroke"  transform=" translate(-256, -345.62)" d="M 470.227 273.848 L 469.717 273.848 C 469.404 296.44 450.768 314.576 428.166 314.273 L 85.10500000000002 309.552 C 62.49900000000002 309.249 44.36300000000002 290.62100000000004 44.67100000000002 268.00100000000003 L 44.15500000000002 268.00100000000003 L 43.59700000000002 308.574 C 43.15300000000002 309.369 42.89100000000002 310.26 42.87800000000002 311.207 L 41.77200000000002 392.709 C 41.71000000000002 396.105 44.79400000000002 398.897 48.62600000000002 398.943 C 50.27800000000002 398.964 51.798000000000016 398.477 53.00200000000002 397.651 L 52.98200000000001 398.971 C 52.93500000000002 402.358 56.01900000000001 405.159 59.85100000000001 405.205 C 63.692000000000014 405.253 66.83700000000002 402.55699999999996 66.89900000000002 399.16999999999996 L 66.92200000000001 396.67199999999997 L 54.27600000000001 396.50899999999996 C 55.13800000000001 395.50499999999994 55.66400000000001 394.26399999999995 55.68800000000001 392.907 L 56.290000000000006 348.4 C 59.42900000000001 351.368 63.160000000000004 353.69 67.5 355.212 L 66.799 406.483 C 66.73700000000001 409.776 70.45500000000001 412.501 75.063 412.567 C 77.037 412.591 78.85600000000001 412.125 80.299 411.33 L 80.29400000000001 412.59499999999997 C 80.242 415.888 83.95100000000001 418.60299999999995 88.56700000000001 418.669 C 93.174 418.74399999999997 96.95400000000001 416.114 97.01500000000001 412.822 L 97.03800000000001 410.428 L 81.84100000000001 410.213 C 82.87100000000001 409.24100000000004 83.495 408.036 83.51 406.719 L 84.185 357.331 L 97.76 357.51800000000003 L 97.07600000000001 406.899 C 97.05300000000001 410.192 100.76100000000001 412.917 105.35400000000001 412.983 C 107.32800000000002 413.007 109.14800000000001 412.54 110.59100000000001 411.741 L 110.57100000000001 413.02 C 110.52400000000002 416.293 114.23200000000001 419.008 118.84900000000002 419.084 C 123.46600000000002 419.16 127.23600000000002 416.529 127.28300000000002 413.237 L 127.32100000000001 410.853 L 112.12 410.629 C 113.146 409.658 113.769 408.454 113.78800000000001 407.135 L 114.46600000000001 357.745 L 128.03400000000002 357.932 L 127.35900000000002 407.315 C 127.30700000000002 410.60699999999997 131.02900000000002 413.332 135.62300000000002 413.388 C 137.609 413.416 139.43400000000003 412.95099999999996 140.877 412.154 L 140.864 413.436 C 140.802 416.7 144.525 419.424 149.12800000000001 419.49899999999997 C 153.735 419.556 157.52800000000002 416.936 157.57600000000002 413.65299999999996 L 157.59900000000002 411.24999999999994 L 142.407 411.04299999999995 C 143.435 410.06999999999994 144.056 408.86299999999994 144.071 407.54099999999994 L 144.755 358.16099999999994 L 158.321 358.3469999999999 L 157.637 407.73099999999994 C 157.613 411.0229999999999 161.322 413.74799999999993 165.924 413.8039999999999 C 167.89700000000002 413.8359999999999 169.719 413.3689999999999 171.16400000000002 412.5679999999999 L 171.14600000000002 413.8519999999999 C 171.09400000000002 417.11599999999993 174.80300000000003 419.8399999999999 179.419 419.9149999999999 C 184.026 419.9629999999999 187.806 417.3429999999999 187.854 414.0689999999999 L 187.882 411.6659999999999 L 172.68800000000002 411.4589999999999 C 173.716 410.4869999999999 174.342 409.28199999999987 174.36300000000003 407.96699999999987 L 175.03200000000004 358.57599999999985 L 188.60400000000004 358.76199999999983 L 187.92000000000004 408.1569999999998 C 187.88200000000003 411.4389999999998 191.59000000000003 414.1739999999998 196.20800000000006 414.22099999999983 C 198.19000000000005 414.2529999999998 200.01100000000005 413.78499999999985 201.45200000000006 412.9859999999998 L 201.43900000000005 414.25899999999984 C 201.37700000000004 417.53099999999984 205.08600000000004 420.25599999999986 209.70300000000006 420.3319999999998 C 214.30600000000007 420.37899999999985 218.09900000000005 417.76899999999983 218.13700000000006 414.48499999999984 L 218.17500000000007 412.0819999999998 L 202.96500000000006 411.88399999999984 C 203.99800000000005 410.90699999999987 204.62300000000005 409.69599999999986 204.64200000000005 408.37399999999985 L 205.32000000000005 358.9909999999999 L 218.91200000000006 359.1779999999999 L 218.23700000000005 408.57299999999987 C 218.17500000000004 411.8459999999999 221.88400000000004 414.56199999999984 226.48700000000005 414.6369999999999 C 228.46200000000005 414.66899999999987 230.28100000000006 414.20299999999986 231.72400000000005 413.4079999999999 L 231.70400000000004 414.6759999999999 C 231.67100000000005 417.96799999999985 235.37900000000005 420.6829999999999 239.99600000000004 420.74899999999985 C 244.59900000000005 420.80599999999987 248.38300000000004 418.1949999999999 248.41600000000003 414.9019999999999 L 248.46800000000002 412.4999999999999 L 233.27300000000002 412.2849999999999 C 234.29600000000002 411.3169999999999 234.91600000000003 410.1199999999999 234.93500000000003 408.8189999999999 L 235.61300000000003 359.4069999999999 L 249.17600000000002 359.59399999999994 L 248.49200000000002 408.98999999999995 C 248.46900000000002 412.263 252.163 414.97799999999995 256.779 415.05299999999994 C 258.758 415.08099999999996 260.576 414.61499999999995 262.017 413.81699999999995 L 261.997 415.08199999999994 C 261.95 418.39399999999995 265.64300000000003 421.0799999999999 270.274 421.15599999999995 C 274.891 421.2219999999999 278.661 418.61099999999993 278.698 415.328 L 278.74699999999996 412.916 L 263.53399999999993 412.718 C 264.56699999999995 411.74600000000004 265.19399999999996 410.541 265.21399999999994 409.22700000000003 L 265.88199999999995 359.82300000000004 L 279.47399999999993 360.01000000000005 L 278.79799999999994 409.40700000000004 C 278.74699999999996 412.699 282.44599999999997 415.39500000000004 287.07099999999997 415.47100000000006 C 289.03999999999996 415.4990000000001 290.856 415.0330000000001 292.294 414.23400000000004 L 292.274 415.499 C 292.237 418.802 295.936 421.517 300.561 421.56300000000005 C 305.168 421.63900000000007 308.94399999999996 419.00800000000004 308.981 415.71600000000007 L 309.03 413.33200000000005 L 293.837 413.10800000000006 C 294.85699999999997 412.1360000000001 295.46999999999997 410.93500000000006 295.48199999999997 409.62300000000005 L 296.17499999999995 360.237 L 309.751 360.42400000000004 L 309.077 409.82200000000006 C 309.03 413.08600000000007 312.747 415.83000000000004 317.354 415.8860000000001 C 319.32099999999997 415.9100000000001 321.135 415.4450000000001 322.577 414.6520000000001 L 322.557 415.9150000000001 C 322.52000000000004 419.20700000000005 326.219 421.9320000000001 330.844 421.97800000000007 C 335.451 422.0540000000001 339.24399999999997 419.4240000000001 339.274 416.16100000000006 L 339.311 413.74800000000005 L 324.116 413.54200000000003 C 325.149 412.57000000000005 325.78 411.365 325.804 410.04900000000004 L 326.46599999999995 360.653 L 340.03799999999995 360.839 L 339.36799999999994 410.229 C 339.3209999999999 413.522 343.0199999999999 416.23699999999997 347.6379999999999 416.303 C 349.6149999999999 416.327 351.43499999999995 415.86 352.8739999999999 415.064 L 352.8599999999999 416.332 C 352.8109999999999 419.62399999999997 356.5099999999999 422.349 361.12799999999993 422.396 C 365.72599999999994 422.471 369.5109999999999 419.841 369.56699999999995 416.56800000000004 L 369.6039999999999 414.15600000000006 L 354.40899999999993 413.94900000000007 C 355.43199999999996 412.97900000000004 356.04999999999995 411.7780000000001 356.05699999999996 410.46700000000004 L 356.74299999999994 361.07000000000005 L 370.3229999999999 361.25600000000003 L 369.6429999999999 410.656 C 369.6039999999999 413.92900000000003 373.3229999999999 416.664 377.9299999999999 416.73 C 379.8989999999999 416.75100000000003 381.7189999999999 416.28000000000003 383.1619999999999 415.478 L 383.14199999999994 416.749 C 383.09299999999996 420.041 386.80199999999996 422.757 391.3999999999999 422.81300000000005 C 396.0369999999999 422.88800000000003 399.7999999999999 420.25800000000004 399.8569999999999 416.97600000000006 L 399.8769999999999 414.59100000000007 L 384.6699999999999 414.38500000000005 C 385.7069999999999 413.41 386.3399999999999 412.20000000000005 386.3579999999999 410.87300000000005 L 387.0399999999999 361.48400000000004 L 400.6099999999999 361.67100000000005 L 399.9339999999999 411.081 C 399.89699999999993 414.36400000000003 403.5859999999999 417.07 408.1939999999999 417.127 C 410.1739999999999 417.15500000000003 411.9949999999999 416.69100000000003 413.4359999999999 415.896 L 413.4239999999999 417.166 C 413.3669999999999 420.448 417.0759999999999 423.173 421.6939999999999 423.229 C 426.3109999999999 423.305 430.0849999999999 420.68399999999997 430.1329999999999 417.402 L 430.1699999999999 415.008 L 414.9649999999999 414.784 C 415.98799999999994 413.813 416.6079999999999 412.609 416.62299999999993 411.28999999999996 L 417.3089999999999 361.89899999999994 L 430.8949999999999 362.08599999999996 L 430.20699999999994 411.4789999999999 C 430.16999999999996 414.76199999999994 433.87899999999996 417.4869999999999 438.48599999999993 417.53399999999993 C 443.10099999999994 417.60999999999996 446.87699999999995 414.9989999999999 446.91399999999993 411.70699999999994 L 446.9319999999999 410.47099999999995 C 447.7819999999999 410.80999999999995 448.7209999999999 411.0079999999999 449.7149999999999 411.02599999999995 C 453.5569999999999 411.05499999999995 456.70699999999994 408.40599999999995 456.7439999999999 405.04699999999997 L 456.75999999999993 403.756 C 457.94199999999995 404.611 459.4529999999999 405.135 461.10599999999994 405.15099999999995 C 464.9479999999999 405.20799999999997 468.10599999999994 402.55899999999997 468.1449999999999 399.21899999999994 L 469.1529999999999 324.88999999999993 C 469.4279999999999 322.48599999999993 469.5889999999999 320.0199999999999 469.6199999999999 317.49999999999994 L 470.227 273.848 z M 447.043 402.476 L 447.641 359.192 C 450.278 358.034 452.678 356.56100000000004 454.834 354.798 L 454.238 398.991 C 454.217 400.335 454.703 401.58 455.533 402.596 L 447.043 402.476 z" stroke-linecap="round" />
</g>
</g>
</g>
<g transform="matrix(NaN NaN NaN NaN 0 0)"  >
<g style=""   >
</g>
</g>
</svg>