<?xml version="1.0" encoding="UTF-8" standalone="no" ?>
<!DOCTYPE svg PUBLIC "-//W3C//DTD SVG 1.1//EN" "http://www.w3.org/Graphics/SVG/1.1/DTD/svg11.dtd">
<svg xmlns="http://www.w3.org/2000/svg" xmlns:xlink="http://www.w3.org/1999/xlink" version="1.1" width="1080" height="1080" viewBox="0 0 1080 1080" xml:space="preserve">
<desc>Created with Fabric.js 5.2.4</desc>
<defs>
</defs>
<rect x="0" y="0" width="100%" height="100%" fill="transparent"></rect>
<g transform="matrix(1 0 0 1 540 540)" id="cbee23c1-43b0-413c-9625-6e09f243d409"  >
<rect style="stroke: none; stroke-width: 1; stroke-dasharray: none; stroke-linecap: butt; stroke-dashoffset: 0; stroke-linejoin: miter; stroke-miterlimit: 4; fill: rgb(255,255,255); fill-rule: nonzero; opacity: 1; visibility: hidden;" vector-effect="non-scaling-stroke"  x="-540" y="-540" rx="0" ry="0" width="1080" height="1080" />
</g>
<g transform="matrix(1 0 0 1 540 540)" id="ecce4745-5c69-4834-b573-52817d3e2824"  >
</g>
<g transform="matrix(55.71 0 0 55.71 540 540)" id="1cd47da5-dad3-41dc-9df4-bcae1a172576"  >
<path style="stroke: rgb(0,0,0); stroke-width: 0; stroke-dasharray: none; stroke-linecap: butt; stroke-dashoffset: 0; stroke-linejoin: miter; stroke-miterlimit: 4; fill: rgb(226,226,226); fill-rule: nonzero; opacity: 1;" vector-effect="non-scaling-stroke"  transform=" translate(-12, -12)" d="M 20 3 L 4 3 C 3.4477152501692068 3 3 3.4477152501692068 3 4 L 3 20 C 3 20.552284749830793 3.4477152501692068 21 4 21 L 20 21 C 20.552284749830793 21 21 20.552284749830793 21 20 L 21 4 C 21 3.4477152501692068 20.552284749830793 3 20 3 z M 19 19 L 5 19 L 5 5 L 19 5 L 19 19 z" stroke-linecap="round" />
</g>
<g transform="matrix(41.24 0 0 41.24 540 540)" id="path890"  >
<path style="stroke: rgb(0,0,0); stroke-width: 0; stroke-dasharray: none; stroke-linecap: butt; stroke-dashoffset: 0; stroke-linejoin: miter; stroke-miterlimit: 4; fill: rgb(226,226,226); fill-rule: nonzero; opacity: 1;" vector-effect="non-scaling-stroke"  transform=" translate(-12, -12)" d="M 7 4.5 L 17 4.5 L 17 10.5 L 19 10.5 L 19 15.5 L 16.5 15.5 L 13 19.5 L 11 19.5 L 7.5 15.5 L 5 15.5 L 5 10.5 L 7 10.5 L 7 4.5" stroke-linecap="round" />
</g>
</svg>