<?xml version="1.0" encoding="UTF-8" standalone="no" ?>
<!DOCTYPE svg PUBLIC "-//W3C//DTD SVG 1.1//EN" "http://www.w3.org/Graphics/SVG/1.1/DTD/svg11.dtd">
<svg xmlns="http://www.w3.org/2000/svg" xmlns:xlink="http://www.w3.org/1999/xlink" version="1.1" width="1080" height="1080" viewBox="0 0 1080 1080" xml:space="preserve">
<desc>Created with Fabric.js 5.2.4</desc>
<defs>
</defs>
<g transform="matrix(1 0 0 1 540 540)" id="1c840151-1340-41e6-a03b-420c0c1f048e"  >
<rect style="stroke: none; stroke-width: 1; stroke-dasharray: none; stroke-linecap: butt; stroke-dashoffset: 0; stroke-linejoin: miter; stroke-miterlimit: 4; fill: rgb(255,255,255); fill-rule: nonzero; opacity: 1; visibility: hidden;" vector-effect="non-scaling-stroke"  x="-540" y="-540" rx="0" ry="0" width="1080" height="1080" />
</g>
<g transform="matrix(1 0 0 1 540 540)" id="c4ffbd32-714c-497c-b008-30f46362c1a4"  >
</g>
<g transform="matrix(2.29 -0.31 0.31 2.29 540 540)" id="45d95c82-233e-4103-9ca5-28225ef0e100"  >
<path style="stroke: rgb(0,0,0); stroke-width: 0; stroke-dasharray: none; stroke-linecap: butt; stroke-dashoffset: 0; stroke-linejoin: miter; stroke-miterlimit: 4; fill: rgb(226,226,226); fill-rule: nonzero; opacity: 1;" vector-effect="non-scaling-stroke"  transform=" translate(-396, -306)" d="M 434.46875 106 C 432.490687 105.751323 431.19669 106.652775 429.84375 109.15625 C 424.33775 119.34525 418.349948 129.303998 412.625 139.375 C 410.506 143.103 408.111518 144.916522 403.1875 144.4375 C 394.5955 143.6035 385.84922 143.675244 377.28125 145.15625 C 373.40625 145.82425 371.211772 144.842252 369.09375 141.53125 C 362.60475 131.38625 355.643051 121.56353 349.125 111.4375 C 347.297 108.5985 345.870696 108.227008 342.84375 109.625 C 323.152749 118.721 303.386276 127.737724 283.53125 136.46875 C 279.90225 138.06375 279.908761 139.727005 280.84375 143 C 284.08875 154.366 286.835756 165.856761 290.09375 177.21875 C 291.15175 180.91075 290.708002 183.349991 287.625 185.875 C 280.733 191.523 274.531034 197.992686 269.375 205.21875 C 266.635 209.05975 263.767984 209.389784 259.875 208.59375 C 248.523 206.27575 237.105459 204.227221 225.8125 201.65625 C 222.1705 200.82625 220.611741 201.60124 219.34375 205.03125 C 211.90275 225.16625 204.336296 245.268545 196.65625 265.3125 C 195.36625 268.6795 195.886725 270.355263 199.21875 272.15625 C 209.40775 277.66225 219.3312 283.655037 229.40625 289.375 C 233.16225 291.507 234.877754 293.913712 234.34375 298.84375 C 233.41375 307.43075 233.876474 316.179995 235.3125 324.75 C 235.9645 328.646 234.800234 330.811223 231.53125 332.90625 C 221.39225 339.40525 211.539246 346.366 201.40625 352.875 C 198.53125 354.722 198.307515 356.197571 199.6875 359.1875 C 208.7765 378.8815 217.770017 398.615682 226.5 418.46875 C 228.103 422.11375 229.763242 422.090247 233.03125 421.15625 C 244.39625 417.90825 255.877502 415.000891 267.3125 412 C 269.0115 411.554 270.733988 411.290572 272.5 410.9375 C 273.349 411.9355 274.049252 412.80105 274.78125 413.625 C 280.85325 420.454 287.43248 426.823039 294.8125 432.125 C 298.8035 434.992 299.503001 437.919248 298.625 442.15625 C 296.273 453.50025 294.221253 464.892512 291.65625 476.1875 C 290.83525 479.8055 291.579247 481.413437 295.03125 482.6875 C 315.16825 490.1255 335.268448 497.69309 355.3125 505.375 C 358.6715 506.662 360.352351 506.18279 362.15625 502.84375 C 367.66125 492.65475 373.636047 482.720294 379.375 472.65625 C 381.482 468.96125 383.813292 467.005159 388.78125 467.53125 C 397.14325 468.41725 405.756162 468.517076 414.03125 466.875 C 419.08325 465.872 421.252734 467.983517 423.59375 471.5625 C 429.94075 481.2695 436.605042 490.776268 442.875 500.53125 C 444.688 503.35125 446.100274 503.756723 449.15625 502.34375 C 468.84425 493.24275 488.586522 484.268237 508.4375 475.53125 C 512.0265 473.95325 512.137571 472.31198 511.1875 469 C 507.9295 457.638 505.186582 446.145203 501.9375 434.78125 C 500.8885 431.11225 501.276038 428.659968 504.375 426.125 C 511.273 420.486 517.47526 414.024506 522.65625 406.8125 C 525.36925 403.0365 528.147675 402.559912 532.09375 403.375 C 543.43875 405.72 554.862228 407.748459 566.15625 410.3125 C 569.77425 411.1345 571.379237 410.424789 572.65625 406.96875 C 580.09525 386.83175 587.664777 366.732468 595.34375 346.6875 C 596.62475 343.3435 596.16258 341.623497 592.8125 339.8125 C 582.6235 334.3075 572.69293 328.357035 562.625 322.625 C 558.901 320.505 557.107263 318.122232 557.65625 313.15625 C 558.60525 304.57325 558.114482 295.822032 556.6875 287.25 C 556.0415 283.37 557.184749 281.197735 560.46875 279.09375 C 570.60975 272.59875 580.43246 265.640991 590.5625 259.125 C 593.4105 257.293 593.739714 255.832516 592.34375 252.8125 C 583.24975 233.1205 574.262352 213.386256 565.53125 193.53125 C 563.93425 189.89925 562.270934 189.911789 559 190.84375 C 547.417 194.14375 535.692719 197.000969 524.09375 200.25 C 520.90075 201.144 518.82327 200.675028 516.65625 198 C 511.03925 191.064 504.3595 185.077975 497.1875 179.875 C 493.2405 177.011 492.485001 174.110704 493.375 169.84375 C 495.74 158.50275 497.775759 147.105504 500.34375 135.8125 C 501.16875 132.1885 500.415759 130.586515 496.96875 129.3125 C 476.83275 121.8725 456.732478 114.304962 436.6875 106.625 C 435.84775 106.30325 435.128104 106.082892 434.46875 106 M 396 213.9375 C 446.838999 213.9375 488.062561 255.162038 488.0625 306 C 488.0615 356.838999 446.838008 398.06252 396 398.0625 C 345.161997 398.0625 303.9375 356.83903 303.9375 306 C 303.9375 255.161997 345.161987 213.93748 396 213.9375" stroke-linecap="round" />
</g>
<g transform="matrix(3.67 0 0 3.67 540 540)" id="7449c5ec-48f4-46f2-b04d-94af5aad69b6"  >
<circle style="stroke: rgb(0,0,0); stroke-width: 0; stroke-dasharray: none; stroke-linecap: butt; stroke-dashoffset: 0; stroke-linejoin: miter; stroke-miterlimit: 4; fill: rgb(226,226,226); fill-rule: nonzero; opacity: 1;" vector-effect="non-scaling-stroke"  cx="0" cy="0" r="35" />
</g>
</svg>