<?xml version="1.0" encoding="UTF-8" standalone="no" ?>
<!DOCTYPE svg PUBLIC "-//W3C//DTD SVG 1.1//EN" "http://www.w3.org/Graphics/SVG/1.1/DTD/svg11.dtd">
<svg xmlns="http://www.w3.org/2000/svg" xmlns:xlink="http://www.w3.org/1999/xlink" version="1.1" width="1080" height="1080" viewBox="0 0 1080 1080" xml:space="preserve">
<desc>Created with Fabric.js 5.2.4</desc>
<defs>
</defs>
<g transform="matrix(1 0 0 1 540 540)" id="4eb3a7cf-8ffb-479c-ba30-7f0f51baacd6"  >
<rect style="stroke: none; stroke-width: 1; stroke-dasharray: none; stroke-linecap: butt; stroke-dashoffset: 0; stroke-linejoin: miter; stroke-miterlimit: 4; fill: rgb(255,255,255); fill-rule: nonzero; opacity: 1; visibility: hidden;" vector-effect="non-scaling-stroke"  x="-540" y="-540" rx="0" ry="0" width="1080" height="1080" />
</g>
<g transform="matrix(1 0 0 1 540 540)" id="2e2f73dd-1fdd-442b-89c0-b20b5ec61fe5"  >
</g>
<g transform="matrix(1.67 0 0 1.67 540 540)" id="c90b5035-5cae-4192-bf9d-407d107a277f"  >
<path style="stroke: rgb(0,0,0); stroke-width: 0; stroke-dasharray: none; stroke-linecap: butt; stroke-dashoffset: 0; stroke-linejoin: miter; stroke-miterlimit: 4; fill: rgb(226,226,226); fill-rule: nonzero; opacity: 1;" vector-effect="non-scaling-stroke"  transform=" translate(-96, -256)" d="M 20 424.229 L 40 424.229 L 40 279.771 L 20 279.771 C 8.954 279.771 0 270.817 0 259.771 L 0 212 C 0 200.954 8.954 192 20 192 L 132 192 C 143.046 192 152 200.954 152 212 L 152 424.22900000000004 L 172 424.22900000000004 C 183.046 424.22900000000004 192 433.18300000000005 192 444.22900000000004 L 192 492 C 192 503.046 183.046 512 172 512 L 20 512 C 8.954 512 0 503.046 0 492 L 0 444.229 C 0 433.183 8.954 424.229 20 424.229 z M 96 0 C 56.235 0 24 32.235 24 72 C 24 111.765 56.235 144 96 144 C 135.765 144 168 111.765 168 72 C 168 32.235 135.764 0 96 0 z" stroke-linecap="round" />
</g>
</svg>