<?xml version="1.0" encoding="UTF-8" standalone="no" ?>
<!DOCTYPE svg PUBLIC "-//W3C//DTD SVG 1.1//EN" "http://www.w3.org/Graphics/SVG/1.1/DTD/svg11.dtd">
<svg xmlns="http://www.w3.org/2000/svg" xmlns:xlink="http://www.w3.org/1999/xlink" version="1.1" width="1080" height="1080" viewBox="0 0 1080 1080" xml:space="preserve">
<desc>Created with Fabric.js 5.2.4</desc>
<defs>
</defs>
<rect x="0" y="0" width="100%" height="100%" fill="transparent"></rect>
<g transform="matrix(1 0 0 1 540 540)" id="8a54dd8b-e5ff-4e7a-9617-08d4213917d9"  >
<rect style="stroke: none; stroke-width: 1; stroke-dasharray: none; stroke-linecap: butt; stroke-dashoffset: 0; stroke-linejoin: miter; stroke-miterlimit: 4; fill: rgb(255,255,255); fill-rule: nonzero; opacity: 1; visibility: hidden;" vector-effect="non-scaling-stroke"  x="-540" y="-540" rx="0" ry="0" width="1080" height="1080" />
</g>
<g transform="matrix(1 0 0 1 540 540)" id="ea6ec344-e661-4b09-9ef7-b9f62851a133"  >
</g>
<g transform="matrix(0 0 0 0 0 0)"  >
<g style=""   >
</g>
</g>
<g transform="matrix(0 0 0 0 0 0)"  >
<g style=""   >
</g>
</g>
<g transform="matrix(0 0 0 0 0 0)"  >
<g style=""   >
</g>
</g>
<g transform="matrix(0 0 0 0 0 0)"  >
<g style=""   >
</g>
</g>
<g transform="matrix(0 0 0 0 0 0)"  >
<g style=""   >
</g>
</g>
<g transform="matrix(0 0 0 0 0 0)"  >
<g style=""   >
</g>
</g>
<g transform="matrix(0 0 0 0 0 0)"  >
<g style=""   >
</g>
</g>
<g transform="matrix(0 0 0 0 0 0)"  >
<g style=""   >
</g>
</g>
<g transform="matrix(0 0 0 0 0 0)"  >
<g style=""   >
</g>
</g>
<g transform="matrix(0 0 0 0 0 0)"  >
<g style=""   >
</g>
</g>
<g transform="matrix(0 0 0 0 0 0)"  >
<g style=""   >
</g>
</g>
<g transform="matrix(0 0 0 0 0 0)"  >
<g style=""   >
</g>
</g>
<g transform="matrix(0 0 0 0 0 0)"  >
<g style=""   >
</g>
</g>
<g transform="matrix(0 0 0 0 0 0)"  >
<g style=""   >
</g>
</g>
<g transform="matrix(0 0 0 0 0 0)"  >
<g style=""   >
</g>
</g>
<g transform="matrix(0 0 0 0 0 0)"  >
<g style=""   >
</g>
</g>
<g transform="matrix(0 0 0 0 0 0)"  >
<g style=""   >
</g>
</g>
<g transform="matrix(0 0 0 0 0 0)"  >
<g style=""   >
</g>
</g>
<g transform="matrix(0 0 0 0 0 0)"  >
<g style=""   >
</g>
</g>
<g transform="matrix(0 0 0 0 0 0)"  >
<g style=""   >
</g>
</g>
<g transform="matrix(0 0 0 0 0 0)"  >
<g style=""   >
</g>
</g>
<g transform="matrix(0 0 0 0 0 0)"  >
<g style=""   >
</g>
</g>
<g transform="matrix(0 0 0 0 0 0)"  >
<g style=""   >
</g>
</g>
<g transform="matrix(0 0 0 0 0 0)"  >
<g style=""   >
</g>
</g>
<g transform="matrix(1.48 0 0 1.48 540 540)"  >
<g style="" vector-effect="non-scaling-stroke"   >
		<g transform="matrix(1 0 0 1 0 -91.05)"  >
<path style="stroke: none; stroke-width: 1; stroke-dasharray: none; stroke-linecap: butt; stroke-dashoffset: 0; stroke-linejoin: round; stroke-miterlimit: 1.41; fill: rgb(226,226,226); fill-rule: evenodd; opacity: 1;" vector-effect="non-scaling-stroke"  transform=" translate(-380, -231.5)" d="M 30 34 L 30 174 L 290 429 L 405 424 L 485 424 L 730 174 L 730 34 L 720 34 L 385 374 L 40 34 Z" stroke-linecap="round" />
</g>
		<g transform="matrix(1 0 0 1 -255.5 174.44)"  >
<path style="stroke: none; stroke-width: 1.03; stroke-dasharray: none; stroke-linecap: butt; stroke-dashoffset: 0; stroke-linejoin: round; stroke-miterlimit: 1.41; fill: rgb(226,226,226); fill-rule: evenodd; opacity: 1;" vector-effect="non-scaling-stroke"  transform=" translate(-124.5, -497)" d="M 140 418 L 82 475 L 83 500 L 83 519 L 140 576 L 167 576 L 167 575 L 91 496.5 L 167 419 L 167 418 z" stroke-linecap="round" />
</g>
		<g transform="matrix(1 0 0 1 -259 174.45)"  >
<path style="stroke: none; stroke-width: 1; stroke-dasharray: none; stroke-linecap: butt; stroke-dashoffset: 0; stroke-linejoin: round; stroke-miterlimit: 1.41; fill: rgb(226,226,226); fill-rule: evenodd; opacity: 1;" vector-effect="non-scaling-stroke"  transform=" translate(-121, -496.95)" d="M 83.041215 464.92108 L 83.042215 464.92108 L 83.000105 491.952 L 94.000105 491.952 L 167.00011 417.952 L 167.00011 432.253 L 104.00011 496.452 L 167.00011 561.952 L 167.00011 575.952 L 94.00010800000001 500.952 L 81.00010800000001 500.952 C 79.00010800000001 500.952 77.00010800000001 498.952 77.00010800000001 496.952 L 75.00010800000001 496.952 L 75.00010800000001 463.952 L 77.00010800000001 463.952 C 77.00010800000001 462.952 78.00010800000001 461.952 80.00014800000001 461.952 C 82.00010800000001 461.952 83.00010800000001 462.952 83.00010800000001 463.952 z" stroke-linecap="round" />
</g>
		<g transform="matrix(1.03 0 0 1.03 -318.54 174.25)" id="rect12"  >
<rect style="stroke: none; stroke-width: 1; stroke-dasharray: none; stroke-linecap: butt; stroke-dashoffset: 0; stroke-linejoin: round; stroke-miterlimit: 1.41; fill: rgb(226,226,226); fill-rule: nonzero; opacity: 1;" vector-effect="non-scaling-stroke"  x="-15.01" y="-76.5" rx="0" ry="0" width="30.02" height="153" />
</g>
		<g transform="matrix(1 0 0 1 -121 199.95)" id="rect23"  >
<rect style="stroke: none; stroke-width: 1.2; stroke-dasharray: none; stroke-linecap: butt; stroke-dashoffset: 0; stroke-linejoin: round; stroke-miterlimit: 1.41; fill: rgb(226,226,226); fill-rule: evenodd; opacity: 1;" vector-effect="non-scaling-stroke"  x="-12" y="-53.5" rx="0" ry="0" width="24" height="107" />
</g>
		<g transform="matrix(1 0 0 1 -30.5 215.95)"  >
<path style="stroke: none; stroke-width: 1.2; stroke-dasharray: none; stroke-linecap: butt; stroke-dashoffset: 0; stroke-linejoin: round; stroke-miterlimit: 1.41; fill: rgb(226,226,226); fill-rule: nonzero; opacity: 1;" vector-effect="non-scaling-stroke"  transform=" translate(-349.5, -538.5)" d="M 371.98888 521.45953 C 371.98888 510.56922999999995 369.53566 502.09939999999995 364.62681 496.04882999999995 C 359.71916 489.99825999999996 351.8194 486.97417999999993 340.92751999999996 486.97417999999993 C 338.64113 486.97417999999993 336.25512 487.07498999999996 333.76707999999996 487.27658999999994 C 331.27905999999996 487.47819999999996 328.82582999999994 487.91500999999994 326.40500999999995 488.58702999999997 L 326.40500999999995 548.8862899999999 C 328.55697999999995 550.3647299999999 331.41468 551.7435599999999 334.97688999999997 553.0203999999999 C 338.54031 554.2972399999999 342.33896999999996 554.9356599999999 346.37285999999995 554.9356599999999 C 355.24839999999995 554.9356599999999 361.73670999999996 551.9115699999999 365.83781999999997 545.8610099999999 C 369.93892999999997 539.8104399999999 371.98887999999994 531.6766199999998 371.98887999999994 521.4595299999999 z M 397 521.05632 C 397 529.1229500000001 395.95822 536.51755 393.87346 543.23893 C 391.7887 549.96152 388.79778000000005 555.7432699999999 384.89831000000004 560.58302 C 380.99884000000003 565.4227500000001 376.12359000000004 569.1872500000001 370.27498 571.87653 C 364.42518 574.5658 357.80244000000005 575.90983 350.40796 575.90983 C 345.4319 575.90983 340.86031 575.30502 336.69199 574.0953800000001 C 332.52367 572.8845600000001 329.09468 571.54051 326.40500999999995 570.0608700000001 L 326.40500999999995 611 L 302 611 L 302 471.64736 C 306.97486 470.30212 313.09352 469.02529 320.35477 467.81565 C 327.61602 466.60482 335.28055 466 343.34834 466 C 351.68498 466 359.14787 467.27684 365.737 469.83171 C 372.32494 472.38658 377.93951000000004 476.05028 382.57831000000004 480.82281 C 387.21711000000005 485.59534 390.78052 491.37711 393.26855000000006 498.16689 C 395.75539000000003 504.95548 397.00000000000006 512.58529 397.00000000000006 521.05632 z" stroke-linecap="round" />
</g>
		<g transform="matrix(1 0 0 1 90.5 215.95)"  >
<path style="stroke: none; stroke-width: 1.2; stroke-dasharray: none; stroke-linecap: butt; stroke-dashoffset: 0; stroke-linejoin: round; stroke-miterlimit: 1.41; fill: rgb(226,226,226); fill-rule: nonzero; opacity: 1;" vector-effect="non-scaling-stroke"  transform=" translate(-470.5, -538.5)" d="M 492.9892 521.45953 C 492.9892 510.56922999999995 490.53479999999996 502.09939999999995 485.62721999999997 496.04882999999995 C 480.71962999999994 489.99825999999996 472.81996999999996 486.97417999999993 461.92821999999995 486.97417999999993 C 459.64185999999995 486.97417999999993 457.25467999999995 487.07498999999996 454.76787999999993 487.27658999999994 C 452.27987999999993 487.47819999999996 449.8266899999999 487.91500999999994 447.40590999999995 488.58702999999997 L 447.40590999999995 548.8862899999999 C 449.55664999999993 550.3647299999999 452.41429999999997 551.7435599999999 455.97766999999993 553.0203999999999 C 459.54103999999995 554.2972399999999 463.33964999999995 554.9356599999999 467.37348999999995 554.9356599999999 C 476.24771999999996 554.9356599999999 482.73594999999995 551.9115699999999 486.83700999999996 545.8610099999999 C 490.93807 539.8104399999999 492.9892 531.6766199999998 492.9892 521.4595299999999 z M 518 521.05632 C 518 529.1229500000001 516.95703 536.51755 514.8735 543.23893 C 512.78876 549.96152 509.79669 555.7432699999999 505.89726 560.58302 C 501.99784 565.4227500000001 497.12385 569.1872500000001 491.27412000000004 571.87653 C 485.42558 574.5658 478.80293000000006 575.90983 471.40735000000006 575.90983 C 466.43255000000005 575.90983 461.86102000000005 575.30502 457.69275000000005 574.0953800000001 C 453.52448000000004 572.8845600000001 450.09553000000005 571.54051 447.40591000000006 570.0608700000001 L 447.40591000000006 611 L 423 611 L 423 471.64736 C 427.97599 470.30212 434.09337 469.02529 441.35454 467.81565 C 448.61569 466.60482 456.28012 466 464.34782 466 C 472.68555000000003 466 480.14834 467.27684 486.7362 469.83171 C 493.32525 472.38658 498.93855 476.05028 503.57849 480.82281 C 508.21724 485.59534 511.7806 491.37711 514.26861 498.16689 C 516.7554 504.95548 518 512.58529 518 521.05632 z" stroke-linecap="round" />
</g>
		<g transform="matrix(1 0 0 1 204.5 197.95)"  >
<path style="stroke: none; stroke-width: 1.2; stroke-dasharray: none; stroke-linecap: butt; stroke-dashoffset: 0; stroke-linejoin: round; stroke-miterlimit: 1.41; fill: rgb(226,226,226); fill-rule: nonzero; opacity: 1;" vector-effect="non-scaling-stroke"  transform=" translate(-584.5, -520.5)" d="M 537 521.00591 C 537 511.70468 538.37492 503.54999999999995 541.12595 496.54069999999996 C 543.8757899999999 489.53138999999993 547.53227 483.70232 552.09537 479.05231 C 556.65728 474.4011 561.88988 470.89644 567.79437 468.53835 C 573.69765 466.17904999999996 579.73628 465 585.90906 465 C 600.3996 465 611.7043699999999 469.51527 619.82214 478.5458 C 627.94111 487.57754 632 501.05595999999997 632 518.98348 C 632 520.33097 631.9665 521.84808 631.8994 523.53244 C 631.8323 525.21799 631.73172 526.7339099999999 631.59758 528.08259 L 562.15816 528.08259 C 562.8288399999999 536.5741399999999 565.81462 543.1442999999999 571.1154899999999 547.79553 C 576.4151599999999 552.4455399999999 584.0969799999999 554.77115 594.1609599999999 554.77115 C 600.0642599999999 554.77115 605.4657299999999 554.23095 610.3629799999999 553.15297 C 615.2602399999998 552.07498 619.1179099999998 550.92962 621.9360199999999 549.71568 L 625.1565399999998 569.7318 C 623.8151599999999 570.40675 621.9695499999998 571.1141700000001 619.6209299999998 571.85529 C 617.2735099999998 572.59641 614.5895399999998 573.27014 611.5702199999998 573.87771 C 608.5521099999999 574.48408 605.2980499999999 574.98939 601.8092599999999 575.39363 C 598.3204599999999 575.7978800000001 594.7645899999999 576 591.1416499999999 576 C 581.8824999999999 576 573.8317999999999 574.61884 566.9895399999999 571.85529 C 560.1460799999999 569.0917499999999 554.5098599999999 565.25022 550.0821 560.3307199999999 C 545.65432 555.41121 542.36673 549.61462 540.2193199999999 542.9421799999999 C 538.0731 536.27095 537 528.95845 537 521.00591 Z M 607.64548 510.0877 C 607.64548 506.71779 607.176 503.51632 606.23702 500.48328 C 605.29805 497.45025 603.9219400000001 494.82264999999995 602.11107 492.59810999999996 C 600.2990000000001 490.37476 598.08572 488.62183999999996 595.4688100000001 487.34173 C 592.8519200000001 486.06041999999997 589.7332000000001 485.42035999999996 586.11026 485.42035999999996 C 582.3531800000001 485.42035999999996 579.0656 486.12778999999995 576.24748 487.54385999999994 C 573.42938 488.95869999999996 571.04842 490.8126899999999 569.10221 493.1034199999999 C 567.1572 495.3953399999999 565.6469500000001 498.0241299999999 564.57384 500.9885799999999 C 563.5007400000001 503.9542499999999 562.76178 506.9872899999999 562.35937 510.0876999999999 z" stroke-linecap="round" />
</g>
		<g transform="matrix(1 0 0 1 310 199.45)"  >
<path style="stroke: none; stroke-width: 1.2; stroke-dasharray: none; stroke-linecap: butt; stroke-dashoffset: 0; stroke-linejoin: round; stroke-miterlimit: 1.41; fill: rgb(226,226,226); fill-rule: nonzero; opacity: 1;" vector-effect="non-scaling-stroke"  transform=" translate(-690, -522)" d="M 717.7869 492.26931 C 715.7812299999999 491.59537 713.0055199999999 490.88772 709.46097 490.14639 C 705.91644 489.40504 701.8036099999999 489.03437 697.12252 489.03437 C 694.4471 489.03437 691.60453 489.30394 688.59603 489.84311 C 685.5863300000001 490.38226000000003 683.47919 490.85402000000005 682.27578 491.25839 L 682.27578 576 L 658 576 L 658 475.28104 C 662.68109 473.52757 668.53216 471.87640000000005 675.55439 470.32632 C 682.57663 468.77504 690.36771 468 698.92762 468 C 700.53336 468 702.4053100000001 468.10109 704.5458900000001 468.30328 C 706.6852700000001 468.50545999999997 708.8258500000001 468.77504 710.9664200000001 469.11201 C 713.1058100000001 469.44898 715.1795200000001 469.85456 717.1852000000001 470.32632 C 719.1920700000002 470.79808 720.7966000000001 471.23615 722.0000000000001 471.64052000000004 z" stroke-linecap="round" />
</g>
		<g transform="matrix(1 0 0 1 0 -78.55)"  >
<path style="stroke: none; stroke-width: 1; stroke-dasharray: none; stroke-linecap: butt; stroke-dashoffset: 0; stroke-linejoin: round; stroke-miterlimit: 1.41; fill: rgb(226,226,226); fill-rule: evenodd; opacity: 1;" vector-effect="non-scaling-stroke"  transform=" translate(-380, -244)" d="M 259 424 L 360 424 L 360 359 L 30 34 L 90 34 L 385 324 L 670 34 L 730 34 L 410 359 L 410 443.99783 C 410 449 405 454 400 454 L 259 454 C 247 454 245 444 245 439 C 245 434 247 424 259 424 z" stroke-linecap="round" />
</g>
		<g transform="matrix(1 0 0 1 -177 174.44)" id="rect12-6"  >
<rect style="stroke: none; stroke-width: 1.03; stroke-dasharray: none; stroke-linecap: butt; stroke-dashoffset: 0; stroke-linejoin: round; stroke-miterlimit: 1.41; fill: rgb(226,226,226); fill-rule: nonzero; opacity: 1;" vector-effect="non-scaling-stroke"  x="-12" y="-79" rx="0" ry="0" width="24" height="158" />
</g>
</g>
</g>
<g transform="matrix(NaN NaN NaN NaN 0 0)"  >
<g style=""   >
</g>
</g>
</svg>