<?xml version="1.0" encoding="UTF-8" standalone="no" ?>
<!DOCTYPE svg PUBLIC "-//W3C//DTD SVG 1.1//EN" "http://www.w3.org/Graphics/SVG/1.1/DTD/svg11.dtd">
<svg xmlns="http://www.w3.org/2000/svg" xmlns:xlink="http://www.w3.org/1999/xlink" version="1.1" width="1080" height="1080" viewBox="0 0 1080 1080" xml:space="preserve">
<desc>Created with Fabric.js 5.2.4</desc>
<defs>
</defs>
<g transform="matrix(1 0 0 1 540 540)" id="dc7fc670-ebc9-497d-86c4-fcbb10ca1ccd"  >
<rect style="stroke: none; stroke-width: 1; stroke-dasharray: none; stroke-linecap: butt; stroke-dashoffset: 0; stroke-linejoin: miter; stroke-miterlimit: 4; fill: rgb(255,255,255); fill-rule: nonzero; opacity: 1; visibility: hidden;" vector-effect="non-scaling-stroke"  x="-540" y="-540" rx="0" ry="0" width="1080" height="1080" />
</g>
<g transform="matrix(1 0 0 1 540 540)" id="3b85f777-bf1f-4e9c-89d7-f37bfc71fd29"  >
</g>
<g transform="matrix(40.43 0 0 40.43 556.78 560.22)"  >
<path style="stroke: none; stroke-width: 1; stroke-dasharray: none; stroke-linecap: butt; stroke-dashoffset: 0; stroke-linejoin: miter; stroke-miterlimit: 4; fill: rgb(226,226,226); fill-rule: nonzero; opacity: 1;" vector-effect="non-scaling-stroke"  transform=" translate(-12.41, -12.5)" d="M 2 18 L 9 18 L 9 20 L 2 20 L 2 18 z M 2 11 L 11 11 L 11 13 L 2 13 L 2 11 z M 2 4 L 22 4 L 22 6 L 2 6 L 2 4 z M 20.674 13.025 L 21.83 12.634 L 22.83 14.366 L 21.913999999999998 15.171 C 22.029296400079257 15.717653430898617 22.029296400079254 16.28234656910138 21.913999999999998 16.828999999999997 L 22.83 17.634 L 21.83 19.366 L 20.674 18.975 C 20.264 19.345000000000002 19.776 19.630000000000003 19.239 19.805 L 19 21 L 17 21 L 16.76 19.804 C 16.22926184060579 19.630557908356256 15.740762620726448 19.34781428736612 15.326000000000002 18.974 L 14.170000000000002 19.366 L 13.170000000000002 17.634 L 14.086000000000002 16.829 C 13.970703599920745 16.282346569101385 13.970703599920745 15.717653430898618 14.086000000000002 15.171000000000003 L 13.170000000000002 14.366000000000001 L 14.170000000000002 12.634000000000002 L 15.326000000000002 13.025000000000002 C 15.736000000000002 12.655000000000003 16.224000000000004 12.370000000000003 16.761000000000003 12.195000000000002 L 17 11 L 19 11 L 19.24 12.196 C 19.776 12.37 20.264 12.656 20.674 13.026 z M 18 17 C 18.552284749830793 17 19 16.552284749830793 19 16 C 19 15.447715250169207 18.552284749830793 15 18 15 C 17.447715250169207 15 17 15.447715250169207 17 16 C 17 16.552284749830793 17.447715250169207 17 18 17 z" stroke-linecap="round" />
</g>
</svg>