<?xml version="1.0" encoding="UTF-8" standalone="no" ?>
<!DOCTYPE svg PUBLIC "-//W3C//DTD SVG 1.1//EN" "http://www.w3.org/Graphics/SVG/1.1/DTD/svg11.dtd">
<svg xmlns="http://www.w3.org/2000/svg" xmlns:xlink="http://www.w3.org/1999/xlink" version="1.1" width="1080" height="1080" viewBox="0 0 1080 1080" xml:space="preserve">
<desc>Created with Fabric.js 5.2.4</desc>
<defs>
</defs>
<rect x="0" y="0" width="100%" height="100%" fill="transparent"></rect>
<g transform="matrix(1 0 0 1 540 540)" id="968f4886-0e3d-4101-95fc-309b07110127"  >
<rect style="stroke: none; stroke-width: 1; stroke-dasharray: none; stroke-linecap: butt; stroke-dashoffset: 0; stroke-linejoin: miter; stroke-miterlimit: 4; fill: rgb(255,255,255); fill-rule: nonzero; opacity: 1; visibility: hidden;" vector-effect="non-scaling-stroke"  x="-540" y="-540" rx="0" ry="0" width="1080" height="1080" />
</g>
<g transform="matrix(1 0 0 1 540 540)" id="d6bf9cad-075d-4a31-95e9-69ba721a9ad1"  >
</g>
<g transform="matrix(NaN NaN NaN NaN 0 0)"  >
<g style=""   >
</g>
</g>
<g transform="matrix(4.96 0 0 4.96 540 540)" id="3808028c-8cd9-417c-aea8-9f9d9098606e"  >
<path style="stroke: rgb(0,0,0); stroke-width: 0; stroke-dasharray: none; stroke-linecap: butt; stroke-dashoffset: 0; stroke-linejoin: miter; stroke-miterlimit: 4; fill: rgb(226,226,226); fill-rule: nonzero; opacity: 1;" vector-effect="non-scaling-stroke"  transform=" translate(-100, -100)" d="M 156.31 43.63 C 152.43281747078504 39.830365038013 146.21895812215809 39.86174896658551 142.3803535443718 43.700353544371794 C 138.54174896658552 47.538958122158085 138.510365038013 53.75281747078505 142.31 57.63000000000001 C 165.77816747700177 81.10135135029272 165.7764467961527 119.15308447494532 142.30615668896553 142.62231329103477 C 118.83586658177836 166.09154210712424 80.78413341822161 166.0915421071242 57.31384331103445 142.62231329103474 C 33.84355320384728 119.15308447494527 33.8418325229982 81.10135135029276 57.309999999999974 57.63000000000003 C 61.109634961987005 53.75281747078504 61.078251033414496 47.538958122158085 57.23964645562821 43.700353544371794 C 53.40104187784192 39.86174896658551 47.187182529214965 39.830365038013 43.31 43.63 C 12.310000000000002 74.63 12.310000000000002 125.63 43.31 156.63 C 74.31 187.63 125.31 187.63 156.31 156.63 C 171.42671505075276 141.7156665421894 179.93641830667858 121.36564024032296 179.93641830667858 100.13 C 179.93641830667858 78.89435975967704 171.42671505075276 58.54433345781061 156.31 43.63000000000001 Z M 99.81 110.13 C 105.33284749830794 110.13 109.81 105.65284749830793 109.81 100.13 L 109.81 30.129999999999995 C 109.81 24.607152501692063 105.33284749830794 20.129999999999995 99.81 20.129999999999995 C 94.28715250169206 20.129999999999995 89.81 24.60715250169206 89.81 30.129999999999995 L 89.81 100.13 C 89.81 105.65284749830793 94.28715250169206 110.13 99.81 110.13 Z" stroke-linecap="round" />
</g>
<g transform="matrix(NaN NaN NaN NaN 0 0)"  >
<g style=""   >
</g>
</g>
</svg>