<?xml version="1.0" encoding="UTF-8" standalone="no" ?>
<!DOCTYPE svg PUBLIC "-//W3C//DTD SVG 1.1//EN" "http://www.w3.org/Graphics/SVG/1.1/DTD/svg11.dtd">
<svg xmlns="http://www.w3.org/2000/svg" xmlns:xlink="http://www.w3.org/1999/xlink" version="1.1" width="1080" height="1080" viewBox="0 0 1080 1080" xml:space="preserve">
<desc>Created with Fabric.js 5.2.4</desc>
<defs>
</defs>
<g transform="matrix(1 0 0 1 540 540)" id="b8618398-d0f9-4918-b1a6-7ec0e9190cf3"  >
<rect style="stroke: none; stroke-width: 1; stroke-dasharray: none; stroke-linecap: butt; stroke-dashoffset: 0; stroke-linejoin: miter; stroke-miterlimit: 4; fill: rgb(255,255,255); fill-rule: nonzero; opacity: 1; visibility: hidden;" vector-effect="non-scaling-stroke"  x="-540" y="-540" rx="0" ry="0" width="1080" height="1080" />
</g>
<g transform="matrix(1 0 0 1 540 540)" id="3fb27222-db79-4db4-aba5-e1abd8e3e451"  >
</g>
<g transform="matrix(1.15 0 0 1.15 540 540)"  >
<g style="" vector-effect="non-scaling-stroke"   >
		<g transform="matrix(1 0 0 1 41 -168)"  >
<path style="stroke: none; stroke-width: 1; stroke-dasharray: none; stroke-linecap: butt; stroke-dashoffset: 0; stroke-linejoin: miter; stroke-miterlimit: 4; fill: rgb(226,226,226); fill-rule: nonzero; opacity: 1;" vector-effect="non-scaling-stroke"  transform=" translate(-425.01, -216)" d="M 579.008 260.496 L 534 97.50399999999999 L 271.008 171.504 L 312.99199999999996 334.496 z" stroke-linecap="round" />
</g>
		<g transform="matrix(1 0 0 1 -236.01 -153.12)"  >
<path style="stroke: none; stroke-width: 1; stroke-dasharray: none; stroke-linecap: butt; stroke-dashoffset: 0; stroke-linejoin: miter; stroke-miterlimit: 4; fill: rgb(226,226,226); fill-rule: nonzero; opacity: 1;" vector-effect="non-scaling-stroke"  transform=" translate(-148, -230.88)" d="M 245.968 436.352 L 246 436.496 L 288.992 423.50399999999996 L 184.99200000000002 19.503999999999962 L 7.00800000000001 19.503999999999962 L 7.00800000000001 76.49599999999995 L 135.776 76.49599999999995 L 226.496 442.256 z" stroke-linecap="round" />
</g>
		<g transform="matrix(1 0 0 1 231.32 161.92)"  >
<path style="stroke: none; stroke-width: 1; stroke-dasharray: none; stroke-linecap: butt; stroke-dashoffset: 0; stroke-linejoin: miter; stroke-miterlimit: 4; fill: rgb(226,226,226); fill-rule: nonzero; opacity: 1;" vector-effect="non-scaling-stroke"  transform=" translate(-615.33, -545.92)" d="M 749.376 497.104 L 744 474.496 L 469.664 550.816 L 490.864 617.344 L 760.992 538.6560000000001 L 751.0079999999999 496.65600000000006 z" stroke-linecap="round" />
</g>
		<g transform="matrix(1 0 0 1 -79.85 214.34)"  >
<path style="stroke: none; stroke-width: 1; stroke-dasharray: none; stroke-linecap: butt; stroke-dashoffset: 0; stroke-linejoin: miter; stroke-miterlimit: 4; fill: rgb(226,226,226); fill-rule: nonzero; opacity: 1;" vector-effect="non-scaling-stroke"  transform=" translate(-304.16, -598.34)" d="M 408.496 529.392 L 428.01599999999996 509.87200000000007 L 392.62399999999997 474.46400000000006 L 373.11999999999995 494.00000000000006 C 361.77599999999995 486.4800000000001 349.1039999999999 480.88000000000005 335.55199999999996 477.36000000000007 L 335.55199999999996 448.19200000000006 L 272.736 448.19200000000006 L 272.736 477.36000000000007 C 258.896 480.9440000000001 245.93599999999998 486.70400000000006 234.39999999999998 494.46400000000006 L 215.67999999999998 475.72800000000007 L 180.28799999999998 511.12000000000006 L 199.32799999999997 530.1600000000001 C 192.04799999999997 541.296 186.59199999999998 553.7280000000001 183.152 566.9440000000001 L 154 566.9440000000001 L 154 629.7280000000001 L 183.152 629.7280000000001 C 186.672 643.2800000000001 192.272 655.984 199.808 667.344 L 180.28799999999998 686.8480000000001 L 215.67999999999998 722.224 L 235.2 702.7040000000001 C 246.576 710.2560000000001 259.296 715.8720000000001 272.88 719.3760000000001 L 272.88 748.4960000000001 L 335.456 748.4960000000001 L 335.456 719.3760000000001 C 348.736 715.9680000000001 361.168 710.464 372.35200000000003 703.2 L 392.64000000000004 723.4720000000001 L 428.03200000000004 688.1120000000001 L 408.04800000000006 668.0960000000001 C 415.85600000000005 656.4960000000001 421.6480000000001 643.4560000000001 425.20000000000005 629.5520000000001 L 454.32000000000005 629.5520000000001 L 454.32000000000005 567.1840000000001 L 425.20000000000005 567.1840000000001 C 421.696 553.5680000000001 416.08000000000004 540.8000000000001 408.49600000000004 529.392 z M 304.16 649.824 C 275.728 649.824 252.68800000000002 626.784 252.68800000000002 598.336 C 252.68800000000002 569.92 275.728 546.864 304.16 546.864 C 332.576 546.864 355.632 569.904 355.632 598.336 C 355.632 626.784 332.576 649.8240000000001 304.16 649.8240000000001 z" stroke-linecap="round" />
</g>
		<g transform="matrix(1 0 0 1 158 -3.58)"  >
<path style="stroke: none; stroke-width: 1; stroke-dasharray: none; stroke-linecap: butt; stroke-dashoffset: 0; stroke-linejoin: miter; stroke-miterlimit: 4; fill: rgb(226,226,226); fill-rule: nonzero; opacity: 1;" vector-effect="non-scaling-stroke"  transform=" translate(-542.01, -380.42)" d="M 342.848 442.256 C 406.192 431.008 438.496 474.70399999999995 438.496 474.70399999999995 C 438.608 474.816 438.71999999999997 474.92799999999994 438.832 475.03999999999996 C 439.312 475.55199999999996 439.69599999999997 476.032 440.144 476.52799999999996 C 446.496 484.36799999999994 451.088 495.96799999999996 451.088 495.96799999999996 L 453.76000000000005 504.352 L 761.008 419.48799999999994 L 717.008 256.4799999999999 L 323.00800000000004 364.4799999999999 L 342.848 442.2559999999999 z" stroke-linecap="round" />
</g>
</g>
</g>
</svg>