<?xml version="1.0" encoding="UTF-8" standalone="no" ?>
<!DOCTYPE svg PUBLIC "-//W3C//DTD SVG 1.1//EN" "http://www.w3.org/Graphics/SVG/1.1/DTD/svg11.dtd">
<svg xmlns="http://www.w3.org/2000/svg" xmlns:xlink="http://www.w3.org/1999/xlink" version="1.1" width="1080" height="1080" viewBox="0 0 1080 1080" xml:space="preserve">
<desc>Created with Fabric.js 5.2.4</desc>
<defs>
</defs>
<rect x="0" y="0" width="100%" height="100%" fill="transparent"></rect>
<g transform="matrix(1 0 0 1 540 540)" id="54e6f626-ff4d-4913-b48c-18e90b6389e0"  >
</g>
<g transform="matrix(1 0 0 1 540 540)" id="b6a20425-67b2-4379-931f-2947eadf90e7"  >
<rect style="stroke: none; stroke-width: 1; stroke-dasharray: none; stroke-linecap: butt; stroke-dashoffset: 0; stroke-linejoin: miter; stroke-miterlimit: 4; fill: rgb(255,255,255); fill-rule: nonzero; opacity: 1; visibility: hidden;" vector-effect="non-scaling-stroke"  x="-540" y="-540" rx="0" ry="0" width="1080" height="1080" />
</g>
<g transform="matrix(NaN NaN NaN NaN 0 0)"  >
<g style=""   >
</g>
</g>
<g transform="matrix(NaN NaN NaN NaN 0 0)"  >
<g style=""   >
</g>
</g>
<g transform="matrix(NaN NaN NaN NaN 0 0)"  >
<g style=""   >
</g>
</g>
<g transform="matrix(NaN NaN NaN NaN 0 0)"  >
<g style=""   >
</g>
</g>
<g transform="matrix(NaN NaN NaN NaN 0 0)"  >
<g style=""   >
</g>
</g>
<g transform="matrix(NaN NaN NaN NaN 0 0)"  >
<g style=""   >
</g>
</g>
<g transform="matrix(NaN NaN NaN NaN 0 0)"  >
<g style=""   >
</g>
</g>
<g transform="matrix(44.96 0 0 44.96 540 540)"  >
<g style="" vector-effect="non-scaling-stroke"   >
		<g transform="matrix(1 0 0 1 0 0)"  >
<path style="stroke: none; stroke-width: 1; stroke-dasharray: none; stroke-linecap: butt; stroke-dashoffset: 0; stroke-linejoin: miter; stroke-miterlimit: 4; fill: rgb(226,226,226); fill-rule: nonzero; opacity: 1;" vector-effect="non-scaling-stroke"  transform=" translate(-12.02, -12.1)" d="M 21.2 16.5 L 14.6 4.7 C 14.1 3.7 13.1 3.2 12 3.2 C 10.9 3.2 9.9 3.7 9.4 4.7 L 2.8 16.5 C 2.3 17.4 2.3 18.6 2.8 19.5 C 3.3 20.4 4.3 21 5.4 21 L 18.6 21 C 19.700000000000003 21 20.6 20.4 21.200000000000003 19.5 C 21.800000000000004 18.6 21.7 17.5 21.2 16.5 z M 19.5 18.5 C 19.4 18.6 19.2 19 18.6 19 L 5.4 19 C 4.9 19 4.6000000000000005 18.7 4.5 18.5 C 4.3999999999999995 18.3 4.2 18 4.5 17.5 L 11.1 5.6 C 11.4 5.1 11.799999999999999 5.1 12 5.1 C 12.200000000000001 5.1 12.6 5.1 12.9 5.6 L 19.5 17.5 C 19.7 18 19.5 18.4 19.5 18.5 z" stroke-linecap="round" />
</g>
		<g transform="matrix(1 0 0 1 -0.02 -0.6)"  >
<path style="stroke: none; stroke-width: 1; stroke-dasharray: none; stroke-linecap: butt; stroke-dashoffset: 0; stroke-linejoin: miter; stroke-miterlimit: 4; fill: rgb(226,226,226); fill-rule: nonzero; opacity: 1;" vector-effect="non-scaling-stroke"  transform=" translate(-12, -11.5)" d="M 12 9 C 11.4 9 11 9.4 11 10 L 11 13 C 11 13.6 11.4 14 12 14 C 12.6 14 13 13.6 13 13 L 13 10 C 13 9.4 12.6 9 12 9 z" stroke-linecap="round" />
</g>
		<g transform="matrix(1 0 0 1 -0.02 3.9)"  >
<circle style="stroke: none; stroke-width: 1; stroke-dasharray: none; stroke-linecap: butt; stroke-dashoffset: 0; stroke-linejoin: miter; stroke-miterlimit: 4; fill: rgb(226,226,226); fill-rule: nonzero; opacity: 1;" vector-effect="non-scaling-stroke"  cx="0" cy="0" r="1" />
</g>
</g>
</g>
<g transform="matrix(NaN NaN NaN NaN 0 0)"  >
<g style=""   >
</g>
</g>
</svg>