<?xml version="1.0" encoding="UTF-8" standalone="no" ?>
<!DOCTYPE svg PUBLIC "-//W3C//DTD SVG 1.1//EN" "http://www.w3.org/Graphics/SVG/1.1/DTD/svg11.dtd">
<svg xmlns="http://www.w3.org/2000/svg" xmlns:xlink="http://www.w3.org/1999/xlink" version="1.1" width="1080" height="1080" viewBox="0 0 1080 1080" xml:space="preserve">
<desc>Created with Fabric.js 5.2.4</desc>
<defs>
</defs>
<rect x="0" y="0" width="100%" height="100%" fill="transparent"></rect>
<g transform="matrix(1 0 0 1 540 540)" id="c3d7497d-0bbb-452e-ab02-473f0b54909d"  >
<rect style="stroke: none; stroke-width: 1; stroke-dasharray: none; stroke-linecap: butt; stroke-dashoffset: 0; stroke-linejoin: miter; stroke-miterlimit: 4; fill: rgb(255,255,255); fill-rule: nonzero; opacity: 1; visibility: hidden;" vector-effect="non-scaling-stroke"  x="-540" y="-540" rx="0" ry="0" width="1080" height="1080" />
</g>
<g transform="matrix(1 0 0 1 540 540)" id="1b9d66bb-3a4d-4c37-b29c-7031603fefa5"  >
</g>
<g transform="matrix(2.01 0 0 2.01 540 540)" id="fbe90f5c-12ee-4a52-9182-5f4241d4780d"  >
<path style="stroke: rgb(0,0,0); stroke-width: 0; stroke-dasharray: none; stroke-linecap: butt; stroke-dashoffset: 0; stroke-linejoin: miter; stroke-miterlimit: 4; fill: rgb(69,154,153); fill-rule: nonzero; opacity: 1;" vector-effect="non-scaling-stroke"  transform=" translate(-247.95, -256)" d="M 336.5 160 C 322 70.7 287.8 8 248 8 C 208.2 8 174 70.7 159.5 160 L 336.5 160 z M 152 256 C 152 278.2 153.2 299.5 155.3 320 L 340.6 320 C 342.70000000000005 299.5 343.90000000000003 278.2 343.90000000000003 256 C 343.90000000000003 233.8 342.70000000000005 212.5 340.6 192 L 155.3 192 C 153.20000000000002 212.5 152 233.8 152 256 z M 476.7 160 C 448.09999999999997 92.1 390.2 39.599999999999994 318.7 18.400000000000006 C 343.09999999999997 52.2 359.9 103.10000000000001 368.7 160 L 476.7 160 z M 177.2 18.4 C 105.8 39.6 47.8 92.1 19.3 160 L 127.3 160 C 136 103.1 152.8 52.2 177.2 18.400000000000006 z M 487.4 192 L 372.7 192 C 374.8 213 376 234.5 376 256 C 376 277.5 374.8 299 372.7 320 L 487.29999999999995 320 C 492.79999999999995 299.5 495.9 278.2 495.9 256 C 495.9 233.8 492.79999999999995 212.5 487.4 192 z M 120 256 C 120 234.5 121.2 213 123.3 192 L 8.6 192 C 3.2 212.5 0 233.8 0 256 C 0 278.2 3.2 299.5 8.6 320 L 123.19999999999999 320 C 121.19999999999999 299 119.99999999999999 277.5 119.99999999999999 256 z M 159.5 352 C 174 441.3 208.2 504 248 504 C 287.8 504 322 441.3 336.5 352 L 159.5 352 z M 318.8 493.6 C 390.20000000000005 472.40000000000003 448.20000000000005 419.90000000000003 476.8 352 L 368.8 352 C 360 408.9 343.2 459.8 318.8 493.6 z M 19.3 352 C 47.900000000000006 419.9 105.8 472.4 177.3 493.6 C 152.9 459.8 136.10000000000002 408.90000000000003 127.30000000000001 352 L 19.30000000000001 352 z" stroke-linecap="round" />
</g>
<g transform="matrix(NaN NaN NaN NaN 0 0)"  >
<g style=""   >
</g>
</g>
</svg>