<?xml version="1.0" encoding="UTF-8" standalone="no" ?>
<!DOCTYPE svg PUBLIC "-//W3C//DTD SVG 1.1//EN" "http://www.w3.org/Graphics/SVG/1.1/DTD/svg11.dtd">
<svg xmlns="http://www.w3.org/2000/svg" xmlns:xlink="http://www.w3.org/1999/xlink" version="1.1" width="1080" height="1080" viewBox="0 0 1080 1080" xml:space="preserve">
<desc>Created with Fabric.js 5.2.4</desc>
<defs>
</defs>
<rect x="0" y="0" width="100%" height="100%" fill="transparent"></rect>
<g transform="matrix(1 0 0 1 540 540)" id="fa6a4147-5fb6-4e0b-a53f-8709d2875afe"  >
<rect style="stroke: none; stroke-width: 1; stroke-dasharray: none; stroke-linecap: butt; stroke-dashoffset: 0; stroke-linejoin: miter; stroke-miterlimit: 4; fill: rgb(255,255,255); fill-rule: nonzero; opacity: 1; visibility: hidden;" vector-effect="non-scaling-stroke"  x="-540" y="-540" rx="0" ry="0" width="1080" height="1080" />
</g>
<g transform="matrix(1 0 0 1 540 540)" id="ea933ac2-a09f-4f0b-927c-b6e9ecc811ec"  >
</g>
<g transform="matrix(1.58 0 0 1.58 540 540)" id="f10c17e1-190f-4025-b93e-2a3561629f5a"  >
<path style="stroke: rgb(0,0,0); stroke-width: 0; stroke-dasharray: none; stroke-linecap: butt; stroke-dashoffset: 0; stroke-linejoin: miter; stroke-miterlimit: 4; fill: rgb(226,226,226); fill-rule: nonzero; opacity: 1;" vector-effect="non-scaling-stroke"  transform=" translate(-256, -255.99)" d="M 109.46 244.04 L 244.04000000000002 109.47999999999999 L 199.92000000000002 65.35999999999999 L 138.24 127.03999999999999 C 136.75446084301052 128.52841988108779 134.7379075893549 129.36484805354735 132.635 129.36484805354735 C 130.5320924106451 129.36484805354735 128.5155391569895 128.52841988108779 127.03 127.03999999999999 L 115.82 115.82999999999998 C 112.72 112.72999999999999 112.72 107.70999999999998 115.82 104.61999999999998 L 177.5 42.939999999999976 L 143.86 9.289999999999978 C 131.47 -3.1 111.39 -3.1 99 9.29 L 9.29 99 C -3.0900000000000016 111.39 -3.1000000000000014 131.47 9.29 143.86 L 109.46000000000001 244.04000000000002 z M 497.93 127.24 C 516.69 108.47999999999999 516.6800000000001 78.07 497.93 59.30999999999999 L 452.68 14.059999999999988 C 433.92 -4.7000000000000135 403.5 -4.7000000000000135 384.73 14.059999999999988 L 338.71000000000004 60.069999999999986 L 451.91 173.26999999999998 L 497.93 127.23999999999998 z M 316.08 82.71 L 19.079999999999984 379.66999999999996 L 0.32 487.11 C -2.21 501.6 10.41 514.22 24.91 511.67 L 132.36 492.83000000000004 L 429.28 195.9 L 316.08 82.71 z M 502.71 368.14 L 469.07 334.5 L 407.39 396.18 C 404.28999999999996 399.28000000000003 399.27 399.28000000000003 396.18 396.18 L 384.97 384.97 C 381.88000000000005 381.87 381.88000000000005 376.85 384.97 373.76000000000005 L 446.65000000000003 312.08000000000004 L 402.51000000000005 267.94000000000005 L 267.93 402.5 L 368.14 502.7 C 380.53 515.09 400.61 515.09 413 502.7 L 502.71 413 C 515.1 400.61 515.1 380.53 502.71 368.14 z" stroke-linecap="round" />
</g>
</svg>