<?xml version="1.0" encoding="UTF-8" standalone="no" ?>
<!DOCTYPE svg PUBLIC "-//W3C//DTD SVG 1.1//EN" "http://www.w3.org/Graphics/SVG/1.1/DTD/svg11.dtd">
<svg xmlns="http://www.w3.org/2000/svg" xmlns:xlink="http://www.w3.org/1999/xlink" version="1.1" width="1080" height="1080" viewBox="0 0 1080 1080" xml:space="preserve">
<desc>Created with Fabric.js 5.2.4</desc>
<defs>
</defs>
<g transform="matrix(1 0 0 1 540 540)" id="655fe2c1-6a0b-4f74-a390-a572a7f239b5"  >
</g>
<g transform="matrix(1 0 0 1 540 540)" id="30a72c59-ffce-4c4b-8ca4-1b0dffd50133"  >
<rect style="stroke: none; stroke-width: 1; stroke-dasharray: none; stroke-linecap: butt; stroke-dashoffset: 0; stroke-linejoin: miter; stroke-miterlimit: 4; fill: rgb(255,255,255); fill-rule: nonzero; opacity: 1; visibility: hidden;" vector-effect="non-scaling-stroke"  x="-540" y="-540" rx="0" ry="0" width="1080" height="1080" />
</g>
<g transform="matrix(2.17 0 0 2.17 540.03 283.86)"  >
<path style="stroke: none; stroke-width: 1; stroke-dasharray: none; stroke-linecap: butt; stroke-dashoffset: 0; stroke-linejoin: miter; stroke-miterlimit: 4; fill: rgb(226,226,226); fill-rule: nonzero; opacity: 1;" vector-effect="non-scaling-stroke"  transform=" translate(-215.52, -122.04)" d="M 101.9740982 172.7140961 L 101.9740982 191.5724945 C 101.9740982 194.5010071 104.346199 196.8706055 107.2720032 196.8706055 C 110.1977997 196.8706055 112.5698014 194.5010071 112.5698014 191.5724945 L 112.5698014 172.7864075 C 112.5932999 170.90330509999998 112.58300030000001 169.2061005 112.5727998 167.4832001 C 112.5464021 163.5612946 112.518097 159.5048981 112.9551011 152.6548004 C 114.046898 136.3930969 119.580597 120.0075989 128.9712068 105.25199889999999 C 137.78759780000001 91.30300139999999 150.5693056 79.32540129999998 165.8867036 70.65429689999999 C 180.95309460000001 62.33959959999999 198.1250001 57.90039829999999 215.4936982 57.81230169999999 C 232.9194032 57.90039829999999 250.0941926 62.339599699999994 265.1088868 70.62300119999999 C 280.4750977 79.32540139999999 293.2568055 91.29789739999998 302.0810853 105.2670976 C 311.4638977 120.0075989 317 136.3930969 318.0888977 152.6340027 C 318.5288086 159.4998017 318.50048830000003 163.5612946 318.4746094 167.4832001 C 318.4638977 169.2061005 318.45361330000003 170.9033051 318.47711180000005 172.7140961 L 318.47711180000005 191.5724945 C 318.47711180000005 194.5010071 320.84909060000007 196.8706055 323.77490230000006 196.8706055 C 326.70071400000006 196.8706055 329.07321160000004 194.5010071 329.07321160000004 191.5724945 L 329.07321160000004 172.6416016 C 329.0498046 170.8356934 329.06008900000006 169.2061005 329.07031240000003 167.5556946 C 329.09909050000005 163.4474945 329.12499990000003 159.199997 328.66159050000005 151.94599920000002 C 327.45361320000006 133.92019660000003 321.35348500000003 115.81179820000003 311.02929680000005 99.59130100000002 C 301.28421010000005 84.16819770000002 287.2113952000001 70.96459960000001 270.27731320000004 61.372100900000014 C 253.66700740000005 52.20920190000001 234.74070740000005 47.31489950000001 215.49369810000005 47.21609890000001 C 196.30369570000005 47.31489960000001 177.38040160000006 52.20920190000001 160.71780390000004 61.40330140000001 C 143.83299250000005 70.96459980000002 129.75779720000003 84.16819780000002 120.02290340000003 99.57620260000002 C 109.69339750000003 115.80639670000002 103.59329980000004 133.92019670000002 102.38279720000003 151.96659870000002 C 101.92240140000003 159.19999710000002 101.94779960000002 163.44749470000002 101.97660060000003 167.55569480000003 C 101.9868011 169.2061005 101.9971008 170.8356934 101.9740982 172.7140961 z" stroke-linecap="round" />
</g>
<g transform="matrix(2.17 0 0 2.17 540.03 796.14)"  >
<path style="stroke: none; stroke-width: 1; stroke-dasharray: none; stroke-linecap: butt; stroke-dashoffset: 0; stroke-linejoin: miter; stroke-miterlimit: 4; fill: rgb(226,226,226); fill-rule: nonzero; opacity: 1;" vector-effect="non-scaling-stroke"  transform=" translate(-215.52, -370.06)" d="M 329.0732117 300.5292969 C 329.0732117 297.6007996 326.7007141 295.23098760000005 323.7749024 295.23098760000005 C 320.8490906999999 295.23098760000005 318.47711189999995 297.6007996000001 318.47711189999995 300.5292969000001 L 318.47949229999995 329.95291140000006 C 318.50048839999994 330.6618958000001 318.49218759999997 332.6589051000001 318.19479379999996 338.24679570000006 C 318.11230479999995 341.02999880000004 317.80960089999996 343.9379883000001 317.28170789999996 347.00588990000006 C 315.58200089999997 358.42990110000005 312.0610048 369.4191895000001 307.08151259999994 378.82009890000006 C 296.23239149999995 399.6864929000001 281.47119159999994 411.94338990000006 270.99121109999993 418.55569460000004 C 257.95800799999995 426.81811530000004 246.32229629999992 430.52270510000005 238.61570759999992 432.24020390000004 C 236.06489579999993 432.9284974 233.8842927999999 433.23880010000005 231.96189899999993 433.51339730000007 C 231.01269549999992 433.64749150000006 230.16940329999994 433.76638800000006 229.66749589999992 433.8703919000001 L 226.73930379999993 434.28909310000006 L 204.30270409999994 434.28909310000006 L 201.60450769999994 433.90631110000004 C 200.87739589999995 433.76638800000006 200.03419519999994 433.64749150000006 199.08500699999993 433.51339730000007 C 197.16259789999992 433.23880010000005 194.98190339999994 432.9284974000001 192.19039949999993 432.1784974000001 C 184.72509799999992 430.5227052000001 173.09129369999994 426.8181153000001 160.04789769999994 418.55569470000006 C 149.57319679999995 411.9433900000001 134.81250039999995 399.68121350000007 123.94730409999994 378.7839051000001 C 118.98580199999994 369.4191895000001 115.46479829999994 358.4299012000001 113.74459869999994 346.8869935000001 C 113.23729739999995 343.9431153000001 112.93460109999994 341.0351869000001 112.84420039999993 338.12768560000006 C 112.56980159999993 332.9071961000001 112.54149649999994 330.80151370000004 112.56980159999993 329.7976075000001 L 112.56980159999993 300.5292970000001 C 112.56980159999993 297.6007997000001 110.19779999999993 295.2309877000001 107.27200339999993 295.2309877000001 C 104.34619929999994 295.2309877000001 101.97409839999993 297.60079970000015 101.97409839999993 300.52929700000016 L 101.97660079999993 329.6426088000002 C 101.93019879999993 331.2052919000002 102.02050029999992 334.0763857000002 102.25830089999992 338.5728151000002 C 102.35939799999993 341.85281390000017 102.71140299999992 345.2571108000002 103.28269969999992 348.5686037000002 C 105.15869919999993 361.1669924000002 109.06490339999992 373.3308107000002 114.56449899999993 383.7043154000002 C 126.50340279999993 406.6713869000002 142.81350719999992 420.2058108000002 154.38529979999993 427.5115053000002 C 168.71440139999993 436.58621230000017 181.60499579999993 440.6841127000002 189.65820319999992 442.4641115000002 C 192.8451996999999 443.3280947000002 195.59280399999992 443.72088640000015 197.59719859999993 444.0007021000002 C 198.36520399999992 444.1091005000002 199.04879769999994 444.2077944000002 199.86380019999993 444.35229510000016 L 203.18020649999994 444.83349630000015 C 203.42820759999995 444.86990380000015 203.67680379999993 444.8853151000001 203.92720049999994 444.8853151000001 L 227.11959859999993 444.8853151000001 C 227.37010209999994 444.8853151000001 227.61869829999992 444.8699037000001 227.86720299999993 444.83349630000015 L 231.40870689999994 444.31640650000014 C 231.99850489999994 444.2077944000001 232.68119839999994 444.10910060000015 233.44679279999994 444.00070220000015 C 235.45460529999994 443.7208865000002 238.20210289999994 443.32809480000014 241.14840719999995 442.52590970000017 C 249.44189469999995 440.68411280000015 262.33538839999994 436.5862124000002 276.6538088 427.51150540000015 C 288.2333986 420.20581080000017 304.5409853 406.67630030000015 316.4643862 383.74050930000016 C 321.98239159999997 373.33081080000017 325.88821429999996 361.16699250000016 327.7437136 348.6875003000001 C 328.3353884 345.2521976000001 328.6875002 341.84768710000014 328.78079249999996 338.6917117000001 C 329.02151519999995 334.1643069000001 329.11718779999995 331.2052920000001 329.07321189999993 329.79760770000007 L 329.07321189999993 300.5292969 z" stroke-linecap="round" />
</g>
<g transform="matrix(2.17 0 0 2.17 540.1 321.77)"  >
<path style="stroke: none; stroke-width: 1; stroke-dasharray: none; stroke-linecap: butt; stroke-dashoffset: 0; stroke-linejoin: miter; stroke-miterlimit: 4; fill: rgb(226,226,226); fill-rule: nonzero; opacity: 1;" vector-effect="non-scaling-stroke"  transform=" translate(-215.52, -139.48)" d="M 293.9038086 154.6985016 C 293.1328125 142.4001007 288.9159851 129.86889649999998 281.7192078 118.47119899999998 C 275.0810852 107.88529959999998 265.3129883 98.70189659999998 253.38479619999998 91.87210079999998 C 241.92720039999998 85.59110259999999 228.8500977 82.20729819999998 215.47309879999997 82.08329769999999 C 202.19430549999998 82.20729819999998 189.12010199999997 85.59110259999999 177.57710269999998 91.91889949999998 C 165.73390199999997 98.70189659999998 155.96580509999998 107.88529959999998 149.33540349999998 118.45529929999998 C 142.13090519999997 129.86889639999998 137.91409309999997 142.40010059999997 137.1381989 154.77099599999997 C 136.7554017 162.58349599999997 136.7969056 170.36470019999996 136.84080509999998 177.89309679999997 C 136.8638001 181.98019399999995 136.88720709999998 186.04710379999997 136.84080509999998 190.15010059999997 L 136.84080509999998 191.57249439999998 C 136.84080509999998 194.501007 139.21290589999998 196.8706054 142.13870239999997 196.8706054 C 145.06449889999996 196.8706054 147.43699649999996 194.501007 147.43699649999996 191.57249439999998 L 147.43699649999996 190.2068023 C 147.48339849999996 186.1091003 147.46000679999997 181.98019399999998 147.43699649999996 177.83079519999998 C 147.39549259999995 170.4477996 147.35110479999997 162.81129449999997 147.71879579999995 155.360794 C 148.38090519999994 144.8318023 152.03610229999995 134.0236968 158.30419919999994 124.1000976 C 164.02149959999994 114.98359669999999 172.50680539999993 107.0369033 182.75880429999995 101.164299 C 192.68699639999994 95.7217026 204.03370659999996 92.7878036 215.47309869999995 92.6791992 C 227.01069639999994 92.7878036 238.35989369999996 95.7217026 248.20309439999994 101.1182022 C 258.54049669999995 107.0369034 267.02539049999996 114.9835968 272.75048819999995 124.1159973 C 279.0107115999999 134.0236969 282.665985 144.83180240000002 283.3232115999999 155.2881012 C 283.69580069999995 162.8112946 283.6518858999999 170.4477997 283.61041249999994 177.8307953 C 283.5869139999999 181.9801941 283.56399529999993 186.10910040000002 283.61041249999994 190.1501007 L 283.61041249999994 191.5724945 C 283.61041249999994 194.5010071 285.98239129999996 196.8706055 288.90820299999996 196.8706055 C 291.83401469999995 196.8706055 294.2065123 194.5010071 294.2065123 191.5724945 L 294.2065123 190.0930023 C 294.1596983 186.0471039 294.18310529999997 181.9801941 294.2065123 177.8930969 C 294.2504883 170.3647003 294.2919922 162.5834961 293.9038086 154.6985016 z" stroke-linecap="round" />
</g>
<g transform="matrix(2.17 0 0 2.17 540.1 758.53)"  >
<path style="stroke: none; stroke-width: 1; stroke-dasharray: none; stroke-linecap: butt; stroke-dashoffset: 0; stroke-linejoin: miter; stroke-miterlimit: 4; fill: rgb(226,226,226); fill-rule: nonzero; opacity: 1;" vector-effect="non-scaling-stroke"  transform=" translate(-215.52, -352.73)" d="M 147.4369965 316.2473145 L 147.4369965 300.5292969 C 147.4369965 297.6007996 145.0644989 295.23098760000005 142.1387024 295.23098760000005 C 139.2129059 295.23098760000005 136.8408051 297.6007996000001 136.8408051 300.5292969000001 L 136.8408051 316.2992859000001 C 136.86380010000002 318.5546875000001 136.8506012 320.7951965000001 136.8408051 323.0043945000001 C 136.8018036 330.1033020000001 136.768097 336.8031921000001 137.77690130000002 343.4617004000001 C 139.11959840000003 352.4490051000001 141.75050360000003 360.6391906000001 145.57179270000003 367.7583007000001 C 152.11129770000002 380.3052062000001 161.94679270000003 391.1130065000001 173.24899300000004 398.18069450000013 C 183.40530400000003 404.58081050000015 192.23190320000003 407.3642883000001 197.48339850000005 408.4822082000001 C 199.69529730000005 409.12869260000014 201.59669500000004 409.3771972000001 202.98339850000005 409.56320190000014 C 203.49560550000004 409.63040160000014 203.94580080000006 409.68240360000016 204.63920600000006 409.82199100000014 L 206.84030160000006 410.1582032000001 C 207.11230480000006 410.1997071000001 207.38870250000005 410.22021490000014 207.66310130000005 410.22021490000014 L 223.38380440000006 410.22021490000014 C 223.65820320000006 410.22021490000014 223.93510440000006 410.1997071000001 224.20649730000005 410.1582032000001 L 226.72360240000006 409.7600098000001 C 227.10110480000006 409.6824036000001 227.55180370000005 409.6304016000001 228.06350720000006 409.5632019000001 C 229.45019540000007 409.3771973000001 231.35159310000006 409.1286926000001 233.19870010000005 408.5751953000001 C 238.81489580000004 407.36428830000006 247.64160170000005 404.5808105000001 257.78219620000004 398.1911926000001 C 269.10058610000004 391.11300660000006 278.935486 380.30520630000007 285.44680800000003 367.8153991000001 C 289.2963869 360.6391906000001 291.92718520000005 352.4490051000001 293.26998920000005 343.4721984000001 C 294.27880880000004 336.8031921000001 294.24508690000005 330.1033019000001 294.20651260000005 323.0043944000001 C 294.1962892000001 320.79519640000007 294.18310560000003 318.5546874000001 294.20651260000005 316.2473143000001 L 294.20651260000005 300.5292967000001 C 294.20651260000005 297.6007994000001 291.8340150000001 295.2309874000001 288.9082033000001 295.2309874000001 C 285.9823916000001 295.2309874000001 283.61041280000006 297.60079940000014 283.61041280000006 300.52929670000015 L 283.61041280000006 316.19558700000016 C 283.58691430000005 318.5028990000002 283.60009790000004 320.7951964000002 283.61041280000006 323.06149280000017 C 283.64651510000004 329.73049910000015 283.68020650000005 336.03219590000015 282.79299950000006 341.8994139000002 C 281.6283877000001 349.6706847000002 279.38089010000004 356.7070006000002 276.0795901000001 362.8637999000002 C 268.41461210000006 377.56298810000015 257.8056948000001 385.6809081000002 252.1479037000001 389.2195128000002 C 243.30569480000008 394.7865904000002 235.7494967000001 397.1874999000002 230.60400420000008 398.3100890000002 C 229.16310150000007 398.7291869000002 227.84379610000008 398.90008530000017 226.67720060000008 399.0549010000002 C 225.84910610000009 399.1637877000002 225.12210110000007 399.2673033000002 224.82470730000009 399.3398131000002 L 222.9804995000001 399.6245116000002 L 208.0513 399.6245116000002 L 206.5375976 399.40161120000016 C 205.9248046 399.26730330000015 205.1977996 399.16378770000017 204.3701019 399.05490100000014 C 203.20309450000002 398.90008530000017 201.8838043 398.7291869000001 200.07809450000002 398.21701040000016 C 195.2978974 397.18749990000015 187.74070740000002 394.78659050000016 178.88330080000003 389.20919790000016 C 173.24119570000002 385.6809081000002 162.63229370000002 377.5629882000002 154.93899540000004 362.8068847000002 C 151.66600040000003 356.7070007000002 149.41850280000003 349.6706847000002 148.25390630000004 341.8891906000002 C 147.36669930000005 336.03219600000017 147.40040590000004 329.73049920000017 147.43699650000005 323.06149280000017 C 147.4467926 320.7951965 147.4600067 318.5028992 147.4369965 316.2473145 z" stroke-linecap="round" />
</g>
<g transform="matrix(2.17 0 0 2.17 518.37 359.67)"  >
<path style="stroke: none; stroke-width: 1; stroke-dasharray: none; stroke-linecap: butt; stroke-dashoffset: 0; stroke-linejoin: miter; stroke-miterlimit: 4; fill: rgb(226,226,226); fill-rule: nonzero; opacity: 1;" vector-effect="non-scaling-stroke"  transform=" translate(-205.48, -156.91)" d="M 238.6132965 129.5480957 C 240.0023956 126.97190090000001 239.0453949 123.7587967 236.47120669999998 122.3668976 C 230.10450749999998 118.9264984 223.0941925 117.1052017 215.41110229999998 116.949997 C 207.9526062 117.1052018 200.9423981 118.9264985 194.40480039999997 122.4653016 C 187.59620659999996 126.4750977 182.13769529999996 131.6383973 178.62989809999996 137.3713075 C 174.50390629999995 144.0558931 172.23779299999995 150.8231965 171.93749999999997 157.0785981 C 171.70750429999998 158.8582002 171.69679259999998 163.2200013 171.70460509999998 170.1838075 L 171.70750429999998 191.5724946 C 171.70750429999998 194.5010072 174.07960509999998 196.8706056 177.00540159999997 196.8706056 C 179.93119809999996 196.8706056 182.30320739999996 194.5010072 182.30320739999996 191.5724946 L 182.30079649999996 170.1685029 C 182.29539489999996 166.2516938 182.28810119999997 159.6911927 182.48190309999995 158.0249024 C 182.72999579999995 153.1618958 184.46580509999995 148.0863953 187.65820309999995 142.9176941 C 190.27340699999996 138.64430240000002 194.46679689999996 134.7272949 199.61520379999996 131.6903992 C 204.48339839999997 129.0565949 209.87260429999995 127.6650009 215.41360469999995 127.5458985 C 221.17480469999995 127.665001 226.56350699999996 129.0565949 231.43159479999994 131.6903992 C 234.0112 133.0923004 237.2241058 132.1300964 238.6132965 129.5480957 z" stroke-linecap="round" />
</g>
<g transform="matrix(2.17 0 0 2.17 617.26 379.14)"  >
<path style="stroke: none; stroke-width: 1; stroke-dasharray: none; stroke-linecap: butt; stroke-dashoffset: 0; stroke-linejoin: miter; stroke-miterlimit: 4; fill: rgb(226,226,226); fill-rule: nonzero; opacity: 1;" vector-effect="non-scaling-stroke"  transform=" translate(-250.98, -165.86)" d="M 248.7436981 191.5724945 C 248.7436981 194.5010071 251.1157074 196.8706055 254.04150389999998 196.8706055 C 256.9672852 196.8706055 259.3398132 194.5010071 259.3398132 191.5724945 L 259.34228509999997 169.9611969 C 259.35009759999997 163.1161957 259.336914 158.8374023 259.14550779999996 157.4871063 C 258.80911249999997 150.8231964 256.54299929999996 144.0558929 252.41749569999996 137.37130729999998 C 250.87789909999995 134.87719719999998 247.61570739999996 134.10130299999997 245.12449639999997 135.6484069 C 242.63619989999998 137.1847991 241.86230459999996 140.4499969 243.39889519999997 142.9382018 C 246.58059689999996 148.0863952 248.31689449999996 153.1618956 248.60159299999998 158.4340972 C 248.75630189999998 159.6707 248.7489929 166.1018066 248.7460937 169.9458007 L 248.7436981 191.5724945 z" stroke-linecap="round" />
</g>
<g transform="matrix(2.17 0 0 2.17 586.55 720.91)"  >
<path style="stroke: none; stroke-width: 1; stroke-dasharray: none; stroke-linecap: butt; stroke-dashoffset: 0; stroke-linejoin: miter; stroke-miterlimit: 4; fill: rgb(226,226,226); fill-rule: nonzero; opacity: 1;" vector-effect="non-scaling-stroke"  transform=" translate(-236.85, -335.39)" d="M 248.585907 334.3818054 C 248.59860229999998 335.028595 248.52879339999998 335.7012024 248.3013001 336.77731320000004 C 247.7035981 340.7249145 246.64010629999999 344.09298700000005 245.0834961 346.89230340000006 C 242.2299957 352.3197936000001 237.9584961 357.03829950000005 233.3305969 359.8681945000001 C 226.6898956 363.98660270000005 221.72850029999998 364.5867004000001 219.8578949 364.81451410000005 C 218.7559052 364.94918820000004 216.4613953 365.2283019000001 215.0951996 367.53048700000005 C 214.2572937 368.94338980000003 214.1172028 370.6870117 214.7256012 372.21310420000003 C 215.5507965 374.29299920000005 217.5424957 375.5553894 219.6508942 375.5553894 C 220.1605988 375.5553894 220.6777039 375.4831848 221.1851044 375.3279114 C 223.4945984 375.0483093 230.3480988 374.1842957 238.8847962 368.891388 C 245.1582032 365.0575867 250.6889954 358.9988099 254.4037934 351.9316102 C 256.51708990000003 348.12890630000004 257.9892884 343.5651856 258.71389780000004 338.7174989 C 259.05520640000003 337.16531380000004 259.21289070000006 335.6286927 259.1767884 334.39209 L 259.23098760000005 333.5386049 C 259.29541020000005 332.7052919 259.37350470000007 331.7377931 259.33981330000006 329.7976076 L 259.33981330000006 300.5292971 C 259.33981330000006 297.6007998 256.96728520000005 295.2309878 254.04150400000006 295.2309878 C 251.11570750000007 295.2309878 248.74369820000007 297.6007998 248.74369820000007 300.5292971 L 248.74369820000007 329.8908999 C 248.76950080000006 331.3811038 248.71479810000008 332.08981350000005 248.66600040000006 332.70019560000003 C 248.6298981 333.1711121 248.5986023 333.6005859 248.585907 334.3818054 z" stroke-linecap="round" />
</g>
<g transform="matrix(2.17 0 0 2.17 476.03 714.52)"  >
<path style="stroke: none; stroke-width: 1; stroke-dasharray: none; stroke-linecap: butt; stroke-dashoffset: 0; stroke-linejoin: miter; stroke-miterlimit: 4; fill: rgb(226,226,226); fill-rule: nonzero; opacity: 1;" vector-effect="non-scaling-stroke"  transform=" translate(-185.96, -332.45)" d="M 182.3032074 300.5292969 C 182.3032074 297.6007996 179.9311981 295.23098760000005 177.0054016 295.23098760000005 C 174.0796051 295.23098760000005 171.7075043 297.6007996000001 171.7075043 300.5292969000001 L 171.7075043 329.7045899000001 C 171.6737976 331.73779300000007 171.7510071 332.7052918000001 171.8159027 333.5386048000001 L 171.8701019 334.1437989000001 C 171.8339996 335.6286927000001 171.9916992 337.1653138000001 172.2686004 338.3707886000001 C 173.0576019 343.56518560000006 174.5298004 348.1289063000001 176.583496 351.8280945000001 C 180.3578948 358.99880980000006 185.88920579999998 365.05758670000006 192.162094 368.89138800000006 C 193.0263976 369.4191895000001 193.9779967 369.6676942000001 194.9199065 369.6676942000001 C 196.704605 369.6676942000001 198.4481963 368.7673036000001 199.4467925 367.1325990000001 C 200.970703 364.6335145000001 200.18460069999998 361.3739930000001 197.68800339999999 359.8476869000001 C 193.088394 357.0382997000001 188.8168944 352.31979380000007 185.90429669999997 346.7887880000001 C 184.40669229999997 344.09298720000015 183.34330729999996 340.7249147000001 182.68119789999997 336.4303896000001 C 182.51809669999997 335.7012026000001 182.44819619999998 335.02859520000015 182.46139499999998 334.13330100000013 C 182.4481961 333.6005862000001 182.41700719999997 333.1711123000001 182.3809049 332.7001955000001 C 182.3314969 332.08981340000014 182.2778013 331.3811037000001 182.30320709999998 329.7976076000001 L 182.30320709999998 300.5292969 z" stroke-linecap="round" />
</g>
<g transform="matrix(2.17 0 0 2.17 540 609.91)"  >
<path style="stroke: none; stroke-width: 1; stroke-dasharray: none; stroke-linecap: butt; stroke-dashoffset: 0; stroke-linejoin: miter; stroke-miterlimit: 4; fill: rgb(226,226,226); fill-rule: nonzero; opacity: 1;" vector-effect="non-scaling-stroke"  transform=" translate(-215.52, -284.26)" d="M 344.0361023 284.2572937 C 344.0361023 281.3288879 341.6636047 278.959198 338.73831179999996 278.959198 L 92.3090973 278.959198 C 89.3833008 278.959198 87.0112 281.32888790000004 87.0112 284.2572937 C 87.0112 287.1860046 89.3833008 289.55538939999997 92.3090973 289.55538939999997 L 338.7383118 289.55538939999997 C 341.6636047 289.5553894 344.0361023 287.1860046 344.0361023 284.2572937 z" stroke-linecap="round" />
</g>
<g transform="matrix(2.17 0 0 2.17 540 568.42)"  >
<path style="stroke: none; stroke-width: 1; stroke-dasharray: none; stroke-linecap: butt; stroke-dashoffset: 0; stroke-linejoin: miter; stroke-miterlimit: 4; fill: rgb(226,226,226); fill-rule: nonzero; opacity: 1;" vector-effect="non-scaling-stroke"  transform=" translate(-215.52, -265.16)" d="M 92.3090973 270.4536133 L 338.7383118 270.4536133 C 341.66360480000003 270.4536133 344.03610230000004 268.0837097 344.03610230000004 265.155304 C 344.03610230000004 262.2271119 341.66360470000006 259.8573914 338.7383118 259.8573914 L 92.3090973 259.8573914 C 89.3833008 259.8573914 87.0112 262.2271119 87.0112 265.155304 C 87.0112 268.0837097 89.3833008 270.4536133 92.3090973 270.4536133 z" stroke-linecap="round" />
</g>
<g transform="matrix(2.17 0 0 2.17 540 526.92)"  >
<path style="stroke: none; stroke-width: 1; stroke-dasharray: none; stroke-linecap: butt; stroke-dashoffset: 0; stroke-linejoin: miter; stroke-miterlimit: 4; fill: rgb(226,226,226); fill-rule: nonzero; opacity: 1;" vector-effect="non-scaling-stroke"  transform=" translate(-215.52, -246.05)" d="M 92.3090973 251.351593 L 338.7383118 251.351593 C 341.66360480000003 251.351593 344.03610230000004 248.9819031 344.03610230000004 246.0534973 C 344.03610230000004 243.1248016 341.66360470000006 240.75560000000002 338.7383118 240.75560000000002 L 92.3090973 240.75560000000002 C 89.3833008 240.75560000000002 87.0112 243.1248017 87.0112 246.0534973 C 87.0112 248.9819031 89.3833008 251.351593 92.3090973 251.351593 z" stroke-linecap="round" />
</g>
<g transform="matrix(2.17 0 0 2.17 540 485.42)"  >
<path style="stroke: none; stroke-width: 1; stroke-dasharray: none; stroke-linecap: butt; stroke-dashoffset: 0; stroke-linejoin: miter; stroke-miterlimit: 4; fill: rgb(226,226,226); fill-rule: nonzero; opacity: 1;" vector-effect="non-scaling-stroke"  transform=" translate(-215.52, -226.95)" d="M 92.3090973 232.2498016 L 338.7383118 232.2498016 C 341.66360480000003 232.2498016 344.03610230000004 229.8800964 344.03610230000004 226.9517059 C 344.03610230000004 224.0231933 341.66360470000006 221.6535949 338.7383118 221.6535949 L 92.3090973 221.6535949 C 89.3833008 221.6535949 87.0112 224.0231933 87.0112 226.9517059 C 87.0112 229.8800964 89.3833008 232.2498016 92.3090973 232.2498016 z" stroke-linecap="round" />
</g>
<g transform="matrix(2.17 0 0 2.17 540.25 388.87)"  >
<path style="stroke: none; stroke-width: 1; stroke-dasharray: none; stroke-linecap: butt; stroke-dashoffset: 0; stroke-linejoin: miter; stroke-miterlimit: 4; fill: rgb(226,226,226); fill-rule: nonzero; opacity: 1;" vector-effect="non-scaling-stroke"  transform=" translate(-215.52, -170.34)" d="M 210.2241058 149.1105957 L 210.2241058 191.5724945 C 210.2241058 194.5010071 212.5962066 196.8706055 215.52250669999998 196.8706055 C 218.4477997 196.8706055 220.82029719999997 194.5010071 220.82029719999997 191.5724945 L 220.82029719999997 149.1105957 C 220.82029719999997 146.1820984 218.44779959999997 143.81269840000002 215.52250669999998 143.81269840000002 C 212.5962067 143.8126984 210.2241058 146.1820984 210.2241058 149.1105957 z" stroke-linecap="round" />
</g>
<g transform="matrix(2.17 0 0 2.17 540.25 691.33)"  >
<path style="stroke: none; stroke-width: 1; stroke-dasharray: none; stroke-linecap: butt; stroke-dashoffset: 0; stroke-linejoin: miter; stroke-miterlimit: 4; fill: rgb(226,226,226); fill-rule: nonzero; opacity: 1;" vector-effect="non-scaling-stroke"  transform=" translate(-215.52, -321.76)" d="M 215.5225067 295.2309875 C 212.5962067 295.2309875 210.22410580000002 297.60079950000005 210.22410580000002 300.5292968 L 210.22410580000002 342.9912109 C 210.22410580000002 345.919403 212.59620660000002 348.2893066 215.5225067 348.2893066 C 218.44779970000002 348.2893066 220.8202972 345.919403 220.8202972 342.9912109 L 220.8202972 300.5292968 C 220.8202972 297.6007996 218.4477997 295.2309875 215.5225067 295.2309875 z" stroke-linecap="round" />
</g>
</svg>