<?xml version="1.0" encoding="UTF-8" standalone="no" ?>
<!DOCTYPE svg PUBLIC "-//W3C//DTD SVG 1.1//EN" "http://www.w3.org/Graphics/SVG/1.1/DTD/svg11.dtd">
<svg xmlns="http://www.w3.org/2000/svg" xmlns:xlink="http://www.w3.org/1999/xlink" version="1.1" width="1080" height="1080" viewBox="0 0 1080 1080" xml:space="preserve">
<desc>Created with Fabric.js 5.2.4</desc>
<defs>
</defs>
<rect x="0" y="0" width="100%" height="100%" fill="transparent"></rect>
<g transform="matrix(1 0 0 1 540 540)" id="655fe2c1-6a0b-4f74-a390-a572a7f239b5"  >
</g>
<g transform="matrix(1 0 0 1 540 540)" id="30a72c59-ffce-4c4b-8ca4-1b0dffd50133"  >
<rect style="stroke: none; stroke-width: 1; stroke-dasharray: none; stroke-linecap: butt; stroke-dashoffset: 0; stroke-linejoin: miter; stroke-miterlimit: 4; fill: rgb(255,255,255); fill-rule: nonzero; opacity: 1; visibility: hidden;" vector-effect="non-scaling-stroke"  x="-540" y="-540" rx="0" ry="0" width="1080" height="1080" />
</g>
<g transform="matrix(62.14 0 0 62.14 540 540)"  >
<g style="" vector-effect="non-scaling-stroke"   >
		<g transform="matrix(1 0 0 1 -0.01 -0.03)"  >
<path style="stroke: none; stroke-width: 1; stroke-dasharray: none; stroke-linecap: butt; stroke-dashoffset: 0; stroke-linejoin: miter; stroke-miterlimit: 4; fill: rgb(226,226,226); fill-rule: nonzero; opacity: 1;" vector-effect="non-scaling-stroke"  transform=" translate(-9.91, -9.9)" d="M 9.92 8 L 9.92 8 C 9.149716710571209 7.995956434743243 8.453215116973864 8.457387870018414 8.156569527744441 9.168270483945603 C 7.859923938515019 9.879153097872795 8.021843252074907 10.698796663845247 8.56652329411483 11.24347670588517 C 9.111203336154755 11.788156747925093 9.930846902127207 11.950076061484982 10.641729516054397 11.65343047225556 C 11.352612129981587 11.356784883026137 11.814043565256757 10.660283289428794 11.81 9.89 C 11.807589891783739 9.388867341714095 11.61035079630891 8.908321181829969 11.26 8.55 C 10.904723642006081 8.195047276433689 10.422198867860189 7.996996063164853 9.920000000000002 8 Z M 9.92 11 C 9.485382592536121 11.040660992696973 9.065212512400624 10.831750258853525 8.835307404498469 10.460685239539893 C 8.605402296596315 10.089620220226262 8.605402296596315 9.620379779773739 8.835307404498469 9.249314760460107 C 9.065212512400624 8.878249741146476 9.485382592536121 8.669339007303028 9.92 8.71 L 9.92 8.71 C 10.511045594666465 8.765295761733402 10.962878573571853 9.261373420203988 10.962878573571853 9.855 C 10.962878573571853 10.448626579796013 10.511045594666465 10.944704238266599 9.92 11 Z" stroke-linecap="round" />
</g>
		<g transform="matrix(1 0 0 1 0 0)"  >
<path style="stroke: none; stroke-width: 1; stroke-dasharray: none; stroke-linecap: butt; stroke-dashoffset: 0; stroke-linejoin: miter; stroke-miterlimit: 4; fill: rgb(226,226,226); fill-rule: nonzero; opacity: 1;" vector-effect="non-scaling-stroke"  transform=" translate(-9.91, -9.93)" d="M 13.71 5.84 L 11.58 4.65 C 10.542988483728204 4.080729530229058 9.287011516271793 4.080729530229058 8.249999999999996 4.650000000000002 L 6.12 5.84 C 5.036076368509829 6.448939198821756 4.366523525442949 7.596744072650694 4.37 8.839999999999996 L 4.37 11 C 4.366523525442948 12.243255927349303 5.0360763685098275 13.391060801178241 6.119999999999998 14 L 8.25 15.2 C 9.28603887551389 15.773050951241096 10.54396112448611 15.773050951241096 11.58 15.2 L 13.71 14 C 14.793923631490173 13.391060801178243 15.463476474557055 12.243255927349304 15.46 11 L 15.46 8.82 C 15.460480988365003 7.582747018545483 14.790754836662735 6.4422990573610495 13.71 5.840000000000001 Z M 14.71 11.030000000000001 C 14.70986657311551 11.995108191479739 14.185058342216855 12.88383453869498 13.34 13.350000000000001 L 11.219999999999999 14.540000000000001 C 10.408975212873209 14.979194545812641 9.43102478712679 14.979194545812641 8.62 14.540000000000001 L 6.49 13.35 C 5.638625803324139 12.875449698537734 5.113494015692355 11.974676194205843 5.12 11 L 5.12 8.82 C 5.120777430263276 7.852477526287769 5.644904932467562 6.9610781977213545 6.489999999999998 6.490000000000002 L 8.62 5.3 C 9.02065707573437 5.090768575177428 9.468173127788427 4.98749564008803 9.92 5 C 10.375004996667206 5.002400617562584 10.822081295592502 5.119328264973815 11.219999999999999 5.339999999999999 L 13.34 6.529999999999999 C 14.188202367152757 6.997891501771406 14.713518010692543 7.891311537864619 14.71 8.86 Z" stroke-linecap="round" />
</g>
</g>
</g>
</svg>