<?xml version="1.0" encoding="UTF-8" standalone="no" ?>
<!DOCTYPE svg PUBLIC "-//W3C//DTD SVG 1.1//EN" "http://www.w3.org/Graphics/SVG/1.1/DTD/svg11.dtd">
<svg xmlns="http://www.w3.org/2000/svg" xmlns:xlink="http://www.w3.org/1999/xlink" version="1.1" width="1080" height="1080" viewBox="0 0 1080 1080" xml:space="preserve">
<desc>Created with Fabric.js 5.2.4</desc>
<defs>
</defs>
<rect x="0" y="0" width="100%" height="100%" fill="transparent"></rect>
<g transform="matrix(1 0 0 1 540 540)" id="6bbf8fa4-73d5-4881-9d0f-735d40ee03d6"  >
</g>
<g transform="matrix(1 0 0 1 540 540)" id="477c96d3-8a96-44d3-8246-cb141f1baee6"  >
<rect style="stroke: none; stroke-width: 1; stroke-dasharray: none; stroke-linecap: butt; stroke-dashoffset: 0; stroke-linejoin: miter; stroke-miterlimit: 4; fill: rgb(255,255,255); fill-rule: nonzero; opacity: 1; visibility: hidden;" vector-effect="non-scaling-stroke"  x="-540" y="-540" rx="0" ry="0" width="1080" height="1080" />
</g>
<g transform="matrix(40.19 0 0 40.19 540.03 540.04)"  >
<path style="stroke: none; stroke-width: 1; stroke-dasharray: none; stroke-linecap: butt; stroke-dashoffset: 0; stroke-linejoin: miter; stroke-miterlimit: 4; fill: rgb(226,226,226); fill-rule: nonzero; opacity: 1;" vector-effect="non-scaling-stroke"  transform=" translate(-12, -12)" d="M 12 1 L 21.5 6.5 L 21.5 17.5 L 12 23 L 2.5 17.5 L 2.5 6.5 L 12 1 z M 12 3.311 L 4.5 7.653 L 4.5 16.347 L 12 20.689 L 19.5 16.347 L 19.5 7.653 L 12 3.311 z M 12 16 C 9.790861000676827 16 8 14.209138999323173 8 12 C 8 9.790861000676827 9.790861000676827 8 12 8 C 14.209138999323173 8 16 9.790861000676825 16 12 C 16 14.209138999323173 14.209138999323175 16 12.000000000000002 16 z M 12 14 C 13.104569499661586 14 14 13.104569499661586 14 12 C 14 10.895430500338414 13.104569499661586 10 12 10 C 10.895430500338414 10 10 10.895430500338414 10 12 C 10 13.104569499661586 10.895430500338414 14 12 14 z" stroke-linecap="round" />
</g>
</svg>