<?xml version="1.0" encoding="UTF-8" standalone="no" ?>
<!DOCTYPE svg PUBLIC "-//W3C//DTD SVG 1.1//EN" "http://www.w3.org/Graphics/SVG/1.1/DTD/svg11.dtd">
<svg xmlns="http://www.w3.org/2000/svg" xmlns:xlink="http://www.w3.org/1999/xlink" version="1.1" width="1080" height="1080" viewBox="0 0 1080 1080" xml:space="preserve">
<desc>Created with Fabric.js 5.2.4</desc>
<defs>
</defs>
<g transform="matrix(1 0 0 1 540 540)" id="1d3c37d7-09c4-45e7-b966-d9e31101a1ea"  >
<rect style="stroke: none; stroke-width: 1; stroke-dasharray: none; stroke-linecap: butt; stroke-dashoffset: 0; stroke-linejoin: miter; stroke-miterlimit: 4; fill: rgb(255,255,255); fill-rule: nonzero; opacity: 1; visibility: hidden;" vector-effect="non-scaling-stroke"  x="-540" y="-540" rx="0" ry="0" width="1080" height="1080" />
</g>
<g transform="matrix(1 0 0 1 540 540)" id="e1905516-00a4-438c-a98d-50c007efb18e"  >
</g>
<g transform="matrix(38.75 0 0 38.75 540 540)" id="Shape"  >
<path style="stroke: rgb(0,0,0); stroke-width: 0; stroke-dasharray: none; stroke-linecap: butt; stroke-dashoffset: 0; stroke-linejoin: miter; stroke-miterlimit: 4; fill: rgb(226,226,226); fill-rule: nonzero; opacity: 1;" vector-effect="non-scaling-stroke"  transform=" translate(-10.95, -9.5)" d="M 11 4 C 13.8 4 16 6.2 16 9 C 16 9.6 15.9 10.3 15.6 10.8 L 18.5 13.7 C 20 12.4 21.2 10.8 21.9 9 C 20.2 4.6 15.9 1.5 10.9 1.5 C 9.5 1.5 8.2 1.8 6.9 2.2 L 9.1 4.4 C 9.7 4.1 10.4 4 11 4 L 11 4 Z M 1 1.3 L 3.3 3.6 L 3.7 4 C 2 5.3 0.7 7 0 9 C 1.7 13.4 6 16.5 11 16.5 C 12.5 16.5 14 16.2 15.4 15.7 L 15.8 16.1 L 18.7 19 L 20 17.7 L 2.3 0 L 1 1.3 L 1 1.3 Z M 6.5 6.8 L 8 8.3 L 8 9 C 8 10.7 9.3 12 11 12 C 11.2 12 11.4 12 11.7 11.9 L 13.2 13.4 C 12.5 13.8 11.8 14 11 14 C 8.2 14 6 11.8 6 9 C 6 8.2 6.2 7.5 6.5 6.8 L 6.5 6.8 Z M 10.8 6 L 13.9 9.1 L 13.9 8.9 C 13.9 7.2 12.6 5.9 10.9 5.9 C 10.9 6 10.9 6 10.8 6 L 10.8 6 Z" stroke-linecap="round" />
</g>
</svg>