<?xml version="1.0" encoding="UTF-8" standalone="no" ?>
<!DOCTYPE svg PUBLIC "-//W3C//DTD SVG 1.1//EN" "http://www.w3.org/Graphics/SVG/1.1/DTD/svg11.dtd">
<svg xmlns="http://www.w3.org/2000/svg" xmlns:xlink="http://www.w3.org/1999/xlink" version="1.1" width="1080" height="1080" viewBox="0 0 1080 1080" xml:space="preserve">
<desc>Created with Fabric.js 5.2.4</desc>
<defs>
</defs>
<rect x="0" y="0" width="100%" height="100%" fill="transparent"></rect>
<g transform="matrix(1 0 0 1 540 540)" id="655fe2c1-6a0b-4f74-a390-a572a7f239b5"  >
</g>
<g transform="matrix(1 0 0 1 540 540)" id="30a72c59-ffce-4c4b-8ca4-1b0dffd50133"  >
<rect style="stroke: none; stroke-width: 1; stroke-dasharray: none; stroke-linecap: butt; stroke-dashoffset: 0; stroke-linejoin: miter; stroke-miterlimit: 4; fill: rgb(255,255,255); fill-rule: nonzero; opacity: 1; visibility: hidden;" vector-effect="non-scaling-stroke"  x="-540" y="-540" rx="0" ry="0" width="1080" height="1080" />
</g>
<g transform="matrix(8.17 0 0 8.17 540 540)" id="c107b3bd-de7b-4267-a71e-c78f671c71f4"  >
<path style="stroke: rgb(0,0,0); stroke-width: 0; stroke-dasharray: none; stroke-linecap: butt; stroke-dashoffset: 0; stroke-linejoin: miter; stroke-miterlimit: 4; fill: rgb(226,226,226); fill-rule: nonzero; opacity: 1;" vector-effect="non-scaling-stroke"  transform=" translate(-50, -50)" d="M 93.25494 54.24274 C 95.59753218713311 51.899320552613105 95.59755904648465 48.10077257586775 93.25500000000001 45.75732 L 74.45581 26.95837 L 92.99994 8.41425 L 93 20 C 93 20.552284749830793 93.44771525016921 21 94 21 C 94.55228474983079 21 95 20.552284749830793 95 20 L 94.99994 6.00031 C 94.99861050364488 5.448550008854468 94.55175946153484 5.001533621938169 94 5 L 80 5 C 79.44771525016921 5 79 5.447715250169207 79 6 C 79 6.552284749830793 79.44771525016921 7 80 7 L 91.58575 7 L 73.04156 25.54413 L 54.24225 6.745 C 53.117155848606444 5.619786750785098 51.591122769622864 4.987648484281291 49.999915144828954 4.987670989109437 C 48.408707520035044 4.9876934939375825 46.88269232262588 5.619874926286549 45.75762999999999 6.745120000000002 L 26.95837 25.54412 L 8.41412 6.99994 L 20 7 C 20.552284749830793 7 21 6.552284749830793 21 6 C 21 5.447715250169207 20.552284749830793 5 20 5 L 6 5 C 5.448319542354567 5.001456172559266 5.001456172559264 5.448319542354568 5 6.000000000000001 L 5 20 C 5 20.552284749830793 5.447715250169207 21 6 21 C 6.552284749830793 21 7 20.552284749830793 7 20 L 6.99994 20 L 6.99994 8.41418 L 25.54413 26.95837 L 6.745 45.7572 C 4.402411715314088 48.10061554144256 4.402380379430646 51.89915580872751 6.744929999999998 54.24261 L 25.54413 73.04160999999999 L 7 91.58569 L 6.99994 80 C 6.99994 79.4477483872542 6.5522516127458035 79.00006 6 79.00006 C 5.447748387254196 79.00006 5.0000599999999995 79.4477483872542 5.0000599999999995 80 L 5 93.99994 L 5 93.99994 L 5 94 L 5.00043 94.002 C 5.0026604220269135 94.55285633725047 5.449140756242254 94.99860859544836 6 94.99994 L 20 94.99994 C 20.549245696945487 94.9956854653977 20.992254091402238 94.54923217481073 20.992254091402238 93.99996999999999 C 20.992254091402238 93.45070782518927 20.549245696945487 93.0042545346023 20 93 L 8.41418 93 L 26.95837 74.45581 L 45.75769 93.25494 L 45.75769 93.25494 C 46.88278529981959 94.38014404994327 48.4088104956451 95.01228126206621 50.00001242738043 95.0122700096924 C 51.59121435911577 95.01225875731859 53.11723061432161 94.38009996232132 54.242309999999996 93.25488 L 73.04156 74.45581 L 91.58569 92.99994 L 80 93 C 79.44771525016921 93 79 93.44771525016921 79 94 C 79 94.55228474983079 79.44771525016921 95 80 95 L 94 94.99994 C 94.55179585803147 94.99849388970443 94.99869802874652 94.5514263552644 94.99994 93.99963 L 94.99994 80 C 94.99994 79.4477483872542 94.55225161274579 79.00005999999999 94 79.00005999999999 C 93.4477483872542 79.00005999999999 93.00005999999999 79.4477483872542 93.00005999999999 80 L 93 80 L 93 91.58575 L 74.45587 73.04163 Z M 52.828 91.8407 C 52.07805063291357 92.5908513353576 51.06078624533629 93.01230891702612 50.000054856800226 93.01233142217409 C 48.93932346826416 93.01235392732207 47.92204119778154 92.59093951188213 47.17206 91.84082 L 46.46484 92.54781999999999 L 47.17194 91.84066999999999 L 28.37262 73.04156 L 40.70709 60.70709 C 41.09762159230035 60.31655840769965 41.09762159230035 59.68338159230035 40.70709 59.29285 C 40.31655840769965 58.90231840769965 39.68338159230035 58.90231840769965 39.29285 59.29285 L 26.95831 71.62738 L 8.15924 52.82849 C 6.597547693665563 51.26611949029771 6.597574552573214 48.73372738229334 8.159299999999998 47.17139 L 26.9583 28.372560000000004 L 39.29285 40.70709 C 39.68338159230035 41.09762159230035 40.31655840769965 41.09762159230035 40.70709 40.70709 C 41.09762159230035 40.31655840769965 41.09762159230035 39.68338159230035 40.70709 39.29285 L 28.37256 26.95837 L 47.17194 8.15924 C 47.92191277227541 7.409102775895096 48.939189614572456 6.987661260636369 49.999927571852986 6.987650008112069 C 51.06066552913351 6.987638755587769 52.07795131267646 7.4090586877917675 52.82794 8.159180000000001 L 71.62738 26.95837 L 59.29285 39.29285 C 58.90231840769965 39.68338159230035 58.90231840769965 40.31655840769965 59.29285 40.70709 C 59.68338159230035 41.09762159230035 60.31655840769965 41.09762159230035 60.70709 40.70709 L 73.04163 28.37256 L 91.8407 47.17145 C 93.40241572027516 48.733843946089245 93.40236200204842 51.26628230972227 91.84058 52.82861 L 73.04158000000001 71.62738 L 60.70709 59.29285 C 60.31655840769965 58.90231840769965 59.68338159230035 58.90231840769965 59.29285 59.29285 C 58.90231840769965 59.68338159230035 58.90231840769965 60.31655840769965 59.29285 60.70709 L 71.62732 73.04156 Z" stroke-linecap="round" />
</g>
</svg>