<?xml version="1.0" encoding="UTF-8" standalone="no" ?>
<!DOCTYPE svg PUBLIC "-//W3C//DTD SVG 1.1//EN" "http://www.w3.org/Graphics/SVG/1.1/DTD/svg11.dtd">
<svg xmlns="http://www.w3.org/2000/svg" xmlns:xlink="http://www.w3.org/1999/xlink" version="1.1" width="1080" height="1080" viewBox="0 0 1080 1080" xml:space="preserve">
<desc>Created with Fabric.js 5.2.4</desc>
<defs>
</defs>
<rect x="0" y="0" width="100%" height="100%" fill="transparent"></rect>
<g transform="matrix(1 0 0 1 540 540)" id="30a72c59-ffce-4c4b-8ca4-1b0dffd50133"  >
<rect style="stroke: none; stroke-width: 1; stroke-dasharray: none; stroke-linecap: butt; stroke-dashoffset: 0; stroke-linejoin: miter; stroke-miterlimit: 4; fill: rgb(255,255,255); fill-rule: nonzero; opacity: 1; visibility: hidden;" vector-effect="non-scaling-stroke"  x="-540" y="-540" rx="0" ry="0" width="1080" height="1080" />
</g>
<g transform="matrix(1 0 0 1 540 540)" id="655fe2c1-6a0b-4f74-a390-a572a7f239b5"  >
</g>
<g transform="matrix(2.08 0 0 2.08 456.1 681.69)"  >
<path style="stroke: none; stroke-width: 1; stroke-dasharray: none; stroke-linecap: butt; stroke-dashoffset: 0; stroke-linejoin: miter; stroke-miterlimit: 4; fill: rgb(226,226,226); fill-rule: nonzero; opacity: 1;" vector-effect="non-scaling-stroke"  transform=" translate(-215.76, -324.04)" d="M 218.19 351.732 C 216.62 351.732 215.13 350.802 214.493 349.262 C 211.067 340.991 209.331 332.223 209.331 323.199 C 209.331 314.83500000000004 210.82899999999998 306.66700000000003 213.784 298.921 C 214.571 296.85699999999997 216.884 295.823 218.947 296.608 C 221.011 297.396 222.046 299.708 221.25900000000001 301.772 C 218.65300000000002 308.604 217.33100000000002 315.813 217.33100000000002 323.199 C 217.33100000000002 331.16700000000003 218.86300000000003 338.90500000000003 221.88400000000001 346.2 C 222.73000000000002 348.241 221.76000000000002 350.581 219.71900000000002 351.42699999999996 C 219.219 351.635 218.7 351.732 218.19 351.732 z" stroke-linecap="round" />
</g>
<g transform="matrix(2.08 0 0 2.08 539.2 539.2)"  >
<path style="stroke: none; stroke-width: 1; stroke-dasharray: none; stroke-linecap: butt; stroke-dashoffset: 0; stroke-linejoin: miter; stroke-miterlimit: 4; fill: rgb(226,226,226); fill-rule: nonzero; opacity: 1;" vector-effect="non-scaling-stroke"  transform=" translate(-256, -256)" d="M 411.52 65.5 L 100.48 65.5 C 81.18900000000001 65.5 65.5 81.19 65.5 100.47999999999999 L 65.5 411.52 C 65.5 430.811 81.189 446.5 100.47999999999999 446.5 L 411.52 446.5 C 430.811 446.5 446.5 430.811 446.5 411.52 L 446.5 100.48 C 446.5 81.19 430.811 65.5 411.52 65.5 z M 438.5 411.52 C 438.5 426.40099999999995 426.4 438.5 411.52 438.5 L 100.48 438.5 C 85.599 438.5 73.5 426.4 73.5 411.52 L 73.5 100.48 C 73.5 85.60000000000001 85.6 73.5 100.48 73.5 L 411.52 73.5 C 426.40099999999995 73.5 438.5 85.6 438.5 100.48 L 438.5 411.52 z" stroke-linecap="round" />
</g>
<g transform="matrix(2.08 0 0 2.08 576.09 464.65)"  >
<path style="stroke: none; stroke-width: 1; stroke-dasharray: none; stroke-linecap: butt; stroke-dashoffset: 0; stroke-linejoin: miter; stroke-miterlimit: 4; fill: rgb(226,226,226); fill-rule: nonzero; opacity: 1;" vector-effect="non-scaling-stroke"  transform=" translate(-273.36, -219.92)" d="M 255.393 256.963 C 253.184 256.963 251.393 255.17200000000003 251.393 252.96300000000002 L 251.393 240.06400000000002 C 251.393 233.64900000000003 256.612 228.431 263.027 228.431 L 280.41999999999996 228.431 C 284.227 228.431 287.32399999999996 225.333 287.32399999999996 221.526 L 287.32399999999996 221.306 C 287.32399999999996 217.49900000000002 284.22599999999994 214.401 280.41999999999996 214.401 L 263.02699999999993 214.401 C 256.6119999999999 214.401 251.39299999999992 209.18200000000002 251.39299999999992 202.768 L 251.39299999999992 186.876 C 251.39299999999992 184.667 253.1839999999999 182.876 255.39299999999992 182.876 C 257.6019999999999 182.876 259.3929999999999 184.667 259.3929999999999 186.876 L 259.3929999999999 202.768 C 259.3929999999999 204.77100000000002 261.0229999999999 206.401 263.02699999999993 206.401 L 280.41999999999996 206.401 C 288.638 206.401 295.32399999999996 213.08700000000002 295.32399999999996 221.306 L 295.32399999999996 221.526 C 295.32399999999996 229.745 288.63699999999994 236.431 280.41999999999996 236.431 L 263.02699999999993 236.431 C 261.0229999999999 236.431 259.3929999999999 238.061 259.3929999999999 240.06400000000002 L 259.3929999999999 252.96300000000002 C 259.393 255.172 257.602 256.963 255.393 256.963 z" stroke-linecap="round" />
</g>
<g transform="matrix(2.08 0 0 2.08 539.32 518.32)"  >
<path style="stroke: none; stroke-width: 1; stroke-dasharray: none; stroke-linecap: butt; stroke-dashoffset: 0; stroke-linejoin: miter; stroke-miterlimit: 4; fill: rgb(226,226,226); fill-rule: nonzero; opacity: 1;" vector-effect="non-scaling-stroke"  transform=" translate(-256, -245.9)" d="M 382.43 96.64 L 298.27 96.64 L 298.27 96.63 L 212.51 96.63 L 212.51 96.64 L 129.57 96.64 C 110.28 96.64 94.59 112.33 94.59 131.62 L 94.59 360.18899999999996 C 94.59 379.47999999999996 110.28 395.169 129.57 395.169 L 241.56 395.169 C 246.87 395.169 252.019 393.96999999999997 256.679 391.72999999999996 L 256.68899999999996 391.72999999999996 C 261.11999999999995 389.61999999999995 265.10999999999996 386.55999999999995 268.349 382.68899999999996 L 268.759 382.2 L 282.289 366.09 C 287.429 359.981 294.959 356.471 302.949 356.471 L 305.499 356.471 L 314.829 356.471 L 382.429 356.471 C 401.719 356.471 417.409 340.77 417.409 321.481 L 417.409 131.62 C 417.41 112.33 401.72 96.64 382.43 96.64 z M 220.51 144.83 L 220.51 135.11 L 220.51 104.64000000000001 L 290.27 104.64000000000001 L 290.27 135.11 L 290.27 144.83 L 290.27 150.55 L 272.758 150.55 L 272.758 150.549 L 238.028 150.549 L 238.028 150.55 L 220.51 150.55 L 220.51 144.83 z M 246.027 158.55 L 264.757 158.55 L 264.757 174.275 L 263.222 177.925 L 247.56199999999998 177.925 L 246.027 174.275 L 246.027 158.55 z M 102.59 131.62 C 102.59 116.74000000000001 114.69 104.64 129.57 104.64 L 212.509 104.64 L 212.509 135.11 L 102.59 135.11 L 102.59 131.62 z M 309.92 348.471 L 302.95 348.471 C 292.59 348.471 282.82 353.02 276.15999999999997 360.95 L 262.21999999999997 377.53999999999996 C 260.08 380.08 257.53099999999995 382.17999999999995 254.70999999999998 383.73999999999995 L 254.7 383.73999999999995 C 221.73 383.50999999999993 194.98 356.6089999999999 194.98 323.5799999999999 C 194.98 290.4099999999999 221.969 263.41999999999996 255.13899999999998 263.41999999999996 C 288.32 263.41999999999996 315.31 290.40999999999997 315.31 323.5799999999999 C 315.311 332.45 313.38 340.88 309.92 348.471 z M 409.41 321.48 C 409.41 336.35900000000004 397.31 348.47 382.43 348.47 L 318.6 348.47 C 321.64000000000004 340.759 323.31100000000004 332.35900000000004 323.31100000000004 323.579 C 323.31100000000004 287.119 294.53100000000006 257.249 258.48100000000005 255.49900000000002 C 257.38000000000005 255.449 256.26000000000005 255.419 255.14000000000004 255.419 C 254.18000000000004 255.419 253.23100000000005 255.43900000000002 252.29000000000005 255.48000000000002 C 216.03000000000006 256.98 186.98000000000005 286.959 186.98000000000005 323.58000000000004 C 186.98000000000005 352.51900000000006 205.09900000000005 377.30000000000007 230.58900000000006 387.1700000000001 L 129.57 387.1700000000001 C 114.689 387.1700000000001 102.58999999999999 375.07000000000005 102.58999999999999 360.19000000000005 L 102.58999999999999 144.83 L 212.51 144.83 L 212.51 158.55 L 238.028 158.55 L 238.028 175.888 L 242.249 185.925 L 268.538 185.925 L 272.759 175.888 L 272.759 158.55 L 298.271 158.55 L 298.271 144.83 L 409.41 144.83 L 409.41 321.48 z M 409.41 135.11 L 298.27 135.11 L 298.27 104.64000000000001 L 382.42999999999995 104.64000000000001 C 397.3109999999999 104.64000000000001 409.40999999999997 116.74000000000001 409.40999999999997 131.62 L 409.40999999999997 135.11 z" stroke-linecap="round" />
</g>
</svg>