<?xml version="1.0" encoding="UTF-8" standalone="no" ?>
<!DOCTYPE svg PUBLIC "-//W3C//DTD SVG 1.1//EN" "http://www.w3.org/Graphics/SVG/1.1/DTD/svg11.dtd">
<svg xmlns="http://www.w3.org/2000/svg" xmlns:xlink="http://www.w3.org/1999/xlink" version="1.1" width="1080" height="1080" viewBox="0 0 1080 1080" xml:space="preserve">
<desc>Created with Fabric.js 5.2.4</desc>
<defs>
</defs>
<rect x="0" y="0" width="100%" height="100%" fill="transparent"></rect>
<g transform="matrix(1 0 0 1 540 540)" id="56197b9e-9c44-43ef-8a4c-e43398921f46"  >
<rect style="stroke: none; stroke-width: 1; stroke-dasharray: none; stroke-linecap: butt; stroke-dashoffset: 0; stroke-linejoin: miter; stroke-miterlimit: 4; fill: rgb(255,255,255); fill-rule: nonzero; opacity: 1; visibility: hidden;" vector-effect="non-scaling-stroke"  x="-540" y="-540" rx="0" ry="0" width="1080" height="1080" />
</g>
<g transform="matrix(1 0 0 1 540 540)" id="8be19551-c0e5-4bde-8cfd-9207fe043817"  >
</g>
<g transform="matrix(1.08 0 0 1.08 540 540)" id="a229f459-5990-4512-a4d8-114b1609739c"  >
<path style="stroke: rgb(0,0,0); stroke-width: 0; stroke-dasharray: none; stroke-linecap: butt; stroke-dashoffset: 0; stroke-linejoin: miter; stroke-miterlimit: 4; fill: rgb(226,226,226); fill-rule: nonzero; opacity: 1;" vector-effect="non-scaling-stroke"  transform=" translate(-423.33, -423.33)" d="M 423.33 348.47 C 541.6 348.47 639.52 440.76000000000005 646.38 558.74 L 647.89 558.74 C 730.63 558.74 797.69 491.67 797.69 408.94 C 797.69 335.84000000000003 744.8100000000001 273.03999999999996 672.61 261.1 C 662.83 259.52000000000004 655.32 251.07000000000002 655.24 240.83 C 654.29 158.78000000000003 587.39 92.88000000000002 505.38 92.88000000000002 C 480.07 92.88000000000002 455.7 99.01000000000002 433.48 111.19000000000003 C 427.45000000000005 114.57000000000002 419.86 114.86000000000003 413.35 111.28000000000003 C 391.05 99.02000000000002 366.71000000000004 92.88000000000002 341.28000000000003 92.88000000000002 C 259.61 92.88000000000002 192.85000000000002 158.26000000000002 191.44000000000003 239.96000000000004 C 191.80000000000004 250.24000000000004 184.47000000000003 259.43000000000006 174.05 261.12000000000006 C 101.84000000000002 273.07000000000005 48.97000000000001 335.82000000000005 48.97000000000001 408.94000000000005 C 48.97000000000001 491.6700000000001 116.04 558.74 198.77000000000004 558.74 L 200.28000000000003 558.74 C 207.14000000000004 440.76 305.06000000000006 348.47 423.33000000000004 348.47 z M 644.98 600.3000000000001 C 630.86 711.6400000000001 535.76 795.34 423.33000000000004 795.34 C 310.90000000000003 795.34 215.80000000000004 711.64 201.68000000000004 600.3000000000001 L 198.77000000000004 600.3000000000001 C 93.09000000000003 600.3000000000001 7.410000000000025 514.6200000000001 7.410000000000025 408.94000000000005 C 7.410000000000025 321.71000000000004 66.59000000000003 245.41000000000005 150.95000000000002 223.69000000000005 C 160.60000000000002 126.02000000000005 242.99 51.32000000000005 341.28000000000003 51.32000000000005 C 369.5 51.32000000000005 397.86 57.67000000000005 423.33000000000004 69.80000000000005 C 448.85 57.650000000000055 477.12000000000006 51.32000000000005 505.38000000000005 51.32000000000005 C 603.6700000000001 51.32000000000005 686.0600000000001 126.02000000000005 695.71 223.69000000000005 C 780.07 245.41000000000005 839.25 321.71000000000004 839.25 408.94000000000005 C 839.25 514.6200000000001 753.58 600.3000000000001 647.89 600.3000000000001 L 644.98 600.3000000000001 z M 242.63 551.1300000000001 L 299.09 551.1300000000001 C 301.40999999999997 504.8700000000001 311.96 453.9100000000001 334.64 413.09000000000015 C 283.71 441.59000000000015 249.25 492.92000000000013 242.63 551.1300000000001 z M 340.69 551.1300000000001 L 402.55 551.1300000000001 L 402.55 396.4000000000001 C 359.57 422.8400000000001 343.19 505.3800000000001 340.69 551.1300000000001 z M 444.11 551.1300000000001 L 505.97 551.1300000000001 C 503.48 505.3800000000001 487.1 422.8300000000001 444.11 396.4000000000001 L 444.11 551.1300000000001 z M 547.57 551.1300000000001 L 604.0300000000001 551.1300000000001 C 597.4100000000001 492.9100000000001 562.96 441.60000000000014 512.0300000000001 413.09000000000015 C 534.71 453.9900000000001 545.2500000000001 504.79000000000013 547.57 551.1300000000001 z M 604.0300000000001 592.69 L 547.57 592.69 C 545.24 639.0400000000001 534.71 689.82 512.0200000000001 730.73 C 562.95 702.23 597.4100000000001 650.9 604.0300000000001 592.69 z M 505.9700000000001 592.69 L 444.11000000000007 592.69 L 444.11000000000007 747.4200000000001 C 487.1000000000001 720.98 503.4800000000001 638.44 505.9700000000001 592.69 z M 402.55000000000007 592.69 L 340.69000000000005 592.69 C 343.19000000000005 638.44 359.56000000000006 720.98 402.55000000000007 747.4200000000001 L 402.55000000000007 592.69 z M 299.0900000000001 592.69 L 242.63000000000008 592.69 C 249.25000000000009 650.9000000000001 283.7100000000001 702.23 334.6400000000001 730.73 C 311.9500000000001 689.82 301.4200000000001 639.04 299.0900000000001 592.69 z" stroke-linecap="round" />
</g>
</svg>