<?xml version="1.0" encoding="UTF-8" standalone="no" ?>
<!DOCTYPE svg PUBLIC "-//W3C//DTD SVG 1.1//EN" "http://www.w3.org/Graphics/SVG/1.1/DTD/svg11.dtd">
<svg xmlns="http://www.w3.org/2000/svg" xmlns:xlink="http://www.w3.org/1999/xlink" version="1.1" width="1080" height="1080" viewBox="0 0 1080 1080" xml:space="preserve">
<desc>Created with Fabric.js 5.2.4</desc>
<defs>
</defs>
<g transform="matrix(1 0 0 1 540 540)" id="56855988-abb9-4d2b-ab20-c05b2b65443a"  >
<rect style="stroke: none; stroke-width: 1; stroke-dasharray: none; stroke-linecap: butt; stroke-dashoffset: 0; stroke-linejoin: miter; stroke-miterlimit: 4; fill: rgb(255,255,255); fill-rule: nonzero; opacity: 1; visibility: hidden;" vector-effect="non-scaling-stroke"  x="-540" y="-540" rx="0" ry="0" width="1080" height="1080" />
</g>
<g transform="matrix(1 0 0 1 540 540)" id="5355581e-7eef-4970-8f06-792ce6107f9b"  >
</g>
<g transform="matrix(2.89 0 0 2.89 540 540)" id="5acdbbff-ff19-43ac-bc0d-e60416dbae64"  >
<path style="stroke: rgb(0,0,0); stroke-width: 0; stroke-dasharray: none; stroke-linecap: butt; stroke-dashoffset: 0; stroke-linejoin: miter; stroke-miterlimit: 4; fill: rgb(226,226,226); fill-rule: nonzero; opacity: 1;" vector-effect="non-scaling-stroke"  transform=" translate(-128, -128)" d="M 73.811 128 C 73.811 122.69800000000001 78.114 118.401 83.414 118.401 C 88.714 118.401 93.011 122.698 93.011 128 C 93.011 133.30200000000002 88.714 137.599 83.414 137.599 C 78.114 137.599 73.811 133.302 73.811 128 z M 130.026 137.599 C 135.32600000000002 137.599 139.62300000000002 133.302 139.62300000000002 127.99999999999999 C 139.62300000000002 122.69799999999998 135.32600000000002 118.40099999999998 130.026 118.40099999999998 C 124.726 118.40099999999998 120.42300000000002 122.69799999999998 120.42300000000002 127.99999999999999 C 120.42300000000002 133.302 124.727 137.599 130.026 137.599 z M 172.586 137.6 C 177.88600000000002 137.6 182.186 133.302 182.186 128 C 182.186 122.69800000000001 177.886 118.4 172.586 118.4 C 167.28600000000003 118.4 162.98600000000002 122.69800000000001 162.98600000000002 128 C 162.98600000000002 133.302 167.286 137.6 172.586 137.6 z M 256 128 C 256 57.42 198.58 0 128 0 C 57.42 0 0 57.42 0 128 C 0 198.57999999999998 57.42 256 128 256 C 198.58 256 256 198.58 256 128 z M 243.2 128 C 243.2 191.52100000000002 191.521 243.2 127.99999999999999 243.2 C 64.47799999999998 243.2 12.799999999999983 191.521 12.799999999999983 127.99999999999999 C 12.8 64.478 64.478 12.8 128 12.8 C 191.521 12.8 243.2 64.478 243.2 128 z" stroke-linecap="round" />
</g>
</svg>