<?xml version="1.0" encoding="UTF-8" standalone="no" ?>
<!DOCTYPE svg PUBLIC "-//W3C//DTD SVG 1.1//EN" "http://www.w3.org/Graphics/SVG/1.1/DTD/svg11.dtd">
<svg xmlns="http://www.w3.org/2000/svg" xmlns:xlink="http://www.w3.org/1999/xlink" version="1.1" width="1080" height="1080" viewBox="0 0 1080 1080" xml:space="preserve">
<desc>Created with Fabric.js 5.2.4</desc>
<defs>
</defs>
<rect x="0" y="0" width="100%" height="100%" fill="transparent"></rect>
<g transform="matrix(1 0 0 1 540 540)" id="298437f1-a7dc-4f62-b26b-1d0e98809458"  >
</g>
<g transform="matrix(1 0 0 1 540 540)" id="3c55bf1f-b274-4b21-816b-0aecf01378bf"  >
<rect style="stroke: none; stroke-width: 1; stroke-dasharray: none; stroke-linecap: butt; stroke-dashoffset: 0; stroke-linejoin: miter; stroke-miterlimit: 4; fill: rgb(255,255,255); fill-rule: nonzero; opacity: 1; visibility: hidden;" vector-effect="non-scaling-stroke"  x="-540" y="-540" rx="0" ry="0" width="1080" height="1080" />
</g>
<g transform="matrix(0.95 0 0 0.95 73.68 73.68)"  >
<rect style="stroke: none; stroke-width: 1; stroke-dasharray: none; stroke-linecap: butt; stroke-dashoffset: 0; stroke-linejoin: miter; stroke-miterlimit: 4; fill: rgb(255,255,255); fill-opacity: 0; fill-rule: nonzero; opacity: 1;" vector-effect="non-scaling-stroke"  x="-50" y="-50" rx="0" ry="0" width="100" height="100" />
</g>
<g transform="matrix(0.95 0 0 0.95 540 540)"  >
<rect style="stroke: none; stroke-width: 1; stroke-dasharray: none; stroke-linecap: butt; stroke-dashoffset: 0; stroke-linejoin: miter; stroke-miterlimit: 4; fill: rgb(255,255,255); fill-rule: nonzero; opacity: 1; visibility: hidden;" vector-effect="non-scaling-stroke"  x="-540" y="-540" rx="0" ry="0" width="1080" height="1080" />
</g>
<g transform="matrix(77.65 0 0 77.65 540 540)" id="e1f38ed8-4ace-4be3-a99f-e8f87a854925"  >
<path style="stroke: rgb(0,0,0); stroke-width: 0; stroke-dasharray: none; stroke-linecap: butt; stroke-dashoffset: 0; stroke-linejoin: miter; stroke-miterlimit: 4; fill: rgb(226,226,226); fill-rule: nonzero; opacity: 1;" vector-effect="non-scaling-stroke"  transform=" translate(-8, -8)" d="M 12.28592 11.7143 L 6.49472 5.92372 C 6.5899697139350035 5.682551566270084 6.6471784327542265 5.428050696608442 6.664300000000001 5.169320000000001 C 6.685274029517643 4.894295564774992 6.653108791281719 4.617804888032629 6.56956 4.354940000000002 C 6.466013807478441 4.011978081734517 6.277232941394154 3.7008548563355257 6.02085 3.450630000000001 C 5.557050328315082 2.983849552567685 4.917353245356944 2.735180794582715 4.26006 2.766160000000001 L 4.21515 2.766160000000001 C 3.9684887343915687 2.775254229896413 3.7253516584445157 2.827680228201665 3.4968600000000007 2.9210400000000005 L 4.59925 4.02518 L 4.91846 4.344939999999999 L 5.162909999999999 4.5897499999999996 C 5.159157469463776 4.8879916455347185 5.0838901046461 5.180978127820037 4.943429999999999 5.4441 C 4.909541949791419 5.495693355540447 4.871141270002445 5.544176932776408 4.828679999999999 5.588979999999999 C 4.540293596412765 5.807599384593356 4.187972399168679 5.925230717007888 3.826089999999999 5.923719999999999 L 2.609 4.70468 L 2.16005 4.255 C 2.09069619527335 4.429585216894829 2.0453850913682965 4.612784176383838 2.02536 4.79957 L 2.01036 4.9045000000000005 C 1.959799705329006 5.43988504067056 2.095451211488724 5.976324285041384 2.39443 6.42332 C 2.4811919192120575 6.552083918750858 2.5797178191860786 6.672517109997007 2.6887399999999997 6.78307 C 3.105860468216007 7.202100424581508 3.673761056521829 7.436104606699073 4.264999999999999 7.43257 C 4.572611955674445 7.431095797947045 4.877202661915214 7.371781533408853 5.16289 7.257720000000001 L 9.95648 12.054 L 11.158600000000002 13.25309 L 11.827 13.25309 L 12.49043 12.58859 L 12.49043 11.91909 Z M 5.750310000000001 8.9083 L 7.116510000000001 10.2745 L 4.12892 13.2621 L 3.20558 13.2621 L 2.75521 12.811720000000001 L 2.75521 11.8959 Z M 14 5.90569 L 12.19094 7.71475 L 10.89232 6.49869 L 9.5111 7.87992 L 8.1449 6.51372 L 9.51861 5.13249 L 7.89717 3.5111 L 8.58029 2.7379 L 10.83229 3.1883199999999996 Z" stroke-linecap="round" />
</g>
</svg>