<?xml version="1.0" encoding="UTF-8" standalone="no" ?>
<!DOCTYPE svg PUBLIC "-//W3C//DTD SVG 1.1//EN" "http://www.w3.org/Graphics/SVG/1.1/DTD/svg11.dtd">
<svg xmlns="http://www.w3.org/2000/svg" xmlns:xlink="http://www.w3.org/1999/xlink" version="1.1" width="1080" height="1080" viewBox="0 0 1080 1080" xml:space="preserve">
<desc>Created with Fabric.js 5.2.4</desc>
<defs>
</defs>
<g transform="matrix(1 0 0 1 540 540)" id="c47cad8e-c495-4021-9bd5-33f4f01b917b"  >
<rect style="stroke: none; stroke-width: 1; stroke-dasharray: none; stroke-linecap: butt; stroke-dashoffset: 0; stroke-linejoin: miter; stroke-miterlimit: 4; fill: rgb(255,255,255); fill-rule: nonzero; opacity: 1; visibility: hidden;" vector-effect="non-scaling-stroke"  x="-540" y="-540" rx="0" ry="0" width="1080" height="1080" />
</g>
<g transform="matrix(1 0 0 1 540 540)" id="57e2aaf7-9483-4291-9f53-bf20c4fd6d5f"  >
</g>
<g transform="matrix(1 0 0 1 50 50)"  >
<rect style="stroke: none; stroke-width: 1; stroke-dasharray: none; stroke-linecap: butt; stroke-dashoffset: 0; stroke-linejoin: miter; stroke-miterlimit: 4; fill: rgb(255,255,255); fill-opacity: 0; fill-rule: nonzero; opacity: 1;" vector-effect="non-scaling-stroke"  x="-50" y="-50" rx="0" ry="0" width="100" height="100" />
</g>
<g transform="matrix(1 0 0 1 540 540)"  >
<rect style="stroke: none; stroke-width: 1; stroke-dasharray: none; stroke-linecap: butt; stroke-dashoffset: 0; stroke-linejoin: miter; stroke-miterlimit: 4; fill: rgb(255,255,255); fill-rule: nonzero; opacity: 1; visibility: hidden;" vector-effect="non-scaling-stroke"  x="-540" y="-540" rx="0" ry="0" width="1080" height="1080" />
</g>
<g transform="matrix(13.69 0 0 13.69 540 540)"  >
<circle style="stroke: rgb(0,0,0); stroke-width: 0; stroke-dasharray: none; stroke-linecap: butt; stroke-dashoffset: 0; stroke-linejoin: miter; stroke-miterlimit: 4; fill: rgb(238,232,213); fill-rule: nonzero; opacity: 0.3;" vector-effect="non-scaling-stroke"  cx="0" cy="0" r="35" />
</g>
<g transform="matrix(1 0 0 1 50 50)"  >
<rect style="stroke: none; stroke-width: 1; stroke-dasharray: none; stroke-linecap: butt; stroke-dashoffset: 0; stroke-linejoin: miter; stroke-miterlimit: 4; fill: rgb(255,255,255); fill-opacity: 0; fill-rule: nonzero; opacity: 1;" vector-effect="non-scaling-stroke"  x="-50" y="-50" rx="0" ry="0" width="100" height="100" />
</g>
<g transform="matrix(1 0 0 1 540 540)"  >
<rect style="stroke: none; stroke-width: 1; stroke-dasharray: none; stroke-linecap: butt; stroke-dashoffset: 0; stroke-linejoin: miter; stroke-miterlimit: 4; fill: rgb(255,255,255); fill-rule: nonzero; opacity: 1; visibility: hidden;" vector-effect="non-scaling-stroke"  x="-540" y="-540" rx="0" ry="0" width="1080" height="1080" />
</g>
<g transform="matrix(1 0 0 1 50 50)"  >
<rect style="stroke: none; stroke-width: 1; stroke-dasharray: none; stroke-linecap: butt; stroke-dashoffset: 0; stroke-linejoin: miter; stroke-miterlimit: 4; fill: rgb(255,255,255); fill-opacity: 0; fill-rule: nonzero; opacity: 1;" vector-effect="non-scaling-stroke"  x="-50" y="-50" rx="0" ry="0" width="100" height="100" />
</g>
<g transform="matrix(1 0 0 1 540 540)"  >
<rect style="stroke: none; stroke-width: 1; stroke-dasharray: none; stroke-linecap: butt; stroke-dashoffset: 0; stroke-linejoin: miter; stroke-miterlimit: 4; fill: rgb(255,255,255); fill-rule: nonzero; opacity: 1; visibility: hidden;" vector-effect="non-scaling-stroke"  x="-540" y="-540" rx="0" ry="0" width="1080" height="1080" />
</g>
<g transform="matrix(1 0 0 1 50 50)"  >
<rect style="stroke: none; stroke-width: 1; stroke-dasharray: none; stroke-linecap: butt; stroke-dashoffset: 0; stroke-linejoin: miter; stroke-miterlimit: 4; fill: rgb(255,255,255); fill-opacity: 0; fill-rule: nonzero; opacity: 1;" vector-effect="non-scaling-stroke"  x="-50" y="-50" rx="0" ry="0" width="100" height="100" />
</g>
<g transform="matrix(1 0 0 1 540 540)"  >
<rect style="stroke: none; stroke-width: 1; stroke-dasharray: none; stroke-linecap: butt; stroke-dashoffset: 0; stroke-linejoin: miter; stroke-miterlimit: 4; fill: rgb(255,255,255); fill-rule: nonzero; opacity: 1; visibility: hidden;" vector-effect="non-scaling-stroke"  x="-540" y="-540" rx="0" ry="0" width="1080" height="1080" />
</g>
<g transform="matrix(1 0 0 1 50 50)"  >
<rect style="stroke: none; stroke-width: 1; stroke-dasharray: none; stroke-linecap: butt; stroke-dashoffset: 0; stroke-linejoin: miter; stroke-miterlimit: 4; fill: rgb(255,255,255); fill-opacity: 0; fill-rule: nonzero; opacity: 1;" vector-effect="non-scaling-stroke"  x="-50" y="-50" rx="0" ry="0" width="100" height="100" />
</g>
<g transform="matrix(1 0 0 1 540 540)"  >
<rect style="stroke: none; stroke-width: 1; stroke-dasharray: none; stroke-linecap: butt; stroke-dashoffset: 0; stroke-linejoin: miter; stroke-miterlimit: 4; fill: rgb(255,255,255); fill-rule: nonzero; opacity: 1; visibility: hidden;" vector-effect="non-scaling-stroke"  x="-540" y="-540" rx="0" ry="0" width="1080" height="1080" />
</g>
<g transform="matrix(1 0 0 1 50 50)"  >
<rect style="stroke: none; stroke-width: 1; stroke-dasharray: none; stroke-linecap: butt; stroke-dashoffset: 0; stroke-linejoin: miter; stroke-miterlimit: 4; fill: rgb(255,255,255); fill-opacity: 0; fill-rule: nonzero; opacity: 1;" vector-effect="non-scaling-stroke"  x="-50" y="-50" rx="0" ry="0" width="100" height="100" />
</g>
<g transform="matrix(1 0 0 1 540 540)"  >
<rect style="stroke: none; stroke-width: 1; stroke-dasharray: none; stroke-linecap: butt; stroke-dashoffset: 0; stroke-linejoin: miter; stroke-miterlimit: 4; fill: rgb(255,255,255); fill-rule: nonzero; opacity: 1; visibility: hidden;" vector-effect="non-scaling-stroke"  x="-540" y="-540" rx="0" ry="0" width="1080" height="1080" />
</g>
<g transform="matrix(1 0 0 1 50 50)"  >
<rect style="stroke: none; stroke-width: 1; stroke-dasharray: none; stroke-linecap: butt; stroke-dashoffset: 0; stroke-linejoin: miter; stroke-miterlimit: 4; fill: rgb(255,255,255); fill-opacity: 0; fill-rule: nonzero; opacity: 1;" vector-effect="non-scaling-stroke"  x="-50" y="-50" rx="0" ry="0" width="100" height="100" />
</g>
<g transform="matrix(1 0 0 1 540 540)"  >
<rect style="stroke: none; stroke-width: 1; stroke-dasharray: none; stroke-linecap: butt; stroke-dashoffset: 0; stroke-linejoin: miter; stroke-miterlimit: 4; fill: rgb(255,255,255); fill-rule: nonzero; opacity: 1; visibility: hidden;" vector-effect="non-scaling-stroke"  x="-540" y="-540" rx="0" ry="0" width="1080" height="1080" />
</g>
<g transform="matrix(1 0 0 1 50 50)"  >
<rect style="stroke: none; stroke-width: 1; stroke-dasharray: none; stroke-linecap: butt; stroke-dashoffset: 0; stroke-linejoin: miter; stroke-miterlimit: 4; fill: rgb(255,255,255); fill-opacity: 0; fill-rule: nonzero; opacity: 1;" vector-effect="non-scaling-stroke"  x="-50" y="-50" rx="0" ry="0" width="100" height="100" />
</g>
<g transform="matrix(1 0 0 1 540 540)"  >
<rect style="stroke: none; stroke-width: 1; stroke-dasharray: none; stroke-linecap: butt; stroke-dashoffset: 0; stroke-linejoin: miter; stroke-miterlimit: 4; fill: rgb(255,255,255); fill-rule: nonzero; opacity: 1; visibility: hidden;" vector-effect="non-scaling-stroke"  x="-540" y="-540" rx="0" ry="0" width="1080" height="1080" />
</g>
<g transform="matrix(9.95 0 0 9.95 540 471.39)"  >
<linearGradient id="SVGID_SVGID_linearGradient856_9_3" gradientUnits="userSpaceOnUse" gradientTransform="matrix(1 0 0 1 2 1.66)"  x1="51" y1="40" x2="50.862003" y2="5.8426123">
<stop offset="0%" style="stop-color:rgb(220,50,47);stop-opacity: 1"/>
<stop offset="50%" style="stop-color:rgb(203,75,22);stop-opacity: 0.49803922"/>
<stop offset="75%" style="stop-color:rgb(181,137,0);stop-opacity: 0.24705882"/>
<stop offset="100%" style="stop-color:rgb(255,255,255);stop-opacity: 0"/>
</linearGradient>
<path style="stroke: url(#SVGID_SVGID_linearGradient856_9_3); stroke-width: 3.00001; stroke-dasharray: none; stroke-linecap: round; stroke-dashoffset: 0; stroke-linejoin: round; stroke-miterlimit: 4; fill: none; fill-rule: evenodd; opacity: 1;" vector-effect="non-scaling-stroke"  transform=" translate(-32, -23.6)" d="M 32 39.709856 C 32 39.709856 34.844819 31.86634 34.844819 28.973239 C 34.844819 25.887266 29.155181 21.451178 29.155181 18.236621999999997 C 29.155181 15.343522 32 7.500005 32 7.500005" stroke-linecap="round" />
</g>
<g transform="matrix(9.95 0 0 9.95 643.79 471.39)"  >
<linearGradient id="SVGID_SVGID_linearGradient858_10_4" gradientUnits="userSpaceOnUse" gradientTransform="matrix(1 0 0 1 2 1.66)"  x1="51" y1="40" x2="50.862003" y2="5.8426123">
<stop offset="0%" style="stop-color:rgb(220,50,47);stop-opacity: 1"/>
<stop offset="50%" style="stop-color:rgb(203,75,22);stop-opacity: 0.49803922"/>
<stop offset="75%" style="stop-color:rgb(181,137,0);stop-opacity: 0.24705882"/>
<stop offset="100%" style="stop-color:rgb(255,255,255);stop-opacity: 0"/>
</linearGradient>
<path style="stroke: url(#SVGID_SVGID_linearGradient858_10_4); stroke-width: 3.00001; stroke-dasharray: none; stroke-linecap: round; stroke-dashoffset: 0; stroke-linejoin: round; stroke-miterlimit: 4; fill: none; fill-rule: evenodd; opacity: 1;" vector-effect="non-scaling-stroke"  transform=" translate(-42.43, -23.6)" d="M 42.431002 39.709856 C 42.431002 39.709856 45.275819999999996 31.86634 45.275819999999996 28.973239 C 45.275819999999996 25.887266 39.586183 21.451178 39.586183 18.236621999999997 C 39.586183 15.343521999999997 42.431002 7.500004999999996 42.431002 7.500004999999996" stroke-linecap="round" />
</g>
<g transform="matrix(9.95 0 0 9.95 436.21 471.39)"  >
<linearGradient id="SVGID_SVGID_linearGradient860_11_5" gradientUnits="userSpaceOnUse" gradientTransform="matrix(1 0 0 1 2 1.66)"  x1="51" y1="40" x2="50.862003" y2="5.8426123">
<stop offset="0%" style="stop-color:rgb(220,50,47);stop-opacity: 1"/>
<stop offset="50%" style="stop-color:rgb(203,75,22);stop-opacity: 0.49803922"/>
<stop offset="75%" style="stop-color:rgb(181,137,0);stop-opacity: 0.24705882"/>
<stop offset="100%" style="stop-color:rgb(255,255,255);stop-opacity: 0"/>
</linearGradient>
<path style="stroke: url(#SVGID_SVGID_linearGradient860_11_5); stroke-width: 3.00001; stroke-dasharray: none; stroke-linecap: round; stroke-dashoffset: 0; stroke-linejoin: round; stroke-miterlimit: 4; fill: none; fill-rule: evenodd; opacity: 1;" vector-effect="non-scaling-stroke"  transform=" translate(-21.57, -23.6)" d="M 21.568998 39.709856 C 21.568998 39.709856 24.413816 31.86634 24.413816 28.973239 C 24.413816 25.887266 18.724179 21.451178 18.724179 18.236621999999997 C 18.724179 15.343521999999997 21.568998 7.500004999999996 21.568998 7.500004999999996" stroke-linecap="round" />
</g>
<g transform="matrix(9.95 0 0 9.95 747.58 471.39)"  >
<linearGradient id="SVGID_SVGID_linearGradient862_12_6" gradientUnits="userSpaceOnUse" gradientTransform="matrix(1 0 0 1 2 1.66)"  x1="51" y1="40" x2="50.862003" y2="5.8426123">
<stop offset="0%" style="stop-color:rgb(220,50,47);stop-opacity: 1"/>
<stop offset="50%" style="stop-color:rgb(203,75,22);stop-opacity: 0.49803922"/>
<stop offset="75%" style="stop-color:rgb(181,137,0);stop-opacity: 0.24705882"/>
<stop offset="100%" style="stop-color:rgb(255,255,255);stop-opacity: 0"/>
</linearGradient>
<path style="stroke: url(#SVGID_SVGID_linearGradient862_12_6); stroke-width: 3.00001; stroke-dasharray: none; stroke-linecap: round; stroke-dashoffset: 0; stroke-linejoin: round; stroke-miterlimit: 4; fill: none; fill-rule: evenodd; opacity: 1;" vector-effect="non-scaling-stroke"  transform=" translate(-52.86, -23.6)" d="M 52.862003 39.709856 C 52.862003 39.709856 55.706822 31.86634 55.706822 28.973239 C 55.706822 25.887266 50.017184 21.451178 50.017184 18.236621999999997 C 50.017184 15.343521999999997 52.862003 7.500004999999996 52.862003 7.500004999999996" stroke-linecap="round" />
</g>
<g transform="matrix(9.95 0 0 9.95 332.42 471.39)"  >
<linearGradient id="SVGID_SVGID_linearGradient945_13_7" gradientUnits="userSpaceOnUse" gradientTransform="matrix(1 0 0 1 2 1.66)"  x1="51" y1="40" x2="50.862003" y2="5.8426123">
<stop offset="0%" style="stop-color:rgb(220,50,47);stop-opacity: 1"/>
<stop offset="50%" style="stop-color:rgb(203,75,22);stop-opacity: 0.49803922"/>
<stop offset="75%" style="stop-color:rgb(181,137,0);stop-opacity: 0.24705882"/>
<stop offset="100%" style="stop-color:rgb(255,255,255);stop-opacity: 0"/>
</linearGradient>
<path style="stroke: url(#SVGID_SVGID_linearGradient945_13_7); stroke-width: 3.00001; stroke-dasharray: none; stroke-linecap: round; stroke-dashoffset: 0; stroke-linejoin: round; stroke-miterlimit: 4; fill: none; fill-rule: evenodd; opacity: 1;" vector-effect="non-scaling-stroke"  transform=" translate(-11.14, -23.6)" d="M 11.137997 39.709856 C 11.137997 39.709856 13.982815 31.86634 13.982815 28.973239 C 13.982815 25.887266 8.2931782 21.451178 8.2931782 18.236621999999997 C 8.2931782 15.343521999999997 11.137997 7.500004999999996 11.137997 7.500004999999996" stroke-linecap="round" />
</g>
<g transform="matrix(9.95 0 0 9.95 341 753.92)"  >
<rect style="stroke: none; stroke-width: 2; stroke-dasharray: none; stroke-linecap: round; stroke-dashoffset: 0; stroke-linejoin: round; stroke-miterlimit: 4; fill: rgb(147,161,161); fill-rule: nonzero; opacity: 0.995;" vector-effect="non-scaling-stroke"  paint-order="stroke"  x="-3" y="-2" rx="1.9999998" ry="2" width="6" height="4" />
</g>
<g transform="matrix(9.95 0 0 9.95 739 753.92)"  >
<rect style="stroke: none; stroke-width: 2; stroke-dasharray: none; stroke-linecap: round; stroke-dashoffset: 0; stroke-linejoin: round; stroke-miterlimit: 4; fill: rgb(147,161,161); fill-rule: nonzero; opacity: 0.995;" vector-effect="non-scaling-stroke"  paint-order="stroke"  x="-3" y="-2" rx="1.9999998" ry="2" width="6" height="4" />
</g>
<g transform="matrix(9.95 0 0 9.95 540 709.15)"  >
<rect style="stroke: none; stroke-width: 2.00001; stroke-dasharray: none; stroke-linecap: round; stroke-dashoffset: 0; stroke-linejoin: round; stroke-miterlimit: 4; fill: rgb(131,148,150); fill-rule: nonzero; opacity: 0.995;" vector-effect="non-scaling-stroke"  paint-order="stroke"  x="-27.5" y="-3.5" rx="2" ry="2" width="55" height="7" />
</g>
<g transform="matrix(9.95 0 0 9.95 540 684.27)"  >
<rect style="stroke: none; stroke-width: 2.00001; stroke-dasharray: none; stroke-linecap: round; stroke-dashoffset: 0; stroke-linejoin: round; stroke-miterlimit: 4; fill: rgb(88,110,117); fill-rule: nonzero; opacity: 0.995;" vector-effect="non-scaling-stroke"  paint-order="stroke"  x="-27.5" y="-1" rx="0" ry="0" width="55" height="2" />
</g>
</svg>