<?xml version="1.0" encoding="UTF-8" standalone="no" ?>
<!DOCTYPE svg PUBLIC "-//W3C//DTD SVG 1.1//EN" "http://www.w3.org/Graphics/SVG/1.1/DTD/svg11.dtd">
<svg xmlns="http://www.w3.org/2000/svg" xmlns:xlink="http://www.w3.org/1999/xlink" version="1.1" width="1080" height="1080" viewBox="0 0 1080 1080" xml:space="preserve">
<desc>Created with Fabric.js 5.2.4</desc>
<defs>
</defs>
<rect x="0" y="0" width="100%" height="100%" fill="transparent"></rect>
<g transform="matrix(1 0 0 1 540 540)" id="e0f98009-2fc4-4f58-816e-b3d4b6a48888"  >
<rect style="stroke: none; stroke-width: 1; stroke-dasharray: none; stroke-linecap: butt; stroke-dashoffset: 0; stroke-linejoin: miter; stroke-miterlimit: 4; fill: rgb(255,255,255); fill-rule: nonzero; opacity: 1; visibility: hidden;" vector-effect="non-scaling-stroke"  x="-540" y="-540" rx="0" ry="0" width="1080" height="1080" />
</g>
<g transform="matrix(1 0 0 1 540 540)" id="3e55ed4e-3f1f-4064-b177-59fac91111b4"  >
</g>
<g transform="matrix(1 0 0 1 50 50)"  >
<rect style="stroke: none; stroke-width: 1; stroke-dasharray: none; stroke-linecap: butt; stroke-dashoffset: 0; stroke-linejoin: miter; stroke-miterlimit: 4; fill: rgb(255,255,255); fill-opacity: 0; fill-rule: nonzero; opacity: 1;" vector-effect="non-scaling-stroke"  x="-50" y="-50" rx="0" ry="0" width="100" height="100" />
</g>
<g transform="matrix(1 0 0 1 540 540)"  >
<rect style="stroke: none; stroke-width: 1; stroke-dasharray: none; stroke-linecap: butt; stroke-dashoffset: 0; stroke-linejoin: miter; stroke-miterlimit: 4; fill: rgb(255,255,255); fill-rule: nonzero; opacity: 1; visibility: hidden;" vector-effect="non-scaling-stroke"  x="-540" y="-540" rx="0" ry="0" width="1080" height="1080" />
</g>
<g transform="matrix(0 0 0 0 0 0)"  >
<g style=""   >
</g>
</g>
<g transform="matrix(0 0 0 0 0 0)"  >
<g style=""   >
</g>
</g>
<g transform="matrix(0 0 0 0 0 0)"  >
<g style=""   >
</g>
</g>
<g transform="matrix(0 0 0 0 0 0)"  >
<g style=""   >
</g>
</g>
<g transform="matrix(16.15 0 0 16.15 540.08 725.05)" id="rect1033"  >
<rect style="stroke: none; stroke-width: 2; stroke-dasharray: none; stroke-linecap: round; stroke-dashoffset: 0; stroke-linejoin: round; stroke-miterlimit: 4; fill: rgb(131,148,150); fill-rule: nonzero; opacity: 1;" vector-effect="non-scaling-stroke"  x="-25" y="-9" rx="0" ry="0" width="50" height="18" />
</g>
<g transform="matrix(16.15 0 0 16.15 541.25 725.05)" id="rect1035"  >
<rect style="stroke: none; stroke-width: 2; stroke-dasharray: none; stroke-linecap: round; stroke-dashoffset: 0; stroke-linejoin: round; stroke-miterlimit: 4; fill: rgb(147,161,161); fill-rule: nonzero; opacity: 1;" vector-effect="non-scaling-stroke"  x="-12.5" y="-9" rx="0" ry="0" width="25" height="18" />
</g>
<g transform="matrix(16.15 0 0 16.15 540.03 951.1)"  >
<path style="stroke: none; stroke-width: 1; stroke-dasharray: none; stroke-linecap: butt; stroke-dashoffset: 0; stroke-linejoin: miter; stroke-miterlimit: 4; fill: rgb(88,110,117); fill-rule: nonzero; opacity: 1;" vector-effect="non-scaling-stroke"  transform=" translate(-32, -55.42)" d="M 19.5 50.41787 L 44.5 50.41787 L 36.163091 60.41787 L 27.836909000000002 60.41787 z" stroke-linecap="round" />
</g>
<g transform="matrix(16.15 0 0 16.15 541.27 498.99)" id="rect1039"  >
<rect style="stroke: none; stroke-width: 2; stroke-dasharray: none; stroke-linecap: round; stroke-dashoffset: 0; stroke-linejoin: round; stroke-miterlimit: 4; fill: rgb(101,123,131); fill-rule: nonzero; opacity: 1;" vector-effect="non-scaling-stroke"  x="-16" y="-5" rx="0" ry="0" width="32" height="10" />
</g>
<g transform="matrix(16.15 0 0 16.15 541.28 337.52)" id="rect1055"  >
<rect style="stroke: none; stroke-width: 2; stroke-dasharray: none; stroke-linecap: round; stroke-dashoffset: 0; stroke-linejoin: round; stroke-miterlimit: 4; fill: rgb(88,110,117); fill-rule: nonzero; opacity: 1;" vector-effect="non-scaling-stroke"  x="-22.5" y="-5" rx="2" ry="2" width="45" height="10" />
</g>
<g transform="matrix(16.15 0 0 16.15 541.28 208.34)" id="rect1065"  >
<rect style="stroke: none; stroke-width: 2; stroke-dasharray: none; stroke-linecap: round; stroke-dashoffset: 0; stroke-linejoin: round; stroke-miterlimit: 4; fill: rgb(88,110,117); fill-rule: nonzero; opacity: 1;" vector-effect="non-scaling-stroke"  x="-22.5" y="-5" rx="0" ry="0" width="45" height="10" />
</g>
<g transform="matrix(16.15 0 0 16.15 540.05 310.62)" id="circle46"  >
<circle style="stroke: none; stroke-width: 2; stroke-dasharray: none; stroke-linecap: butt; stroke-dashoffset: 0; stroke-linejoin: miter; stroke-miterlimit: 4; fill: rgb(238,232,213); fill-rule: evenodd; opacity: 1;" vector-effect="non-scaling-stroke"  cx="0" cy="0" r="15.75" />
</g>
<g transform="matrix(NaN NaN NaN NaN 0 0)"  >
<g style=""   >
</g>
</g>
<g transform="matrix(0.93 0 0 0.93 540 306.97)" id="6fe17f9f-3225-4924-91d7-21658b41f5b0"  >
<path style="stroke: rgb(0,0,0); stroke-width: 0; stroke-dasharray: none; stroke-linecap: butt; stroke-dashoffset: 0; stroke-linejoin: miter; stroke-miterlimit: 4; fill: rgb(7,54,66); fill-rule: nonzero; opacity: 1;" vector-effect="non-scaling-stroke"  transform=" translate(-160, -256)" d="M 167.7 160.8 L 232.35 84.74000000000001 C 243.82 71.29 242.162 51.08000000000001 228.694 39.650000000000006 C 222.7 34.51 215.3 32.01 208 32.01 C 198.938 32.01 189.94 35.842999999999996 183.62 43.3 C 38.07 214.5 0 245.5 0 320 C 0 408.22 71.78 480 160 480 C 248.22 480 320 408.22 320 320 C 320 234.4 252.3 164.9 167.7 160.8 z M 160 416 C 107.06 416 64 372.94 64 320 C 64 267.06 107.06 224.9 160 224.9 C 212.94 224.9 256 267.96000000000004 256 320 C 256 372.03999999999996 212.9 416 160 416 z" stroke-linecap="round" />
</g>
<g transform="matrix(NaN NaN NaN NaN 0 0)"  >
<g style=""   >
</g>
</g>
</svg>