<?xml version="1.0" encoding="UTF-8" standalone="no" ?>
<!DOCTYPE svg PUBLIC "-//W3C//DTD SVG 1.1//EN" "http://www.w3.org/Graphics/SVG/1.1/DTD/svg11.dtd">
<svg xmlns="http://www.w3.org/2000/svg" xmlns:xlink="http://www.w3.org/1999/xlink" version="1.1" width="1080" height="1080" viewBox="0 0 1080 1080" xml:space="preserve">
<desc>Created with Fabric.js 5.2.4</desc>
<defs>
</defs>
<rect x="0" y="0" width="100%" height="100%" fill="transparent"></rect>
<g transform="matrix(1 0 0 1 540 540)" id="e0f98009-2fc4-4f58-816e-b3d4b6a48888"  >
<rect style="stroke: none; stroke-width: 1; stroke-dasharray: none; stroke-linecap: butt; stroke-dashoffset: 0; stroke-linejoin: miter; stroke-miterlimit: 4; fill: rgb(255,255,255); fill-rule: nonzero; opacity: 1; visibility: hidden;" vector-effect="non-scaling-stroke"  x="-540" y="-540" rx="0" ry="0" width="1080" height="1080" />
</g>
<g transform="matrix(1 0 0 1 540 540)" id="3e55ed4e-3f1f-4064-b177-59fac91111b4"  >
</g>
<g transform="matrix(1 0 0 1 50 50)"  >
<rect style="stroke: none; stroke-width: 1; stroke-dasharray: none; stroke-linecap: butt; stroke-dashoffset: 0; stroke-linejoin: miter; stroke-miterlimit: 4; fill: rgb(255,255,255); fill-opacity: 0; fill-rule: nonzero; opacity: 1;" vector-effect="non-scaling-stroke"  x="-50" y="-50" rx="0" ry="0" width="100" height="100" />
</g>
<g transform="matrix(1 0 0 1 540 540)"  >
<rect style="stroke: none; stroke-width: 1; stroke-dasharray: none; stroke-linecap: butt; stroke-dashoffset: 0; stroke-linejoin: miter; stroke-miterlimit: 4; fill: rgb(255,255,255); fill-rule: nonzero; opacity: 1; visibility: hidden;" vector-effect="non-scaling-stroke"  x="-540" y="-540" rx="0" ry="0" width="1080" height="1080" />
</g>
<g transform="matrix(0 0 0 0 0 0)"  >
<g style=""   >
</g>
</g>
<g transform="matrix(0 0 0 0 0 0)"  >
<g style=""   >
</g>
</g>
<g transform="matrix(0 0 0 0 0 0)"  >
<g style=""   >
</g>
</g>
<g transform="matrix(0 0 0 0 0 0)"  >
<g style=""   >
</g>
</g>
<g transform="matrix(16.15 0 0 16.15 540.08 725.05)" id="rect1033"  >
<rect style="stroke: none; stroke-width: 2; stroke-dasharray: none; stroke-linecap: round; stroke-dashoffset: 0; stroke-linejoin: round; stroke-miterlimit: 4; fill: rgb(131,148,150); fill-rule: nonzero; opacity: 1;" vector-effect="non-scaling-stroke"  x="-25" y="-9" rx="0" ry="0" width="50" height="18" />
</g>
<g transform="matrix(16.15 0 0 16.15 541.25 725.05)" id="rect1035"  >
<rect style="stroke: none; stroke-width: 2; stroke-dasharray: none; stroke-linecap: round; stroke-dashoffset: 0; stroke-linejoin: round; stroke-miterlimit: 4; fill: rgb(147,161,161); fill-rule: nonzero; opacity: 1;" vector-effect="non-scaling-stroke"  x="-12.5" y="-9" rx="0" ry="0" width="25" height="18" />
</g>
<g transform="matrix(16.15 0 0 16.15 540.03 951.1)"  >
<path style="stroke: none; stroke-width: 1; stroke-dasharray: none; stroke-linecap: butt; stroke-dashoffset: 0; stroke-linejoin: miter; stroke-miterlimit: 4; fill: rgb(88,110,117); fill-rule: nonzero; opacity: 1;" vector-effect="non-scaling-stroke"  transform=" translate(-32, -55.42)" d="M 19.5 50.41787 L 44.5 50.41787 L 36.163091 60.41787 L 27.836909000000002 60.41787 z" stroke-linecap="round" />
</g>
<g transform="matrix(16.15 0 0 16.15 541.27 498.99)" id="rect1039"  >
<rect style="stroke: none; stroke-width: 2; stroke-dasharray: none; stroke-linecap: round; stroke-dashoffset: 0; stroke-linejoin: round; stroke-miterlimit: 4; fill: rgb(101,123,131); fill-rule: nonzero; opacity: 1;" vector-effect="non-scaling-stroke"  x="-16" y="-5" rx="0" ry="0" width="32" height="10" />
</g>
<g transform="matrix(16.15 0 0 16.15 541.28 337.52)" id="rect1055"  >
<rect style="stroke: none; stroke-width: 2; stroke-dasharray: none; stroke-linecap: round; stroke-dashoffset: 0; stroke-linejoin: round; stroke-miterlimit: 4; fill: rgb(88,110,117); fill-rule: nonzero; opacity: 1;" vector-effect="non-scaling-stroke"  x="-22.5" y="-5" rx="2" ry="2" width="45" height="10" />
</g>
<g transform="matrix(16.15 0 0 16.15 541.28 208.34)" id="rect1065"  >
<rect style="stroke: none; stroke-width: 2; stroke-dasharray: none; stroke-linecap: round; stroke-dashoffset: 0; stroke-linejoin: round; stroke-miterlimit: 4; fill: rgb(88,110,117); fill-rule: nonzero; opacity: 1;" vector-effect="non-scaling-stroke"  x="-22.5" y="-5" rx="0" ry="0" width="45" height="10" />
</g>
<g transform="matrix(16.15 0 0 16.15 540.05 310.62)" id="circle46"  >
<circle style="stroke: none; stroke-width: 2; stroke-dasharray: none; stroke-linecap: butt; stroke-dashoffset: 0; stroke-linejoin: miter; stroke-miterlimit: 4; fill: rgb(238,232,213); fill-rule: evenodd; opacity: 1;" vector-effect="non-scaling-stroke"  cx="0" cy="0" r="15.75" />
</g>
<g transform="matrix(0.85 0 0 0.85 540 306.73)" id="acc0dd3a-7721-488f-afdf-0b7a12f82999"  >
<path style="stroke: rgb(0,0,0); stroke-width: 0; stroke-dasharray: none; stroke-linecap: butt; stroke-dashoffset: 0; stroke-linejoin: miter; stroke-miterlimit: 4; fill: rgb(7,54,66); fill-rule: nonzero; opacity: 1;" vector-effect="non-scaling-stroke"  transform=" translate(-160, -256)" d="M 320 344.6 C 320 419.26 259.27 480 184.6 480 L 104.7 480 C 57.89 480 16.480000000000004 450.17 1.7000000000000028 405.77 C -3.8939999999999975 389 5.169000000000002 370.88 21.930000000000003 365.28999999999996 C 38.760000000000005 359.66499999999996 56.84 368.75899999999996 62.41 385.52 C 68.488 403.75 85.49 416 104.71 416 L 184.66 416 C 224.01999999999998 416 256.05 383.97 256.05 344.61 C 256.05 305.25 224.02 273.23 184.66000000000003 273.23 L 32 273.23 C 22.516 273.23 13.530000000000001 269.02700000000004 7.440000000000001 261.75 C 1.359 254.5 -1.172 244.9 0.5156 235.6 L 32.5156 58.400000000000006 C 35.27 43.09 48.52 32.01 64 32.01 L 256 32.0149 C 273.67 32.0149 288 46.344899999999996 288 64.0149 C 288 81.6849 273.67 96.0149 256 96.0149 L 90.73 96.0149 L 70.3 209.2 L 184.6 209.2 C 259.3 209.2 320 269.1 320 344.6 z" stroke-linecap="round" />
</g>
<g transform="matrix(NaN NaN NaN NaN 0 0)"  >
<g style=""   >
</g>
</g>
</svg>