<?xml version="1.0" encoding="UTF-8" standalone="no" ?>
<!DOCTYPE svg PUBLIC "-//W3C//DTD SVG 1.1//EN" "http://www.w3.org/Graphics/SVG/1.1/DTD/svg11.dtd">
<svg xmlns="http://www.w3.org/2000/svg" xmlns:xlink="http://www.w3.org/1999/xlink" version="1.1" width="1080" height="1080" viewBox="0 0 1080 1080" xml:space="preserve">
<desc>Created with Fabric.js 5.2.4</desc>
<defs>
</defs>
<rect x="0" y="0" width="100%" height="100%" fill="transparent"></rect>
<g transform="matrix(1 0 0 1 540 540)" id="2c62e66d-b566-42d2-8dc1-1f5cd3996ae2"  >
</g>
<g transform="matrix(1 0 0 1 540 540)" id="16e2ed21-42f5-4f75-8d61-295ca47ddc35"  >
<rect style="stroke: none; stroke-width: 1; stroke-dasharray: none; stroke-linecap: butt; stroke-dashoffset: 0; stroke-linejoin: miter; stroke-miterlimit: 4; fill: rgb(255,255,255); fill-rule: nonzero; opacity: 1; visibility: hidden;" vector-effect="non-scaling-stroke"  x="-540" y="-540" rx="0" ry="0" width="1080" height="1080" />
</g>
<g transform="matrix(16.71 0 0 16.71 868.03 868.89)"  >
<path style="stroke: rgb(0,0,0); stroke-width: 0; stroke-dasharray: none; stroke-linecap: butt; stroke-dashoffset: 0; stroke-linejoin: miter; stroke-miterlimit: 4; fill: rgb(238,232,213); fill-rule: nonzero; opacity: 1;" vector-effect="non-scaling-stroke"  transform=" translate(-12, -12)" d="M 20 14 L 14 14 L 14 20 L 10 20 L 10 14 L 4 14 L 4 10 L 10 10 L 10 4 L 14 4 L 14 10 L 20 10 L 20 14 Z" stroke-linecap="round" />
</g>
<g transform="matrix(1 0 0 1 76.17 34.91)"  >
<rect style="stroke: none; stroke-width: 1; stroke-dasharray: none; stroke-linecap: butt; stroke-dashoffset: 0; stroke-linejoin: miter; stroke-miterlimit: 4; fill: rgb(255,255,255); fill-opacity: 0; fill-rule: nonzero; opacity: 1;" vector-effect="non-scaling-stroke"  x="-50" y="-50" rx="0" ry="0" width="100" height="100" />
</g>
<g transform="matrix(1 0 0 1 566.17 524.91)"  >
<rect style="stroke: none; stroke-width: 1; stroke-dasharray: none; stroke-linecap: butt; stroke-dashoffset: 0; stroke-linejoin: miter; stroke-miterlimit: 4; fill: rgb(255,255,255); fill-rule: nonzero; opacity: 1; visibility: hidden;" vector-effect="non-scaling-stroke"  x="-540" y="-540" rx="0" ry="0" width="1080" height="1080" />
</g>
<g transform="matrix(1 0 0 1 23.83 65.08)"  >
<rect style="stroke: none; stroke-width: 1; stroke-dasharray: none; stroke-linecap: butt; stroke-dashoffset: 0; stroke-linejoin: miter; stroke-miterlimit: 4; fill: rgb(34,30,30); fill-opacity: 0; fill-rule: nonzero; opacity: 1;" vector-effect="non-scaling-stroke"  x="-50" y="-50" rx="0" ry="0" width="100" height="100" />
</g>
<g transform="matrix(1 0 0 1 513.83 555.08)"  >
<rect style="stroke: none; stroke-width: 1; stroke-dasharray: none; stroke-linecap: butt; stroke-dashoffset: 0; stroke-linejoin: miter; stroke-miterlimit: 4; fill: rgb(34,30,30); fill-opacity: 0; fill-rule: nonzero; opacity: 1; visibility: hidden;" vector-effect="non-scaling-stroke"  x="-540" y="-540" rx="0" ry="0" width="1080" height="1080" />
</g>
<g transform="matrix(1 0 0 1 76.17 34.91)"  >
<rect style="stroke: none; stroke-width: 1; stroke-dasharray: none; stroke-linecap: butt; stroke-dashoffset: 0; stroke-linejoin: miter; stroke-miterlimit: 4; fill: rgb(255,255,255); fill-opacity: 0; fill-rule: nonzero; opacity: 1;" vector-effect="non-scaling-stroke"  x="-50" y="-50" rx="0" ry="0" width="100" height="100" />
</g>
<g transform="matrix(1 0 0 1 566.17 524.91)"  >
<rect style="stroke: none; stroke-width: 1; stroke-dasharray: none; stroke-linecap: butt; stroke-dashoffset: 0; stroke-linejoin: miter; stroke-miterlimit: 4; fill: rgb(255,255,255); fill-rule: nonzero; opacity: 1; visibility: hidden;" vector-effect="non-scaling-stroke"  x="-540" y="-540" rx="0" ry="0" width="1080" height="1080" />
</g>
<g transform="matrix(1 0 0 1 76.17 34.91)"  >
<rect style="stroke: none; stroke-width: 1; stroke-dasharray: none; stroke-linecap: butt; stroke-dashoffset: 0; stroke-linejoin: miter; stroke-miterlimit: 4; fill: rgb(255,255,255); fill-opacity: 0; fill-rule: nonzero; opacity: 1;" vector-effect="non-scaling-stroke"  x="-50" y="-50" rx="0" ry="0" width="100" height="100" />
</g>
<g transform="matrix(1 0 0 1 566.17 524.91)"  >
<rect style="stroke: none; stroke-width: 1; stroke-dasharray: none; stroke-linecap: butt; stroke-dashoffset: 0; stroke-linejoin: miter; stroke-miterlimit: 4; fill: rgb(255,255,255); fill-rule: nonzero; opacity: 1; visibility: hidden;" vector-effect="non-scaling-stroke"  x="-540" y="-540" rx="0" ry="0" width="1080" height="1080" />
</g>
<g transform="matrix(0 0 0 0 0 0)"  >
<g style=""   >
</g>
</g>
<g transform="matrix(0 0 0 0 0 0)"  >
<g style=""   >
</g>
</g>
<g transform="matrix(0 0 0 0 0 0)"  >
<g style=""   >
</g>
</g>
<g transform="matrix(0 0 0 0 0 0)"  >
<g style=""   >
</g>
</g>
<g transform="matrix(0 0 0 0 0 0)"  >
<g style=""   >
</g>
</g>
<g transform="matrix(0 0 0 0 0 0)"  >
<g style=""   >
</g>
</g>
<g transform="matrix(NaN NaN NaN NaN 0 0)"  >
<g style=""   >
</g>
</g>
<g transform="matrix(NaN NaN NaN NaN 0 0)"  >
<g style=""   >
</g>
</g>
<g transform="matrix(NaN NaN NaN NaN 0 0)"  >
<g style=""   >
</g>
</g>
<g transform="matrix(36.09 0 0 36.09 505.9 480.77)"  >
<g style="" vector-effect="non-scaling-stroke"   >
		<g transform="matrix(1 0 0 1 -1.32 -0.69)"  >
<path style="stroke: none; stroke-width: 1; stroke-dasharray: none; stroke-linecap: butt; stroke-dashoffset: 0; stroke-linejoin: miter; stroke-miterlimit: 4; fill: rgb(238,232,213); fill-rule: nonzero; opacity: 1;" vector-effect="non-scaling-stroke"  transform=" translate(-11.29, -11.31)" d="M 12.71 12.59 C 12.442754103981725 12.58889057556014 12.187071436378638 12.480855645587004 12 12.29 C 11.609962545689076 11.9022764052892 10.980037454310922 11.9022764052892 10.59 12.29 C 10.402233400094444 12.479312650823095 10.146637536370559 12.585798324341669 9.879999999999999 12.585798324341669 C 9.613362463629441 12.585798324341669 9.357766599905556 12.479312650823095 9.17 12.29 C 8.7822764052892 11.899962545689077 8.7822764052892 11.270037454310923 9.17 10.879999999999999 C 10.358413517968135 9.752371209337372 12.221586482031865 9.752371209337372 13.41 10.879999999999999 C 13.7977235947108 11.270037454310922 13.7977235947108 11.899962545689075 13.41 12.29 C 13.225369539896398 12.478414263716896 12.973769266900927 12.586242952143527 12.71 12.59 Z" stroke-linecap="round" />
</g>
		<g transform="matrix(1 0 0 1 0.24 0.32)"  >
<path style="stroke: none; stroke-width: 1; stroke-dasharray: none; stroke-linecap: butt; stroke-dashoffset: 0; stroke-linejoin: miter; stroke-miterlimit: 4; fill: rgb(238,232,213); fill-rule: nonzero; opacity: 1;" vector-effect="non-scaling-stroke"  transform=" translate(-12.85, -12.32)" d="M 12.71 14 C 12.444197015349971 14.00153675879964 12.188718830804694 13.897186514407906 12 13.71 C 11.810687349176904 13.522233400094445 11.70420167565833 13.26663753637056 11.70420167565833 13 C 11.70420167565833 12.733362463629442 11.810687349176904 12.477766599905557 12 12.290000000000001 L 12 12.290000000000001 C 11.660223204071297 11.893239722544301 11.683067730318967 11.301805828454295 12.05243677938663 10.93243677938663 C 12.421805828454293 10.563067730318968 13.013239722544299 10.540223204071298 13.41 10.88 C 13.78555408606018 11.255136514284537 13.996573312831543 11.764181503801865 13.996573312831543 12.295 C 13.996573312831543 12.825818496198135 13.78555408606018 13.334863485715463 13.41 13.71 C 13.22373936147455 13.894744163617899 12.972339877384336 13.998895378455273 12.71 14 Z" stroke-linecap="round" />
</g>
		<g transform="matrix(1 0 0 1 -3.16 1.71)"  >
<path style="stroke: none; stroke-width: 1; stroke-dasharray: none; stroke-linecap: butt; stroke-dashoffset: 0; stroke-linejoin: miter; stroke-miterlimit: 4; fill: rgb(238,232,213); fill-rule: nonzero; opacity: 1;" vector-effect="non-scaling-stroke"  transform=" translate(-9.44, -13.71)" d="M 9.88 16.83 C 9.614197015349973 16.831536758799636 9.358718830804696 16.727186514407904 9.170000000000002 16.54 C 8.41889182787964 15.789726971430927 7.996853374336916 14.77163699239627 7.996853374336916 13.709999999999999 C 7.996853374336916 12.648363007603729 8.418891827879639 11.630273028569073 9.17 10.88 C 9.357766599905558 10.690687349176903 9.613362463629443 10.58420167565833 9.880000000000003 10.58420167565833 C 10.14663753637056 10.58420167565833 10.402233400094445 10.690687349176903 10.590000000000002 10.879999999999999 C 10.9777235947108 11.270037454310922 10.9777235947108 11.899962545689075 10.590000000000002 12.29 C 10.214445913939821 12.665136514284535 10.003426687168458 13.174181503801865 10.003426687168458 13.704999999999998 C 10.003426687168458 14.235818496198135 10.214445913939821 14.744863485715463 10.590000000000002 15.12 C 10.779312650823098 15.307766599905555 10.885798324341671 15.56336246362944 10.885798324341671 15.829999999999998 C 10.885798324341671 16.096637536370558 10.779312650823098 16.352233400094445 10.590000000000002 16.54 C 10.401281169195308 16.727186514407904 10.14580298465003 16.831536758799636 9.88 16.83 Z" stroke-linecap="round" />
</g>
		<g transform="matrix(1 0 0 1 0.1 4.41)"  >
<path style="stroke: none; stroke-width: 1; stroke-dasharray: none; stroke-linecap: butt; stroke-dashoffset: 0; stroke-linejoin: miter; stroke-miterlimit: 4; fill: rgb(238,232,213); fill-rule: nonzero; opacity: 1;" vector-effect="non-scaling-stroke"  transform=" translate(-12.71, -16.41)" d="M 12.71 18 C 11.38301136344416 18.002369963677264 10.109507336709695 17.47713948937435 9.170000000000002 16.54 C 8.777877827620138 16.147877827620135 8.777877827620138 15.512122172379863 9.170000000000002 15.12 C 9.562122172379866 14.727877827620135 10.197877827620138 14.727877827620135 10.590000000000002 15.12 C 11.776384825397578 16.252702769866602 13.643615174602424 16.252702769866602 14.830000000000002 15.12 C 15.220037454310924 14.7322764052892 15.849962545689078 14.7322764052892 16.240000000000002 15.12 C 16.4293126508231 15.307766599905555 16.535798324341673 15.56336246362944 16.535798324341673 15.829999999999998 C 16.535798324341673 16.096637536370558 16.4293126508231 16.352233400094445 16.240000000000002 16.54 C 15.302944635403412 17.474689535079364 14.033524538585686 17.999718810250435 12.71 18 Z" stroke-linecap="round" />
</g>
		<g transform="matrix(1 0 0 1 3.66 0.32)"  >
<path style="stroke: none; stroke-width: 1; stroke-dasharray: none; stroke-linecap: butt; stroke-dashoffset: 0; stroke-linejoin: miter; stroke-miterlimit: 4; fill: rgb(238,232,213); fill-rule: nonzero; opacity: 1;" vector-effect="non-scaling-stroke"  transform=" translate(-16.27, -12.32)" d="M 15.54 16.83 C 15.133734927647197 16.832362623049146 14.766419956048317 16.588696223542662 14.610629049786398 16.213481505644243 C 14.454838143524482 15.838266787745821 14.541540051227544 15.406090455897594 14.829999999999998 15.119999999999997 C 15.58110817212036 14.369726971430925 16.003146625663085 13.351636992396267 16.003146625663085 12.29 C 16.003146625663085 11.228363007603729 15.581108172120361 10.210273028569071 14.83 9.459999999999999 C 14.490223204071295 9.063239722544298 14.513067730318966 8.471805828454292 14.882436779386628 8.102436779386627 C 15.251805828454291 7.7330677303189645 15.843239722544297 7.710223204071294 16.24 8.049999999999997 C 17.36666225818054 9.175409542853604 17.99971993849463 10.702544511405591 17.99971993849463 12.294999999999996 C 17.99971993849463 13.887455488594401 17.36666225818054 15.41459045714639 16.24 16.54 C 16.05373936147455 16.7247441636179 15.802339877384334 16.82889537845527 15.54 16.83 Z" stroke-linecap="round" />
</g>
		<g transform="matrix(1 0 0 1 -1.29 -4.09)"  >
<path style="stroke: none; stroke-width: 1; stroke-dasharray: none; stroke-linecap: butt; stroke-dashoffset: 0; stroke-linejoin: miter; stroke-miterlimit: 4; fill: rgb(238,232,213); fill-rule: nonzero; opacity: 1;" vector-effect="non-scaling-stroke"  transform=" translate(-11.32, -7.9)" d="M 7.05 9.76 C 6.6437349276471975 9.762362623049148 6.276419956048319 9.518696223542662 6.120629049786402 9.143481505644242 C 5.964838143524485 8.768266787745823 6.051540051227547 8.336090455897597 6.34 8.05 C 7.652775175937739 6.7370908605764335 9.433360812936371 5.999494923727066 11.290000000000001 5.999494923727066 C 13.14663918706363 5.999494923727066 14.927224824062261 6.737090860576433 16.240000000000002 8.049999999999999 C 16.52537615972035 8.294389881482136 16.64968194426578 8.67811839506357 16.5618101349847 9.04341897245328 C 16.47393832570362 9.408719549842989 16.188719549842993 9.69393832570362 15.823418972453283 9.781810134984699 C 15.458118395063574 9.869681944265778 15.074389881482137 9.74537615972035 14.830000000000002 9.46 C 12.87750074257093 7.508090308335685 9.71249925742907 7.508090308335686 7.76 9.460000000000003 C 7.572928563621363 9.650855645587004 7.317245896018276 9.75889057556014 7.05 9.76 Z" stroke-linecap="round" />
</g>
		<g transform="matrix(1 0 0 1 -6.58 1.71)"  >
<path style="stroke: none; stroke-width: 1; stroke-dasharray: none; stroke-linecap: butt; stroke-dashoffset: 0; stroke-linejoin: miter; stroke-miterlimit: 4; fill: rgb(238,232,213); fill-rule: nonzero; opacity: 1;" vector-effect="non-scaling-stroke"  transform=" translate(-6.03, -13.71)" d="M 7.05 19.66 C 6.782754103981723 19.65889057556014 6.5270714363786375 19.550855645587003 6.34 19.36 C 3.2182771885106383 16.236230325714395 3.2182771885106387 11.173769674285605 6.34 8.049999999999999 C 6.527766599905556 7.860687349176903 6.783362463629442 7.754201675658329 7.05 7.754201675658329 C 7.316637536370558 7.754201675658329 7.572233400094444 7.860687349176903 7.76 8.049999999999999 C 8.147723594710799 8.440037454310922 8.147723594710799 9.069962545689076 7.76 9.459999999999999 C 6.633337741819458 10.585409542853608 6.000280061505372 12.112544511405595 6.000280061505372 13.704999999999998 C 6.000280061505372 15.297455488594403 6.633337741819458 16.82459045714639 7.76 17.949999999999996 C 8.048459948772454 18.236090455897596 8.135161856475516 18.66826678774582 7.9793709502136 19.04348150564424 C 7.823580043951683 19.418696223542664 7.456265072352804 19.662362623049148 7.050000000000001 19.66 Z" stroke-linecap="round" />
</g>
		<g transform="matrix(1 0 0 1 0.07 7.83)"  >
<path style="stroke: none; stroke-width: 1; stroke-dasharray: none; stroke-linecap: butt; stroke-dashoffset: 0; stroke-linejoin: miter; stroke-miterlimit: 4; fill: rgb(238,232,213); fill-rule: nonzero; opacity: 1;" vector-effect="non-scaling-stroke"  transform=" translate(-12.68, -19.83)" d="M 12.71 22 C 10.320390078464541 22.00055230854427 8.028657659162384 21.050760536651378 6.340000000000002 19.36 C 5.952276405289202 18.969962545689075 5.952276405289202 18.340037454310924 6.340000000000001 17.95 C 6.527766599905557 17.7606873491769 6.783362463629443 17.654201675658328 7.050000000000001 17.654201675658328 C 7.316637536370559 17.654201675658328 7.572233400094445 17.7606873491769 7.760000000000001 17.95 C 9.07277517593774 19.262909139423567 10.853360812936371 20.000505076272933 12.71 20.000505076272933 C 14.566639187063629 20.000505076272933 16.347224824062263 19.262909139423563 17.66 17.949999999999996 C 18.0567602774557 17.610223204071296 18.648194171545708 17.633067730318967 19.01756322061337 18.00243677938663 C 19.386932269681033 18.371805828454296 19.409776795928703 18.9632397225443 19.07 19.36 C 17.387559297788812 21.053931616955953 15.097465278889251 22.00453668140483 12.710000000000003 22 Z" stroke-linecap="round" />
</g>
		<g transform="matrix(1 0 0 1 7.08 0.3)"  >
<path style="stroke: none; stroke-width: 1; stroke-dasharray: none; stroke-linecap: butt; stroke-dashoffset: 0; stroke-linejoin: miter; stroke-miterlimit: 4; fill: rgb(238,232,213); fill-rule: nonzero; opacity: 1;" vector-effect="non-scaling-stroke"  transform=" translate(-19.68, -12.29)" d="M 18.36 19.66 C 18.096230733099073 19.65624295214353 17.844630460103602 19.548414263716896 17.66 19.36 C 17.2722764052892 18.969962545689075 17.2722764052892 18.340037454310924 17.66 17.95 C 20.78172281148936 14.826230325714393 20.78172281148936 9.763769674285603 17.66 6.639999999999997 C 17.470687349176902 6.452233400094443 17.36420167565833 6.196637536370557 17.36420167565833 5.929999999999999 C 17.36420167565833 5.663362463629441 17.470687349176902 5.407766599905555 17.66 5.219999999999999 C 18.050037454310925 4.8322764052892 18.679962545689076 4.8322764052892 19.07 5.219999999999999 C 22.97381938332863 9.124998514858136 22.973819383328628 15.45500148514186 19.07 19.36 C 18.882928563621363 19.550855645587003 18.627245896018277 19.65889057556014 18.36 19.66 Z" stroke-linecap="round" />
</g>
		<g transform="matrix(1 0 0 1 -1.32 -7.53)"  >
<path style="stroke: none; stroke-width: 1; stroke-dasharray: none; stroke-linecap: butt; stroke-dashoffset: 0; stroke-linejoin: miter; stroke-miterlimit: 4; fill: rgb(238,232,213); fill-rule: nonzero; opacity: 1;" vector-effect="non-scaling-stroke"  transform=" translate(-11.29, -4.46)" d="M 4.22 6.93 C 3.954197015349971 6.931536758799639 3.698718830804694 6.827186514407906 3.51 6.64 C 3.3206873491769033 6.4522334000944435 3.21420167565833 6.196637536370558 3.21420167565833 5.93 C 3.21420167565833 5.663362463629442 3.3206873491769033 5.407766599905556 3.51 5.22 C 5.573048398137264 3.155982935204849 8.371723944377036 1.996348757611118 11.29 1.996348757611118 C 14.208276055622964 1.996348757611118 17.00695160186274 3.15598293520485 19.07 5.220000000000001 C 19.259312650823098 5.407766599905556 19.36579832434167 5.663362463629441 19.36579832434167 5.93 C 19.36579832434167 6.196637536370558 19.259312650823098 6.4522334000944435 19.07 6.64 C 18.679962545689076 7.027723594710799 18.050037454310925 7.027723594710799 17.66 6.64 C 15.97208819145896 4.951536925298205 13.682457607590912 4.002921891709813 11.295 4.002921891709813 C 8.907542392409088 4.002921891709813 6.617911808541038 4.951536925298205 4.93 6.640000000000001 C 4.741281169195306 6.827186514407905 4.485802984650029 6.931536758799639 4.22 6.93 Z" stroke-linecap="round" />
</g>
</g>
</g>
<g transform="matrix(NaN NaN NaN NaN 0 0)"  >
<g style=""   >
</g>
</g>
</svg>