<?xml version="1.0" encoding="UTF-8" standalone="no" ?>
<!DOCTYPE svg PUBLIC "-//W3C//DTD SVG 1.1//EN" "http://www.w3.org/Graphics/SVG/1.1/DTD/svg11.dtd">
<svg xmlns="http://www.w3.org/2000/svg" xmlns:xlink="http://www.w3.org/1999/xlink" version="1.1" width="1080" height="1080" viewBox="0 0 1080 1080" xml:space="preserve">
<desc>Created with Fabric.js 5.2.4</desc>
<defs>
</defs>
<rect x="0" y="0" width="100%" height="100%" fill="transparent"></rect>
<g transform="matrix(1 0 0 1 540 540)" id="f8affa75-95f1-48d9-9041-97dc00cabdda"  >
</g>
<g transform="matrix(1 0 0 1 540 540)" id="43f6f3eb-c55a-4d32-bc30-5d240e43808e"  >
<rect style="stroke: none; stroke-width: 1; stroke-dasharray: none; stroke-linecap: butt; stroke-dashoffset: 0; stroke-linejoin: miter; stroke-miterlimit: 4; fill: rgb(255,255,255); fill-rule: nonzero; opacity: 1; visibility: hidden;" vector-effect="non-scaling-stroke"  x="-540" y="-540" rx="0" ry="0" width="1080" height="1080" />
</g>
<g transform="matrix(1.34 0 0 1.34 540 593.79)"  >
<rect style="stroke: none; stroke-width: 1; stroke-dasharray: none; stroke-linecap: butt; stroke-dashoffset: 0; stroke-linejoin: miter; stroke-miterlimit: 4; fill: rgb(227,210,210); fill-rule: nonzero; opacity: 1;" vector-effect="non-scaling-stroke"  x="-209" y="-144" rx="0" ry="0" width="418" height="288" />
</g>
<g transform="matrix(1.34 0 0 1.34 262.3 603.88)"  >
<rect style="stroke: none; stroke-width: 1; stroke-dasharray: none; stroke-linecap: butt; stroke-dashoffset: 0; stroke-linejoin: miter; stroke-miterlimit: 4; fill: rgb(255,255,255); fill-rule: nonzero; opacity: 1;" vector-effect="non-scaling-stroke"  x="-2.5" y="-56.5" rx="0" ry="0" width="5" height="113" />
</g>
<g transform="matrix(1.34 0 0 1.34 817.7 603.88)"  >
<rect style="stroke: none; stroke-width: 1; stroke-dasharray: none; stroke-linecap: butt; stroke-dashoffset: 0; stroke-linejoin: miter; stroke-miterlimit: 4; fill: rgb(255,255,255); fill-rule: nonzero; opacity: 1;" vector-effect="non-scaling-stroke"  x="-2.5" y="-56.5" rx="0" ry="0" width="5" height="113" />
</g>
<g transform="matrix(1.34 0 0 1.34 293.23 593.79)"  >
<rect style="stroke: none; stroke-width: 1; stroke-dasharray: none; stroke-linecap: butt; stroke-dashoffset: 0; stroke-linejoin: miter; stroke-miterlimit: 4; fill: rgb(240,229,229); fill-rule: nonzero; opacity: 1;" vector-effect="non-scaling-stroke"  x="-15.5" y="-247" rx="0" ry="0" width="31" height="494" />
</g>
<g transform="matrix(1.34 0 0 1.34 786.77 593.79)"  >
<rect style="stroke: none; stroke-width: 1; stroke-dasharray: none; stroke-linecap: butt; stroke-dashoffset: 0; stroke-linejoin: miter; stroke-miterlimit: 4; fill: rgb(240,229,229); fill-rule: nonzero; opacity: 1;" vector-effect="non-scaling-stroke"  x="-15.5" y="-247" rx="0" ry="0" width="31" height="494" />
</g>
<g transform="matrix(1.34 0 0 1.34 323.49 597.83)"  >
<rect style="stroke: none; stroke-width: 1; stroke-dasharray: none; stroke-linecap: butt; stroke-dashoffset: 0; stroke-linejoin: miter; stroke-miterlimit: 4; fill: rgb(0,113,188); fill-rule: nonzero; opacity: 1;" vector-effect="non-scaling-stroke"  x="-7" y="-187" rx="0" ry="0" width="14" height="374" />
</g>
<g transform="matrix(1.34 0 0 1.34 342.32 597.83)"  >
<rect style="stroke: none; stroke-width: 1; stroke-dasharray: none; stroke-linecap: butt; stroke-dashoffset: 0; stroke-linejoin: miter; stroke-miterlimit: 4; fill: rgb(0,73,188); fill-rule: nonzero; opacity: 1;" vector-effect="non-scaling-stroke"  x="-7" y="-187" rx="0" ry="0" width="14" height="374" />
</g>
<g transform="matrix(1.34 0 0 1.34 361.14 597.83)"  >
<rect style="stroke: none; stroke-width: 1; stroke-dasharray: none; stroke-linecap: butt; stroke-dashoffset: 0; stroke-linejoin: miter; stroke-miterlimit: 4; fill: rgb(0,113,188); fill-rule: nonzero; opacity: 1;" vector-effect="non-scaling-stroke"  x="-7" y="-187" rx="0" ry="0" width="14" height="374" />
</g>
<g transform="matrix(1.34 0 0 1.34 379.97 597.83)"  >
<rect style="stroke: none; stroke-width: 1; stroke-dasharray: none; stroke-linecap: butt; stroke-dashoffset: 0; stroke-linejoin: miter; stroke-miterlimit: 4; fill: rgb(0,73,188); fill-rule: nonzero; opacity: 1;" vector-effect="non-scaling-stroke"  x="-7" y="-187" rx="0" ry="0" width="14" height="374" />
</g>
<g transform="matrix(1.34 0 0 1.34 398.8 597.83)"  >
<rect style="stroke: none; stroke-width: 1; stroke-dasharray: none; stroke-linecap: butt; stroke-dashoffset: 0; stroke-linejoin: miter; stroke-miterlimit: 4; fill: rgb(0,113,188); fill-rule: nonzero; opacity: 1;" vector-effect="non-scaling-stroke"  x="-7" y="-187" rx="0" ry="0" width="14" height="374" />
</g>
<g transform="matrix(1.34 0 0 1.34 417.63 597.83)"  >
<rect style="stroke: none; stroke-width: 1; stroke-dasharray: none; stroke-linecap: butt; stroke-dashoffset: 0; stroke-linejoin: miter; stroke-miterlimit: 4; fill: rgb(0,73,188); fill-rule: nonzero; opacity: 1;" vector-effect="non-scaling-stroke"  x="-7" y="-187" rx="0" ry="0" width="14" height="374" />
</g>
<g transform="matrix(1.34 0 0 1.34 436.45 597.83)"  >
<rect style="stroke: none; stroke-width: 1; stroke-dasharray: none; stroke-linecap: butt; stroke-dashoffset: 0; stroke-linejoin: miter; stroke-miterlimit: 4; fill: rgb(0,113,188); fill-rule: nonzero; opacity: 1;" vector-effect="non-scaling-stroke"  x="-7" y="-187" rx="0" ry="0" width="14" height="374" />
</g>
<g transform="matrix(1.34 0 0 1.34 455.28 597.83)"  >
<rect style="stroke: none; stroke-width: 1; stroke-dasharray: none; stroke-linecap: butt; stroke-dashoffset: 0; stroke-linejoin: miter; stroke-miterlimit: 4; fill: rgb(0,73,188); fill-rule: nonzero; opacity: 1;" vector-effect="non-scaling-stroke"  x="-7" y="-187" rx="0" ry="0" width="14" height="374" />
</g>
<g transform="matrix(1.34 0 0 1.34 474.11 597.83)"  >
<rect style="stroke: none; stroke-width: 1; stroke-dasharray: none; stroke-linecap: butt; stroke-dashoffset: 0; stroke-linejoin: miter; stroke-miterlimit: 4; fill: rgb(0,113,188); fill-rule: nonzero; opacity: 1;" vector-effect="non-scaling-stroke"  x="-7" y="-187" rx="0" ry="0" width="14" height="374" />
</g>
<g transform="matrix(1.34 0 0 1.34 492.93 597.83)"  >
<rect style="stroke: none; stroke-width: 1; stroke-dasharray: none; stroke-linecap: butt; stroke-dashoffset: 0; stroke-linejoin: miter; stroke-miterlimit: 4; fill: rgb(0,73,188); fill-rule: nonzero; opacity: 1;" vector-effect="non-scaling-stroke"  x="-7" y="-187" rx="0" ry="0" width="14" height="374" />
</g>
<g transform="matrix(1.34 0 0 1.34 511.76 597.83)"  >
<rect style="stroke: none; stroke-width: 1; stroke-dasharray: none; stroke-linecap: butt; stroke-dashoffset: 0; stroke-linejoin: miter; stroke-miterlimit: 4; fill: rgb(0,113,188); fill-rule: nonzero; opacity: 1;" vector-effect="non-scaling-stroke"  x="-7" y="-187" rx="0" ry="0" width="14" height="374" />
</g>
<g transform="matrix(1.34 0 0 1.34 530.59 597.83)"  >
<rect style="stroke: none; stroke-width: 1; stroke-dasharray: none; stroke-linecap: butt; stroke-dashoffset: 0; stroke-linejoin: miter; stroke-miterlimit: 4; fill: rgb(0,73,188); fill-rule: nonzero; opacity: 1;" vector-effect="non-scaling-stroke"  x="-7" y="-187" rx="0" ry="0" width="14" height="374" />
</g>
<g transform="matrix(1.34 0 0 1.34 549.41 597.83)"  >
<rect style="stroke: none; stroke-width: 1; stroke-dasharray: none; stroke-linecap: butt; stroke-dashoffset: 0; stroke-linejoin: miter; stroke-miterlimit: 4; fill: rgb(0,113,188); fill-rule: nonzero; opacity: 1;" vector-effect="non-scaling-stroke"  x="-7" y="-187" rx="0" ry="0" width="14" height="374" />
</g>
<g transform="matrix(1.34 0 0 1.34 568.24 597.83)"  >
<rect style="stroke: none; stroke-width: 1; stroke-dasharray: none; stroke-linecap: butt; stroke-dashoffset: 0; stroke-linejoin: miter; stroke-miterlimit: 4; fill: rgb(0,73,188); fill-rule: nonzero; opacity: 1;" vector-effect="non-scaling-stroke"  x="-7" y="-187" rx="0" ry="0" width="14" height="374" />
</g>
<g transform="matrix(1.34 0 0 1.34 587.07 597.83)"  >
<rect style="stroke: none; stroke-width: 1; stroke-dasharray: none; stroke-linecap: butt; stroke-dashoffset: 0; stroke-linejoin: miter; stroke-miterlimit: 4; fill: rgb(0,113,188); fill-rule: nonzero; opacity: 1;" vector-effect="non-scaling-stroke"  x="-7" y="-187" rx="0" ry="0" width="14" height="374" />
</g>
<g transform="matrix(1.34 0 0 1.34 605.89 597.83)"  >
<rect style="stroke: none; stroke-width: 1; stroke-dasharray: none; stroke-linecap: butt; stroke-dashoffset: 0; stroke-linejoin: miter; stroke-miterlimit: 4; fill: rgb(0,73,188); fill-rule: nonzero; opacity: 1;" vector-effect="non-scaling-stroke"  x="-7" y="-187" rx="0" ry="0" width="14" height="374" />
</g>
<g transform="matrix(1.34 0 0 1.34 624.72 597.83)"  >
<rect style="stroke: none; stroke-width: 1; stroke-dasharray: none; stroke-linecap: butt; stroke-dashoffset: 0; stroke-linejoin: miter; stroke-miterlimit: 4; fill: rgb(0,113,188); fill-rule: nonzero; opacity: 1;" vector-effect="non-scaling-stroke"  x="-7" y="-187" rx="0" ry="0" width="14" height="374" />
</g>
<g transform="matrix(1.34 0 0 1.34 643.55 597.83)"  >
<rect style="stroke: none; stroke-width: 1; stroke-dasharray: none; stroke-linecap: butt; stroke-dashoffset: 0; stroke-linejoin: miter; stroke-miterlimit: 4; fill: rgb(0,73,188); fill-rule: nonzero; opacity: 1;" vector-effect="non-scaling-stroke"  x="-7" y="-187" rx="0" ry="0" width="14" height="374" />
</g>
<g transform="matrix(1.34 0 0 1.34 662.37 597.83)"  >
<rect style="stroke: none; stroke-width: 1; stroke-dasharray: none; stroke-linecap: butt; stroke-dashoffset: 0; stroke-linejoin: miter; stroke-miterlimit: 4; fill: rgb(0,113,188); fill-rule: nonzero; opacity: 1;" vector-effect="non-scaling-stroke"  x="-7" y="-187" rx="0" ry="0" width="14" height="374" />
</g>
<g transform="matrix(1.34 0 0 1.34 681.2 597.83)"  >
<rect style="stroke: none; stroke-width: 1; stroke-dasharray: none; stroke-linecap: butt; stroke-dashoffset: 0; stroke-linejoin: miter; stroke-miterlimit: 4; fill: rgb(0,73,188); fill-rule: nonzero; opacity: 1;" vector-effect="non-scaling-stroke"  x="-7" y="-187" rx="0" ry="0" width="14" height="374" />
</g>
<g transform="matrix(1.34 0 0 1.34 700.03 597.83)"  >
<rect style="stroke: none; stroke-width: 1; stroke-dasharray: none; stroke-linecap: butt; stroke-dashoffset: 0; stroke-linejoin: miter; stroke-miterlimit: 4; fill: rgb(0,113,188); fill-rule: nonzero; opacity: 1;" vector-effect="non-scaling-stroke"  x="-7" y="-187" rx="0" ry="0" width="14" height="374" />
</g>
<g transform="matrix(1.34 0 0 1.34 718.86 597.83)"  >
<rect style="stroke: none; stroke-width: 1; stroke-dasharray: none; stroke-linecap: butt; stroke-dashoffset: 0; stroke-linejoin: miter; stroke-miterlimit: 4; fill: rgb(0,73,188); fill-rule: nonzero; opacity: 1;" vector-effect="non-scaling-stroke"  x="-7" y="-187" rx="0" ry="0" width="14" height="374" />
</g>
<g transform="matrix(1.34 0 0 1.34 737.68 597.83)"  >
<rect style="stroke: none; stroke-width: 1; stroke-dasharray: none; stroke-linecap: butt; stroke-dashoffset: 0; stroke-linejoin: miter; stroke-miterlimit: 4; fill: rgb(0,113,188); fill-rule: nonzero; opacity: 1;" vector-effect="non-scaling-stroke"  x="-7" y="-187" rx="0" ry="0" width="14" height="374" />
</g>
<g transform="matrix(1.34 0 0 1.34 756.51 597.83)"  >
<rect style="stroke: none; stroke-width: 1; stroke-dasharray: none; stroke-linecap: butt; stroke-dashoffset: 0; stroke-linejoin: miter; stroke-miterlimit: 4; fill: rgb(0,73,188); fill-rule: nonzero; opacity: 1;" vector-effect="non-scaling-stroke"  x="-7" y="-187" rx="0" ry="0" width="14" height="374" />
</g>
<g transform="matrix(1.34 0 0 1.34 523.86 252.89)"  >
<path style="stroke: rgb(0,113,188); stroke-width: 9; stroke-dasharray: none; stroke-linecap: butt; stroke-dashoffset: 0; stroke-linejoin: miter; stroke-miterlimit: 10; fill: none; fill-rule: nonzero; opacity: 1;" vector-effect="non-scaling-stroke"  transform=" translate(-251, -11.5)" d="M 120 81 C 120 4.17 237.184 -58 382 -58" stroke-linecap="round" />
</g>
<g transform="matrix(NaN NaN NaN NaN 0 0)"  >
<g style=""   >
</g>
</g>
<g transform="matrix(NaN NaN NaN NaN 0 0)"  >
<g style=""   >
</g>
</g>
<g transform="matrix(NaN NaN NaN NaN 0 0)"  >
<g style=""   >
</g>
</g>
<g transform="matrix(NaN NaN NaN NaN 0 0)"  >
<g style=""   >
</g>
</g>
<g transform="matrix(NaN NaN NaN NaN 0 0)"  >
<g style=""   >
</g>
</g>
<g transform="matrix(NaN NaN NaN NaN 0 0)"  >
<g style=""   >
</g>
</g>
<g transform="matrix(NaN NaN NaN NaN 0 0)"  >
<g style=""   >
</g>
</g>
<g transform="matrix(NaN NaN NaN NaN 0 0)"  >
<g style=""   >
</g>
</g>
<g transform="matrix(NaN NaN NaN NaN 0 0)"  >
<g style=""   >
</g>
</g>
<g transform="matrix(NaN NaN NaN NaN 0 0)"  >
<g style=""   >
</g>
</g>
<g transform="matrix(NaN NaN NaN NaN 0 0)"  >
<g style=""   >
</g>
</g>
<g transform="matrix(NaN NaN NaN NaN 0 0)"  >
<g style=""   >
</g>
</g>
</svg>