<?xml version="1.0" encoding="UTF-8" standalone="no" ?>
<!DOCTYPE svg PUBLIC "-//W3C//DTD SVG 1.1//EN" "http://www.w3.org/Graphics/SVG/1.1/DTD/svg11.dtd">
<svg xmlns="http://www.w3.org/2000/svg" xmlns:xlink="http://www.w3.org/1999/xlink" version="1.1" width="1080" height="1080" viewBox="0 0 1080 1080" xml:space="preserve">
<desc>Created with Fabric.js 5.2.4</desc>
<defs>
</defs>
<rect x="0" y="0" width="100%" height="100%" fill="transparent"></rect>
<g transform="matrix(1 0 0 1 540 540)" id="9a18d7ae-aca8-43ea-be9f-08569747ccfe"  >
</g>
<g transform="matrix(1 0 0 1 540 540)" id="9c32341d-1568-49fd-901e-acd02959f8d9"  >
<rect style="stroke: none; stroke-width: 1; stroke-dasharray: none; stroke-linecap: butt; stroke-dashoffset: 0; stroke-linejoin: miter; stroke-miterlimit: 4; fill: rgb(255,255,255); fill-rule: nonzero; opacity: 1; visibility: hidden;" vector-effect="non-scaling-stroke"  x="-540" y="-540" rx="0" ry="0" width="1080" height="1080" />
</g>
<g transform="matrix(0.94 0 0 0.94 79.29 79.29)"  >
<rect style="stroke: none; stroke-width: 1; stroke-dasharray: none; stroke-linecap: butt; stroke-dashoffset: 0; stroke-linejoin: miter; stroke-miterlimit: 4; fill: rgb(177,189,197); fill-opacity: 0; fill-rule: nonzero; opacity: 1;" vector-effect="non-scaling-stroke"  x="-50" y="-50" rx="0" ry="0" width="100" height="100" />
</g>
<g transform="matrix(0.94 0 0 0.94 539.89 539.89)"  >
<rect style="stroke: none; stroke-width: 1; stroke-dasharray: none; stroke-linecap: butt; stroke-dashoffset: 0; stroke-linejoin: miter; stroke-miterlimit: 4; fill: rgb(177,189,197); fill-opacity: 0; fill-rule: nonzero; opacity: 1; visibility: hidden;" vector-effect="non-scaling-stroke"  x="-540" y="-540" rx="0" ry="0" width="1080" height="1080" />
</g>
<g transform="matrix(0 0 0 0 0 0)"  >
<g style=""   >
</g>
</g>
<g transform="matrix(0 0 0 0 0 0)"  >
<g style=""   >
</g>
</g>
<g transform="matrix(0 0 0 0 0 0)"  >
<g style=""   >
</g>
</g>
<g transform="matrix(0 0 0 0 0 0)"  >
<g style=""   >
</g>
</g>
<g transform="matrix(0 0 0 0 0 0)"  >
<g style=""   >
</g>
</g>
<g transform="matrix(0 0 0 0 0 0)"  >
<g style=""   >
</g>
</g>
<g transform="matrix(0 0 0 0 0 0)"  >
<g style=""   >
</g>
</g>
<g transform="matrix(1 0 0 1 50 50)"  >
<rect style="stroke: none; stroke-width: 1; stroke-dasharray: none; stroke-linecap: butt; stroke-dashoffset: 0; stroke-linejoin: miter; stroke-miterlimit: 4; fill: rgb(255,255,255); fill-opacity: 0; fill-rule: nonzero; opacity: 1;" vector-effect="non-scaling-stroke"  x="-50" y="-50" rx="0" ry="0" width="100" height="100" />
</g>
<g transform="matrix(1 0 0 1 540 540)"  >
<rect style="stroke: none; stroke-width: 1; stroke-dasharray: none; stroke-linecap: butt; stroke-dashoffset: 0; stroke-linejoin: miter; stroke-miterlimit: 4; fill: rgb(255,255,255); fill-rule: nonzero; opacity: 1; visibility: hidden;" vector-effect="non-scaling-stroke"  x="-540" y="-540" rx="0" ry="0" width="1080" height="1080" />
</g>
<g transform="matrix(0 0 0 0 0 0)"  >
<g style=""   >
</g>
</g>
<g transform="matrix(0 0 0 0 0 0)"  >
<g style=""   >
</g>
</g>
<g transform="matrix(0 0 0 0 0 0)"  >
<g style=""   >
</g>
</g>
<g transform="matrix(0 0 0 0 0 0)"  >
<g style=""   >
</g>
</g>
<g transform="matrix(0 0 0 0 0 0)"  >
<g style=""   >
</g>
</g>
<g transform="matrix(0 0 0 0 0 0)"  >
<g style=""   >
</g>
</g>
<g transform="matrix(NaN NaN NaN NaN 0 0)"  >
<g style=""   >
</g>
</g>
<g transform="matrix(4.96 0 0 4.96 540 540)"  >
<g style="" vector-effect="non-scaling-stroke"   >
		<g transform="matrix(1 0 0 1 0.68 0)"  >
<path style="stroke: none; stroke-width: 1; stroke-dasharray: none; stroke-linecap: butt; stroke-dashoffset: 0; stroke-linejoin: miter; stroke-miterlimit: 4; fill: rgb(238,232,213); fill-rule: nonzero; opacity: 1;" vector-effect="non-scaling-stroke"  transform=" translate(-100.68, -100)" d="M 100.68 65 C 81.35003375592224 65 65.68 80.67003375592223 65.68 100 C 65.68 119.32996624407777 81.35003375592224 135 100.68 135 C 120.00996624407777 135 135.68 119.32996624407777 135.68 100 C 135.7390187975507 90.69945552200136 132.07048457512508 81.76273638444948 125.49387409533782 75.1861259046622 C 118.91726361555054 68.60951542487493 109.98054447799865 64.94098120244931 100.68 65 Z M 100.68 115 C 92.3957287525381 115 85.68 108.2842712474619 85.68 100 C 85.68 91.7157287525381 92.3957287525381 85 100.68 85 C 108.96427124746191 85 115.68 91.7157287525381 115.68 100 C 115.7540259775752 104.00048168916356 114.19745605847648 107.85895208822268 111.36820407334959 110.68820407334957 C 108.53895208822269 113.51745605847647 104.68048168916359 115.07402597757519 100.68 115 Z" stroke-linecap="round" />
</g>
		<g transform="matrix(1 0 0 1 0 0)"  >
<path style="stroke: none; stroke-width: 1; stroke-dasharray: none; stroke-linecap: butt; stroke-dashoffset: 0; stroke-linejoin: miter; stroke-miterlimit: 4; fill: rgb(238,232,213); fill-rule: nonzero; opacity: 1;" vector-effect="non-scaling-stroke"  transform=" translate(-100, -100)" d="M 169.68 108 C 167.59864811099192 106.8346003328871 166.30956518803396 104.63541025192407 166.30956518803396 102.25 C 166.30956518803396 99.86458974807593 167.59864811099192 97.6653996671129 169.68 96.5 C 182.34424084467952 89.01524041930479 186.58829972575032 72.70911945519066 179.18 60 L 175.68 54 C 168.18 41.5 152.18 37 139.68 44.5 C 135.68 47 130.68 44 130.68 39 L 130.68 37.5 C 130.70132949066013 30.20002860839542 127.81086629275858 23.192896322239626 122.64898498525949 18.031015014740532 C 117.48710367776039 12.869133707241438 110.4799713916046 9.978670509339885 103.18000000000002 10 L 98.18 10 C 83.04650134470592 10.130374776279275 70.81037477627926 22.366501344705924 70.68 37.500000000000014 L 70.68 38.5 C 70.68 44 64.68 47 60.18000000000001 44.5 C 53.95061395692657 40.905560819547006 46.54624989026949 39.93985973130154 39.60333089830394 41.81632432372467 C 32.66041190633838 43.6927889161478 26.750596252637806 48.25691695584128 23.179999999999986 54.50000000000003 L 20.180000000000007 60 C 12.680000000000007 72.5 17.180000000000007 89 29.680000000000007 96.5 C 31.76135188900811 97.6653996671129 33.05043481196607 99.86458974807593 33.05043481196607 102.25 C 33.05043481196607 104.63541025192407 31.76135188900811 106.8346003328871 29.680000000000007 108 C 17.015759155320488 115.48475958069521 12.771700274249689 131.79088054480934 20.18000000000001 144.5 L 23.680000000000007 150 C 27.250596252637834 156.24308304415874 33.16041190633841 160.80721108385222 40.103330898303966 162.68367567627533 C 47.04624989026953 164.56014026869846 54.45061395692658 163.594439180453 60.680000000000014 160 L 62.18000000000001 159 C 63.995953780308646 157.87092811621764 66.28119306372537 157.81474406599642 68.15043720399335 158.85321303281196 C 70.01968134426133 159.8916819996275 71.17927413059556 161.8616616441548 71.18 164 C 71.13165541260561 170.9103359330827 73.85540609374705 177.551663955907 78.74187106892003 182.43812893107997 C 83.628336044093 187.32459390625297 90.26966406691729 190.0483445873944 97.18 190 L 105.68 190 C 119.73822733751123 189.9397457127401 131.1197457127401 178.55822733751123 131.18 164.5 C 131.18 160 135.68 157.5 139.68 159.5 L 140.68 160 C 153.18 167.5 169.18 163 176.68 150.5 L 180.18 144.5 C 187.23441787278523 131.5073920385397 182.5599533053746 115.25806282801706 169.68 108 Z M 159.68 125.5 C 162.6175523824083 127.47385862357338 163.67866363924605 131.2938591481893 162.18 134.5 L 158.68 140.5 C 157.18 143.5 153.18 144.5 150.18 143 L 149.18 142.5 C 132.18 132.5 110.68 145 110.68 164.5 C 110.65285709505703 167.52625186166034 108.20625186166035 169.97285709505704 105.18 170 L 96.68 170 C 95.07034597896916 170.0625272993785 93.50762256430623 169.45048881602105 92.36856687414259 168.3114331258574 C 91.22951118397896 167.17237743569376 90.6174727006215 165.60965402103085 90.68 164 C 90.67405078345269 154.7140709649814 85.71612866061244 146.13622037306843 77.67278912668272 141.49583218041664 C 69.62944959275299 136.8554439877649 59.72185099220572 136.8570326238774 51.68000000000001 141.5 L 50.18000000000001 142.5 C 48.59787625330675 143.4662751391942 46.690195240741986 143.74577875044744 44.89737279721773 143.27398337057264 C 43.10455035369348 142.80218799069783 41.58155777834725 141.61987554052064 40.68000000000001 140 L 37.68000000000001 134.5 C 35.68000000000001 131.5 37.18000000000001 127.5 40.18000000000001 125.5 C 57.68000000000001 115.5 57.68000000000001 89.5 40.18000000000001 79.5 C 37.24244761759173 77.52614137642662 36.181336360753974 73.70614085181069 37.68000000000001 70.5 L 40.68000000000001 64.5 C 41.56048013527613 62.85805630395545 43.08400160666851 61.65611481031451 44.88577965582019 61.1819626921167 C 46.687557704971866 60.70781057391889 48.6053610681315 61.00414026899351 50.18000000000001 62 C 68.18 72.5 90.68 59.5 90.68 38.5 L 90.68 37.5 C 90.78010747704103 33.40004606243095 94.08004606243097 30.10010747704103 98.18 30 L 103.18 30 C 107.27995393756905 30.10010747704103 110.57989252295897 33.40004606243095 110.68 37.5 L 110.68 39 C 110.68 59 132.68 72 150.18 62 C 153.18 60.5 157.18 61.5 158.68 64.5 L 162.18 70.5 C 164.18 73.5 162.68 77.5 159.68 79.5 C 142.18 89.5 142.18 115 159.68 125.5 Z" stroke-linecap="round" />
</g>
</g>
</g>
<g transform="matrix(NaN NaN NaN NaN 0 0)"  >
<g style=""   >
</g>
</g>
</svg>