<?xml version="1.0" encoding="UTF-8" standalone="no" ?>
<!DOCTYPE svg PUBLIC "-//W3C//DTD SVG 1.1//EN" "http://www.w3.org/Graphics/SVG/1.1/DTD/svg11.dtd">
<svg xmlns="http://www.w3.org/2000/svg" xmlns:xlink="http://www.w3.org/1999/xlink" version="1.1" width="1080" height="1080" viewBox="0 0 1080 1080" xml:space="preserve">
<desc>Created with Fabric.js 5.2.4</desc>
<defs>
</defs>
<rect x="0" y="0" width="100%" height="100%" fill="transparent"></rect>
<g transform="matrix(1 0 0 1 540 540)" id="f8affa75-95f1-48d9-9041-97dc00cabdda"  >
</g>
<g transform="matrix(1 0 0 1 540 540)" id="43f6f3eb-c55a-4d32-bc30-5d240e43808e"  >
<rect style="stroke: none; stroke-width: 1; stroke-dasharray: none; stroke-linecap: butt; stroke-dashoffset: 0; stroke-linejoin: miter; stroke-miterlimit: 4; fill: rgb(255,255,255); fill-rule: nonzero; opacity: 1; visibility: hidden;" vector-effect="non-scaling-stroke"  x="-540" y="-540" rx="0" ry="0" width="1080" height="1080" />
</g>
<g transform="matrix(18.37 0 0 18.37 540 540)"  >
<path style="stroke: none; stroke-width: 1; stroke-dasharray: none; stroke-linecap: butt; stroke-dashoffset: 0; stroke-linejoin: miter; stroke-miterlimit: 4; fill: rgb(190,198,244); fill-rule: nonzero; opacity: 1;" vector-effect="non-scaling-stroke"  transform=" translate(-30, -30)" d="M 50 26 L 49.06 26 C 48.19021394767473 26.001047101491686 47.420629265562056 25.436820016132234 47.160000000000004 24.607 C 46.84264849344562 23.599448822430702 46.436730996127984 22.621967363514933 45.947 21.685999999999996 C 45.54180482846012 20.914648782110998 45.6852279375533 19.96943377218337 46.301 19.353 L 46.969 18.686 C 47.749763876665725 17.905000297028373 47.749763876665725 16.63899970297163 46.969 15.858 L 44.14 13.029 C 43.35900029702837 12.248236123334273 42.092999702971625 12.248236123334273 41.312 13.029 L 40.644999999999996 13.697 C 40.02856622781663 14.312772062446705 39.083351217888996 14.45619517153988 38.312 14.050999999999998 C 37.37603263648506 13.561269003872017 36.39855117756929 13.155351506554377 35.39099999999999 12.837999999999997 C 34.56267635879317 12.576880532839692 33.99955279304651 11.808506321633963 34 10.94 L 34 10 C 34 8.895430500338414 33.10456949966159 8 32 8 L 28 8 C 26.895430500338414 8 26 8.895430500338414 26 10 L 26 10.94 C 26.00104710149169 11.809786052325272 25.436820016132234 12.579370734437951 24.607 12.84 C 23.599448822430702 13.15735150655438 22.621967363514933 13.563269003872023 21.685999999999996 14.053000000000004 C 20.914648782110998 14.458195171539883 19.969433772183365 14.314772062446705 19.353 13.699000000000002 L 18.686 13.031000000000002 C 17.905000297028373 12.250236123334277 16.638999702971628 12.250236123334277 15.858 13.031000000000004 L 13.029 15.860000000000003 C 12.248236123334275 16.64099970297163 12.248236123334275 17.907000297028375 13.029 18.688000000000002 L 13.697 19.355000000000004 C 14.312772062446705 19.971433772183367 14.45619517153988 20.916648782111 14.050999999999998 21.688000000000002 C 13.561269003872017 22.62396736351494 13.155351506554377 23.60144882243071 12.837999999999997 24.60900000000001 C 12.576880532839692 25.437323641206827 11.808506321633963 26.000447206953492 10.94 26 L 10 26 C 8.895430500338414 26 8 26.895430500338414 8 28 L 8 32 C 8 33.10456949966159 8.895430500338414 34 10 34 L 10.94 34 C 11.809786052325272 33.998952898508314 12.579370734437951 34.56317998386777 12.84 35.393 C 13.15735150655438 36.4005511775693 13.563269003872021 37.37803263648507 14.053000000000003 38.314 C 14.458195171539883 39.085351217889 14.314772062446707 40.030566227816635 13.699000000000002 40.647 L 13.031000000000002 41.314 C 12.250236123334275 42.09499970297163 12.250236123334275 43.361000297028376 13.031000000000002 44.142 L 15.860000000000003 46.971000000000004 C 16.64099970297163 47.75176387666573 17.907000297028375 47.75176387666573 18.688000000000002 46.971000000000004 L 19.355000000000004 46.303000000000004 C 19.971433772183367 45.6872279375533 20.916648782111 45.543804828460125 21.688000000000002 45.949000000000005 C 22.62396736351494 46.43873099612799 23.60144882243071 46.844648493445625 24.60900000000001 47.162000000000006 C 25.437323641206827 47.42311946716031 26.000447206953492 48.19149367836604 26 49.06 L 26 50 C 26 51.10456949966159 26.895430500338414 52 28 52 L 32 52 C 33.10456949966159 52 34 51.10456949966159 34 50 L 34 49.06 C 33.998952898508314 48.19021394767473 34.56317998386777 47.420629265562056 35.393 47.160000000000004 C 36.4005511775693 46.84264849344562 37.37803263648506 46.436730996127984 38.314 45.947 C 39.085351217889 45.54180482846012 40.030566227816635 45.6852279375533 40.647 46.301 L 41.314 46.969 C 42.09499970297163 47.74976387666573 43.361000297028376 47.74976387666573 44.142 46.969 L 46.971000000000004 44.14 C 47.751763876665734 43.35900029702837 47.751763876665734 42.092999702971625 46.971000000000004 41.312 L 46.303000000000004 40.644999999999996 C 45.6872279375533 40.02856622781663 45.543804828460125 39.083351217889 45.949000000000005 38.312 C 46.43873099612799 37.37603263648506 46.844648493445625 36.39855117756929 47.162000000000006 35.39099999999999 C 47.42311946716031 34.56267635879317 48.19149367836604 33.99955279304651 49.06 34 L 50 34 C 51.10456949966159 34 52 33.10456949966159 52 32 L 52 28 C 52 26.895430500338414 51.10456949966159 26 50 26 Z M 30 40 C 24.477152501692068 40 20 35.52284749830793 20 30 C 20 24.477152501692068 24.477152501692068 20 30 20 C 35.52284749830793 20 40 24.477152501692064 40 30 C 40 35.52284749830793 35.52284749830793 40 30 40 Z" stroke-linecap="round" />
</g>
<g transform="matrix(18.37 0 0 18.37 540 540)"  >
<path style="stroke: none; stroke-width: 1; stroke-dasharray: none; stroke-linecap: butt; stroke-dashoffset: 0; stroke-linejoin: miter; stroke-miterlimit: 4; fill: rgb(141,156,244); fill-rule: nonzero; opacity: 1;" vector-effect="non-scaling-stroke"  transform=" translate(-30, -30)" d="M 32 53.5 L 28 53.5 C 26.067003375592222 53.5 24.5 51.93299662440778 24.5 50 L 24.5 49.06 C 24.500435386774743 48.845421061921186 24.36092892762018 48.65562739074579 24.156 48.592 C 23.064076724286178 48.24796178041544 22.00463598514202 47.808257064295596 20.989999999999995 47.278 C 20.800241707364002 47.17537041135907 20.565504476665023 47.21041798399815 20.413999999999998 47.364 L 19.747999999999998 48.031 C 19.091571823319928 48.68776052064085 18.201064662590582 49.056752690210615 17.272499999999997 49.056752690210615 C 16.343935337409413 49.056752690210615 15.453428176680065 48.68776052064085 14.796999999999997 48.031 L 11.969 45.2 C 11.312545430288216 44.54361241203113 10.94374746186353 43.65331959353182 10.94374746186353 42.725 C 10.94374746186353 41.796680406468184 11.312545430288216 40.90638758796887 11.969 40.25 L 12.638 39.582 C 12.790005866273127 39.42962789540286 12.824514094125556 39.195783904308755 12.723 39.006 C 12.192489481658598 37.99135634276413 11.752453091175779 36.931922721267085 11.408000000000007 35.84 C 11.344679579153727 35.63542444620461 11.15514953515777 35.496219296117644 10.941 35.497 L 10 35.497 C 8.068174342635565 35.49700070965037 6.501655850563324 33.93182494771419 6.499999999999999 32 L 6.5 28 C 6.5 26.067003375592222 8.067003375592222 24.5 10 24.5 L 10.94 24.5 C 11.15457893807881 24.500435386774743 11.344372609254208 24.360928927620176 11.408 24.156 C 11.75203821958456 23.06407672428618 12.191742935704397 22.004635985142023 12.721999999999992 20.990000000000002 C 12.82359851053698 20.8000619161022 12.788648422322328 20.56597760433894 12.636 20.413999999999998 L 11.969 19.746999999999996 C 11.312545430288218 19.090612412031128 10.943747461863532 18.20031959353181 10.943747461863532 17.272 C 10.943747461863532 16.34368040646818 11.312545430288216 15.453387587968868 11.968999999999998 14.796999999999997 L 14.8 11.969 C 15.45638758796887 11.312545430288216 16.346680406468185 10.943747461863532 17.275 10.943747461863532 C 18.203319593531816 10.943747461863532 19.09361241203113 11.312545430288216 19.75 11.969 L 20.417 12.636999999999999 C 20.569610082997066 12.789203079134966 20.803638255978978 12.824084227967626 20.994 12.722999999999999 C 22.008643657235872 12.192489481658594 23.068077278732904 11.752453091175777 24.159999999999986 11.408000000000005 C 24.36457555379539 11.344679579153723 24.503780703882356 11.155149535157767 24.503 10.940999999999999 L 24.503 10 C 24.502999290349628 8.068174342635565 26.068175052285806 6.501655850563324 28 6.499999999999999 L 32 6.5 C 33.93299662440778 6.5 35.5 8.067003375592222 35.5 10 L 35.5 10.94 C 35.49956461322525 11.15457893807881 35.63907107237982 11.344372609254208 35.844 11.408 C 36.93610695094772 11.751947614846603 37.99558444427828 12.192002227521812 39.00999999999999 12.723 C 39.20049178213859 12.822333295110472 39.433343591204654 12.787162969782786 39.586 12.636 L 40.253 11.969 C 41.62123116329569 10.605301234785177 43.834768836704306 10.605301234785177 45.203 11.968999999999998 L 48.031 14.8 C 48.68745456971178 15.45638758796887 49.05625253813646 16.346680406468185 49.05625253813646 17.275 C 49.05625253813646 18.203319593531813 48.68745456971178 19.09361241203113 48.031 19.75 L 47.365 20.417 C 47.212461690758836 20.569371387343747 47.1771709738437 20.803425912171715 47.278 20.994 C 47.80832964184126 22.008381883050163 48.24836038515167 23.067467284249766 48.59299999999999 24.159 C 48.656348745782594 24.364127272347545 48.84631492122685 24.5037605295117 49.061 24.503 L 50 24.503 C 51.931825657364435 24.502999290349628 53.498344149436676 26.068175052285806 53.5 28 L 53.5 32 C 53.5 33.93299662440778 51.93299662440778 35.5 50 35.5 L 49.061 35.5 C 48.84669297458599 35.499428677364214 48.65698479447942 35.63846693757053 48.592999999999996 35.843 C 48.248721759965925 36.93466451450598 47.80867801609164 37.99378120603611 47.278 39.008 C 47.17725117696181 39.1984192219135 47.21210098620532 39.43223712811706 47.364 39.585 L 48.031 40.253 C 48.68745456971178 40.90938758796887 49.05625253813647 41.799680406468184 49.05625253813647 42.728 C 49.05625253813647 43.65631959353182 48.68745456971178 44.54661241203114 48.031 45.203 L 45.2 48.031 C 43.83199593045155 49.395248196253235 41.618004069548455 49.395248196253235 40.25 48.031 L 39.582 47.362 C 39.42932196110426 47.21060454828086 39.195900480629824 47.17615867008585 39.006 47.277 C 37.99161811694984 47.807329641841264 36.932532715750234 48.24736038515168 35.841 48.592 C 35.63602845645549 48.65496116649867 35.49635392604046 48.84457746214931 35.497 49.059 L 35.497 50 C 35.49700070965037 51.931825657364435 33.93182494771419 53.498344149436676 32 53.5 Z M 20.756 44.218 C 21.322042723973876 44.21796889854106 21.87964787314936 44.3552255506458 22.381 44.618 C 23.238377617409363 45.06649714663823 24.13389605720571 45.43795658915465 25.05700000000001 45.728 C 26.514279997607495 46.18223448634665 27.50507499671225 47.53357666277606 27.5 49.06 L 27.5 50 C 27.5 50.276142374915395 27.7238576250846 50.5 28 50.5 L 32 50.5 C 32.276142374915395 50.5 32.5 50.276142374915395 32.5 50 L 32.5 49.06 C 32.49559509995303 47.534472153151626 33.4863855177566 46.18435291415527 34.943 45.731 C 35.86539028207672 45.440350891919294 36.76022080358179 45.06856453836951 37.617 44.620000000000005 C 38.96908197951163 43.90717671145908 40.6279544515062 44.159455116735515 41.706999999999994 45.242000000000004 L 42.37499999999999 45.911 C 42.5702499257429 46.106190969166434 42.88675007425709 46.106190969166434 43.081999999999994 45.911 L 45.91 43.083 C 46.00404170068763 42.989195736989835 46.05689378368542 42.86182726085824 46.05689378368542 42.729 C 46.05689378368542 42.59617273914176 46.00404170068763 42.46880426301017 45.91 42.375 L 45.242999999999995 41.708 C 44.159236143549116 40.63045872436691 43.906408268641904 38.97145334295329 44.62 37.62 C 45.06756901156308 36.7617159073572 45.43931505164263 35.865978599262725 45.730999999999995 34.943 C 46.1848193657218 33.486427452371416 47.53537527528179 32.49601978536076 49.06099999999999 32.501 L 50 32.501 C 50.276142374915395 32.501 50.5 32.27714237491539 50.5 32.001 L 50.5 28 C 50.5 27.7238576250846 50.276142374915395 27.5 50 27.5 L 49.061 27.5 C 47.535103201893726 27.504844538345374 46.18446162393937 26.513968449774055 45.731 25.057 C 45.438947790949065 24.134155394747467 45.06721479740832 23.238449522822542 44.61999999999999 22.379999999999992 C 43.906408268641904 21.028546657046707 44.159236143549116 19.36954127563309 45.242999999999995 18.291999999999998 L 45.90899999999999 17.625999999999998 C 46.104190969166424 17.43075007425709 46.104190969166424 17.114249925742904 45.90899999999999 16.918999999999997 L 43.082 14.09 C 42.98819573698984 13.995958299312365 42.860827260858244 13.943106216314582 42.728 13.943106216314582 C 42.59517273914176 13.943106216314582 42.467804263010166 13.995958299312365 42.374 14.09 L 41.707 14.757 C 40.628825696949455 15.840321698264392 38.969873981998155 16.093079565325937 37.618 15.379999999999999 C 36.76096577162435 14.931509568313174 35.865779908283955 14.56004926614202 34.94299999999999 14.269999999999996 C 33.48642780101635 13.815983213560736 32.49580397371494 12.465685487439709 32.5 10.939999999999998 L 32.5 10 C 32.5 9.723857625084603 32.276142374915395 9.5 32 9.5 L 28 9.5 C 27.7238576250846 9.5 27.5 9.723857625084603 27.5 10 L 27.5 10.94 C 27.50454063389192 12.465255801291722 26.514218589932447 13.815289414863006 25.058000000000003 14.268999999999998 C 24.13489680458401 14.559459459027776 23.23938563210906 14.931250532502988 22.38199999999999 15.380000000000004 C 21.0297206069335 16.093662931793013 19.3699483960247 15.84043607125338 18.291999999999998 14.756 L 17.625999999999998 14.09 C 17.53219573698983 13.995958299312365 17.40482726085824 13.943106216314582 17.272 13.943106216314582 C 17.139172739141756 13.943106216314582 17.011804263010166 13.995958299312365 16.918 14.09 L 14.09 16.918 C 13.894809030833567 17.113249925742906 13.894809030833567 17.429750074257093 14.09 17.625 L 14.757 18.293 C 15.840763856450879 19.370541275633087 16.093591731358092 21.029546657046705 15.38 22.380999999999997 C 14.931502853361774 23.23837761740936 14.560043410845353 24.133896057205707 14.270000000000001 25.057000000000002 C 13.815983213560733 26.51357219898366 12.465685487439707 27.504196026285058 10.94 27.5 L 10 27.5 C 9.723857625084603 27.5 9.5 27.7238576250846 9.5 28 L 9.5 32 C 9.5 32.276142374915395 9.723857625084603 32.5 10 32.5 L 10.94 32.5 C 12.465255801291722 32.49545936610808 13.81528941486301 33.48578141006755 14.269 34.942 C 14.559459459027776 35.86510319541599 14.931250532502986 36.76061436789094 15.38 37.618 C 16.09375448198395 38.96976007226124 15.84093206826219 40.62913543294868 14.757000000000001 41.707 L 14.089000000000002 42.375 C 13.89380903083357 42.57024992574291 13.89380903083357 42.886750074257094 14.089000000000002 43.082 L 16.917 45.910000000000004 C 17.01080426301017 46.00404170068764 17.13817273914176 46.056893783685425 17.271 46.056893783685425 C 17.403827260858243 46.056893783685425 17.531195736989833 46.00404170068764 17.625 45.910000000000004 L 18.291 45.243 C 18.943794060544143 44.58731769250481 19.8307653660424 44.218495952896006 20.756 44.218 Z M 30 41.5 C 23.648725376945876 41.5 18.5 36.351274623054124 18.5 30 C 18.5 23.648725376945876 23.648725376945876 18.5 30 18.5 C 36.351274623054124 18.5 41.5 23.648725376945873 41.5 29.999999999999996 C 41.49283579665076 36.34830474483316 36.34830474483316 41.49283579665076 30 41.5 Z M 30 21.5 C 25.305579626438256 21.5 21.5 25.305579626438256 21.5 30 C 21.5 34.69442037356174 25.305579626438256 38.5 30 38.5 C 34.69442037356174 38.5 38.5 34.69442037356174 38.5 30 C 38.49448955862565 25.307864021435886 34.69213597856411 21.505510441374348 30 21.5 Z" stroke-linecap="round" />
</g>
<g transform="matrix(18.37 0 0 18.37 540 540)"  >
<path style="stroke: none; stroke-width: 1; stroke-dasharray: none; stroke-linecap: butt; stroke-dashoffset: 0; stroke-linejoin: miter; stroke-miterlimit: 4; fill: rgb(224,172,246); fill-rule: nonzero; opacity: 1;" vector-effect="non-scaling-stroke"  transform=" translate(-30, -30)" d="M 30 41.5 C 23.648725376945876 41.5 18.5 36.351274623054124 18.5 30 C 18.5 23.648725376945876 23.648725376945876 18.5 30 18.5 C 36.351274623054124 18.5 41.5 23.648725376945873 41.5 29.999999999999996 C 41.49283579665076 36.34830474483316 36.34830474483316 41.49283579665076 30 41.5 Z M 30 21.5 C 25.305579626438256 21.5 21.5 25.305579626438256 21.5 30 C 21.5 34.69442037356174 25.305579626438256 38.5 30 38.5 C 34.69442037356174 38.5 38.5 34.69442037356174 38.5 30 C 38.49448955862565 25.307864021435886 34.69213597856411 21.505510441374348 30 21.5 Z" stroke-linecap="round" />
</g>
<g transform="matrix(18.37 0 0 18.37 356.25 356.25)"  >
<path style="stroke: none; stroke-width: 1; stroke-dasharray: none; stroke-linecap: butt; stroke-dashoffset: 0; stroke-linejoin: miter; stroke-miterlimit: 4; fill: rgb(224,172,246); fill-rule: nonzero; opacity: 1;" vector-effect="non-scaling-stroke"  transform=" translate(-20, -20)" d="M 8 33.5 C 7.17157287525381 33.5 6.5 32.82842712474619 6.5 32 L 6.5 28 C 6.5 26.067003375592222 8.067003375592222 24.5 10 24.5 L 10.94 24.5 C 11.15457893807881 24.500435386774743 11.344372609254208 24.360928927620176 11.408 24.156 C 11.75203821958456 23.06407672428618 12.191742935704397 22.004635985142023 12.721999999999992 20.990000000000002 C 12.82359851053698 20.8000619161022 12.788648422322328 20.56597760433894 12.636 20.413999999999998 L 11.969 19.746999999999996 C 11.312545430288218 19.090612412031128 10.943747461863532 18.20031959353181 10.943747461863532 17.272 C 10.943747461863532 16.34368040646818 11.312545430288216 15.453387587968868 11.968999999999998 14.796999999999997 L 14.8 11.969 C 15.45638758796887 11.312545430288216 16.346680406468185 10.943747461863532 17.275 10.943747461863532 C 18.203319593531816 10.943747461863532 19.09361241203113 11.312545430288216 19.75 11.969 L 20.417 12.636999999999999 C 20.569610082997066 12.789203079134966 20.803638255978978 12.824084227967626 20.994 12.722999999999999 C 22.008643657235872 12.192489481658594 23.068077278732904 11.752453091175777 24.159999999999986 11.408000000000005 C 24.36457555379539 11.344679579153723 24.503780703882356 11.155149535157767 24.503 10.940999999999999 L 24.503 10 C 24.502999290349628 8.068174342635565 26.068175052285806 6.501655850563324 28 6.499999999999999 L 32 6.5 C 32.82842712474619 6.5 33.5 7.171572875253809 33.5 8 C 33.5 8.82842712474619 32.82842712474619 9.5 32 9.5 L 28 9.5 C 27.7238576250846 9.5 27.5 9.723857625084603 27.5 10 L 27.5 10.94 C 27.50454063389192 12.465255801291722 26.514218589932447 13.815289414863006 25.058000000000003 14.268999999999998 C 24.13489680458401 14.559459459027776 23.23938563210906 14.931250532502988 22.38199999999999 15.380000000000004 C 21.0297206069335 16.093662931793013 19.3699483960247 15.84043607125338 18.291999999999998 14.756 L 17.625999999999998 14.09 C 17.53219573698983 13.995958299312365 17.40482726085824 13.943106216314582 17.272 13.943106216314582 C 17.139172739141756 13.943106216314582 17.011804263010166 13.995958299312365 16.918 14.09 L 14.09 16.918 C 13.894809030833567 17.113249925742906 13.894809030833567 17.429750074257093 14.09 17.625 L 14.757 18.293 C 15.840763856450879 19.370541275633087 16.093591731358092 21.029546657046705 15.38 22.380999999999997 C 14.931502853361774 23.23837761740936 14.560043410845353 24.133896057205707 14.270000000000001 25.057000000000002 C 13.815983213560733 26.51357219898366 12.465685487439707 27.504196026285058 10.94 27.5 L 10 27.5 C 9.723857625084603 27.5 9.5 27.7238576250846 9.5 28 L 9.5 32 C 9.5 32.82842712474619 8.82842712474619 33.5 8 33.5 Z" stroke-linecap="round" />
</g>
</svg>