<?xml version="1.0" encoding="UTF-8" standalone="no" ?>
<!DOCTYPE svg PUBLIC "-//W3C//DTD SVG 1.1//EN" "http://www.w3.org/Graphics/SVG/1.1/DTD/svg11.dtd">
<svg xmlns="http://www.w3.org/2000/svg" xmlns:xlink="http://www.w3.org/1999/xlink" version="1.1" width="1080" height="1080" viewBox="0 0 1080 1080" xml:space="preserve">
<desc>Created with Fabric.js 5.2.4</desc>
<defs>
</defs>
<rect x="0" y="0" width="100%" height="100%" fill="transparent"></rect>
<g transform="matrix(1 0 0 1 540 540)" id="f8affa75-95f1-48d9-9041-97dc00cabdda"  >
</g>
<g transform="matrix(1 0 0 1 540 540)" id="43f6f3eb-c55a-4d32-bc30-5d240e43808e"  >
<rect style="stroke: none; stroke-width: 1; stroke-dasharray: none; stroke-linecap: butt; stroke-dashoffset: 0; stroke-linejoin: miter; stroke-miterlimit: 4; fill: rgb(255,255,255); fill-rule: nonzero; opacity: 1; visibility: hidden;" vector-effect="non-scaling-stroke"  x="-540" y="-540" rx="0" ry="0" width="1080" height="1080" />
</g>
<g transform="matrix(30.53 0 0 30.53 540 540)"  >
<path style="stroke: none; stroke-width: 1; stroke-dasharray: none; stroke-linecap: butt; stroke-dashoffset: 0; stroke-linejoin: miter; stroke-miterlimit: 4; fill: rgb(240,212,212); fill-rule: evenodd; opacity: 1;" vector-effect="non-scaling-stroke"  transform=" translate(-24.5, -24.5)" d="M 34 30 L 32 28 L 34 26 L 26 26 L 26 34 L 28 32 L 30 34 L 25 39 L 24 39 L 19 34 L 21 32 L 23 34 L 23 26 L 15 26 L 17 28 L 15 30 L 10 25 L 10 24 L 15 19 L 17 21 L 15 23 L 23 23 L 23 15 L 21 17 L 19 15 L 24 10 L 25 10 L 30 15 L 28 17 L 26 15 L 26 23 L 34 23 L 32 21 L 34 19 L 39 24 L 39 25 Z" stroke-linecap="round" />
</g>
<g transform="matrix(30.53 0 0 30.53 540 540)"  >
<path style="stroke: none; stroke-width: 1; stroke-dasharray: none; stroke-linecap: butt; stroke-dashoffset: 0; stroke-linejoin: miter; stroke-miterlimit: 4; fill: rgb(159,150,214); fill-rule: evenodd; opacity: 1;" vector-effect="non-scaling-stroke"  transform=" translate(-24.5, -24.5)" d="M 19 23 L 19 26 L 23 26 L 23 30 L 26 30 L 26 26 L 30 26 L 30 23 L 26 23 L 26 19 L 23 19 L 23 23 L 19 23 Z" stroke-linecap="round" />
</g>
</svg>