<?xml version="1.0" encoding="UTF-8" standalone="no" ?>
<!DOCTYPE svg PUBLIC "-//W3C//DTD SVG 1.1//EN" "http://www.w3.org/Graphics/SVG/1.1/DTD/svg11.dtd">
<svg xmlns="http://www.w3.org/2000/svg" xmlns:xlink="http://www.w3.org/1999/xlink" version="1.1" width="1080" height="1080" viewBox="0 0 1080 1080" xml:space="preserve">
<desc>Created with Fabric.js 5.2.4</desc>
<defs>
</defs>
<rect x="0" y="0" width="100%" height="100%" fill="transparent"></rect>
<g transform="matrix(1 0 0 1 540 540)" id="54e6f626-ff4d-4913-b48c-18e90b6389e0"  >
</g>
<g transform="matrix(1 0 0 1 540 540)" id="b6a20425-67b2-4379-931f-2947eadf90e7"  >
<rect style="stroke: none; stroke-width: 1; stroke-dasharray: none; stroke-linecap: butt; stroke-dashoffset: 0; stroke-linejoin: miter; stroke-miterlimit: 4; fill: rgb(255,255,255); fill-rule: nonzero; opacity: 1; visibility: hidden;" vector-effect="non-scaling-stroke"  x="-540" y="-540" rx="0" ry="0" width="1080" height="1080" />
</g>
<g transform="matrix(NaN NaN NaN NaN 0 0)"  >
<g style=""   >
</g>
</g>
<g transform="matrix(NaN NaN NaN NaN 0 0)"  >
<g style=""   >
</g>
</g>
<g transform="matrix(NaN NaN NaN NaN 0 0)"  >
<g style=""   >
</g>
</g>
<g transform="matrix(NaN NaN NaN NaN 0 0)"  >
<g style=""   >
</g>
</g>
<g transform="matrix(NaN NaN NaN NaN 0 0)"  >
<g style=""   >
</g>
</g>
<g transform="matrix(NaN NaN NaN NaN 0 0)"  >
<g style=""   >
</g>
</g>
<g transform="matrix(NaN NaN NaN NaN 0 0)"  >
<g style=""   >
</g>
</g>
<g transform="matrix(NaN NaN NaN NaN 0 0)"  >
<g style=""   >
</g>
</g>
<g transform="matrix(NaN NaN NaN NaN 0 0)"  >
<g style=""   >
</g>
</g>
<g transform="matrix(38.36 0 0 38.36 540 540)" id="c076f93a-9aa7-42bb-9c5a-0829cf1c4a22"  >
<path style="stroke: rgb(0,0,0); stroke-width: 0; stroke-dasharray: none; stroke-linecap: butt; stroke-dashoffset: 0; stroke-linejoin: miter; stroke-miterlimit: 4; fill: rgb(102,100,255); fill-rule: nonzero; opacity: 1;" vector-effect="non-scaling-stroke"  transform=" translate(-12, -12)" d="M 8 21 L 4 21 C 3.4477152501692068 21 3 20.552284749830793 3 20 L 3 16 C 3 15.447715250169207 2.5522847498307932 15 2 15 C 1.4477152501692065 15 1 15.447715250169207 1 16 L 1 20 C 1 21.65685424949238 2.3431457505076194 23 4 23 L 8 23 C 8.552284749830793 23 9 22.552284749830793 9 22 C 9 21.447715250169207 8.552284749830793 21 8 21 Z M 22 15 C 21.447715250169207 15 21 15.447715250169207 21 16 L 21 20 C 21 20.552284749830793 20.552284749830793 21 20 21 L 16 21 C 15.447715250169207 21 15 21.447715250169207 15 22 C 15 22.552284749830793 15.447715250169207 23 16 23 L 20 23 C 21.65685424949238 23 23 21.65685424949238 23 20 L 23 16 C 23 15.447715250169207 22.552284749830793 15 22 15 Z M 20 1 L 16 1 C 15.447715250169207 1 15 1.4477152501692065 15 2 C 15 2.5522847498307932 15.447715250169207 3 16 3 L 20 3 C 20.552284749830793 3 21 3.4477152501692063 21 4 L 21 8 C 21 8.552284749830793 21.447715250169207 9 22 9 C 22.552284749830793 9 23 8.552284749830793 23 8 L 23 4 C 23 2.3431457505076194 21.65685424949238 1 20 1 Z M 2 9 C 2.5522847498307932 9 3 8.552284749830793 3 8 L 3 4 C 3 3.4477152501692068 3.4477152501692068 3 4 3 L 8 3 C 8.552284749830793 3 9 2.5522847498307932 9 2 C 9 1.4477152501692065 8.552284749830793 1 8 1 L 4 1 C 2.3431457505076194 1 1 2.3431457505076194 1 4 L 1 8 C 1 8.552284749830793 1.4477152501692065 9 2 9 Z M 10 5 L 6 5 C 5.447715250169207 5 5 5.447715250169207 5 6 L 5 10 C 5 10.552284749830793 5.447715250169207 11 6 11 L 10 11 C 10.552284749830793 11 11 10.552284749830793 11 10 L 11 6 C 11 5.447715250169207 10.552284749830793 5 10 5 Z M 9 9 L 7 9 L 7 7 L 9 7 Z M 14 11 L 18 11 C 18.552284749830793 11 19 10.552284749830793 19 10 L 19 6 C 19 5.447715250169207 18.552284749830793 5 18 5 L 14 5 C 13.447715250169207 5 13 5.447715250169207 13 6 L 13 10 C 13 10.552284749830793 13.447715250169207 11 14 11 Z M 15 7 L 17 7 L 17 9 L 15 9 Z M 10 13 L 6 13 C 5.447715250169207 13 5 13.447715250169207 5 14 L 5 18 C 5 18.552284749830793 5.447715250169207 19 6 19 L 10 19 C 10.552284749830793 19 11 18.552284749830793 11 18 L 11 14 C 11 13.447715250169207 10.552284749830793 13 10 13 Z M 9 17 L 7 17 L 7 15 L 9 15 Z M 14 16 C 14.552284749830793 16 15 15.552284749830793 15 15 C 15.552284749830793 15 16 14.552284749830793 16 14 C 16 13.447715250169207 15.552284749830793 13 15 13 L 14 13 C 13.447715250169207 13 13 13.447715250169207 13 14 L 13 15 C 13 15.552284749830793 13.447715250169207 16 14 16 Z M 18 13 C 17.447715250169207 13 17 13.447715250169207 17 14 L 17 17 C 16.447715250169207 17 16 17.447715250169207 16 18 C 16 18.552284749830793 16.447715250169207 19 17 19 L 18 19 C 18.552284749830793 19 19 18.552284749830793 19 18 L 19 14 C 19 13.447715250169207 18.552284749830793 13 18 13 Z M 14 17 C 13.447715250169207 17 13 17.447715250169207 13 18 C 13 18.552284749830793 13.447715250169207 19 14 19 C 14.552284749830793 19 15 18.552284749830793 15 18 C 15 17.447715250169207 14.552284749830793 17 14 17 Z" stroke-linecap="round" />
</g>
</svg>