<?xml version="1.0" encoding="UTF-8" standalone="no" ?>
<!DOCTYPE svg PUBLIC "-//W3C//DTD SVG 1.1//EN" "http://www.w3.org/Graphics/SVG/1.1/DTD/svg11.dtd">
<svg xmlns="http://www.w3.org/2000/svg" xmlns:xlink="http://www.w3.org/1999/xlink" version="1.1" width="1080" height="1080" viewBox="0 0 1080 1080" xml:space="preserve">
<desc>Created with Fabric.js 5.2.4</desc>
<defs>
</defs>
<rect x="0" y="0" width="100%" height="100%" fill="transparent"></rect>
<g transform="matrix(1 0 0 1 540 540)" id="9a18d7ae-aca8-43ea-be9f-08569747ccfe"  >
</g>
<g transform="matrix(1 0 0 1 540 540)" id="9c32341d-1568-49fd-901e-acd02959f8d9"  >
<rect style="stroke: none; stroke-width: 1; stroke-dasharray: none; stroke-linecap: butt; stroke-dashoffset: 0; stroke-linejoin: miter; stroke-miterlimit: 4; fill: rgb(255,255,255); fill-rule: nonzero; opacity: 1; visibility: hidden;" vector-effect="non-scaling-stroke"  x="-540" y="-540" rx="0" ry="0" width="1080" height="1080" />
</g>
<g transform="matrix(0.94 0 0 0.94 79.29 79.29)"  >
<rect style="stroke: none; stroke-width: 1; stroke-dasharray: none; stroke-linecap: butt; stroke-dashoffset: 0; stroke-linejoin: miter; stroke-miterlimit: 4; fill: rgb(177,189,197); fill-opacity: 0; fill-rule: nonzero; opacity: 1;" vector-effect="non-scaling-stroke"  x="-50" y="-50" rx="0" ry="0" width="100" height="100" />
</g>
<g transform="matrix(0.94 0 0 0.94 539.89 539.89)"  >
<rect style="stroke: none; stroke-width: 1; stroke-dasharray: none; stroke-linecap: butt; stroke-dashoffset: 0; stroke-linejoin: miter; stroke-miterlimit: 4; fill: rgb(177,189,197); fill-opacity: 0; fill-rule: nonzero; opacity: 1; visibility: hidden;" vector-effect="non-scaling-stroke"  x="-540" y="-540" rx="0" ry="0" width="1080" height="1080" />
</g>
<g transform="matrix(0 0 0 0 0 0)"  >
<g style=""   >
</g>
</g>
<g transform="matrix(0 0 0 0 0 0)"  >
<g style=""   >
</g>
</g>
<g transform="matrix(0 0 0 0 0 0)"  >
<g style=""   >
</g>
</g>
<g transform="matrix(0 0 0 0 0 0)"  >
<g style=""   >
</g>
</g>
<g transform="matrix(0 0 0 0 0 0)"  >
<g style=""   >
</g>
</g>
<g transform="matrix(0 0 0 0 0 0)"  >
<g style=""   >
</g>
</g>
<g transform="matrix(0 0 0 0 0 0)"  >
<g style=""   >
</g>
</g>
<g transform="matrix(1 0 0 1 50 50)"  >
<rect style="stroke: none; stroke-width: 1; stroke-dasharray: none; stroke-linecap: butt; stroke-dashoffset: 0; stroke-linejoin: miter; stroke-miterlimit: 4; fill: rgb(255,255,255); fill-opacity: 0; fill-rule: nonzero; opacity: 1;" vector-effect="non-scaling-stroke"  x="-50" y="-50" rx="0" ry="0" width="100" height="100" />
</g>
<g transform="matrix(1 0 0 1 540 540)"  >
<rect style="stroke: none; stroke-width: 1; stroke-dasharray: none; stroke-linecap: butt; stroke-dashoffset: 0; stroke-linejoin: miter; stroke-miterlimit: 4; fill: rgb(255,255,255); fill-rule: nonzero; opacity: 1; visibility: hidden;" vector-effect="non-scaling-stroke"  x="-540" y="-540" rx="0" ry="0" width="1080" height="1080" />
</g>
<g transform="matrix(0 0 0 0 0 0)"  >
<g style=""   >
</g>
</g>
<g transform="matrix(0 0 0 0 0 0)"  >
<g style=""   >
</g>
</g>
<g transform="matrix(0 0 0 0 0 0)"  >
<g style=""   >
</g>
</g>
<g transform="matrix(0 0 0 0 0 0)"  >
<g style=""   >
</g>
</g>
<g transform="matrix(0 0 0 0 0 0)"  >
<g style=""   >
</g>
</g>
<g transform="matrix(0 0 0 0 0 0)"  >
<g style=""   >
</g>
</g>
<g transform="matrix(40.8 0 0 40.8 540 540)" id="76ba0bf5-9974-4fb3-8f4e-58c689e78fef"  >
<path style="stroke: rgb(0,0,0); stroke-width: 0; stroke-dasharray: none; stroke-linecap: butt; stroke-dashoffset: 0; stroke-linejoin: miter; stroke-miterlimit: 4; fill: rgb(238,232,213); fill-rule: nonzero; opacity: 1;" vector-effect="non-scaling-stroke"  transform=" translate(-12, -12)" d="M 3 10 C 3.5522847498307932 10 4 9.552284749830793 4 9 L 4 5.41 L 8.56 10 C 8.748483232317097 10.195551872209892 9.00840017748626 10.306025937084101 9.28 10.306025937084101 C 9.55159982251374 10.306025937084101 9.811516767682903 10.195551872209892 10 10 C 10.387723594710799 9.609962545689076 10.387723594710799 8.980037454310922 10 8.59 L 5.41 4 L 9 4 C 9.552284749830793 4 10 3.5522847498307932 10 3 C 10 2.4477152501692068 9.552284749830793 2 9 2 L 3 2 C 2.8693227427288424 2.0015799874138582 2.740222312587415 2.028759025338369 2.619999999999999 2.08 C 2.375650681111769 2.181474921856852 2.1814749218568514 2.375650681111769 2.08 2.6200000000000006 C 2.028759025338369 2.7402223125874157 2.0015799874138582 2.8693227427288424 2 2.9999999999999996 L 2 9 C 2 9.552284749830793 2.4477152501692068 10 3 10 Z M 15.3 14 C 14.903239722544301 13.660223204071297 14.311805828454293 13.683067730318967 13.94243677938663 14.05243677938663 C 13.573067730318968 14.421805828454294 13.550223204071298 15.0132397225443 13.89 15.41 L 20.16 21.69 C 20.348718830804696 21.877186514407907 20.60419701534997 21.98153675879964 20.87 21.98 C 21.13580298465003 21.98153675879964 21.39128116919531 21.877186514407907 21.580000000000002 21.69 C 21.769312650823096 21.502233400094447 21.87579832434167 21.24663753637056 21.87579832434167 20.980000000000004 C 21.87579832434167 20.713362463629444 21.769312650823096 20.457766599905558 21.580000000000002 20.270000000000003 Z M 9 20 L 5.41 20 L 21.71 3.71 C 21.9636585688348 3.4563414311652036 22.06272351676809 3.086626012228983 21.969878036686953 2.740121963313048 C 21.877032556605812 2.3936179143971126 21.606382085602885 2.1229674433941867 21.25987803668695 2.030121963313048 C 20.913373987771017 1.937276483231909 20.543658568834797 2.0363414311652033 20.29 2.29 L 4 18.59 L 4 15 C 4 14.447715250169207 3.5522847498307932 14 3 14 C 2.4477152501692068 14 2 14.447715250169207 2 15 L 2 21 C 2.0015799874138582 21.130677257271156 2.028759025338369 21.259777687412583 2.08 21.38 C 2.181474921856852 21.62434931888823 2.375650681111769 21.818525078143146 2.6199999999999997 21.919999999999998 C 2.7402223125874157 21.97124097466163 2.8693227427288424 21.99842001258614 3 22 L 9 22 C 9.552284749830793 22 10 21.552284749830793 10 21 C 10 20.447715250169207 9.552284749830793 20 9 20 Z" stroke-linecap="round" />
</g>
<g transform="matrix(NaN NaN NaN NaN 0 0)"  >
<g style=""   >
</g>
</g>
</svg>