<?xml version="1.0" encoding="UTF-8" standalone="no" ?>
<!DOCTYPE svg PUBLIC "-//W3C//DTD SVG 1.1//EN" "http://www.w3.org/Graphics/SVG/1.1/DTD/svg11.dtd">
<svg xmlns="http://www.w3.org/2000/svg" xmlns:xlink="http://www.w3.org/1999/xlink" version="1.1" width="1080" height="1080" viewBox="0 0 1080 1080" xml:space="preserve">
<desc>Created with Fabric.js 5.2.4</desc>
<defs>
</defs>
<g transform="matrix(1 0 0 1 540 540)" id="8236f702-c2d2-400b-89b3-db2dd32ede59"  >
<rect style="stroke: none; stroke-width: 1; stroke-dasharray: none; stroke-linecap: butt; stroke-dashoffset: 0; stroke-linejoin: miter; stroke-miterlimit: 4; fill: rgb(255,255,255); fill-rule: nonzero; opacity: 1; visibility: hidden;" vector-effect="non-scaling-stroke"  x="-540" y="-540" rx="0" ry="0" width="1080" height="1080" />
</g>
<g transform="matrix(1 0 0 1 540 540)" id="8e5f6117-f142-4ec8-b943-b0caa414c09a"  >
</g>
<g transform="matrix(0.93 0 0 0.93 540 540)"  >
<g style="" vector-effect="non-scaling-stroke"   >
		<g transform="matrix(1 0 0 1 -490 -490)"  >
<rect style="stroke: none; stroke-width: 1; stroke-dasharray: none; stroke-linecap: butt; stroke-dashoffset: 0; stroke-linejoin: miter; stroke-miterlimit: 4; fill: rgb(255,255,255); fill-opacity: 0; fill-rule: nonzero; opacity: 1;" vector-effect="non-scaling-stroke"  x="-50" y="-50" rx="0" ry="0" width="100" height="100" />
</g>
		<g transform="matrix(1 0 0 1 0 0)"  >
<rect style="stroke: none; stroke-width: 1; stroke-dasharray: none; stroke-linecap: butt; stroke-dashoffset: 0; stroke-linejoin: miter; stroke-miterlimit: 4; fill: rgb(255,255,255); fill-rule: nonzero; opacity: 1; visibility: hidden;" vector-effect="non-scaling-stroke"  x="-540" y="-540" rx="0" ry="0" width="1080" height="1080" />
</g>
		<g transform="matrix(36.45 0 0 36.45 0 0)"  >
<path style="stroke: none; stroke-width: 1; stroke-dasharray: none; stroke-linecap: butt; stroke-dashoffset: 0; stroke-linejoin: miter; stroke-miterlimit: 4; fill: rgb(189,195,199); fill-rule: nonzero; opacity: 1;" vector-effect="non-scaling-stroke"  transform=" translate(-12, -1040.4)" d="M 12 1029.4 C 5.9249 1029.4 1 1034.3000000000002 1 1040.4 C 1 1046.4 5.9249 1051.4 12 1051.4 C 18.075 1051.4 23 1046.4 23 1040.4 C 23 1034.3000000000002 18.075 1029.4 12 1029.4 z M 12 1033.4 C 15.866 1033.4 19 1036.5 19 1040.4 C 19 1044.2 15.866 1047.4 12 1047.4 C 8.134 1047.4 5 1044.2 5 1040.4 C 5 1036.5 8.134 1033.4 12 1033.4 z" stroke-linecap="round" />
</g>
		<g transform="matrix(36.45 0 0 36.45 0 -1.76)"  >
<path style="stroke: none; stroke-width: 1; stroke-dasharray: none; stroke-linecap: butt; stroke-dashoffset: 0; stroke-linejoin: miter; stroke-miterlimit: 4; fill: rgb(189,195,199); fill-rule: nonzero; opacity: 1;" vector-effect="non-scaling-stroke"  transform=" translate(-12, -1040.35)" d="M 17 1031.7 C 12.216999999999999 1028.9 6.101000000000001 1030.6000000000001 3.34 1035.4 C 0.5783 1040.1000000000001 2.2171 1046.3000000000002 7 1049 C 11.783000000000001 1051.8 17.899 1050.1 20.66 1045.4 C 23.422 1040.6000000000001 21.783 1034.5 17 1031.7 z M 13 1038.6000000000001 C 13.957 1039.2 14.284 1040.4 13.732 1041.4 C 13.18 1042.3000000000002 11.956999999999999 1042.6000000000001 11 1042.1000000000001 C 10.043 1041.5000000000002 9.7157 1040.3000000000002 10.268 1039.4 C 10.82 1038.4 12.043000000000001 1038.1000000000001 13 1038.6000000000001 z" stroke-linecap="round" />
</g>
		<g transform="matrix(36.45 0 0 36.45 0 -1.21)"  >
<path style="stroke: none; stroke-width: 1; stroke-dasharray: none; stroke-linecap: butt; stroke-dashoffset: 0; stroke-linejoin: miter; stroke-miterlimit: 4; fill: rgb(236,240,241); fill-rule: nonzero; opacity: 1;" vector-effect="non-scaling-stroke"  transform=" translate(-12, -1040.37)" d="M 13.5 1037.8 C 12.065 1036.8999999999999 10.23 1037.3999999999999 9.401900000000001 1038.8999999999999 C 8.573500000000001 1040.3 9.065100000000001 1042.1 10.500000000000002 1042.9999999999998 C 11.935000000000002 1043.7999999999997 13.770000000000001 1043.2999999999997 14.598000000000003 1041.8999999999999 C 15.427000000000003 1040.3999999999999 14.935000000000002 1038.6 13.500000000000002 1037.8 z M 13 1038.6 C 13.957 1039.1999999999998 14.284 1040.3999999999999 13.732 1041.3999999999999 C 13.18 1042.3 11.956999999999999 1042.6 11 1042.1 C 10.043 1041.5 9.7157 1040.3 10.268 1039.3999999999999 C 10.82 1038.3999999999999 12.043000000000001 1038.1 13 1038.6 z" stroke-linecap="round" />
</g>
		<g transform="matrix(36.45 0 0 36.45 -0.09 -3.64)"  >
<path style="stroke: none; stroke-width: 1; stroke-dasharray: none; stroke-linecap: butt; stroke-dashoffset: 0; stroke-linejoin: miter; stroke-miterlimit: 4; fill: rgb(236,240,241); fill-rule: nonzero; opacity: 1;" vector-effect="non-scaling-stroke"  transform=" translate(-12, -1040.3)" d="M 6.0098 1032.3 C 3.761 1034 2.3882000000000003 1036.5 2.0723000000000003 1039.1 L 10.036999999999999 1040.1 C 10.101999999999999 1039.5 10.366999999999999 1039.1 10.818999999999999 1038.6999999999998 L 6.009799999999999 1032.2999999999997 z M 21.922800000000002 1041.5 L 13.984800000000003 1040.5 C 13.919800000000004 1041.1 13.627800000000004 1041.5 13.176800000000004 1041.9 L 17.985800000000005 1048.3000000000002 C 20.233800000000006 1046.6000000000001 21.606800000000003 1044.1000000000001 21.922800000000006 1041.5000000000002 z" stroke-linecap="round" />
</g>
		<g transform="matrix(36.45 0 0 36.45 0 0)"  >
<path style="stroke: none; stroke-width: 1; stroke-dasharray: none; stroke-linecap: butt; stroke-dashoffset: 0; stroke-linejoin: miter; stroke-miterlimit: 4; fill: rgb(189,195,199); fill-rule: nonzero; opacity: 1;" vector-effect="non-scaling-stroke"  transform=" translate(-12, -1040.4)" d="M 12 1036.4 C 9.7909 1036.4 8 1038.2 8 1040.4 C 8 1042.6000000000001 9.7909 1044.4 12 1044.4 C 14.209 1044.4 16 1042.6000000000001 16 1040.4 C 16 1038.2 14.209 1036.4 12 1036.4 z M 12 1037.4 C 13.657 1037.4 15 1038.7 15 1040.4 C 15 1042 13.657 1043.4 12 1043.4 C 10.343 1043.4 9 1042 9 1040.4 C 9 1038.7 10.343 1037.4 12 1037.4 z" stroke-linecap="round" />
</g>
</g>
</g>
</svg>