<?xml version="1.0" encoding="UTF-8" standalone="no" ?>
<!DOCTYPE svg PUBLIC "-//W3C//DTD SVG 1.1//EN" "http://www.w3.org/Graphics/SVG/1.1/DTD/svg11.dtd">
<svg xmlns="http://www.w3.org/2000/svg" xmlns:xlink="http://www.w3.org/1999/xlink" version="1.1" width="1080" height="1080" viewBox="0 0 1080 1080" xml:space="preserve">
<desc>Created with Fabric.js 5.2.4</desc>
<defs>
</defs>
<rect x="0" y="0" width="100%" height="100%" fill="transparent"></rect>
<g transform="matrix(1 0 0 1 540 540)" id="9ec662dd-82b9-45ff-adff-1d7a390fdf63"  >
</g>
<g transform="matrix(1 0 0 1 540 540)" id="6a18d6e6-15db-4a08-9e51-9ac9bbd6ef2c"  >
<rect style="stroke: none; stroke-width: 1; stroke-dasharray: none; stroke-linecap: butt; stroke-dashoffset: 0; stroke-linejoin: miter; stroke-miterlimit: 4; fill: rgb(255,255,255); fill-rule: nonzero; opacity: 1; visibility: hidden;" vector-effect="non-scaling-stroke"  x="-540" y="-540" rx="0" ry="0" width="1080" height="1080" />
</g>
<g transform="matrix(1 0 0 1 50 50)"  >
<rect style="stroke: none; stroke-width: 1; stroke-dasharray: none; stroke-linecap: butt; stroke-dashoffset: 0; stroke-linejoin: miter; stroke-miterlimit: 4; fill: rgb(255,255,255); fill-opacity: 0; fill-rule: nonzero; opacity: 1;" vector-effect="non-scaling-stroke"  x="-50" y="-50" rx="0" ry="0" width="100" height="100" />
</g>
<g transform="matrix(1 0 0 1 540 540)"  >
<rect style="stroke: none; stroke-width: 1; stroke-dasharray: none; stroke-linecap: butt; stroke-dashoffset: 0; stroke-linejoin: miter; stroke-miterlimit: 4; fill: rgb(255,255,255); fill-rule: nonzero; opacity: 1; visibility: hidden;" vector-effect="non-scaling-stroke"  x="-540" y="-540" rx="0" ry="0" width="1080" height="1080" />
</g>
<g transform="matrix(0 0 0 0 0 0)"  >
<g style=""   >
</g>
</g>
<g transform="matrix(0 0 0 0 0 0)"  >
<g style=""   >
</g>
</g>
<g transform="matrix(1 0 0 1 50 50)"  >
<rect style="stroke: none; stroke-width: 1; stroke-dasharray: none; stroke-linecap: butt; stroke-dashoffset: 0; stroke-linejoin: miter; stroke-miterlimit: 4; fill: rgb(255,255,255); fill-opacity: 0; fill-rule: nonzero; opacity: 1;" vector-effect="non-scaling-stroke"  x="-50" y="-50" rx="0" ry="0" width="100" height="100" />
</g>
<g transform="matrix(1 0 0 1 540 540)"  >
<rect style="stroke: none; stroke-width: 1; stroke-dasharray: none; stroke-linecap: butt; stroke-dashoffset: 0; stroke-linejoin: miter; stroke-miterlimit: 4; fill: rgb(255,255,255); fill-rule: nonzero; opacity: 1; visibility: hidden;" vector-effect="non-scaling-stroke"  x="-540" y="-540" rx="0" ry="0" width="1080" height="1080" />
</g>
<g transform="matrix(1 0 0 1 50 50)"  >
<rect style="stroke: none; stroke-width: 1; stroke-dasharray: none; stroke-linecap: butt; stroke-dashoffset: 0; stroke-linejoin: miter; stroke-miterlimit: 4; fill: rgb(255,255,255); fill-opacity: 0; fill-rule: nonzero; opacity: 1;" vector-effect="non-scaling-stroke"  x="-50" y="-50" rx="0" ry="0" width="100" height="100" />
</g>
<g transform="matrix(1 0 0 1 540 540)"  >
<rect style="stroke: none; stroke-width: 1; stroke-dasharray: none; stroke-linecap: butt; stroke-dashoffset: 0; stroke-linejoin: miter; stroke-miterlimit: 4; fill: rgb(255,255,255); fill-rule: nonzero; opacity: 1; visibility: hidden;" vector-effect="non-scaling-stroke"  x="-540" y="-540" rx="0" ry="0" width="1080" height="1080" />
</g>
<g transform="matrix(1 0 0 1 50 50)"  >
<rect style="stroke: none; stroke-width: 1; stroke-dasharray: none; stroke-linecap: butt; stroke-dashoffset: 0; stroke-linejoin: miter; stroke-miterlimit: 4; fill: rgb(255,255,255); fill-opacity: 0; fill-rule: nonzero; opacity: 1;" vector-effect="non-scaling-stroke"  x="-50" y="-50" rx="0" ry="0" width="100" height="100" />
</g>
<g transform="matrix(1 0 0 1 540 540)"  >
<rect style="stroke: none; stroke-width: 1; stroke-dasharray: none; stroke-linecap: butt; stroke-dashoffset: 0; stroke-linejoin: miter; stroke-miterlimit: 4; fill: rgb(255,255,255); fill-rule: nonzero; opacity: 1; visibility: hidden;" vector-effect="non-scaling-stroke"  x="-540" y="-540" rx="0" ry="0" width="1080" height="1080" />
</g>
<g transform="matrix(1 0 0 1 50 50)"  >
<rect style="stroke: none; stroke-width: 1; stroke-dasharray: none; stroke-linecap: butt; stroke-dashoffset: 0; stroke-linejoin: miter; stroke-miterlimit: 4; fill: rgb(255,255,255); fill-opacity: 0; fill-rule: nonzero; opacity: 1;" vector-effect="non-scaling-stroke"  x="-50" y="-50" rx="0" ry="0" width="100" height="100" />
</g>
<g transform="matrix(1 0 0 1 540 540)"  >
<rect style="stroke: none; stroke-width: 1; stroke-dasharray: none; stroke-linecap: butt; stroke-dashoffset: 0; stroke-linejoin: miter; stroke-miterlimit: 4; fill: rgb(255,255,255); fill-rule: nonzero; opacity: 1; visibility: hidden;" vector-effect="non-scaling-stroke"  x="-540" y="-540" rx="0" ry="0" width="1080" height="1080" />
</g>
<g transform="matrix(1 0 0 1 50 50)"  >
<rect style="stroke: none; stroke-width: 1; stroke-dasharray: none; stroke-linecap: butt; stroke-dashoffset: 0; stroke-linejoin: miter; stroke-miterlimit: 4; fill: rgb(255,255,255); fill-opacity: 0; fill-rule: nonzero; opacity: 1;" vector-effect="non-scaling-stroke"  x="-50" y="-50" rx="0" ry="0" width="100" height="100" />
</g>
<g transform="matrix(1 0 0 1 540 540)"  >
<rect style="stroke: none; stroke-width: 1; stroke-dasharray: none; stroke-linecap: butt; stroke-dashoffset: 0; stroke-linejoin: miter; stroke-miterlimit: 4; fill: rgb(255,255,255); fill-rule: nonzero; opacity: 1; visibility: hidden;" vector-effect="non-scaling-stroke"  x="-540" y="-540" rx="0" ry="0" width="1080" height="1080" />
</g>
<g transform="matrix(1 0 0 1 50 50)"  >
<rect style="stroke: none; stroke-width: 1; stroke-dasharray: none; stroke-linecap: butt; stroke-dashoffset: 0; stroke-linejoin: miter; stroke-miterlimit: 4; fill: rgb(255,255,255); fill-opacity: 0; fill-rule: nonzero; opacity: 1;" vector-effect="non-scaling-stroke"  x="-50" y="-50" rx="0" ry="0" width="100" height="100" />
</g>
<g transform="matrix(1 0 0 1 540 540)"  >
<rect style="stroke: none; stroke-width: 1; stroke-dasharray: none; stroke-linecap: butt; stroke-dashoffset: 0; stroke-linejoin: miter; stroke-miterlimit: 4; fill: rgb(255,255,255); fill-rule: nonzero; opacity: 1; visibility: hidden;" vector-effect="non-scaling-stroke"  x="-540" y="-540" rx="0" ry="0" width="1080" height="1080" />
</g>
<g transform="matrix(1 0 0 1 50 50)"  >
<rect style="stroke: none; stroke-width: 1; stroke-dasharray: none; stroke-linecap: butt; stroke-dashoffset: 0; stroke-linejoin: miter; stroke-miterlimit: 4; fill: rgb(255,255,255); fill-opacity: 0; fill-rule: nonzero; opacity: 1;" vector-effect="non-scaling-stroke"  x="-50" y="-50" rx="0" ry="0" width="100" height="100" />
</g>
<g transform="matrix(1 0 0 1 540 540)"  >
<rect style="stroke: none; stroke-width: 1; stroke-dasharray: none; stroke-linecap: butt; stroke-dashoffset: 0; stroke-linejoin: miter; stroke-miterlimit: 4; fill: rgb(255,255,255); fill-rule: nonzero; opacity: 1; visibility: hidden;" vector-effect="non-scaling-stroke"  x="-540" y="-540" rx="0" ry="0" width="1080" height="1080" />
</g>
<g transform="matrix(11.35 0 0 11.35 426.35 813.8)"  >
<path style="stroke: none; stroke-width: 1; stroke-dasharray: none; stroke-linecap: butt; stroke-dashoffset: 0; stroke-linejoin: miter; stroke-miterlimit: 4; fill: rgb(92,59,81); fill-rule: nonzero; opacity: 1;" vector-effect="non-scaling-stroke"  transform=" translate(-22, -56)" d="M 19 51 L 25 51 L 25 58 C 25 59.65685424949238 23.65685424949238 61 22 61 L 22 61 C 20.34314575050762 61 19 59.65685424949238 19 58 L 19 51 Z" stroke-linecap="round" />
</g>
<g transform="matrix(11.35 0 0 11.35 653.44 813.8)"  >
<path style="stroke: none; stroke-width: 1; stroke-dasharray: none; stroke-linecap: butt; stroke-dashoffset: 0; stroke-linejoin: miter; stroke-miterlimit: 4; fill: rgb(92,59,81); fill-rule: nonzero; opacity: 1;" vector-effect="non-scaling-stroke"  transform=" translate(-42, -56)" d="M 39 51 L 45 51 L 45 58 C 45 59.65685424949238 43.65685424949238 61 42 61 L 42 61 C 40.34314575050762 61 39 59.65685424949238 39 58 L 39 51 Z" stroke-linecap="round" />
</g>
<g transform="matrix(11.35 0 0 11.35 403.62 314.2)"  >
<circle style="stroke: none; stroke-width: 1; stroke-dasharray: none; stroke-linecap: butt; stroke-dashoffset: 0; stroke-linejoin: miter; stroke-miterlimit: 4; fill: rgb(247,75,80); fill-rule: nonzero; opacity: 1;" vector-effect="non-scaling-stroke"  cx="0" cy="0" r="9" />
</g>
<g transform="matrix(11.35 0 0 11.35 403.62 271.64)"  >
<path style="stroke: none; stroke-width: 1; stroke-dasharray: none; stroke-linecap: butt; stroke-dashoffset: 0; stroke-linejoin: miter; stroke-miterlimit: 4; fill: rgb(209,63,68); fill-rule: nonzero; opacity: 1;" vector-effect="non-scaling-stroke"  transform=" translate(-20, -8.25)" d="M 20 6 C 24.39017133488081 6.002009642131777 28.13830516082507 9.171232155613396 28.869999999999997 13.499999999999996 C 28.95384599317196 13.004340814676251 28.99732207202613 12.502693750974249 29 11.999999999999998 C 29 7.029437251522859 24.970562748477143 3 20 3 C 15.02943725152286 3 11 7.029437251522858 11 11.999999999999998 C 11.002677927973867 12.50269375097425 11.046154006828042 13.004340814676251 11.130000000000003 13.5 C 11.861694839174927 9.171232155613398 15.609828665119187 6.002009642131777 19.999999999999996 5.999999999999998 Z" stroke-linecap="round" />
</g>
<g transform="matrix(11.35 0 0 11.35 676.12 314.2)"  >
<circle style="stroke: none; stroke-width: 1; stroke-dasharray: none; stroke-linecap: butt; stroke-dashoffset: 0; stroke-linejoin: miter; stroke-miterlimit: 4; fill: rgb(247,75,80); fill-rule: nonzero; opacity: 1;" vector-effect="non-scaling-stroke"  cx="0" cy="0" r="9" />
</g>
<g transform="matrix(11.35 0 0 11.35 676.12 271.64)"  >
<path style="stroke: none; stroke-width: 1; stroke-dasharray: none; stroke-linecap: butt; stroke-dashoffset: 0; stroke-linejoin: miter; stroke-miterlimit: 4; fill: rgb(209,63,68); fill-rule: nonzero; opacity: 1;" vector-effect="non-scaling-stroke"  transform=" translate(-44, -8.25)" d="M 44 6 C 48.39017133488081 6.002009642131777 52.13830516082507 9.171232155613396 52.87 13.499999999999996 C 52.95384599317196 13.004340814676251 52.99732207202613 12.502693750974249 53 11.999999999999998 C 53 7.029437251522859 48.97056274847714 3 44 3 C 39.02943725152286 3 35 7.029437251522858 35 11.999999999999998 C 35.00267792797387 12.50269375097425 35.04615400682804 13.004340814676253 35.13 13.500000000000002 C 35.86169483917493 9.171232155613396 39.60982866511919 6.002009642131779 44 6 Z" stroke-linecap="round" />
</g>
<g transform="matrix(11.35 0 0 11.35 539.81 541.22)"  >
<circle style="stroke: none; stroke-width: 1; stroke-dasharray: none; stroke-linecap: butt; stroke-dashoffset: 0; stroke-linejoin: miter; stroke-miterlimit: 4; fill: rgb(139,217,79); fill-rule: nonzero; opacity: 1;" vector-effect="non-scaling-stroke"  cx="0" cy="0" r="24" />
</g>
<g transform="matrix(11.35 0 0 11.35 539.83 541.24)"  >
<circle style="stroke: none; stroke-width: 1; stroke-dasharray: none; stroke-linecap: butt; stroke-dashoffset: 0; stroke-linejoin: miter; stroke-miterlimit: 4; fill: rgb(69,212,217); fill-rule: nonzero; opacity: 1;" vector-effect="non-scaling-stroke"  cx="0" cy="0" r="20" />
</g>
<g transform="matrix(11.35 0 0 11.35 539.83 436.25)"  >
<path style="stroke: none; stroke-width: 1; stroke-dasharray: none; stroke-linecap: butt; stroke-dashoffset: 0; stroke-linejoin: miter; stroke-miterlimit: 4; fill: rgb(45,149,181); fill-rule: nonzero; opacity: 1;" vector-effect="non-scaling-stroke"  transform=" translate(-32, -22.75)" d="M 32 15 C 42.454706734245306 15.012374057791938 51.135903768601224 23.07473074130521 51.92 33.5 C 51.92 33 52 32.5 52 32 C 52 20.954305003384132 43.045694996615865 12 32 12 C 20.954305003384132 12 12 20.95430500338413 12 31.999999999999996 C 12 32.51 12 33 12.08 33.5 C 12.864096231398783 23.074730741305206 21.545293265754687 15.012374057791941 32 15 Z" stroke-linecap="round" />
</g>
<g transform="matrix(11.35 0 0 11.35 539.9 539.88)"  >
<path style="stroke: none; stroke-width: 1; stroke-dasharray: none; stroke-linecap: butt; stroke-dashoffset: 0; stroke-linejoin: miter; stroke-miterlimit: 4; fill: rgb(44,42,61); fill-rule: nonzero; opacity: 1;" vector-effect="non-scaling-stroke"  transform=" translate(-32.01, -31.88)" d="M 57 32 C 57.00284970991112 26.799575049394814 55.37672735337467 21.72887092686181 52.349999999999994 17.5 C 53.43128002163362 15.86993375266957 54.005435845218656 13.956081007386114 54 12.000000000000004 C 53.97230098883341 7.451363427423391 50.87825148852821 3.494502242807428 46.47050791069083 2.3708214800307523 C 42.06276433285344 1.2471407172540765 37.45198760549138 3.239784868896731 35.25 7.220000000000002 C 33.09325795119072 6.926719665227894 30.90674204880927 6.9267196652278935 28.749999999999993 7.22 C 27.050156751086416 3.8909066657890867 23.63553719464302 1.7877791459334018 19.897633390653404 1.7676632098481315 C 16.159729586663786 1.7475472737628612 12.722672047302524 3.813801747718055 10.987096537893173 7.124407002033813 C 9.251521028483822 10.435012256349571 9.507222495180201 14.437185271094098 11.649999999999991 17.499999999999993 C 7.7456505730374765 22.984429011592262 6.218257551936617 29.811740287940456 7.413444360367835 36.43702779294501 C 8.608631168799054 43.06231529794957 12.42537112854475 48.9255571303098 17.999999999999993 52.699999999999996 L 18 58 C 18 60.20913899932317 19.790861000676827 62 22 62 C 24.209138999323173 62 26 60.20913899932317 26 58 L 26 56.27 C 29.94067888346219 57.24423706796908 34.05932111653782 57.24423706796908 38 56.27 L 38 58 C 38 60.20913899932317 39.79086100067683 62 42 62 C 44.20913899932317 62 46 60.20913899932317 46 58 L 46 52.7 C 52.87479504472504 48.05314621218578 56.99591168780488 40.297953983844614 57 32 Z M 44 4 C 48.418277998646346 4 52 7.581722001353651 52 11.999999999999998 C 51.997225925916744 13.334522781479606 51.65297136085472 14.646132674365923 51 15.809999999999999 C 47.467417269581844 11.65366311350817 42.67470157409485 8.763989108097327 37.35 7.580000000000004 C 38.828430037255266 5.349595048091041 41.32410297230073 4.006059843961304 44 4.000000000000001 Z M 12 12 C 12.011927334337262 8.481811324698814 14.32093610805883 5.384339634661966 17.68918295672189 4.368117718546556 C 21.05742980538495 3.3518958024311463 24.6942622521595 4.6554686395947655 26.65 7.579999999999997 C 21.325298425905157 8.763989108097325 16.532582730418152 11.653663113508172 12.999999999999998 15.810000000000004 C 12.347028639145282 14.646132674365923 12.002774074083257 13.334522781479606 12 12 Z M 24 58 C 24 59.10456949966159 23.104569499661586 60 22 60 C 20.895430500338414 60 20 59.10456949966159 20 58 L 20 53.92 C 21.278574232776005 54.6239802078593 22.6171708744749 55.21296273020682 23.999999999999996 55.68 Z M 44 58 C 44 59.10456949966159 43.10456949966159 60 42 60 C 40.89543050033841 60 40 59.10456949966159 40 58 L 40 55.68 C 41.38282912552509 55.21296273020682 42.721425767224 54.6239802078593 44 53.92 Z M 32 55 C 19.297450753891752 55 9 44.70254924610825 9 32 C 9 19.297450753891752 19.297450753891752 9 32 9 C 44.70254924610825 9 55 19.297450753891745 55 31.999999999999993 C 55 44.70254924610825 44.70254924610825 55 32 55 Z" stroke-linecap="round" />
</g>
<g transform="matrix(11.35 0 0 11.35 539.82 541.23)"  >
<path style="stroke: none; stroke-width: 1; stroke-dasharray: none; stroke-linecap: butt; stroke-dashoffset: 0; stroke-linejoin: miter; stroke-miterlimit: 4; fill: rgb(44,42,61); fill-rule: nonzero; opacity: 1;" vector-effect="non-scaling-stroke"  transform=" translate(-32, -32)" d="M 32 11 C 20.40202025355334 11 11 20.40202025355334 11 32 C 11 43.59797974644666 20.40202025355334 53 32 53 C 43.59797974644666 53 53 43.59797974644666 53 32 C 53 20.40202025355334 43.59797974644666 11 32 11 Z M 32 51 C 21.506589753214925 51 13 42.493410246785075 13 32 C 13 21.506589753214925 21.506589753214925 13 32 13 C 42.493410246785075 13 51 21.50658975321492 51 31.999999999999996 C 51 42.493410246785075 42.493410246785075 51 32 51 Z" stroke-linecap="round" />
</g>
<g transform="matrix(11.35 0 0 11.35 596.65 484.52)"  >
<path style="stroke: none; stroke-width: 1; stroke-dasharray: none; stroke-linecap: butt; stroke-dashoffset: 0; stroke-linejoin: miter; stroke-miterlimit: 4; fill: rgb(44,42,61); fill-rule: nonzero; opacity: 1;" vector-effect="non-scaling-stroke"  transform=" translate(-37, -27)" d="M 42 31 L 33 31 L 33 22 C 33 21.447715250169207 32.5522847498308 21 32 21 C 31.447715250169207 21 31 21.447715250169207 31 22 L 31 32 C 31 32.5522847498308 31.447715250169207 33 32 33 L 42 33 C 42.5522847498308 33 43 32.5522847498308 43 32 C 43 31.447715250169207 42.5522847498308 31 42 31 Z" stroke-linecap="round" />
</g>
<g transform="matrix(11.35 0 0 11.35 539.9 358.17)"  >
<path style="stroke: none; stroke-width: 1; stroke-dasharray: none; stroke-linecap: butt; stroke-dashoffset: 0; stroke-linejoin: miter; stroke-miterlimit: 4; fill: rgb(44,42,61); fill-rule: nonzero; opacity: 1;" vector-effect="non-scaling-stroke"  transform=" translate(-32, -15.87)" d="M 32 17.74 C 32.5522847498308 17.74 33 17.29228474983079 33 16.74 L 33 15 C 33 14.447715250169207 32.5522847498308 14 32 14 C 31.447715250169207 14 31 14.447715250169207 31 15 L 31 16.74 C 31 17.29228474983079 31.447715250169207 17.74 32 17.74 Z" stroke-linecap="round" />
</g>
<g transform="matrix(11.35 0 0 11.35 539.9 724.45)"  >
<path style="stroke: none; stroke-width: 1; stroke-dasharray: none; stroke-linecap: butt; stroke-dashoffset: 0; stroke-linejoin: miter; stroke-miterlimit: 4; fill: rgb(44,42,61); fill-rule: nonzero; opacity: 1;" vector-effect="non-scaling-stroke"  transform=" translate(-32, -48.13)" d="M 32 46.26 C 31.447715250169207 46.26 31 46.7077152501692 31 47.26 L 31 49 C 31 49.5522847498308 31.447715250169207 50 32 50 C 32.5522847498308 50 33 49.5522847498308 33 49 L 33 47.26 C 33 46.7077152501692 32.5522847498308 46.26 32 46.26 Z" stroke-linecap="round" />
</g>
<g transform="matrix(11.35 0 0 11.35 448.31 382.73)"  >
<path style="stroke: none; stroke-width: 1; stroke-dasharray: none; stroke-linecap: butt; stroke-dashoffset: 0; stroke-linejoin: miter; stroke-miterlimit: 4; fill: rgb(44,42,61); fill-rule: nonzero; opacity: 1;" vector-effect="non-scaling-stroke"  transform=" translate(-23.93, -18.03)" d="M 24.37 16.78 C 24.093857625084603 16.299512267647213 23.480487732352792 16.133857625084605 23 16.410000000000004 C 22.51951226764721 16.6861423749154 22.353857625084608 17.299512267647213 22.630000000000003 17.78 L 23.51 19.290000000000003 C 23.687552295431548 19.597544535974293 24.014888940196872 19.787856538744833 24.37 19.790000000000003 C 24.546086206807434 19.788171263538374 24.718567191568766 19.7398765878052 24.87 19.650000000000002 C 25.346136416471772 19.375391519356448 25.51138830383666 18.767979176609824 25.240000000000002 18.290000000000003 Z" stroke-linecap="round" />
</g>
<g transform="matrix(11.35 0 0 11.35 631.59 700.1)"  >
<path style="stroke: none; stroke-width: 1; stroke-dasharray: none; stroke-linecap: butt; stroke-dashoffset: 0; stroke-linejoin: miter; stroke-miterlimit: 4; fill: rgb(44,42,61); fill-rule: nonzero; opacity: 1;" vector-effect="non-scaling-stroke"  transform=" translate(-40.07, -45.98)" d="M 40.49 44.71 C 40.20250401892242 44.25774740269933 39.609603219091966 44.11251979867206 39.145639753260696 44.38070677314101 C 38.68167628742943 44.64889374760995 38.51159827544622 45.235149566558405 38.760000000000005 45.71 L 39.63 47.22 C 39.9061423749154 47.70048773235279 40.519512267647215 47.8661423749154 41 47.59 C 41.48048773235279 47.3138576250846 41.6461423749154 46.70048773235279 41.370000000000005 46.22 Z" stroke-linecap="round" />
</g>
<g transform="matrix(11.35 0 0 11.35 381.11 449.63)"  >
<path style="stroke: none; stroke-width: 1; stroke-dasharray: none; stroke-linecap: butt; stroke-dashoffset: 0; stroke-linejoin: miter; stroke-miterlimit: 4; fill: rgb(44,42,61); fill-rule: nonzero; opacity: 1;" vector-effect="non-scaling-stroke"  transform=" translate(-18.02, -23.93)" d="M 19.29 23.51 L 17.779999999999998 22.630000000000003 C 17.29951226764721 22.353857625084608 16.686142374915395 22.51951226764721 16.409999999999997 23.000000000000004 C 16.1338576250846 23.480487732352792 16.29951226764721 24.093857625084603 16.779999999999998 24.37 L 18.29 25.240000000000002 C 18.764850433441598 25.488401724553814 19.35110625239008 25.318323712570606 19.61929322685903 24.854360246739326 C 19.887480201327975 24.390396780908045 19.742252597300695 23.797495981077574 19.29 23.51 Z" stroke-linecap="round" />
</g>
<g transform="matrix(11.35 0 0 11.35 698.52 632.9)"  >
<path style="stroke: none; stroke-width: 1; stroke-dasharray: none; stroke-linecap: butt; stroke-dashoffset: 0; stroke-linejoin: miter; stroke-miterlimit: 4; fill: rgb(44,42,61); fill-rule: nonzero; opacity: 1;" vector-effect="non-scaling-stroke"  transform=" translate(-45.97, -40.07)" d="M 47.22 39.63 L 45.71 38.760000000000005 C 45.23202082339018 38.488611696163346 44.62460848064356 38.653863583528235 44.35 39.13 C 44.076917882492886 39.605373160039484 44.237492602858275 40.21198877030874 44.71 40.49 L 46.22 41.370000000000005 C 46.70048773235279 41.6461423749154 47.3138576250846 41.48048773235279 47.59 41.00000000000001 C 47.8661423749154 40.519512267647215 47.70048773235279 39.9061423749154 47.22 39.63 Z" stroke-linecap="round" />
</g>
<g transform="matrix(11.35 0 0 11.35 356.75 541.32)"  >
<path style="stroke: none; stroke-width: 1; stroke-dasharray: none; stroke-linecap: butt; stroke-dashoffset: 0; stroke-linejoin: miter; stroke-miterlimit: 4; fill: rgb(44,42,61); fill-rule: nonzero; opacity: 1;" vector-effect="non-scaling-stroke"  transform=" translate(-15.87, -32)" d="M 17.74 32 C 17.74 31.447715250169207 17.29228474983079 31 16.74 31 L 15 31 C 14.447715250169207 31 14 31.447715250169207 14 32 C 14 32.5522847498308 14.447715250169207 33 15 33 L 16.74 33 C 17.29228474983079 33 17.74 32.5522847498308 17.74 32 Z" stroke-linecap="round" />
</g>
<g transform="matrix(11.35 0 0 11.35 723.04 541.32)"  >
<path style="stroke: none; stroke-width: 1; stroke-dasharray: none; stroke-linecap: butt; stroke-dashoffset: 0; stroke-linejoin: miter; stroke-miterlimit: 4; fill: rgb(44,42,61); fill-rule: nonzero; opacity: 1;" vector-effect="non-scaling-stroke"  transform=" translate(-48.13, -32)" d="M 49 31 L 47.26 31 C 46.7077152501692 31 46.26 31.447715250169207 46.26 32 C 46.26 32.5522847498308 46.7077152501692 33 47.26 33 L 49 33 C 49.5522847498308 33 50 32.5522847498308 50 32 C 50 31.447715250169207 49.5522847498308 31 49 31 Z" stroke-linecap="round" />
</g>
<g transform="matrix(11.35 0 0 11.35 381.28 632.9)"  >
<path style="stroke: none; stroke-width: 1; stroke-dasharray: none; stroke-linecap: butt; stroke-dashoffset: 0; stroke-linejoin: miter; stroke-miterlimit: 4; fill: rgb(44,42,61); fill-rule: nonzero; opacity: 1;" vector-effect="non-scaling-stroke"  transform=" translate(-18.03, -40.07)" d="M 18.29 38.76 L 16.779999999999998 39.629999999999995 C 16.299512267647206 39.90614237491539 16.133857625084598 40.51951226764721 16.409999999999997 41 C 16.686142374915395 41.480487732352785 17.29951226764721 41.64614237491539 17.779999999999998 41.37 L 19.29 40.489999999999995 C 19.762507397141725 40.211988770308736 19.923082117507118 39.60537316003948 19.65 39.129999999999995 C 19.37539151935644 38.65386358352823 18.767979176609817 38.48861169616334 18.29 38.76 Z" stroke-linecap="round" />
</g>
<g transform="matrix(11.35 0 0 11.35 698.54 449.72)"  >
<path style="stroke: none; stroke-width: 1; stroke-dasharray: none; stroke-linecap: butt; stroke-dashoffset: 0; stroke-linejoin: miter; stroke-miterlimit: 4; fill: rgb(44,42,61); fill-rule: nonzero; opacity: 1;" vector-effect="non-scaling-stroke"  transform=" translate(-45.97, -23.93)" d="M 45.21 25.37 C 45.38517638161386 25.371209832066935 45.5575970910997 25.326380447600613 45.71 25.240000000000002 L 47.22 24.37 C 47.70048773235279 24.093857625084603 47.8661423749154 23.480487732352792 47.589999999999996 23 C 47.3138576250846 22.51951226764721 46.70048773235279 22.353857625084608 46.22 22.630000000000003 L 44.71 23.51 C 44.324254315180504 23.738834811572307 44.13805550122173 24.19651570510599 44.25449029714205 24.62965314592956 C 44.37092509306236 25.062790586753124 44.761509030752336 25.365422353499515 45.21 25.37 Z" stroke-linecap="round" />
</g>
<g transform="matrix(11.35 0 0 11.35 448.31 699.93)"  >
<path style="stroke: none; stroke-width: 1; stroke-dasharray: none; stroke-linecap: butt; stroke-dashoffset: 0; stroke-linejoin: miter; stroke-miterlimit: 4; fill: rgb(44,42,61); fill-rule: nonzero; opacity: 1;" vector-effect="non-scaling-stroke"  transform=" translate(-23.93, -45.97)" d="M 24.87 44.35 C 24.39462683996052 44.076917882492886 23.78801122969126 44.237492602858275 23.51 44.71 L 22.630000000000003 46.22 C 22.353857625084608 46.70048773235279 22.51951226764721 47.3138576250846 23.000000000000004 47.589999999999996 C 23.480487732352792 47.8661423749154 24.093857625084603 47.70048773235279 24.37 47.22 L 25.240000000000002 45.71 C 25.51138830383666 45.23202082339018 25.346136416471772 44.62460848064356 24.87 44.35 Z" stroke-linecap="round" />
</g>
</svg>