<?xml version="1.0" encoding="UTF-8" standalone="no" ?>
<!DOCTYPE svg PUBLIC "-//W3C//DTD SVG 1.1//EN" "http://www.w3.org/Graphics/SVG/1.1/DTD/svg11.dtd">
<svg xmlns="http://www.w3.org/2000/svg" xmlns:xlink="http://www.w3.org/1999/xlink" version="1.1" width="1080" height="1080" viewBox="0 0 1080 1080" xml:space="preserve">
<desc>Created with Fabric.js 5.2.4</desc>
<defs>
</defs>
<rect x="0" y="0" width="100%" height="100%" fill="transparent"></rect>
<g transform="matrix(1 0 0 1 540 540)" id="56197b9e-9c44-43ef-8a4c-e43398921f46"  >
<rect style="stroke: none; stroke-width: 1; stroke-dasharray: none; stroke-linecap: butt; stroke-dashoffset: 0; stroke-linejoin: miter; stroke-miterlimit: 4; fill: rgb(255,255,255); fill-rule: nonzero; opacity: 1; visibility: hidden;" vector-effect="non-scaling-stroke"  x="-540" y="-540" rx="0" ry="0" width="1080" height="1080" />
</g>
<g transform="matrix(1 0 0 1 540 540)" id="8be19551-c0e5-4bde-8cfd-9207fe043817"  >
</g>
<g transform="matrix(46.89 0 0 46.89 540 540)" id="7ea24370-5ba8-41d8-90cf-0a1f7e3ec9e2"  >
<path style="stroke: rgb(0,0,0); stroke-width: 0; stroke-dasharray: none; stroke-linecap: butt; stroke-dashoffset: 0; stroke-linejoin: miter; stroke-miterlimit: 4; fill: rgb(238,232,213); fill-rule: nonzero; opacity: 1;" vector-effect="non-scaling-stroke"  transform=" translate(-11.53, -11.5)" d="M 3.3 19.7 C 3.6999999999999997 20.099999999999998 4.3 20.4 5.199999999999999 20.4 C 6.1 20.4 7.199999999999999 20.099999999999998 8.799999999999999 19.299999999999997 C 9.799999999999999 19.799999999999997 11 19.999999999999996 12.099999999999998 19.999999999999996 C 16.5 19.999999999999996 20.099999999999998 16.399999999999995 20.099999999999998 11.999999999999996 C 20.099999999999998 10.899999999999997 19.799999999999997 9.699999999999996 19.4 8.699999999999996 C 21 5.6 20.5 4 19.7 3.3 C 18.5 2.0999999999999996 16.4 2.5 13.5 4.2 C 13 4.1 12.5 4 12 4 C 7.6 4 4 7.6 4 12 C 4 12.5 4.1 13 4.2 13.5 C 2.5 16.4 2.1 18.6 3.3 19.7 z M 12 18 C 11.6 18 11.3 18 10.9 17.9 C 12.200000000000001 17 13.4 15.899999999999999 14.7 14.7 C 15.899999999999999 13.5 17 12.2 17.9 10.899999999999999 C 18 11.3 18 11.6 18 12 C 18 15.3 15.3 18 12 18 z M 5.8 17 C 6 17.2 6.3 17.4 6.6 17.4 C 6.8 17.4 7 17.299999999999997 7.199999999999999 17.2 C 7.6 16.9 7.699999999999999 16.2 7.299999999999999 15.799999999999999 C 6.5 14.7 6 13.4 6 12 C 6 8.7 8.7 6 12 6 C 13.4 6 14.8 6.5 15.9 7.4 C 16.3 7.800000000000001 17 7.7 17.3 7.300000000000001 C 17.6 6.900000000000001 17.6 6.200000000000001 17.2 5.9 C 16.9 5.6000000000000005 16.5 5.300000000000001 16.099999999999998 5.1000000000000005 C 17.4 4.500000000000001 18.2 4.500000000000001 18.4 4.7 C 18.599999999999998 4.9 18.599999999999998 6 17.4 8.2 C 16.5 9.799999999999999 14.999999999999998 11.6 13.399999999999999 13.299999999999999 C 11.7 14.999999999999998 9.899999999999999 16.4 8.299999999999999 17.299999999999997 C 6.199999999999999 18.499999999999996 4.999999999999999 18.499999999999996 4.799999999999999 18.299999999999997 C 4.599999999999999 18.099999999999998 4.599999999999999 17.4 5.199999999999999 15.999999999999996 C 5.3 16.4 5.5 16.7 5.8 17 z" stroke-linecap="round" />
</g>
<g transform="matrix(1 0 0 1 50 50)"  >
<rect style="stroke: none; stroke-width: 1; stroke-dasharray: none; stroke-linecap: butt; stroke-dashoffset: 0; stroke-linejoin: miter; stroke-miterlimit: 4; fill: rgb(255,255,255); fill-opacity: 0; fill-rule: nonzero; opacity: 1;" vector-effect="non-scaling-stroke"  x="-50" y="-50" rx="0" ry="0" width="100" height="100" />
</g>
<g transform="matrix(1 0 0 1 540 540)"  >
<rect style="stroke: none; stroke-width: 1; stroke-dasharray: none; stroke-linecap: butt; stroke-dashoffset: 0; stroke-linejoin: miter; stroke-miterlimit: 4; fill: rgb(255,255,255); fill-rule: nonzero; opacity: 1; visibility: hidden;" vector-effect="non-scaling-stroke"  x="-540" y="-540" rx="0" ry="0" width="1080" height="1080" />
</g>
<g transform="matrix(0.94 0 0 0.94 79.29 79.29)"  >
<rect style="stroke: none; stroke-width: 1; stroke-dasharray: none; stroke-linecap: butt; stroke-dashoffset: 0; stroke-linejoin: miter; stroke-miterlimit: 4; fill: rgb(177,189,197); fill-opacity: 0; fill-rule: nonzero; opacity: 1;" vector-effect="non-scaling-stroke"  x="-50" y="-50" rx="0" ry="0" width="100" height="100" />
</g>
<g transform="matrix(0.94 0 0 0.94 539.89 539.89)"  >
<rect style="stroke: none; stroke-width: 1; stroke-dasharray: none; stroke-linecap: butt; stroke-dashoffset: 0; stroke-linejoin: miter; stroke-miterlimit: 4; fill: rgb(177,189,197); fill-opacity: 0; fill-rule: nonzero; opacity: 1; visibility: hidden;" vector-effect="non-scaling-stroke"  x="-540" y="-540" rx="0" ry="0" width="1080" height="1080" />
</g>
<g transform="matrix(1 0 0 1 50 50)"  >
<rect style="stroke: none; stroke-width: 1; stroke-dasharray: none; stroke-linecap: butt; stroke-dashoffset: 0; stroke-linejoin: miter; stroke-miterlimit: 4; fill: rgb(255,255,255); fill-opacity: 0; fill-rule: nonzero; opacity: 1;" vector-effect="non-scaling-stroke"  x="-50" y="-50" rx="0" ry="0" width="100" height="100" />
</g>
<g transform="matrix(1 0 0 1 540 540)"  >
<rect style="stroke: none; stroke-width: 1; stroke-dasharray: none; stroke-linecap: butt; stroke-dashoffset: 0; stroke-linejoin: miter; stroke-miterlimit: 4; fill: rgb(255,255,255); fill-rule: nonzero; opacity: 1; visibility: hidden;" vector-effect="non-scaling-stroke"  x="-540" y="-540" rx="0" ry="0" width="1080" height="1080" />
</g>
<g transform="matrix(NaN NaN NaN NaN 0 0)"  >
<g style=""   >
</g>
</g>
<g transform="matrix(NaN NaN NaN NaN 0 0)"  >
<g style=""   >
</g>
</g>
</svg>