<?xml version="1.0" encoding="UTF-8" standalone="no" ?>
<!DOCTYPE svg PUBLIC "-//W3C//DTD SVG 1.1//EN" "http://www.w3.org/Graphics/SVG/1.1/DTD/svg11.dtd">
<svg xmlns="http://www.w3.org/2000/svg" xmlns:xlink="http://www.w3.org/1999/xlink" version="1.1" width="1080" height="1080" viewBox="0 0 1080 1080" xml:space="preserve">
<desc>Created with Fabric.js 5.2.4</desc>
<defs>
</defs>
<rect x="0" y="0" width="100%" height="100%" fill="transparent"></rect>
<g transform="matrix(1 0 0 1 540 540)" id="9a18d7ae-aca8-43ea-be9f-08569747ccfe"  >
</g>
<g transform="matrix(1 0 0 1 540 540)" id="9c32341d-1568-49fd-901e-acd02959f8d9"  >
<rect style="stroke: none; stroke-width: 1; stroke-dasharray: none; stroke-linecap: butt; stroke-dashoffset: 0; stroke-linejoin: miter; stroke-miterlimit: 4; fill: rgb(255,255,255); fill-rule: nonzero; opacity: 1; visibility: hidden;" vector-effect="non-scaling-stroke"  x="-540" y="-540" rx="0" ry="0" width="1080" height="1080" />
</g>
<g transform="matrix(0.94 0 0 0.94 79.29 79.29)"  >
<rect style="stroke: none; stroke-width: 1; stroke-dasharray: none; stroke-linecap: butt; stroke-dashoffset: 0; stroke-linejoin: miter; stroke-miterlimit: 4; fill: rgb(177,189,197); fill-opacity: 0; fill-rule: nonzero; opacity: 1;" vector-effect="non-scaling-stroke"  x="-50" y="-50" rx="0" ry="0" width="100" height="100" />
</g>
<g transform="matrix(0.94 0 0 0.94 539.89 539.89)"  >
<rect style="stroke: none; stroke-width: 1; stroke-dasharray: none; stroke-linecap: butt; stroke-dashoffset: 0; stroke-linejoin: miter; stroke-miterlimit: 4; fill: rgb(177,189,197); fill-opacity: 0; fill-rule: nonzero; opacity: 1; visibility: hidden;" vector-effect="non-scaling-stroke"  x="-540" y="-540" rx="0" ry="0" width="1080" height="1080" />
</g>
<g transform="matrix(0 0 0 0 0 0)"  >
<g style=""   >
</g>
</g>
<g transform="matrix(0 0 0 0 0 0)"  >
<g style=""   >
</g>
</g>
<g transform="matrix(0 0 0 0 0 0)"  >
<g style=""   >
</g>
</g>
<g transform="matrix(0 0 0 0 0 0)"  >
<g style=""   >
</g>
</g>
<g transform="matrix(0 0 0 0 0 0)"  >
<g style=""   >
</g>
</g>
<g transform="matrix(0 0 0 0 0 0)"  >
<g style=""   >
</g>
</g>
<g transform="matrix(0 0 0 0 0 0)"  >
<g style=""   >
</g>
</g>
<g transform="matrix(1 0 0 1 50 50)"  >
<rect style="stroke: none; stroke-width: 1; stroke-dasharray: none; stroke-linecap: butt; stroke-dashoffset: 0; stroke-linejoin: miter; stroke-miterlimit: 4; fill: rgb(255,255,255); fill-opacity: 0; fill-rule: nonzero; opacity: 1;" vector-effect="non-scaling-stroke"  x="-50" y="-50" rx="0" ry="0" width="100" height="100" />
</g>
<g transform="matrix(1 0 0 1 540 540)"  >
<rect style="stroke: none; stroke-width: 1; stroke-dasharray: none; stroke-linecap: butt; stroke-dashoffset: 0; stroke-linejoin: miter; stroke-miterlimit: 4; fill: rgb(255,255,255); fill-rule: nonzero; opacity: 1; visibility: hidden;" vector-effect="non-scaling-stroke"  x="-540" y="-540" rx="0" ry="0" width="1080" height="1080" />
</g>
<g transform="matrix(0 0 0 0 0 0)"  >
<g style=""   >
</g>
</g>
<g transform="matrix(0 0 0 0 0 0)"  >
<g style=""   >
</g>
</g>
<g transform="matrix(0 0 0 0 0 0)"  >
<g style=""   >
</g>
</g>
<g transform="matrix(0 0 0 0 0 0)"  >
<g style=""   >
</g>
</g>
<g transform="matrix(0 0 0 0 0 0)"  >
<g style=""   >
</g>
</g>
<g transform="matrix(9.61 0 0 9.61 539.81 539.85)"  >
<path style="stroke: rgb(0,0,0); stroke-width: 0; stroke-dasharray: none; stroke-linecap: butt; stroke-dashoffset: 0; stroke-linejoin: miter; stroke-miterlimit: 4; fill: rgb(238,232,213); fill-rule: nonzero; opacity: 1;" vector-effect="non-scaling-stroke"  transform=" translate(-45, -37.5)" d="M 88.42 42.004 L 72.68 4.543 C 71.432 2.045 68.131 0 65.344 0 L 55.1 0 L 57 20.322 L 70.5 20.322 L 45 41.469 L 19.5 20.322 L 33 20.322 L 34.899 0 L 24.658 0 C 21.869 0 18.568 2.045 17.322000000000003 4.543 L 1.582 42.004 C 0.3340000000000001 44.504 -0.31099999999999994 48.805 0.14800000000000013 51.561 L 3.548 69.989 C 4.008 72.744 6.664 75 9.451 75 L 80.549 75 C 83.33800000000001 75 85.992 72.744 86.45100000000001 69.988 L 89.85300000000001 51.56 C 90.311 48.805 89.666 44.504 88.42 42.004 z M 81.605 55.13 L 80.31 62.644000000000005 C 79.923 65.52900000000001 77.32600000000001 67.887 74.539 67.887 L 15.463 67.887 C 12.675999999999998 67.887 10.078 65.529 9.69 62.644 L 8.395 55.13 C 8.008 52.245000000000005 9.972999999999999 49.887 12.76 49.887 L 77.24000000000001 49.887 C 80.029 49.887 81.992 52.245 81.605 55.13 z" stroke-linecap="round" />
</g>
<g transform="matrix(0 0 0 0 0 0)"  >
<g style=""   >
</g>
</g>
<g transform="matrix(24.39 0 0 24.39 831.88 905.05)"  >
<path style="stroke: none; stroke-width: 1; stroke-dasharray: none; stroke-linecap: butt; stroke-dashoffset: 0; stroke-linejoin: miter; stroke-miterlimit: 4; fill: rgb(5,86,138); fill-rule: nonzero; opacity: 1;" vector-effect="non-scaling-stroke"  transform=" translate(-12, -1043.4)" d="M 3 1037.4 L 3 1039.4 L 3 1041.4 L 3 1047.4 C 3 1048.5 3.8954 1049.4 5 1049.4 L 19 1049.4 C 20.105 1049.4 21 1048.5 21 1047.4 L 21 1041.4 L 21 1039.4 L 21 1037.4 L 3 1037.4 z" stroke-linecap="round" />
</g>
<g transform="matrix(24.39 0 0 24.39 831.88 819.69)"  >
<path style="stroke: none; stroke-width: 1; stroke-dasharray: none; stroke-linecap: butt; stroke-dashoffset: 0; stroke-linejoin: miter; stroke-miterlimit: 4; fill: rgb(135,156,171); fill-rule: nonzero; opacity: 1;" vector-effect="non-scaling-stroke"  transform=" translate(-12, -11.5)" d="M 5 3 C 3.8954 3 3 3.8954 3 5 L 3 7 L 3 9 L 3 10 L 3 12 L 3 18 C 3 19.105 3.8954 20 5 20 L 19 20 C 20.105 20 21 19.105 21 18 L 21 12 L 21 10 L 21 9 L 21 7 L 21 6 L 18 3 L 17 3 L 15 3 L 5 3 z" stroke-linecap="round" />
</g>
<g transform="matrix(24.39 0 0 24.39 831.88 685.54)"  >
<path style="stroke: none; stroke-width: 1; stroke-dasharray: none; stroke-linecap: butt; stroke-dashoffset: 0; stroke-linejoin: miter; stroke-miterlimit: 4; fill: rgb(72,88,99); fill-rule: nonzero; opacity: 1;" vector-effect="non-scaling-stroke"  transform=" translate(-12, -6)" d="M 6 3 L 6 4 L 6 5 L 6 7 C 6 8.1046 6.8954 9 8 9 L 9 9 L 13 9 L 15 9 L 16 9 C 17.105 9 18 8.1046 18 7 L 18 5.1562 L 18 5 L 18 4 L 18 3 L 6 3 z" stroke-linecap="round" />
</g>
<g transform="matrix(24.39 0 0 24.39 831.88 941.64)"  >
<path style="stroke: none; stroke-width: 1; stroke-dasharray: none; stroke-linecap: butt; stroke-dashoffset: 0; stroke-linejoin: miter; stroke-miterlimit: 4; fill: rgb(236,240,241); fill-rule: nonzero; opacity: 1;" vector-effect="non-scaling-stroke"  transform=" translate(-12, -1044.9)" d="M 8 1041.4 C 6.8954 1041.4 6 1042.3000000000002 6 1043.4 L 6 1045.2 L 6 1048.4 L 18 1048.4 L 18 1045.2 L 18 1043.4 C 18 1042.3000000000002 17.105 1041.4 16 1041.4 L 13 1041.4 L 8 1041.4 z" stroke-linecap="round" />
</g>
<g transform="matrix(24.39 0 0 24.39 831.88 1039.2)"  >
<rect style="stroke: none; stroke-width: 1; stroke-dasharray: none; stroke-linecap: butt; stroke-dashoffset: 0; stroke-linejoin: miter; stroke-miterlimit: 4; fill: rgb(189,195,199); fill-rule: nonzero; opacity: 1;" vector-effect="non-scaling-stroke"  x="-6" y="-0.5" rx="0" ry="0" width="12" height="1" />
</g>
<g transform="matrix(24.39 0 0 24.39 831.88 673.35)"  >
<path style="stroke: none; stroke-width: 1; stroke-dasharray: none; stroke-linecap: butt; stroke-dashoffset: 0; stroke-linejoin: miter; stroke-miterlimit: 4; fill: rgb(236,240,241); fill-rule: nonzero; opacity: 1;" vector-effect="non-scaling-stroke"  transform=" translate(-12, -1033.9)" d="M 7 1031.4 L 7 1032.4 L 7 1034.4 C 7 1035.5 7.8954 1036.4 9 1036.4 L 10 1036.4 L 14 1036.4 L 15 1036.4 C 16.105 1036.4 17 1035.5 17 1034.4 L 17 1032.5 L 17 1032.4 L 17 1031.4 L 7 1031.4 z" stroke-linecap="round" />
</g>
<g transform="matrix(24.39 0 0 24.39 783.11 673.35)"  >
<path style="stroke: none; stroke-width: 1; stroke-dasharray: none; stroke-linecap: butt; stroke-dashoffset: 0; stroke-linejoin: miter; stroke-miterlimit: 4; fill: rgb(149,165,166); fill-rule: nonzero; opacity: 1;" vector-effect="non-scaling-stroke"  transform=" translate(-10, -5.5)" d="M 8 4 L 8 6 C 8 6.5523 8.4477 7 9 7 L 10 7 L 11 7 C 11.552 7 12 6.5523 12 6 L 12 4 L 10 4 L 8 4 z" stroke-linecap="round" />
</g>
<g transform="matrix(24.39 0 0 24.39 831.88 917.25)"  >
<rect style="stroke: none; stroke-width: 1; stroke-dasharray: none; stroke-linecap: butt; stroke-dashoffset: 0; stroke-linejoin: miter; stroke-miterlimit: 4; fill: rgb(189,195,199); fill-rule: nonzero; opacity: 1;" vector-effect="non-scaling-stroke"  x="-4" y="-0.5" rx="0" ry="0" width="8" height="1" />
</g>
<g transform="matrix(24.39 0 0 24.39 831.88 966.03)"  >
<rect style="stroke: none; stroke-width: 1; stroke-dasharray: none; stroke-linecap: butt; stroke-dashoffset: 0; stroke-linejoin: miter; stroke-miterlimit: 4; fill: rgb(189,195,199); fill-rule: nonzero; opacity: 1;" vector-effect="non-scaling-stroke"  x="-4" y="-0.5" rx="0" ry="0" width="8" height="1" />
</g>
<g transform="matrix(24.39 0 0 24.39 783.11 624.57)"  >
<rect style="stroke: none; stroke-width: 1; stroke-dasharray: none; stroke-linecap: butt; stroke-dashoffset: 0; stroke-linejoin: miter; stroke-miterlimit: 4; fill: rgb(189,195,199); fill-rule: nonzero; opacity: 1;" vector-effect="non-scaling-stroke"  x="-2" y="-0.5" rx="0" ry="0" width="4" height="1" />
</g>
</svg>