<?xml version="1.0" encoding="UTF-8" standalone="no" ?>
<!DOCTYPE svg PUBLIC "-//W3C//DTD SVG 1.1//EN" "http://www.w3.org/Graphics/SVG/1.1/DTD/svg11.dtd">
<svg xmlns="http://www.w3.org/2000/svg" xmlns:xlink="http://www.w3.org/1999/xlink" version="1.1" width="1080" height="1080" viewBox="0 0 1080 1080" xml:space="preserve">
<desc>Created with Fabric.js 5.2.4</desc>
<defs>
</defs>
<rect x="0" y="0" width="100%" height="100%" fill="transparent"></rect>
<g transform="matrix(1 0 0 1 540 540)" id="43f6f3eb-c55a-4d32-bc30-5d240e43808e"  >
<rect style="stroke: none; stroke-width: 1; stroke-dasharray: none; stroke-linecap: butt; stroke-dashoffset: 0; stroke-linejoin: miter; stroke-miterlimit: 4; fill: rgb(255,255,255); fill-rule: nonzero; opacity: 1; visibility: hidden;" vector-effect="non-scaling-stroke"  x="-540" y="-540" rx="0" ry="0" width="1080" height="1080" />
</g>
<g transform="matrix(1 0 0 1 540 540)" id="f8affa75-95f1-48d9-9041-97dc00cabdda"  >
</g>
<g transform="matrix(9.1 0 0 9.1 540 540)"  >
<g style="" vector-effect="non-scaling-stroke"   >
		<g transform="matrix(1 0 0 1 2.57 -1.28)"  >
<path style="stroke: none; stroke-width: 1; stroke-dasharray: none; stroke-linecap: butt; stroke-dashoffset: 0; stroke-linejoin: miter; stroke-miterlimit: 4; fill: rgb(224,241,248); fill-rule: nonzero; opacity: 1;" vector-effect="non-scaling-stroke"  transform=" translate(-47.85, -43.75)" d="M 54.757 48.167 C 63.425 52.934000000000005 70.917 50.935 77.231 44.620000000000005 L 83.71499999999999 38.13 C 89.41399999999999 32.438 88.12799999999999 25.856 84.77499999999999 17.811000000000003 L 77.27499999999999 25.316000000000003 C 73.72399999999999 28.866000000000003 69.67999999999999 30.582 65.46699999999998 26.360000000000003 L 65.23799999999999 26.140000000000004 C 61.02399999999999 21.923000000000005 62.734999999999985 17.879000000000005 66.28699999999999 14.328000000000005 L 73.78999999999999 6.825000000000005 C 65.755 3.4740000000000046 59.17099999999999 2.1920000000000046 53.47999999999999 7.885000000000005 L 46.98499999999999 14.374000000000006 C 40.67699999999999 20.683000000000007 37.894999999999996 28.608000000000004 42.657999999999994 37.27900000000001 C 41.82399999999999 37.59000000000001 41.04899999999999 38.046000000000014 40.400999999999996 38.69500000000001 L 9.942 69.15 C 7.08 72.013 7.523 77.1 10.928 80.5 L 11.101 80.674 C 14.513000000000002 84.081 19.578000000000003 84.52300000000001 22.454 81.649 L 42.837 61.263999999999996" stroke-linecap="round" />
</g>
		<g transform="matrix(1 0 0 1 2.56 -1.28)"  >
<path style="stroke: none; stroke-width: 1; stroke-dasharray: none; stroke-linecap: butt; stroke-dashoffset: 0; stroke-linejoin: miter; stroke-miterlimit: 4; fill: rgb(69,75,83); fill-rule: nonzero; opacity: 1;" vector-effect="non-scaling-stroke"  transform=" translate(-47.84, -43.75)" d="M 17.672 86.04 C 14.760000000000002 86.04 11.703 84.82600000000001 9.325000000000001 82.45200000000001 L 9.146 82.27100000000002 C 7.087000000000001 80.21500000000002 5.819000000000001 77.57400000000001 5.582000000000001 74.84000000000002 C 5.330000000000001 71.94300000000001 6.248000000000001 69.29100000000001 8.166 67.37300000000002 L 38.623999999999995 36.91800000000002 C 38.858 36.68300000000002 39.10699999999999 36.46200000000002 39.37199999999999 36.255000000000024 C 35.95099999999999 28.149000000000022 37.97599999999999 19.829000000000025 45.20799999999999 12.597000000000023 L 51.70399999999999 6.107000000000022 C 58.654999999999994 -0.848999999999978 66.892 1.2270000000000225 74.756 4.505000000000022 C 75.529 4.8280000000000225 76.092 5.515000000000022 76.254 6.337000000000022 C 76.41600000000001 7.159000000000022 76.158 8.008000000000022 75.566 8.601000000000022 L 68.063 16.10400000000002 C 64.202 19.96500000000002 64.851 22.19800000000002 67.015 24.36300000000002 L 67.204 24.54500000000002 C 69.05799999999999 26.40000000000002 70.363 26.41900000000002 71.187 26.27600000000002 C 72.45 26.056000000000022 73.89999999999999 25.13500000000002 75.49799999999999 23.53800000000002 L 82.99699999999999 16.03400000000002 C 83.58899999999998 15.44100000000002 84.43799999999999 15.18200000000002 85.26199999999999 15.34600000000002 C 86.08399999999999 15.50800000000002 86.77099999999999 16.07100000000002 87.09399999999998 16.84400000000002 C 90.37399999999998 24.71400000000002 92.45099999999998 32.95500000000002 85.48999999999998 39.90700000000002 L 79.00799999999998 46.39500000000002 C 71.42099999999998 53.98300000000002 62.61799999999998 55.356000000000016 53.54599999999998 50.368000000000016 C 52.32999999999998 49.70000000000002 51.88699999999998 48.17200000000002 52.555999999999976 46.95600000000002 C 53.223999999999975 45.740000000000016 54.748999999999974 45.295000000000016 55.967999999999975 45.966000000000015 C 63.071999999999974 49.872000000000014 69.44699999999997 48.85200000000002 75.45399999999998 42.844000000000015 L 81.93699999999998 36.35500000000002 C 85.44299999999998 32.853000000000016 86.04199999999999 28.97200000000002 83.80699999999999 22.334000000000017 L 79.05099999999999 27.093000000000018 C 76.67399999999999 29.46900000000002 74.38399999999999 30.822000000000017 72.04899999999999 31.228000000000016 C 69.067 31.749000000000017 66.25399999999999 30.707000000000015 63.68799999999999 28.135000000000016 L 63.499999999999986 27.955000000000016 C 60.786999999999985 25.242000000000015 57.36999999999998 19.689000000000014 64.50999999999999 12.553000000000017 L 69.26899999999999 7.7940000000000165 C 62.63299999999999 5.558000000000016 58.757999999999996 6.159000000000017 55.25699999999999 9.662000000000017 L 48.75999999999999 16.152000000000015 C 42.40499999999999 22.508000000000017 41.09199999999999 29.211000000000013 44.85999999999999 36.070000000000014 C 45.21199999999999 36.71100000000001 45.26699999999999 37.47100000000002 45.01199999999999 38.15600000000001 C 44.757999999999996 38.84000000000001 44.217999999999996 39.38000000000001 43.53399999999999 39.63500000000001 C 42.98299999999999 39.84000000000001 42.52799999999999 40.12100000000001 42.17999999999999 40.47100000000001 L 11.719 70.927 C 10.869 71.778 10.466999999999999 73.013 10.588 74.406 C 10.723999999999998 75.962 11.475 77.495 12.703 78.72200000000001 L 12.882 78.90200000000002 C 15.296 81.31200000000001 18.796 81.75200000000001 20.677 79.87100000000001 L 41.06 59.487 C 42.04 58.505 43.632000000000005 58.505 44.613 59.487 C 45.594 60.467 45.594 62.058 44.613 63.04 L 24.229 83.425 C 22.475 85.179 20.125 86.039 17.672 86.04 z" stroke-linecap="round" />
</g>
		<g transform="matrix(1 0 0 1 13.8 20.09)"  >
<path style="stroke: none; stroke-width: 1; stroke-dasharray: none; stroke-linecap: butt; stroke-dashoffset: 0; stroke-linejoin: miter; stroke-miterlimit: 4; fill: rgb(123,167,201); fill-rule: nonzero; opacity: 1;" vector-effect="non-scaling-stroke"  transform=" translate(-59.07, -65.13)" d="M 38.28 55.838 C 38.591 56.666000000000004 39.049 57.434 39.697 58.086 L 65.47200000000001 84.205 C 68.334 87.069 73.412 86.635 76.81500000000001 83.23 L 76.98800000000001 83.045 C 80.39700000000002 79.65 80.83200000000001 74.57000000000001 77.97300000000001 71.70400000000001 L 52.2 45.581 C 51.555 44.927 50.777 44.479000000000006 49.955000000000005 44.166000000000004 L 38.28 55.838 z" stroke-linecap="round" />
</g>
		<g transform="matrix(1 0 0 1 13.8 20.09)"  >
<path style="stroke: none; stroke-width: 1; stroke-dasharray: none; stroke-linecap: butt; stroke-dashoffset: 0; stroke-linejoin: miter; stroke-miterlimit: 4; fill: rgb(69,75,83); fill-rule: nonzero; opacity: 1;" vector-effect="non-scaling-stroke"  transform=" translate(-59.07, -65.13)" d="M 70.255 88.61 L 70.255 88.61 C 67.719 88.61 65.39 87.676 63.69499999999999 85.981 L 37.909 59.851 C 37.051 58.988 36.382 57.933 35.928 56.72 C 35.582 55.798 35.806999999999995 54.757999999999996 36.504 54.062 L 48.179 42.39 C 48.879000000000005 41.689 49.924 41.466 50.851 41.819 C 52.094 42.293 53.150999999999996 42.965 53.991 43.818000000000005 L 79.762 69.94 C 81.668 71.851 82.585 74.502 82.334 77.393 C 82.098 80.127 80.82900000000001 82.767 78.76100000000001 84.826 L 78.65 84.948 C 76.304 87.297 73.265 88.61 70.255 88.61 z M 41.419 56.253 C 41.439 56.274 41.458999999999996 56.294 41.48 56.315 L 67.261 82.44 C 68.205 83.384 69.411 83.586 70.255 83.586 L 70.255 83.586 C 71.942 83.586 73.685 82.809 75.038 81.454 L 75.154 81.32799999999999 C 76.443 80.04299999999999 77.194 78.51399999999998 77.328 76.96099999999998 C 77.44800000000001 75.56899999999999 77.046 74.33299999999998 76.194 73.47999999999999 L 50.412 47.346 C 50.397 47.331999999999994 50.384 47.318 50.37 47.303999999999995 L 41.419 56.253 z" stroke-linecap="round" />
</g>
		<g transform="matrix(1 0 0 1 -15.3 -9.19)"  >
<path style="stroke: none; stroke-width: 1; stroke-dasharray: none; stroke-linecap: butt; stroke-dashoffset: 0; stroke-linejoin: miter; stroke-miterlimit: 4; fill: rgb(69,75,83); fill-rule: nonzero; opacity: 1;" vector-effect="non-scaling-stroke"  transform=" translate(-29.97, -35.85)" d="M 43.96 52.352 C 43.317 52.352 42.674 52.107 42.184 51.616 L 14.205 23.639 C 13.224 22.659 13.224 21.067999999999998 14.205 20.086 C 15.185 19.104 16.777 19.104 17.758 20.086 L 45.736999999999995 48.063 C 46.717999999999996 49.043 46.717999999999996 50.634 45.736999999999995 51.616 C 45.246 52.106 44.603 52.352 43.96 52.352 z" stroke-linecap="round" />
</g>
		<g transform="matrix(1 0 0 1 -33.51 -27.61)"  >
<polygon style="stroke: none; stroke-width: 1; stroke-dasharray: none; stroke-linecap: butt; stroke-dashoffset: 0; stroke-linejoin: miter; stroke-miterlimit: 4; fill: rgb(253,228,151); fill-rule: nonzero; opacity: 1;" vector-effect="non-scaling-stroke"  points="-0.19,8.84 8.84,-0.19 -4.33,-8.84 -8.84,-4.33 " />
</g>
		<g transform="matrix(1 0 0 1 -33.51 -27.61)"  >
<path style="stroke: none; stroke-width: 1; stroke-dasharray: none; stroke-linecap: butt; stroke-dashoffset: 0; stroke-linejoin: miter; stroke-miterlimit: 4; fill: rgb(69,75,83); fill-rule: nonzero; opacity: 1;" vector-effect="non-scaling-stroke"  transform=" translate(-11.76, -17.43)" d="M 11.578 28.785 C 11.492999999999999 28.785 11.408 28.78 11.322999999999999 28.771 C 10.569999999999999 28.695 9.892999999999999 28.284000000000002 9.477999999999998 27.652 L 0.8269999999999982 14.482000000000001 C 0.17299999999999816 13.487000000000002 0.30699999999999816 12.169 1.1479999999999981 11.327000000000002 L 5.654999999999998 6.812000000000002 C 6.496999999999997 5.968000000000002 7.813999999999997 5.833000000000002 8.812999999999997 6.488000000000002 L 21.980999999999995 15.138000000000002 C 22.611999999999995 15.552000000000001 23.022999999999996 16.23 23.099999999999994 16.981 C 23.176999999999996 17.733 22.911999999999995 18.479000000000003 22.377999999999993 19.013 L 13.354999999999993 28.047000000000004 C 12.882 28.522 12.241 28.785 11.578 28.785 z M 6.148 13.432 L 11.982 22.313000000000002 L 16.644 17.645000000000003 L 7.764999999999999 11.812000000000003 L 6.148 13.432 z" stroke-linecap="round" />
</g>
</g>
</g>
</svg>